<svg width="32" height="32" viewBox="0 0 32 32" fill="none" xmlns="http://www.w3.org/2000/svg">
<g id="Logo">
<path id="Vector" d="M0 31.6679L14.9595 0.710644C15.0124 0.60148 15.0925 0.507858 15.192 0.438837C15.2916 0.369816 15.4072 0.327733 15.5278 0.316661C15.6483 0.305589 15.7696 0.325903 15.88 0.375637C15.9904 0.425371 16.0862 0.502842 16.158 0.600551L30.5829 20.2129C34.0764 24.9614 30.6992 31.6784 24.814 31.6863C23.6608 31.6879 22.5242 31.4109 21.5004 30.8787C20.4766 30.3464 19.5959 29.5746 18.9326 28.6285L16.4272 25.0518C16.015 24.4664 15.3988 24.0573 14.7003 23.9057C14.0019 23.754 13.2721 23.8707 12.6553 24.2327L0 31.6679Z" fill="url(#paint0_linear_1488_7776)"/>
<path id="Vector_2" d="M30.5829 20.2129L16.158 0.600551C16.0862 0.502842 15.9904 0.425371 15.88 0.375637C15.7696 0.325903 15.6483 0.305589 15.5278 0.316661C15.4072 0.327733 15.2916 0.369816 15.192 0.438837C15.0925 0.507858 15.0124 0.60148 14.9595 0.710644L0 31.6679L18.6281 20.7149C19.9076 19.9639 21.7818 20.3217 22.6366 21.5354L25.142 25.1082C25.7946 26.0537 26.6663 26.8262 27.6824 27.3593C28.6984 27.8923 29.8283 28.17 30.975 28.1685C32.359 25.8316 32.4479 22.7438 30.5829 20.2129Z" fill="url(#paint1_linear_1488_7776)"/>
</g>
<defs>
<linearGradient id="paint0_linear_1488_7776" x1="21.7021" y1="15.6703" x2="14.4779" y2="18.2276" gradientUnits="userSpaceOnUse">
<stop stop-color="#FF1101"/>
<stop offset="1" stop-color="#990A00"/>
</linearGradient>
<linearGradient id="paint1_linear_1488_7776" x1="7.99076" y1="16.0464" x2="31.1232" y2="27.8001" gradientUnits="userSpaceOnUse">
<stop stop-color="#990A00"/>
<stop offset="0.4" stop-color="#FF1101"/>
</linearGradient>
</defs>
</svg>
