<svg width="28" height="28" viewBox="0 0 28 28" fill="none" xmlns="http://www.w3.org/2000/svg">
<path d="M0 27.9836L13.0895 0.354254C13.1358 0.256825 13.2059 0.173268 13.293 0.111666C13.3801 0.050065 13.4813 0.0125056 13.5868 0.00262409C13.6922 -0.0072574 13.7984 0.0108726 13.895 0.0552604C13.9916 0.0996482 14.0754 0.16879 14.1382 0.255996L26.76 17.7601C29.8168 21.998 26.8618 27.993 21.7122 28C20.7032 28.0015 19.7087 27.7543 18.8129 27.2792C17.9171 26.8042 17.1464 26.1153 16.5661 25.271L14.3738 22.0787C14.0131 21.5562 13.4739 21.1912 12.8628 21.0558C12.2516 20.9204 11.6131 21.0246 11.0734 21.3477L0 27.9836Z" fill="url(#paint0_linear_733_83695)"/>
<path d="M26.76 17.7601L14.1382 0.255996C14.0754 0.16879 13.9916 0.0996482 13.895 0.0552604C13.7984 0.0108726 13.6922 -0.0072574 13.5868 0.00262409C13.4813 0.0125056 13.3801 0.050065 13.293 0.111666C13.2059 0.173268 13.1358 0.256825 13.0895 0.354254L0 27.9836L16.2996 18.2081C17.4192 17.5378 19.0591 17.8571 19.807 18.9403L21.9993 22.1291C22.5703 22.9729 23.3331 23.6624 24.2221 24.1381C25.1111 24.6139 26.0998 24.8618 27.1031 24.8604C28.3142 22.7747 28.3919 20.0188 26.76 17.7601Z" fill="url(#paint1_linear_733_83695)"/>
<defs>
<linearGradient id="paint0_linear_733_83695" x1="18.9893" y1="13.7057" x2="12.6407" y2="15.9091" gradientUnits="userSpaceOnUse">
<stop stop-color="#FF1101"/>
<stop offset="1" stop-color="#990A00"/>
</linearGradient>
<linearGradient id="paint1_linear_733_83695" x1="6.99191" y1="14.0414" x2="27.3954" y2="24.2052" gradientUnits="userSpaceOnUse">
<stop stop-color="#990A00"/>
<stop offset="0.4" stop-color="#FF1101"/>
</linearGradient>
</defs>
</svg>
