<svg width="24" height="20" viewBox="0 0 24 20" fill="none" xmlns="http://www.w3.org/2000/svg">
<g id="Group 25563">
<path id="Vector" d="M2.62265 10.9277H9.94725V12.2031H2.62265V10.9277ZM2.62265 12.938H9.94725V14.2134H2.62265V12.938ZM13.109 14.8955H17.2897V16.1709H13.109V14.8955Z" fill="#EA5148"/>
<path id="Vector_2" d="M23.8639 1.47393C23.7642 1.19719 23.6105 0.942988 23.4118 0.726066C23.2131 0.509144 22.9733 0.333812 22.7063 0.21023C22.4104 0.071361 22.0875 -0.000425345 21.7606 1.89591e-06C21.3343 0.000885276 20.9171 0.122929 20.5575 0.351904C20.1979 0.580879 19.9108 0.90735 19.7297 1.29325L16.8754 7.41409H2.48086C1.11278 7.41409 0 8.42293 0 9.66304V17.3826C0 18.6225 1.11278 19.6313 2.48086 19.6313H17.9444C19.3125 19.6313 20.4255 18.6225 20.4255 17.3826V10.3989L23.7887 3.18637C23.9138 2.92009 23.9849 2.63163 23.9979 2.33769C24.0108 2.04375 23.9653 1.75016 23.8639 1.47393ZM21.7604 1.27519C21.9011 1.27519 22.0378 1.3058 22.167 1.36595C22.4004 1.47479 22.5773 1.66801 22.6653 1.90991C22.7533 2.15181 22.7418 2.41369 22.633 2.6473L22.2999 3.36195L20.5524 2.54697L20.8855 1.83232C20.9635 1.66608 21.0872 1.52545 21.2421 1.42681C21.397 1.32817 21.5767 1.27559 21.7604 1.27519ZM17.0446 10.0695L18.7919 10.8842L18.6112 11.2715L17.0285 12.3849L16.8641 10.4565L17.0446 10.0695ZM19.331 9.7283L17.5835 8.91353L20.0133 3.70248L21.7608 4.51746L19.331 9.7283ZM17.9444 18.3561H2.48086C1.81616 18.3561 1.2754 17.9195 1.2754 17.3828V9.66304C1.2754 9.12631 1.81616 8.68949 2.48086 8.68949H16.2806L15.5641 10.2261L15.9461 14.7057L19.1501 12.4517V17.3824C19.1501 17.9195 18.6093 18.3561 17.9444 18.3561Z" fill="#EA5148"/>
</g>
</svg>
