<svg width="21" height="20" viewBox="0 0 21 20" fill="none" xmlns="http://www.w3.org/2000/svg">
<g clip-path="url(#clip0_573_1626)">
<path d="M18 2.5L12.5833 17.5C12.5468 17.5798 12.4881 17.6474 12.4142 17.6948C12.3403 17.7422 12.2544 17.7674 12.1667 17.7674C12.0789 17.7674 11.993 17.7422 11.9191 17.6948C11.8453 17.6474 11.7866 17.5798 11.75 17.5L8.83333 11.6667L3 8.75C2.92021 8.71344 2.8526 8.65474 2.8052 8.58088C2.7578 8.50701 2.7326 8.4211 2.7326 8.33333C2.7326 8.24557 2.7578 8.15965 2.8052 8.08579C2.8526 8.01193 2.92021 7.95323 3 7.91667L18 2.5Z" stroke="#8E8E8E" stroke-width="1.5" stroke-linecap="round" stroke-linejoin="round"/>
</g>
<defs>
<clipPath id="clip0_573_1626">
<rect width="20" height="20" fill="white" transform="translate(0.5)"/>
</clipPath>
</defs>
</svg>
