<svg width="25" height="24" viewBox="0 0 25 24" fill="none" xmlns="http://www.w3.org/2000/svg">
<g id="Tabler Icon" clip-path="url(#clip0_1110_7906)">
<path id="Vector" d="M7.659 3.185C7.915 3.066 8.199 3 8.5 3H16.5C17.0304 3 17.5391 3.21071 17.9142 3.58579C18.2893 3.96086 18.5 4.46957 18.5 5V14M18.5 18V19C18.5 19.5304 18.2893 20.0391 17.9142 20.4142C17.5391 20.7893 17.0304 21 16.5 21H8.5C7.96957 21 7.46086 20.7893 7.08579 20.4142C6.71071 20.0391 6.5 19.5304 6.5 19V6" stroke="white" stroke-width="1.5" stroke-linecap="round" stroke-linejoin="round"/>
<path id="Vector_2" d="M11.5 4H13.5" stroke="white" stroke-width="1.5" stroke-linecap="round" stroke-linejoin="round"/>
<path id="Vector_3" d="M3.5 3L21.5 21" stroke="white" stroke-width="1.5" stroke-linecap="round" stroke-linejoin="round"/>
<path id="Vector_4" d="M12.5 17V17.01" stroke="white" stroke-width="1.5" stroke-linecap="round" stroke-linejoin="round"/>
</g>
<defs>
<clipPath id="clip0_1110_7906">
<rect width="24" height="24" fill="white" transform="translate(0.5)"/>
</clipPath>
</defs>
</svg>
