<svg width="32" height="32" viewBox="0 0 32 32" fill="none" xmlns="http://www.w3.org/2000/svg">
<g id="Frame 25034">
<g id="Group 25559">
<path id="Vector" fill-rule="evenodd" clip-rule="evenodd" d="M22.8393 16.6073C21.8123 16.5657 21.1715 17.2832 20.1246 17.1601C19.2939 17.0628 18.9023 16.5006 17.8114 16.6073C16.8846 16.6976 16.2872 17.2574 15.4988 17.1601C14.6922 17.0604 14.1288 16.4431 12.9851 16.6571C12.4839 16.7509 12.1093 17.0868 11.5782 17.1601C10.502 17.3084 9.87823 16.6067 8.86292 16.5569C8.71343 14.1734 9.60447 12.2963 10.8742 11.0266C12.0607 9.83951 13.8914 8.86524 16.3037 9.01531C20.1814 9.25506 22.946 12.3227 22.8393 16.6073Z" fill="#F36F21"/>
<path id="Vector_2" fill-rule="evenodd" clip-rule="evenodd" d="M22.7408 17.36C22.814 17.9691 22.1399 17.8923 21.7858 18.0136C21.2412 18.2 20.9604 18.5072 20.1767 18.4158C19.1942 18.2985 18.8202 17.6537 17.5124 17.9128C16.9262 18.03 16.4648 18.5318 15.5515 18.4158C14.6933 18.3067 14.3017 17.7334 13.1381 17.863C12.6181 17.9216 12.1415 18.3378 11.5295 18.4158C10.4439 18.5541 9.83891 17.8114 9.01587 17.8126C9.08211 17.6244 8.8658 17.4649 9.01587 17.36C9.81018 17.4415 10.5166 17.9755 11.4287 17.9128C12.1808 17.8618 12.7998 17.2041 13.8908 17.36C14.5491 17.4544 15.0679 17.8782 15.6494 17.9128C16.8464 17.9855 17.2322 17.1414 18.5658 17.36C19.349 17.4884 19.6649 17.9861 20.6761 17.9128C21.4611 17.8565 21.8421 17.3694 22.7408 17.36Z" fill="#F36F21"/>
<path id="Vector_3" fill-rule="evenodd" clip-rule="evenodd" d="M22.3891 18.6168C22.307 18.7781 22.2397 18.9464 22.188 19.1198C21.7308 19.1843 21.3193 19.5565 20.8808 19.6222C19.6931 19.8016 18.6567 18.8537 17.3635 19.1702C16.5698 19.3637 16.1436 19.7881 15.3024 19.5724C14.2472 19.3015 13.8463 18.907 12.7888 19.1702C12.4189 19.2623 12.1281 19.5495 11.6826 19.6222C10.8273 19.7629 10.2757 19.3531 9.52065 19.1702C9.49662 18.9428 9.36003 18.8279 9.31958 18.6168C9.94975 18.7927 10.5506 19.1732 11.23 19.1702C11.8626 19.1667 12.3163 18.7781 12.9887 18.6168C13.9383 18.3894 14.7678 19.1632 15.8025 19.1702C16.6032 19.1755 17.3418 18.5717 18.115 18.5664C18.873 18.5617 19.56 19.1526 20.3772 19.1702C21.1733 19.1866 21.6129 18.8115 22.3891 18.6168Z" fill="#F36F21"/>
<path id="Vector_4" fill-rule="evenodd" clip-rule="evenodd" d="M20.1245 21.5831C19.9926 21.7537 19.7611 21.8229 19.6216 21.9852C19.0746 21.7115 18.7235 21.5368 18.1637 21.5327C17.343 21.5274 16.5985 22.1271 15.8511 22.1365C15.1037 22.1459 14.3773 21.5386 13.5373 21.5315C13.0009 21.528 12.5964 21.6746 12.0794 21.9841C11.8795 21.8827 11.7488 21.7121 11.5266 21.6324C12.3895 21.47 12.9441 20.9576 13.8896 21.0796C14.5532 21.1651 15.1013 21.6206 15.7497 21.6324C16.4607 21.6452 16.9848 21.1839 17.7105 21.0796C18.669 20.9453 19.2182 21.4964 20.1245 21.5831Z" fill="#F36F21"/>
<path id="Vector_5" fill-rule="evenodd" clip-rule="evenodd" d="M18.9176 22.3374C18.7505 22.5385 18.3589 22.5133 18.1637 22.6891C17.3975 22.5273 16.8571 23.1241 16.1524 23.1921C15.1559 23.2882 14.5451 22.6469 13.4881 22.6891C13.2947 22.5467 13.0262 22.481 12.7847 22.3878C13.5303 21.8262 14.5708 22.637 15.3992 22.7395C16.6976 22.9002 17.669 21.886 18.9176 22.3374Z" fill="#F36F21"/>
<path id="Vector_6" fill-rule="evenodd" clip-rule="evenodd" d="M10.1696 20.2258C10.1789 20.1672 10.22 20.1977 10.22 20.2258C11.6415 20.8672 12.7741 19.5324 14.1417 19.8741C14.756 20.0277 15.0333 20.4128 15.9513 20.3771C16.7363 20.3466 17.6273 19.5781 18.7651 19.8741C19.475 20.0588 19.6913 20.4146 20.5753 20.3771C20.871 20.3705 21.1619 20.302 21.4294 20.176C21.3239 20.4885 21.1064 20.8027 20.7764 20.8795C20.0143 21.0553 19.1608 20.3724 18.3143 20.3261C17.0938 20.2598 16.6261 21.1274 15.2977 20.8291C14.9524 20.7511 14.5878 20.4855 14.3926 20.4269C13.2202 20.0752 12.6533 20.6227 11.8285 20.8291C10.8408 21.0764 10.5389 20.7323 10.1696 20.2258Z" fill="#F36F21"/>
<path id="Vector_7" d="M7.71743 17.9416C7.65391 17.3768 7.42776 16.8427 7.06645 16.4041C6.70513 15.9655 6.22422 15.6412 5.68211 15.4707C5.68211 15.4707 7.21212 14.8534 7.05794 12.7612C6.90377 10.6691 5.62349 10.1362 5.62349 10.1362C5.62349 10.1362 5.0197 9.57462 3.08228 9.448H0V22.5046H3.40704C3.40704 22.5046 5.13401 22.7039 6.32694 21.7326C7.51988 20.7612 7.88567 19.3315 7.71743 17.9416ZM1.87176 11.2383C3.04125 11.172 4.66446 11.0976 5.14456 12.4429C5.2104 12.6288 5.24506 12.8243 5.24715 13.0215C5.26063 14.1101 4.58942 14.6823 3.5917 14.8605C3.48149 14.8798 1.87176 15.0181 1.87176 14.9232V11.2383ZM3.89183 20.7495C3.76228 20.7724 1.87352 20.9347 1.87352 20.8234V16.4989C3.24642 16.4215 5.26825 16.4514 5.8316 18.0301C5.90859 18.2482 5.94919 18.4776 5.95177 18.7089C5.96584 19.9863 5.06073 20.5408 3.89008 20.7495H3.89183Z" fill="#818285"/>
<path id="Vector_8" d="M31.64 11.5818C31.64 11.5818 30.8486 9.49021 28.0366 9.448H24.0732V22.5204H25.9825V17.3237C25.9825 17.3237 28.5237 17.4363 29.7448 16.8465C30.9659 16.2568 31.4718 15.3587 31.4718 15.3587C31.4718 15.3587 32.5387 13.6763 31.64 11.5818ZM29.5777 14.9015C29.2295 15.2098 28.7617 15.3617 28.3133 15.4531C27.7818 15.5537 27.2407 15.5946 26.7 15.575C26.6578 15.575 25.938 15.5516 25.938 15.527V11.189H26.0077C27.2288 11.189 28.8843 10.9452 29.7173 12.0683C29.9381 12.3807 30.0673 12.7487 30.0901 13.1306C30.1399 13.7385 30.059 14.4753 29.5777 14.9015Z" fill="#818285"/>
</g>
</g>
</svg>
