<svg width="40" height="40" viewBox="0 0 40 40" fill="none" xmlns="http://www.w3.org/2000/svg">
<rect width="40" height="40" rx="20" fill="#F8F8F8"/>
<g clip-path="url(#clip0_1171_20846)">
<path d="M14.1667 24.1667C14.1667 24.6087 14.3423 25.0326 14.6548 25.3452C14.9674 25.6577 15.3913 25.8333 15.8334 25.8333C16.2754 25.8333 16.6993 25.6577 17.0119 25.3452C17.3244 25.0326 17.5 24.6087 17.5 24.1667C17.5 23.7246 17.3244 23.3007 17.0119 22.9882C16.6993 22.6756 16.2754 22.5 15.8334 22.5C15.3913 22.5 14.9674 22.6756 14.6548 22.9882C14.3423 23.3007 14.1667 23.7246 14.1667 24.1667Z" stroke="#EA5148" stroke-width="1.5" stroke-linecap="round" stroke-linejoin="round"/>
<path d="M22.5 24.1667C22.5 24.6087 22.6756 25.0326 22.9882 25.3452C23.3007 25.6577 23.7246 25.8333 24.1667 25.8333C24.6087 25.8333 25.0326 25.6577 25.3452 25.3452C25.6577 25.0326 25.8333 24.6087 25.8333 24.1667C25.8333 23.7246 25.6577 23.3007 25.3452 22.9882C25.0326 22.6756 24.6087 22.5 24.1667 22.5C23.7246 22.5 23.3007 22.6756 22.9882 22.9882C22.6756 23.3007 22.5 23.7246 22.5 24.1667Z" stroke="#EA5148" stroke-width="1.5" stroke-linecap="round" stroke-linejoin="round"/>
<path d="M14.1667 24.1667H12.5V19.1667M12.5 19.1667L14.1667 15H21.6667L25 19.1667M12.5 19.1667H25M25 19.1667H25.8333C26.2754 19.1667 26.6993 19.3423 27.0118 19.6548C27.3244 19.9674 27.5 20.3913 27.5 20.8333V24.1667H25.8333M22.5 24.1667H17.5M20 19.1667V15" stroke="#EA5148" stroke-width="1.5" stroke-linecap="round" stroke-linejoin="round"/>
</g>
<defs>
<clipPath id="clip0_1171_20846">
<rect width="20" height="20" fill="white" transform="translate(10 10)"/>
</clipPath>
</defs>
</svg>
