<svg width="32" height="32" viewBox="0 0 32 32" fill="none" xmlns="http://www.w3.org/2000/svg">
<g clip-path="url(#clip0_70_3202)">
<path d="M4 10.6666C4 9.60576 4.42143 8.58834 5.17157 7.8382C5.92172 7.08805 6.93913 6.66663 8 6.66663H24C25.0609 6.66663 26.0783 7.08805 26.8284 7.8382C27.5786 8.58834 28 9.60576 28 10.6666V21.3333C28 22.3942 27.5786 23.4116 26.8284 24.1617C26.0783 24.9119 25.0609 25.3333 24 25.3333H8C6.93913 25.3333 5.92172 24.9119 5.17157 24.1617C4.42143 23.4116 4 22.3942 4 21.3333V10.6666Z" stroke="#EA5148" stroke-width="1.5" stroke-linecap="round" stroke-linejoin="round"/>
<path d="M4 13.3334H28" stroke="#EA5148" stroke-width="1.5" stroke-linecap="round" stroke-linejoin="round"/>
<path d="M9.33334 20H9.34668" stroke="#EA5148" stroke-width="1.5" stroke-linecap="round" stroke-linejoin="round"/>
<path d="M14.6667 20H17.3333" stroke="#EA5148" stroke-width="1.5" stroke-linecap="round" stroke-linejoin="round"/>
</g>
<defs>
<clipPath id="clip0_70_3202">
<rect width="32" height="32" fill="white"/>
</clipPath>
</defs>
</svg>
