<svg width="16" height="16" viewBox="0 0 16 16" fill="none" xmlns="http://www.w3.org/2000/svg">
<g clip-path="url(#clip0_733_72959)">
<path d="M5.33331 6H10.6666" stroke="#EA5148" stroke-linecap="round" stroke-linejoin="round"/>
<path d="M5.33331 8.6665H9.33331" stroke="#EA5148" stroke-linecap="round" stroke-linejoin="round"/>
<path d="M12 2.6665C12.5304 2.6665 13.0391 2.87722 13.4142 3.25229C13.7893 3.62736 14 4.13607 14 4.6665V9.99984C14 10.5303 13.7893 11.039 13.4142 11.4141C13.0391 11.7891 12.5304 11.9998 12 11.9998H8.66667L5.33333 13.9998V11.9998H4C3.46957 11.9998 2.96086 11.7891 2.58579 11.4141C2.21071 11.039 2 10.5303 2 9.99984V4.6665C2 4.13607 2.21071 3.62736 2.58579 3.25229C2.96086 2.87722 3.46957 2.6665 4 2.6665H12Z" stroke="#EA5148" stroke-linecap="round" stroke-linejoin="round"/>
</g>
<defs>
<clipPath id="clip0_733_72959">
<rect width="16" height="16" fill="white"/>
</clipPath>
</defs>
</svg>
