<svg width="24" height="24" viewBox="0 0 24 24" fill="none" xmlns="http://www.w3.org/2000/svg">
<g id="Logo">
<path id="Vector" d="M0 23.986L11.2196 0.303646C11.2593 0.220136 11.3194 0.148515 11.394 0.0957141C11.4687 0.0429128 11.5554 0.0107191 11.6458 0.00224922C11.7362 -0.00622063 11.8272 0.00931941 11.91 0.0473661C11.9928 0.0854128 12.0646 0.144677 12.1185 0.219425L22.9372 15.2229C25.5573 18.8555 23.0244 23.994 18.6105 24C17.7456 24.0013 16.8931 23.7894 16.1253 23.3822C15.3575 22.975 14.6969 22.3846 14.1995 21.6608L12.3204 18.9246C12.0113 18.4768 11.5491 18.1639 11.0252 18.0478C10.5014 17.9318 9.95406 18.0211 9.49147 18.298L0 23.986Z" fill="url(#paint0_linear_1199_43844)"/>
<path id="Vector_2" d="M22.9372 15.2229L12.1185 0.219425C12.0646 0.144677 11.9928 0.0854128 11.91 0.0473661C11.8272 0.00931941 11.7362 -0.00622063 11.6458 0.00224922C11.5554 0.0107191 11.4687 0.0429128 11.394 0.0957141C11.3194 0.148515 11.2593 0.220136 11.2196 0.303646L0 23.986L13.9711 15.6069C14.9307 15.0324 16.3364 15.3061 16.9774 16.2346L18.8565 18.9678C19.3459 19.6911 19.9998 20.282 20.7618 20.6898C21.5238 21.0976 22.3712 21.3101 23.2312 21.3089C24.2693 19.5212 24.3359 17.159 22.9372 15.2229Z" fill="url(#paint1_linear_1199_43844)"/>
</g>
<defs>
<linearGradient id="paint0_linear_1199_43844" x1="16.2766" y1="11.7478" x2="10.8349" y2="13.6363" gradientUnits="userSpaceOnUse">
<stop stop-color="#FF1101"/>
<stop offset="1" stop-color="#990A00"/>
</linearGradient>
<linearGradient id="paint1_linear_1199_43844" x1="5.99307" y1="12.0355" x2="23.4818" y2="20.7473" gradientUnits="userSpaceOnUse">
<stop stop-color="#990A00"/>
<stop offset="0.4" stop-color="#FF1101"/>
</linearGradient>
</defs>
</svg>
