<svg width="140" height="140" viewBox="0 0 140 140" fill="none" xmlns="http://www.w3.org/2000/svg">
<path d="M70.3999 125.8C100.996 125.8 125.8 100.996 125.8 70.4C125.8 39.804 100.996 15 70.3999 15C39.8038 15 14.9999 39.804 14.9999 70.4C14.9999 100.996 39.8038 125.8 70.3999 125.8Z" fill="#FFF7E9"/>
<path d="M106.516 75.925C109.79 55.7574 96.0929 36.755 75.9236 33.4835C55.7591 30.2096 36.7573 43.9074 33.4835 64.075C30.2097 84.2426 43.9071 103.245 64.0764 106.516C84.2434 109.79 103.245 96.095 106.516 75.925Z" fill="#F25A51"/>
<path d="M106.516 75.925C109.79 55.7574 96.0929 36.755 75.9236 33.4835C55.7591 30.2096 36.7573 43.9074 33.4835 64.075C30.2097 84.2426 43.9071 103.245 64.0764 106.516C84.2434 109.79 103.245 96.095 106.516 75.925Z" stroke="#171717" stroke-width="1.5" stroke-linecap="round" stroke-linejoin="round"/>
<path d="M96.8631 74.3503C99.2716 59.4897 89.1796 45.4896 74.3195 43.0811C59.4593 40.6726 45.4597 50.7649 43.0513 65.6255C40.6429 80.4861 50.7349 94.4862 65.595 96.8947C80.4551 99.3032 94.4547 89.2108 96.8631 74.3503Z" fill="white"/>
<path d="M70.0023 58.3196L70.073 69.9306H75.5212" stroke="#171717" stroke-width="1.5" stroke-linecap="round" stroke-linejoin="round"/>
<path d="M70.0023 90.8564V87.3826" stroke="#171717" stroke-width="1.5" stroke-linecap="round" stroke-linejoin="round"/>
<path d="M84.748 55.2551L82.2908 57.7124" stroke="#171717" stroke-width="1.5" stroke-linecap="round" stroke-linejoin="round"/>
<path d="M90.8567 70.0012H87.3806" stroke="#171717" stroke-width="1.5" stroke-linecap="round" stroke-linejoin="round"/>
<path d="M84.748 84.7499L82.2908 82.2902" stroke="#171717" stroke-width="1.5" stroke-linecap="round" stroke-linejoin="round"/>
<path d="M55.2593 84.7499L57.714 82.2902" stroke="#171717" stroke-width="1.5" stroke-linecap="round" stroke-linejoin="round"/>
<path d="M49.1481 70.0012H52.6242" stroke="#171717" stroke-width="1.5" stroke-linecap="round" stroke-linejoin="round"/>
<path d="M55.2593 55.2551L57.714 57.7124" stroke="#171717" stroke-width="1.5" stroke-linecap="round" stroke-linejoin="round"/>
<path d="M96.8631 74.3503C99.2716 59.4897 89.1796 45.4896 74.3195 43.0811C59.4593 40.6726 45.4597 50.7649 43.0513 65.6255C40.6429 80.4861 50.7349 94.4862 65.595 96.8947C80.4551 99.3032 94.4547 89.2108 96.8631 74.3503Z" stroke="#171717" stroke-width="1.5" stroke-linecap="round" stroke-linejoin="round"/>
<path d="M99.1042 82.8343C99.0847 80.4708 98.132 78.2107 96.4538 76.5464C94.7756 74.882 92.5077 73.9481 90.1442 73.9481C87.7806 73.9481 85.5127 74.882 83.8345 76.5464C82.1563 78.2107 81.2037 80.4708 81.1841 82.8343V92.5739H85.0796V82.8343C85.0796 81.4912 85.6131 80.203 86.5629 79.2533C87.5126 78.3036 88.8007 77.77 90.1439 77.77C91.487 77.77 92.7751 78.3036 93.7248 79.2533C94.6746 80.203 95.2081 81.4912 95.2081 82.8343V92.5739H99.1042V82.8343Z" fill="#F25A51"/>
<path d="M99.1042 82.8343C99.0847 80.4708 98.132 78.2107 96.4538 76.5464C94.7756 74.882 92.5077 73.9481 90.1442 73.9481C87.7806 73.9481 85.5127 74.882 83.8345 76.5464C82.1563 78.2107 81.2037 80.4708 81.1841 82.8343V92.5739H85.0796V82.8343C85.0796 81.4912 85.6131 80.203 86.5629 79.2533C87.5126 78.3036 88.8007 77.77 90.1439 77.77C91.487 77.77 92.7751 78.3036 93.7248 79.2533C94.6746 80.203 95.2081 81.4912 95.2081 82.8343V92.5739H99.1042V82.8343Z" stroke="#171717" stroke-linecap="round" stroke-linejoin="round"/>
<path d="M77.2883 99.9752C77.2883 103.385 78.6428 106.655 81.0537 109.066C83.4647 111.477 86.7346 112.831 90.1442 112.831C93.5538 112.831 96.8237 111.477 99.2346 109.066C101.646 106.655 103 103.385 103 99.9752C103 96.5657 101.646 93.2957 99.2346 90.8848C96.8237 88.4738 93.5538 87.1194 90.1442 87.1194C86.7346 87.1194 83.4647 88.4738 81.0537 90.8848C78.6428 93.2957 77.2883 96.5657 77.2883 99.9752Z" fill="white"/>
<path d="M77.2883 99.9752C77.2883 103.385 78.6428 106.655 81.0537 109.066C83.4647 111.477 86.7346 112.831 90.1442 112.831C93.5538 112.831 96.8237 111.477 99.2346 109.066C101.646 106.655 103 103.385 103 99.9752C103 96.5657 101.646 93.2957 99.2346 90.8848C96.8237 88.4738 93.5538 87.1194 90.1442 87.1194C86.7346 87.1194 83.4647 88.4738 81.0537 90.8848C78.6428 93.2957 77.2883 96.5657 77.2883 99.9752V99.9752Z" stroke="#171717" stroke-linecap="round" stroke-linejoin="round"/>
<path d="M92.092 99.2034C92.0934 98.8709 92.0097 98.5436 91.8489 98.2527C91.688 97.9617 91.4554 97.7167 91.1731 97.5411C90.8908 97.3654 90.5682 97.265 90.2361 97.2493C89.904 97.2335 89.5734 97.3031 89.2758 97.4512C88.9782 97.5994 88.7234 97.8213 88.5358 98.0957C88.3482 98.3702 88.2339 98.6881 88.2039 99.0192C88.1739 99.3504 88.2291 99.6836 88.3643 99.9874C88.4995 100.291 88.7102 100.555 88.9764 100.754V103.09C88.9764 103.399 89.0994 103.696 89.3183 103.915C89.5373 104.134 89.8343 104.257 90.1439 104.257C90.4536 104.257 90.7506 104.134 90.9696 103.915C91.1885 103.696 91.3115 103.399 91.3115 103.09V100.754C91.5532 100.574 91.7496 100.34 91.8851 100.071C92.0206 99.8019 92.0914 99.5048 92.092 99.2034Z" fill="#F25A51" stroke="#171717" stroke-width="0.658419" stroke-linecap="round" stroke-linejoin="round"/>
</svg>
