<svg width="64" height="64" viewBox="0 0 64 64" fill="none" xmlns="http://www.w3.org/2000/svg">
<g id="Frame">
<path id="Vector" d="M6.67432 32C6.67432 38.7168 9.34255 45.1585 14.092 49.908C18.8415 54.6575 25.2832 57.3257 32 57.3257C38.7168 57.3257 45.1585 54.6575 49.908 49.908C54.6575 45.1585 57.3257 38.7168 57.3257 32C57.3257 25.2832 54.6575 18.8415 49.908 14.092C45.1585 9.34255 38.7168 6.67432 32 6.67432C25.2832 6.67432 18.8415 9.34255 14.092 14.092C9.34255 18.8415 6.67432 25.2832 6.67432 32Z" fill="#FFF7E9"/>
<path id="Vector_2" d="M22.29 52.5474C22.29 52.8659 23.3242 53.1714 25.165 53.3967C27.0058 53.6219 29.5024 53.7485 32.1057 53.7485C34.7089 53.7485 37.2056 53.6219 39.0463 53.3967C40.8871 53.1714 41.9213 52.8659 41.9213 52.5474C41.9213 52.3897 41.6674 52.2335 41.1741 52.0878C40.6808 51.942 39.9578 51.8096 39.0463 51.6981C38.1349 51.5866 37.0528 51.4981 35.8619 51.4377C34.671 51.3774 33.3947 51.3463 32.1057 51.3463C30.8166 51.3463 29.5403 51.3774 28.3494 51.4377C27.1585 51.4981 26.0764 51.5866 25.165 51.6981C24.2535 51.8096 23.5305 51.942 23.0372 52.0878C22.5439 52.2335 22.29 52.3897 22.29 52.5474Z" fill="#F25A51"/>
<path id="Vector_3" d="M50.4334 33.4297C50.3977 33.7835 50.2928 34.1268 50.1244 34.4401C49.9561 34.7533 49.7278 35.0304 49.4524 35.2554C49.177 35.4804 48.86 35.6489 48.5194 35.7514C48.1789 35.8539 47.8215 35.8883 47.4677 35.8527L23.754 33.4638C23.4001 33.4284 23.0567 33.3235 22.7433 33.1553C22.43 32.987 22.1529 32.7586 21.9279 32.4832C21.7028 32.2078 21.5343 31.8907 21.4319 31.5501C21.3294 31.2095 21.2951 30.8521 21.3309 30.4982L22.7422 16.488C22.8143 15.7733 23.1673 15.1165 23.7236 14.6621C24.2798 14.2076 24.9938 13.9926 25.7085 14.0644L49.4222 16.4526C50.1367 16.525 50.7933 16.8781 51.2476 17.4343C51.7019 17.9905 51.9169 18.7043 51.8453 19.4188L50.4334 33.4297Z" fill="white"/>
<path id="Vector_4" d="M22.3623 20.2578L22.6877 17.0243L51.7908 19.9557L51.4653 23.1898L22.3623 20.2578Z" fill="#F25A51"/>
<path id="Vector_5" d="M24.6182 30.2854L32.7028 31.0984" stroke="#171717" stroke-width="0.685714" stroke-linecap="round" stroke-linejoin="round"/>
<path id="Vector_6" d="M47.6494 28.6386C47.6309 28.8218 47.5405 28.9902 47.3981 29.107C47.2558 29.2237 47.073 29.2793 46.8897 29.2616L25.6376 27.121C25.4543 27.1026 25.2858 27.0123 25.1689 26.8699C25.052 26.7275 24.9963 26.5446 25.014 26.3612L25.2039 24.5131C25.2225 24.3299 25.3128 24.1615 25.4552 24.0448C25.5976 23.928 25.7804 23.8724 25.9637 23.8901L47.2126 26.0313C47.3958 26.0499 47.5641 26.1403 47.6809 26.2826C47.7977 26.425 47.8533 26.6078 47.8356 26.7911L47.6494 28.6386Z" fill="#F25A51"/>
<path id="Vector_7" d="M50.4334 33.4297C50.3977 33.7835 50.2928 34.1268 50.1244 34.4401C49.9561 34.7533 49.7278 35.0304 49.4524 35.2554C49.177 35.4804 48.86 35.6489 48.5194 35.7514C48.1789 35.8539 47.8215 35.8883 47.4677 35.8527L23.754 33.4638C23.4001 33.4284 23.0567 33.3235 22.7433 33.1552C22.43 32.987 22.1529 32.7586 21.9279 32.4832C21.7028 32.2078 21.5343 31.8907 21.4319 31.5501C21.3294 31.2095 21.2951 30.8521 21.3309 30.4982L22.7422 16.488C22.8143 15.7733 23.1673 15.1165 23.7236 14.6621C24.2798 14.2076 24.9938 13.9926 25.7085 14.0644L49.4222 16.4526C50.1367 16.525 50.7933 16.8781 51.2476 17.4343C51.7019 17.9905 51.9169 18.7043 51.8453 19.4188L50.4334 33.4297Z" stroke="#171717" stroke-width="0.685714" stroke-linecap="round" stroke-linejoin="round"/>
<path id="Vector_8" d="M22.3623 20.2578L22.6877 17.0243L51.7908 19.9557L51.4653 23.1898L22.3623 20.2578Z" stroke="#171717" stroke-width="0.685714" stroke-linecap="round" stroke-linejoin="round"/>
<path id="Vector_9" d="M47.6494 28.6386C47.6309 28.8218 47.5405 28.9902 47.3981 29.107C47.2558 29.2237 47.073 29.2793 46.8897 29.2616L25.6376 27.121C25.4543 27.1026 25.2858 27.0123 25.1689 26.8699C25.052 26.7275 24.9963 26.5446 25.014 26.3612L25.2039 24.5131C25.2225 24.3299 25.3128 24.1615 25.4552 24.0448C25.5976 23.928 25.7804 23.8724 25.9637 23.8901L47.2126 26.0313C47.3958 26.0499 47.5641 26.1403 47.6809 26.2826C47.7977 26.425 47.8533 26.6078 47.8356 26.7911L47.6494 28.6386Z" stroke="#171717" stroke-width="0.685714" stroke-linecap="round" stroke-linejoin="round"/>
<path id="Vector_10" d="M12.9785 26.0991L35.9825 24.9613C36.3904 24.9411 36.7983 25.0015 37.1829 25.1389C37.5675 25.2763 37.9213 25.4882 38.224 25.7623C38.5267 26.0365 38.7725 26.3676 38.9472 26.7367C39.122 27.1058 39.2224 27.5058 39.2426 27.9137L39.8624 40.4436C39.9029 41.2673 39.6145 42.0733 39.0607 42.6844C38.507 43.2956 37.7331 43.6617 36.9094 43.7024L13.9067 44.8401C13.4988 44.8603 13.0909 44.8 12.7063 44.6626C12.3217 44.5251 11.968 44.3133 11.6652 44.0391C11.3625 43.765 11.1168 43.4339 10.942 43.0648C10.7672 42.6956 10.6669 42.2957 10.6467 41.8878L10.0268 29.3585C10.0066 28.9507 10.0669 28.5429 10.2043 28.1583C10.3417 27.7738 10.5535 27.4201 10.8276 27.1175C11.1017 26.8148 11.4327 26.5691 11.8018 26.3944C12.1708 26.2196 12.5707 26.1193 12.9785 26.0991Z" fill="#F25A51"/>
<path id="Vector_11" d="M14.4404 40.3942L19.9532 40.1213" stroke="#171717" stroke-width="0.685714" stroke-linecap="round" stroke-linejoin="round"/>
<path id="Vector_12" d="M14.0593 32.6774L19.5714 32.4045L19.7626 36.2629L14.2498 36.5352L14.0593 32.6774Z" fill="white" stroke="#171717" stroke-width="0.685714" stroke-linecap="round" stroke-linejoin="round"/>
<path id="Vector_13" d="M12.9785 26.0991L35.9825 24.9613C36.3904 24.9411 36.7983 25.0015 37.1829 25.1389C37.5675 25.2763 37.9213 25.4882 38.224 25.7623C38.5267 26.0365 38.7725 26.3676 38.9472 26.7367C39.122 27.1058 39.2224 27.5058 39.2426 27.9137L39.8624 40.4436C39.9029 41.2673 39.6145 42.0733 39.0607 42.6844C38.507 43.2956 37.7331 43.6617 36.9094 43.7024L13.9067 44.8401C13.4988 44.8603 13.0909 44.8 12.7063 44.6626C12.3217 44.5251 11.968 44.3133 11.6652 44.0391C11.3625 43.765 11.1168 43.4339 10.942 43.0648C10.7672 42.6956 10.6669 42.2957 10.6467 41.8878L10.0268 29.3585C10.0066 28.9507 10.0669 28.5429 10.2043 28.1583C10.3417 27.7738 10.5535 27.4201 10.8276 27.1175C11.1017 26.8148 11.4327 26.5691 11.8018 26.3944C12.1708 26.2196 12.5707 26.1193 12.9785 26.0991Z" stroke="#171717" stroke-width="0.685714" stroke-linecap="round" stroke-linejoin="round"/>
<path id="Vector_14" d="M26.4821 37.9769C26.4821 38.8551 26.831 39.6973 27.452 40.3183C28.073 40.9393 28.9152 41.2882 29.7935 41.2882C30.6717 41.2882 31.5139 40.9393 32.1349 40.3183C32.7559 39.6973 33.1048 38.8551 33.1048 37.9769C33.1048 37.542 33.0191 37.1114 32.8527 36.7097C32.6863 36.3079 32.4424 35.9429 32.1349 35.6354C31.8274 35.3279 31.4624 35.084 31.0606 34.9176C30.6589 34.7512 30.2283 34.6655 29.7935 34.6655C29.3586 34.6655 28.928 34.7512 28.5263 34.9176C28.1245 35.084 27.7595 35.3279 27.452 35.6354C27.1445 35.9429 26.9006 36.3079 26.7342 36.7097C26.5678 37.1114 26.4821 37.542 26.4821 37.9769Z" fill="white"/>
<path id="Vector_15" d="M30.3405 37.7863C30.3405 38.2212 30.4262 38.6518 30.5926 39.0535C30.759 39.4553 31.0029 39.8203 31.3104 40.1278C31.6179 40.4353 31.9829 40.6792 32.3847 40.8456C32.7864 41.012 33.217 41.0976 33.6519 41.0976C34.0867 41.0976 34.5173 41.012 34.919 40.8456C35.3208 40.6792 35.6858 40.4353 35.9933 40.1278C36.3008 39.8203 36.5447 39.4553 36.7111 39.0535C36.8775 38.6518 36.9632 38.2212 36.9632 37.7863C36.9632 37.3515 36.8775 36.9209 36.7111 36.5191C36.5447 36.1174 36.3008 35.7523 35.9933 35.4448C35.6858 35.1374 35.3208 34.8934 34.919 34.727C34.5173 34.5606 34.0867 34.475 33.6519 34.475C33.217 34.475 32.7864 34.5606 32.3847 34.727C31.9829 34.8934 31.6179 35.1374 31.3104 35.4448C31.0029 35.7523 30.759 36.1174 30.5926 36.5191C30.4262 36.9209 30.3405 37.3515 30.3405 37.7863Z" fill="white"/>
<path id="Vector_16" d="M30.345 37.9515C30.3704 38.4765 30.5207 38.9879 30.7835 39.4431C31.0462 39.8983 31.4138 40.2843 31.8557 40.5689C32.267 40.2418 32.5944 39.8214 32.811 39.3425C33.0275 38.8637 33.1269 38.3401 33.101 37.8152C33.075 37.2903 32.9243 36.7792 32.6615 36.324C32.3988 35.8689 32.0313 35.4829 31.5897 35.198C31.1783 35.525 30.8508 35.9453 30.6343 36.4242C30.4178 36.9031 30.3186 37.4267 30.345 37.9515Z" fill="#F25A51"/>
<path id="Vector_17" d="M26.4821 37.9769C26.4821 38.8551 26.831 39.6973 27.452 40.3183C28.073 40.9393 28.9152 41.2882 29.7935 41.2882C30.6717 41.2882 31.5139 40.9393 32.1349 40.3183C32.7559 39.6973 33.1048 38.8551 33.1048 37.9769C33.1048 37.542 33.0191 37.1114 32.8527 36.7097C32.6863 36.3079 32.4424 35.9429 32.1349 35.6354C31.8274 35.3279 31.4624 35.084 31.0606 34.9176C30.6589 34.7512 30.2283 34.6655 29.7935 34.6655C29.3586 34.6655 28.928 34.7512 28.5263 34.9176C28.1245 35.084 27.7595 35.3279 27.452 35.6354C27.1445 35.9429 26.9006 36.3079 26.7342 36.7097C26.5678 37.1114 26.4821 37.542 26.4821 37.9769Z" stroke="#171717" stroke-width="0.685714" stroke-linecap="round" stroke-linejoin="round"/>
<path id="Vector_18" d="M30.3405 37.7863C30.3405 38.2212 30.4262 38.6518 30.5926 39.0535C30.759 39.4553 31.0029 39.8203 31.3104 40.1278C31.6179 40.4353 31.9829 40.6792 32.3847 40.8456C32.7864 41.012 33.217 41.0976 33.6519 41.0976C34.0867 41.0976 34.5173 41.012 34.919 40.8456C35.3208 40.6792 35.6858 40.4353 35.9933 40.1278C36.3008 39.8203 36.5447 39.4553 36.7111 39.0535C36.8775 38.6518 36.9632 38.2212 36.9632 37.7863C36.9632 37.3515 36.8775 36.9209 36.7111 36.5191C36.5447 36.1174 36.3008 35.7523 35.9933 35.4448C35.6858 35.1374 35.3208 34.8934 34.919 34.727C34.5173 34.5606 34.0867 34.475 33.6519 34.475C33.217 34.475 32.7864 34.5606 32.3847 34.727C31.9829 34.8934 31.6179 35.1374 31.3104 35.4448C31.0029 35.7523 30.759 36.1174 30.5926 36.5191C30.4262 36.9209 30.3405 37.3515 30.3405 37.7863Z" stroke="#171717" stroke-width="0.685714" stroke-linecap="round" stroke-linejoin="round"/>
</g>
</svg>
