<svg width="64" height="64" viewBox="0 0 64 64" fill="none" xmlns="http://www.w3.org/2000/svg">
<g filter="url(#filter0_d_1207_3637)">
<rect x="4" y="4" width="56" height="56" rx="28" fill="white"/>
<g clip-path="url(#clip0_1207_3637)">
<path d="M24 27H40" stroke="#EA5148" stroke-width="1.5" stroke-linecap="round" stroke-linejoin="round"/>
<path d="M30 31V37" stroke="#EA5148" stroke-width="1.5" stroke-linecap="round" stroke-linejoin="round"/>
<path d="M34 31V37" stroke="#EA5148" stroke-width="1.5" stroke-linecap="round" stroke-linejoin="round"/>
<path d="M25 27L26 39C26 39.5304 26.2107 40.0391 26.5858 40.4142C26.9609 40.7893 27.4696 41 28 41H36C36.5304 41 37.0391 40.7893 37.4142 40.4142C37.7893 40.0391 38 39.5304 38 39L39 27" stroke="#EA5148" stroke-width="1.5" stroke-linecap="round" stroke-linejoin="round"/>
<path d="M29 27V24C29 23.7348 29.1054 23.4804 29.2929 23.2929C29.4804 23.1054 29.7348 23 30 23H34C34.2652 23 34.5196 23.1054 34.7071 23.2929C34.8946 23.4804 35 23.7348 35 24V27" stroke="#EA5148" stroke-width="1.5" stroke-linecap="round" stroke-linejoin="round"/>
</g>
</g>
<defs>
<filter id="filter0_d_1207_3637" x="0" y="0" width="64" height="64" filterUnits="userSpaceOnUse" color-interpolation-filters="sRGB">
<feFlood flood-opacity="0" result="BackgroundImageFix"/>
<feColorMatrix in="SourceAlpha" type="matrix" values="0 0 0 0 0 0 0 0 0 0 0 0 0 0 0 0 0 0 127 0" result="hardAlpha"/>
<feOffset/>
<feGaussianBlur stdDeviation="2"/>
<feColorMatrix type="matrix" values="0 0 0 0 0 0 0 0 0 0 0 0 0 0 0 0 0 0 0.15 0"/>
<feBlend mode="normal" in2="BackgroundImageFix" result="effect1_dropShadow_1207_3637"/>
<feBlend mode="normal" in="SourceGraphic" in2="effect1_dropShadow_1207_3637" result="shape"/>
</filter>
<clipPath id="clip0_1207_3637">
<rect width="24" height="24" fill="white" transform="translate(20 20)"/>
</clipPath>
</defs>
</svg>
