<svg width="64" height="64" viewBox="0 0 64 64" fill="none" xmlns="http://www.w3.org/2000/svg">
<g id="Frame">
<path id="Vector" d="M6.67426 32C6.67426 38.7168 9.34249 45.1585 14.092 49.908C18.8415 54.6574 25.2832 57.3257 32 57.3257C38.7168 57.3257 45.1585 54.6574 49.908 49.908C54.6574 45.1585 57.3257 38.7168 57.3257 32C57.3257 25.2832 54.6574 18.8415 49.908 14.092C45.1585 9.34249 38.7168 6.67426 32 6.67426C25.2832 6.67426 18.8415 9.34249 14.092 14.092C9.34249 18.8415 6.67426 25.2832 6.67426 32Z" fill="#FFF7E9"/>
<path id="Vector_2" d="M25.5654 15.3863C25.3099 15.3866 25.065 15.4884 24.8844 15.6692C24.7038 15.85 24.6024 16.095 24.6024 16.3506V27.2514C24.6028 27.5069 24.7043 27.7518 24.8848 27.9327L39.3445 42.3867C39.5493 42.6008 39.7948 42.7719 40.0666 42.8898C40.3384 43.0078 40.631 43.0702 40.9273 43.0734C41.2236 43.0767 41.5175 43.0207 41.7919 42.9087C42.0662 42.7968 42.3154 42.6311 42.5248 42.4215L51.8472 33.0959C52.0286 32.9146 52.1719 32.699 52.2688 32.4615C52.3657 32.2241 52.4142 31.9697 52.4115 31.7132C52.4087 31.4568 52.3547 31.2035 52.2527 30.9682C52.1507 30.7329 52.0027 30.5203 51.8174 30.343L37.1456 15.6687C36.9648 15.4882 36.7198 15.3866 36.4643 15.3863H25.5654ZM31.4131 22.1983C31.009 22.6024 30.4941 22.8777 29.9336 22.9892C29.373 23.1008 28.792 23.0436 28.264 22.8249C27.7359 22.6062 27.2846 22.2358 26.967 21.7606C26.6495 21.2854 26.48 20.7267 26.48 20.1551C26.48 19.5836 26.6495 19.0249 26.967 18.5497C27.2846 18.0745 27.7359 17.7041 28.264 17.4854C28.792 17.2667 29.373 17.2095 29.9336 17.321C30.4941 17.4325 31.009 17.7078 31.4131 18.112C31.9548 18.654 32.2591 19.3889 32.2591 20.1551C32.2591 20.9214 31.9548 21.6563 31.4131 22.1983Z" fill="white"/>
<path id="Vector_3" d="M25.5654 15.3863C25.3099 15.3866 25.065 15.4884 24.8844 15.6692C24.7038 15.85 24.6024 16.095 24.6024 16.3506V27.2514C24.6028 27.5069 24.7043 27.7518 24.8848 27.9327L39.3445 42.3867C39.5493 42.6008 39.7948 42.7719 40.0666 42.8898C40.3384 43.0078 40.631 43.0702 40.9273 43.0734C41.2236 43.0767 41.5175 43.0207 41.7919 42.9087C42.0662 42.7968 42.3154 42.6311 42.5248 42.4215L51.8472 33.0959C52.0286 32.9147 52.1719 32.699 52.2688 32.4615C52.3657 32.2241 52.4142 31.9697 52.4115 31.7132C52.4087 31.4568 52.3547 31.2035 52.2527 30.9682C52.1507 30.7329 52.0027 30.5203 51.8174 30.343L37.1456 15.6687C36.9648 15.4882 36.7198 15.3866 36.4643 15.3863H25.5654ZM31.4131 22.1983C31.009 22.6024 30.4941 22.8777 29.9336 22.9892C29.373 23.1008 28.792 23.0436 28.264 22.8249C27.7359 22.6062 27.2846 22.2358 26.967 21.7606C26.6495 21.2854 26.48 20.7267 26.48 20.1551C26.48 19.5836 26.6495 19.0249 26.967 18.5497C27.2846 18.0745 27.7359 17.7041 28.264 17.4854C28.792 17.2667 29.373 17.2095 29.9336 17.321C30.4941 17.4325 31.009 17.7078 31.4131 18.112C31.9548 18.654 32.2591 19.3889 32.2591 20.1551C32.2591 20.9214 31.9548 21.6563 31.4131 22.1983Z" stroke="#171717" stroke-width="0.685714" stroke-linejoin="round"/>
<path id="Vector_4" d="M18.5185 51.1943C18.5185 51.3525 18.8299 51.5091 19.4351 51.6552C20.0402 51.8013 20.9271 51.9341 22.0453 52.0459C23.1634 52.1577 24.4908 52.2464 25.9517 52.3069C27.4126 52.3674 28.9783 52.3986 30.5596 52.3986C32.1409 52.3986 33.7066 52.3674 35.1675 52.3069C36.6284 52.2464 37.9558 52.1577 39.074 52.0459C40.1921 51.9341 41.079 51.8013 41.6841 51.6552C42.2893 51.5091 42.6007 51.3525 42.6007 51.1943C42.6007 51.0362 42.2893 50.8796 41.6841 50.7335C41.079 50.5874 40.1921 50.4546 39.074 50.3428C37.9558 50.231 36.6284 50.1423 35.1675 50.0818C33.7066 50.0213 32.1409 49.9901 30.5596 49.9901C28.9783 49.9901 27.4126 50.0213 25.9517 50.0818C24.4908 50.1423 23.1634 50.231 22.0453 50.3428C20.9271 50.4546 20.0402 50.5874 19.4351 50.7335C18.8299 50.8796 18.5185 51.0362 18.5185 51.1943Z" fill="#F25A51"/>
<path id="Vector_5" d="M30.0488 14.0909C29.868 13.9103 29.623 13.8088 29.3675 13.8088C29.112 13.8088 28.8669 13.9103 28.6862 14.0909L20.9834 21.7975C20.8938 21.8869 20.8227 21.9931 20.7743 22.11C20.7258 22.2269 20.7009 22.3522 20.701 22.4788V42.9255C20.6945 43.2216 20.7473 43.5161 20.8561 43.7916C20.965 44.0671 21.1278 44.3181 21.335 44.5299C21.5422 44.7416 21.7896 44.9098 22.0627 45.0246C22.3358 45.1394 22.629 45.1985 22.9253 45.1985H36.1105C36.367 45.1984 36.621 45.1472 36.8575 45.0477C37.094 44.9482 37.3082 44.8024 37.4876 44.619C37.667 44.4356 37.808 44.2182 37.9022 43.9796C37.9965 43.7409 38.0421 43.4859 38.0365 43.2294V22.4788C38.0367 22.3523 38.012 22.227 37.9637 22.1102C37.9155 21.9933 37.8447 21.887 37.7554 21.7975L30.0488 14.0909ZM29.3675 23.0429C28.796 23.0428 28.2374 22.8732 27.7623 22.5556C27.2871 22.238 26.9169 21.7866 26.6982 21.2586C26.4796 20.7306 26.4225 20.1496 26.5341 19.5891C26.6456 19.0286 26.9209 18.5138 27.325 18.1097C27.7292 17.7056 28.2441 17.4305 28.8046 17.319C29.3651 17.2076 29.9461 17.2649 30.4741 17.4836C31.0021 17.7023 31.4533 18.0727 31.7708 18.5479C32.0883 19.0231 32.2578 19.5817 32.2578 20.1532C32.2578 20.5328 32.183 20.9086 32.0378 21.2592C31.8925 21.6098 31.6796 21.9284 31.4112 22.1968C31.1428 22.4651 30.8242 22.6779 30.4735 22.8231C30.1229 22.9683 29.747 23.043 29.3675 23.0429Z" fill="#F25A51"/>
<path id="Vector_6" d="M25.5774 13.6388C25.4225 13.3181 25.1943 13.0384 24.9114 12.8221C24.6284 12.6059 24.2985 12.4592 23.9484 12.394C23.5983 12.3287 23.2378 12.3467 22.8959 12.4465C22.554 12.5464 22.2404 12.7252 21.9804 12.9685C21.7204 13.2119 21.5213 13.513 21.3991 13.8475C21.2769 14.1821 21.2351 14.5406 21.2771 14.8943C21.3191 15.248 21.4437 15.5868 21.6407 15.8834C21.8378 16.1801 22.1019 16.4262 22.4117 16.6019L29.3762 20.1475L25.5774 13.6388Z" stroke="#171717" stroke-width="0.685714" stroke-linecap="round" stroke-linejoin="round"/>
<path id="Vector_7" d="M30.0488 14.0909C29.868 13.9103 29.623 13.8088 29.3675 13.8088C29.112 13.8088 28.8669 13.9103 28.6862 14.0909L20.9834 21.7975C20.8938 21.8869 20.8227 21.9931 20.7743 22.11C20.7258 22.2269 20.7009 22.3522 20.701 22.4788V42.9255C20.6945 43.2216 20.7473 43.5161 20.8561 43.7916C20.965 44.0671 21.1278 44.3181 21.335 44.5299C21.5422 44.7416 21.7896 44.9098 22.0627 45.0246C22.3358 45.1394 22.629 45.1985 22.9253 45.1985H36.1105C36.367 45.1984 36.621 45.1472 36.8575 45.0477C37.094 44.9482 37.3082 44.8024 37.4876 44.619C37.667 44.4356 37.808 44.2182 37.9022 43.9796C37.9965 43.7409 38.0421 43.4859 38.0365 43.2294V22.4788C38.0367 22.3523 38.012 22.2271 37.9637 22.1102C37.9155 21.9933 37.8447 21.887 37.7554 21.7975L30.0488 14.0909ZM29.3675 23.0429C28.796 23.0428 28.2374 22.8732 27.7623 22.5556C27.2871 22.238 26.9169 21.7866 26.6982 21.2586C26.4796 20.7306 26.4225 20.1496 26.5341 19.5891C26.6456 19.0286 26.9209 18.5138 27.325 18.1097C27.7292 17.7056 28.2441 17.4305 28.8046 17.319C29.3651 17.2076 29.9461 17.2649 30.4741 17.4836C31.0021 17.7023 31.4533 18.0727 31.7708 18.5479C32.0883 19.0231 32.2578 19.5817 32.2578 20.1532C32.2578 20.5328 32.183 20.9086 32.0378 21.2592C31.8925 21.6098 31.6796 21.9284 31.4112 22.1968C31.1428 22.4651 30.8242 22.6779 30.4735 22.8231C30.1229 22.9683 29.747 23.043 29.3675 23.0429Z" stroke="#171717" stroke-width="0.685714" stroke-linejoin="round"/>
</g>
</svg>
