<svg width="64" height="64" viewBox="0 0 64 64" fill="none" xmlns="http://www.w3.org/2000/svg">
<g id="Frame">
<path id="Vector" d="M7.11133 31.9998C7.11133 38.7167 9.77959 45.1584 14.5291 49.908C19.2787 54.6575 25.7204 57.3258 32.4373 57.3258C39.1542 57.3258 45.5959 54.6575 50.3454 49.908C55.095 45.1584 57.7633 38.7167 57.7633 31.9998C57.7633 25.2829 55.095 18.8412 50.3454 14.0916C45.5959 9.34209 39.1542 6.67383 32.4373 6.67383C25.7204 6.67383 19.2787 9.34209 14.5291 14.0916C9.77959 18.8412 7.11133 25.2829 7.11133 31.9998Z" fill="#FFF7E9"/>
<path id="Vector_2" d="M21.3945 13.1406H52.36V36.4462H21.3945V13.1406Z" fill="#F25A51"/>
<path id="Vector_3" d="M21.3945 13.1406H52.36V36.4462H21.3945V13.1406Z" stroke="#171717" stroke-linecap="round" stroke-linejoin="round"/>
<path id="Vector_4" d="M50.7866 13.1406H22.9673C22.7606 13.1407 22.556 13.1815 22.3651 13.2607C22.1742 13.3399 22.0007 13.4559 21.8547 13.6021C21.7086 13.7484 21.5928 13.9219 21.5139 14.1129C21.4349 14.3039 21.3944 14.5086 21.3945 14.7153V17.8614H52.36V14.7153C52.36 14.5086 52.3194 14.3039 52.2404 14.1129C52.1614 13.9219 52.0455 13.7483 51.8994 13.6021C51.7533 13.4559 51.5798 13.3399 51.3889 13.2607C51.1979 13.1815 50.9933 13.1407 50.7866 13.1406Z" fill="white"/>
<path id="Vector_5" d="M22.9678 15.5002C22.9678 15.6035 22.9881 15.7058 23.0276 15.8012C23.0672 15.8966 23.1251 15.9833 23.1981 16.0563C23.2711 16.1293 23.3578 16.1872 23.4532 16.2268C23.5486 16.2663 23.6509 16.2866 23.7541 16.2866C23.8574 16.2866 23.9597 16.2663 24.0551 16.2268C24.1505 16.1872 24.2372 16.1293 24.3102 16.0563C24.3832 15.9833 24.4411 15.8966 24.4807 15.8012C24.5202 15.7058 24.5405 15.6035 24.5405 15.5002C24.5405 15.397 24.5202 15.2947 24.4807 15.1993C24.4411 15.1039 24.3832 15.0172 24.3102 14.9442C24.2372 14.8712 24.1505 14.8132 24.0551 14.7737C23.9597 14.7342 23.8574 14.7139 23.7541 14.7139C23.6509 14.7139 23.5486 14.7342 23.4532 14.7737C23.3578 14.8132 23.2711 14.8712 23.1981 14.9442C23.1251 15.0172 23.0672 15.1039 23.0276 15.1993C22.9881 15.2947 22.9678 15.397 22.9678 15.5002Z" fill="#F25A51" stroke="#171717" stroke-linecap="round" stroke-linejoin="round"/>
<path id="Vector_6" d="M26.5098 15.5002C26.5098 15.7088 26.5926 15.9088 26.7401 16.0563C26.8876 16.2038 27.0876 16.2866 27.2961 16.2866C27.5047 16.2866 27.7047 16.2038 27.8522 16.0563C27.9997 15.9088 28.0825 15.7088 28.0825 15.5002C28.0825 15.2917 27.9997 15.0917 27.8522 14.9442C27.7047 14.7967 27.5047 14.7139 27.2961 14.7139C27.0876 14.7139 26.8876 14.7967 26.7401 14.9442C26.5926 15.0917 26.5098 15.2917 26.5098 15.5002Z" fill="#F25A51" stroke="#171717" stroke-linecap="round" stroke-linejoin="round"/>
<path id="Vector_7" d="M30.0469 15.5002C30.0469 15.7088 30.1297 15.9088 30.2772 16.0563C30.4247 16.2038 30.6247 16.2866 30.8332 16.2866C31.0418 16.2866 31.2418 16.2038 31.3893 16.0563C31.5368 15.9088 31.6196 15.7088 31.6196 15.5002C31.6196 15.2917 31.5368 15.0917 31.3893 14.9442C31.2418 14.7967 31.0418 14.7139 30.8332 14.7139C30.6247 14.7139 30.4247 14.7967 30.2772 14.9442C30.1297 15.0917 30.0469 15.2917 30.0469 15.5002Z" fill="#F25A51" stroke="#171717" stroke-linecap="round" stroke-linejoin="round"/>
<path id="Vector_8" d="M50.7866 13.1406H22.9673C22.7606 13.1407 22.556 13.1815 22.3651 13.2607C22.1742 13.3399 22.0007 13.4559 21.8547 13.6021C21.7086 13.7484 21.5928 13.9219 21.5139 14.1129C21.4349 14.3039 21.3944 14.5086 21.3945 14.7153V17.8614H52.36V14.7153C52.36 14.5086 52.3194 14.3039 52.2404 14.1129C52.1614 13.9219 52.0455 13.7483 51.8994 13.6021C51.7533 13.4559 51.5798 13.3399 51.3889 13.2607C51.1979 13.1815 50.9933 13.1407 50.7866 13.1406Z" stroke="#171717" stroke-linecap="round" stroke-linejoin="round"/>
<path id="Vector_9" d="M35.9081 43.306C36.0087 43.5396 36.0377 43.7978 35.9914 44.0478C35.9451 44.2979 35.8257 44.5286 35.6482 44.7108C35.4706 44.8929 35.2431 45.0182 34.9943 45.0709C34.7455 45.1236 34.4866 45.1012 34.2505 45.0066L30.4276 43.4814C28.1904 42.5883 25.7472 42.3421 23.3768 42.771L10.8075 45.5163C9.93231 45.7079 9.01742 45.5813 8.22715 45.1591C7.43688 44.7369 6.82298 44.0469 6.49567 43.2128C6.16837 42.3788 6.14909 41.4554 6.44131 40.6084C6.73353 39.7614 7.3181 39.0464 8.09007 38.5916L18.3635 32.5349C20.6823 31.087 22.4789 28.9374 23.4921 26.3984L24.8248 23.0592C24.9192 22.8232 25.0813 22.6205 25.2908 22.4767C25.5003 22.3328 25.7477 22.2543 26.0018 22.2511C26.2559 22.2478 26.5053 22.32 26.7184 22.4584C26.9315 22.5968 27.0988 22.7953 27.1991 23.0288L35.9081 43.306Z" fill="white"/>
<path id="Vector_10" d="M19.826 50.7983C20.0369 51.2813 20.0861 51.8194 19.9663 52.3325C19.8465 52.8456 19.5642 53.3064 19.1614 53.6461C18.7586 53.9858 18.2568 54.1862 17.7308 54.2176C17.2048 54.2491 16.6828 54.1097 16.2424 53.8204L15.5871 53.4006C15.128 53.0999 14.7652 52.6735 14.5417 52.1723L11.5957 45.3596L15.4358 44.5093L16.9313 47.9587C17.0783 48.3033 17.2921 48.6155 17.5604 48.8771C17.8287 49.1386 18.1462 49.3445 18.4945 49.4827C18.7921 49.6035 19.063 49.7819 19.2915 50.0077C19.52 50.2335 19.7016 50.5022 19.826 50.7983Z" fill="#F25A51"/>
<path id="Vector_11" d="M33.8931 29.708C34.3902 29.6664 34.8877 29.7823 35.3153 30.0392C35.7429 30.2961 36.0789 30.681 36.2756 31.1394C36.4724 31.5977 36.52 32.1064 36.4117 32.5933C36.3034 33.0802 36.0447 33.5208 35.6722 33.8526L32.9047 36.3168L30.2012 30.0182L33.8931 29.708Z" fill="white"/>
<path id="Vector_12" d="M35.9081 43.306C36.0087 43.5396 36.0377 43.7978 35.9914 44.0478C35.9451 44.2979 35.8257 44.5286 35.6482 44.7108C35.4706 44.8929 35.2431 45.0182 34.9943 45.0709C34.7455 45.1236 34.4866 45.1012 34.2505 45.0066L30.4276 43.4814C28.1904 42.5883 25.7472 42.3421 23.3768 42.771L10.8075 45.5163C9.93231 45.7079 9.01742 45.5813 8.22715 45.1591C7.43688 44.737 6.82298 44.0469 6.49567 43.2128C6.16837 42.3788 6.14909 41.4554 6.44131 40.6084C6.73353 39.7614 7.3181 39.0464 8.09007 38.5916L18.3635 32.5349C20.6823 31.087 22.4789 28.9374 23.4921 26.3984L24.8248 23.0592C24.9192 22.8232 25.0813 22.6205 25.2908 22.4767C25.5003 22.3328 25.7477 22.2543 26.0018 22.2511C26.2559 22.2478 26.5053 22.32 26.7184 22.4584C26.9315 22.5968 27.0988 22.7953 27.1991 23.0288L35.9081 43.306Z" stroke="#171717" stroke-linecap="round" stroke-linejoin="round"/>
<path id="Vector_13" d="M33.8931 29.708C34.3902 29.6664 34.8877 29.7823 35.3153 30.0392C35.7429 30.2961 36.0789 30.681 36.2756 31.1394C36.4724 31.5977 36.52 32.1064 36.4117 32.5933C36.3034 33.0802 36.0447 33.5208 35.6722 33.8526L32.9047 36.3168L30.2012 30.0182L33.8931 29.708Z" stroke="#171717" stroke-linecap="round" stroke-linejoin="round"/>
<path id="Vector_14" d="M15.4355 44.5058L16.655 47.3284L17.9624 46.7737C18.2219 46.6636 18.4274 46.4555 18.5341 46.1946C18.6408 45.9337 18.6402 45.6412 18.5323 45.3808L17.9314 43.9619L15.4355 44.5058Z" fill="#F25A51" stroke="#171717" stroke-linecap="round" stroke-linejoin="round"/>
<path id="Vector_15" d="M19.2778 43.6664L10.8075 45.5164C9.93231 45.7081 9.01742 45.5814 8.22715 45.1592C7.43688 44.7371 6.82298 44.047 6.49567 43.2129C6.16837 42.3789 6.14909 41.4555 6.44131 40.6085C6.73353 39.7615 7.3181 39.0465 8.09007 38.5917L15.2782 34.354L19.2778 43.6664Z" fill="#F25A51"/>
<path id="Vector_16" d="M19.2778 43.6664L10.8075 45.5164C9.93231 45.7081 9.01742 45.5814 8.22715 45.1592C7.43688 44.7371 6.82298 44.047 6.49567 43.2129C6.16837 42.3789 6.14909 41.4555 6.44131 40.6085C6.73353 39.7615 7.3181 39.0465 8.09007 38.5917L15.2782 34.354L19.2778 43.6664Z" stroke="#171717" stroke-linecap="round" stroke-linejoin="round"/>
<path id="Vector_17" d="M19.826 50.7983C20.0369 51.2813 20.0861 51.8194 19.9663 52.3325C19.8465 52.8456 19.5642 53.3064 19.1614 53.6461C18.7586 53.9858 18.2568 54.1862 17.7308 54.2176C17.2048 54.249 16.6828 54.1097 16.2424 53.8204L15.5871 53.4006C15.128 53.0999 14.7652 52.6735 14.5417 52.1723L11.5957 45.3596L15.4358 44.5093L16.9313 47.9587C17.0783 48.3033 17.2921 48.6155 17.5604 48.8771C17.8287 49.1386 18.1462 49.3445 18.4945 49.4827C18.7921 49.6035 19.063 49.7819 19.2915 50.0077C19.52 50.2335 19.7016 50.5022 19.826 50.7983Z" stroke="#171717" stroke-linecap="round" stroke-linejoin="round"/>
<path id="Vector_18" d="M13.6211 39.3047L14.4594 41.2763" stroke="#171717" stroke-linecap="round" stroke-linejoin="round"/>
<path id="Vector_19" d="M10.665 40.562L11.5027 42.533" stroke="#171717" stroke-linecap="round" stroke-linejoin="round"/>
<path id="Vector_20" d="M38.8896 42.656C38.8896 43.0339 39.7235 43.3962 41.2077 43.6634C42.6919 43.9305 44.705 44.0806 46.804 44.0806C48.903 44.0806 50.9161 43.9305 52.4003 43.6634C53.8845 43.3962 54.7184 43.0339 54.7184 42.656C54.7184 42.2782 53.8845 41.9159 52.4003 41.6487C50.9161 41.3815 48.903 41.2314 46.804 41.2314C44.705 41.2314 42.6919 41.3815 41.2077 41.6487C39.7235 41.9159 38.8896 42.2782 38.8896 42.656Z" fill="#F25A51"/>
<path id="Vector_21" d="M39.1896 29.7725L54.5713 29.927C54.7957 29.9295 55.0099 30.021 55.1669 30.1814C55.3238 30.3418 55.4107 30.558 55.4083 30.7824L55.3912 32.5045C55.3889 32.729 55.2976 32.9434 55.1373 33.1005C54.977 33.2577 54.7609 33.3449 54.5365 33.3428L39.1541 33.1877C39.043 33.1867 38.9331 33.1638 38.8308 33.1203C38.7285 33.0768 38.6358 33.0135 38.558 32.9341C38.4802 32.8547 38.4188 32.7607 38.3773 32.6576C38.3359 32.5544 38.3152 32.4441 38.3165 32.333L38.3336 30.6108C38.3347 30.4995 38.3578 30.3896 38.4014 30.2873C38.4451 30.1849 38.5084 30.0922 38.5879 30.0144C38.6674 29.9365 38.7615 29.8751 38.8647 29.8336C38.9679 29.7921 39.0783 29.7713 39.1896 29.7725Z" fill="white"/>
<path id="Vector_22" d="M39.4475 33.1909L54.2454 33.3397L54.1606 41.5991C54.1583 41.8236 54.0669 42.038 53.9067 42.1951C53.7464 42.3523 53.5303 42.4395 53.3058 42.4374L40.1997 42.3051C40.0885 42.3041 39.9787 42.2812 39.8764 42.2378C39.7741 42.1943 39.6814 42.1311 39.6035 42.0518C39.5257 41.9724 39.4642 41.8785 39.4227 41.7755C39.3811 41.6724 39.3603 41.5621 39.3614 41.451L39.4475 33.1909Z" fill="white"/>
<path id="Vector_23" d="M45.0459 42.3537L45.139 33.2471L48.5535 33.2819L48.4617 42.3885L45.0459 42.3537Z" fill="#F25A51"/>
<path id="Vector_24" d="M45.0814 24.2698C46.2299 25.343 46.8789 29.8472 46.8789 29.8472C46.8789 29.8472 42.3417 29.5009 41.1932 28.4277C40.9202 28.1725 40.7002 27.866 40.5457 27.5257C40.3912 27.1855 40.3052 26.8181 40.2926 26.4446C40.2801 26.0712 40.3412 25.6989 40.4725 25.349C40.6039 24.9991 40.8028 24.6786 41.058 24.4056C41.3133 24.1326 41.6197 23.9126 41.96 23.7581C42.3002 23.6036 42.6676 23.5176 43.0411 23.505C43.4146 23.4925 43.7869 23.5536 44.1367 23.6849C44.4866 23.8163 44.8071 24.0152 45.0801 24.2704L45.0814 24.2698Z" fill="white" stroke="#171717" stroke-linecap="round" stroke-linejoin="round"/>
<path id="Vector_25" d="M48.791 24.3074C47.6216 25.3572 46.8789 29.8475 46.8789 29.8475C46.8789 29.8475 51.4224 29.5942 52.5918 28.5432C52.878 28.2959 53.1119 27.9941 53.2801 27.6553C53.4482 27.3165 53.5472 26.9476 53.5711 26.5702C53.5951 26.1928 53.5436 25.8143 53.4196 25.457C53.2956 25.0997 53.1017 24.7707 52.8491 24.4892C52.5965 24.2077 52.2903 23.9794 51.9485 23.8176C51.6067 23.6558 51.236 23.5637 50.8582 23.5468C50.4804 23.5299 50.103 23.5884 49.748 23.719C49.3931 23.8496 49.0678 24.0497 48.791 24.3074Z" fill="white" stroke="#171717" stroke-linecap="round" stroke-linejoin="round"/>
<path id="Vector_26" d="M45.7107 27.2185C46.4648 27.725 46.8922 29.8467 46.8922 29.8467C46.8922 29.8467 43.9119 29.684 43.1566 29.1781C42.9859 29.0897 42.8415 28.9579 42.7378 28.7961C42.6341 28.6343 42.5747 28.448 42.5657 28.256C42.5566 28.064 42.5982 27.873 42.6863 27.7021C42.7743 27.5313 42.9057 27.3865 43.0673 27.2825C43.4541 27.0163 43.9101 26.8685 44.3795 26.8572C44.8489 26.8458 45.3115 26.9714 45.7107 27.2185Z" fill="#F25A51" stroke="#171717" stroke-linecap="round" stroke-linejoin="round"/>
<path id="Vector_27" d="M48.1455 27.2357C47.3775 27.7308 46.8906 29.8468 46.8906 29.8468C46.8906 29.8468 49.8747 29.7272 50.6433 29.232C50.8163 29.1481 50.9643 29.0202 51.0724 28.8612C51.1805 28.7021 51.245 28.5174 51.2594 28.3257C51.2737 28.1339 51.2375 27.9417 51.1542 27.7683C51.071 27.5949 50.9437 27.4464 50.7851 27.3377C50.4026 27.0662 49.9492 26.912 49.4805 26.8939C49.0118 26.8758 48.5479 26.9946 48.1455 27.2357Z" fill="#F25A51" stroke="#171717" stroke-linecap="round" stroke-linejoin="round"/>
<path id="Vector_28" d="M39.4475 33.1909L54.2454 33.3397L54.1606 41.5991C54.1583 41.8236 54.0669 42.038 53.9067 42.1951C53.7464 42.3523 53.5303 42.4395 53.3058 42.4374L40.1997 42.3051C40.0885 42.3041 39.9787 42.2812 39.8764 42.2378C39.7741 42.1943 39.6814 42.1311 39.6035 42.0518C39.5257 41.9724 39.4642 41.8785 39.4227 41.7755C39.3811 41.6724 39.3603 41.5621 39.3614 41.451L39.4475 33.1909Z" stroke="#171717" stroke-linecap="round" stroke-linejoin="round"/>
<path id="Vector_29" d="M45.0459 42.3537L45.139 33.2471L48.5535 33.2819L48.4617 42.3885L45.0459 42.3537Z" stroke="#171717" stroke-linecap="round" stroke-linejoin="round"/>
<path id="Vector_30" d="M39.1896 29.7725L54.5713 29.927C54.7957 29.9295 55.0099 30.021 55.1669 30.1814C55.3238 30.3418 55.4107 30.558 55.4083 30.7824L55.3912 32.5045C55.3889 32.729 55.2976 32.9434 55.1373 33.1005C54.977 33.2577 54.7609 33.3449 54.5365 33.3428L39.1541 33.1877C39.043 33.1867 38.9331 33.1638 38.8308 33.1203C38.7285 33.0768 38.6358 33.0135 38.558 32.9341C38.4802 32.8547 38.4188 32.7607 38.3773 32.6576C38.3359 32.5544 38.3152 32.4441 38.3165 32.333L38.3336 30.6108C38.3347 30.4995 38.3578 30.3896 38.4014 30.2873C38.4451 30.1849 38.5084 30.0922 38.5879 30.0144C38.6674 29.9365 38.7615 29.8751 38.8647 29.8336C38.9679 29.7921 39.0783 29.7713 39.1896 29.7725Z" stroke="#171717" stroke-linecap="round" stroke-linejoin="round"/>
<path id="Vector_31" d="M45.1387 33.2477L45.1729 29.8325L48.5881 29.8667L48.5539 33.2819L45.1387 33.2477Z" fill="#F25A51"/>
<path id="Vector_32" d="M45.1387 33.2477L45.1729 29.8325L48.5881 29.8667L48.5539 33.2819L45.1387 33.2477Z" stroke="#171717" stroke-linecap="round" stroke-linejoin="round"/>
</g>
</svg>
