<svg width="16" height="16" viewBox="0 0 16 16" fill="none" xmlns="http://www.w3.org/2000/svg">
<g id="Tabler Icon" clip-path="url(#clip0_318_7685)">
<path id="Vector" d="M4.66675 4.66669H4.00008C3.64646 4.66669 3.30732 4.80716 3.05727 5.05721C2.80722 5.30726 2.66675 5.6464 2.66675 6.00002V12C2.66675 12.3536 2.80722 12.6928 3.05727 12.9428C3.30732 13.1929 3.64646 13.3334 4.00008 13.3334H10.0001C10.3537 13.3334 10.6928 13.1929 10.9429 12.9428C11.1929 12.6928 11.3334 12.3536 11.3334 12V11.3334" stroke="#DB3127" stroke-width="1.5" stroke-linecap="round" stroke-linejoin="round"/>
<path id="Vector_2" d="M13.59 4.39001C13.8526 4.12745 14.0001 3.77133 14.0001 3.40001C14.0001 3.02869 13.8526 2.67257 13.59 2.41001C13.3274 2.14745 12.9713 1.99994 12.6 1.99994C12.2287 1.99994 11.8726 2.14745 11.61 2.41001L6 8.00001V10H8L13.59 4.39001Z" stroke="#DB3127" stroke-width="1.5" stroke-linecap="round" stroke-linejoin="round"/>
<path id="Vector_3" d="M10.6667 3.33331L12.6667 5.33331" stroke="#DB3127" stroke-width="1.5" stroke-linecap="round" stroke-linejoin="round"/>
</g>
<defs>
<clipPath id="clip0_318_7685">
<rect width="16" height="16" fill="white"/>
</clipPath>
</defs>
</svg>
