<svg width="240" height="240" viewBox="0 0 240 240" fill="none" xmlns="http://www.w3.org/2000/svg">
<path d="M23.9999 120C23.9999 145.461 34.1141 169.879 52.1176 187.882C70.1211 205.886 94.5391 216 120 216C145.461 216 169.879 205.886 187.882 187.882C205.886 169.879 216 145.461 216 120C216 94.5391 205.886 70.1211 187.882 52.1176C169.879 34.1141 145.461 23.9999 120 23.9999C94.5391 23.9999 70.1211 34.1141 52.1176 52.1176C34.1141 70.1211 23.9999 94.5391 23.9999 120Z" fill="#FFF7E9"/>
<path d="M38.1226 79.214L159.779 41.9826L186.373 128.88L64.7165 166.112L38.1226 79.214Z" fill="#F25A51"/>
<path d="M38.1226 79.214L159.779 41.9826L186.373 128.88L64.7165 166.112L38.1226 79.214Z" stroke="#171717" stroke-width="2.57143" stroke-linecap="round" stroke-linejoin="round"/>
<path d="M38.1226 79.214L159.779 41.9826L186.373 128.88L64.7165 166.112L38.1226 79.214Z" stroke="#171717" stroke-width="2.57143" stroke-linecap="round" stroke-linejoin="round"/>
<path d="M87.9839 195.377C87.9839 196.204 89.0023 197.023 90.9811 197.788C92.9598 198.552 95.8601 199.247 99.5164 199.832C103.173 200.417 107.513 200.881 112.29 201.197C117.067 201.514 122.188 201.677 127.358 201.677C132.529 201.677 137.649 201.514 142.426 201.197C147.203 200.881 151.544 200.417 155.2 199.832C158.856 199.247 161.757 198.552 163.735 197.788C165.714 197.023 166.733 196.204 166.733 195.377C166.733 194.549 165.714 193.73 163.735 192.966C161.757 192.202 158.856 191.507 155.2 190.922C151.544 190.337 147.203 189.873 142.426 189.556C137.649 189.24 132.529 189.077 127.358 189.077C122.188 189.077 117.067 189.24 112.29 189.556C107.513 189.873 103.173 190.337 99.5164 190.922C95.8601 191.507 92.9598 192.202 90.9811 192.966C89.0023 193.73 87.9839 194.549 87.9839 195.377Z" fill="#F25A51"/>
<path d="M57.2568 80.5712H188.234V174.126H57.2568V80.5712Z" fill="white"/>
<path d="M133.92 152.854C133.227 152.857 132.54 152.722 131.9 152.456C131.259 152.191 130.678 151.801 130.19 151.309L123.628 144.744L117.063 151.309C116.575 151.811 115.993 152.211 115.35 152.486C114.706 152.761 114.015 152.906 113.315 152.911C112.615 152.916 111.922 152.782 111.274 152.517C110.627 152.251 110.039 151.86 109.544 151.365C109.049 150.87 108.658 150.281 108.393 149.634C108.128 148.986 107.994 148.292 108 147.593C108.006 146.893 108.151 146.201 108.426 145.558C108.702 144.915 109.102 144.333 109.605 143.846L116.17 137.284L109.605 130.721C109.115 130.231 108.726 129.65 108.461 129.01C108.196 128.37 108.059 127.684 108.059 126.991C108.059 126.298 108.195 125.612 108.46 124.972C108.725 124.332 109.114 123.75 109.604 123.26C110.094 122.77 110.675 122.381 111.315 122.116C111.955 121.851 112.641 121.714 113.334 121.714C114.027 121.714 114.713 121.85 115.353 122.115C115.993 122.38 116.575 122.769 117.065 123.259L123.628 129.824L130.19 123.261C130.68 122.771 131.262 122.383 131.902 122.118C132.542 121.853 133.228 121.716 133.921 121.716C134.614 121.717 135.3 121.853 135.94 122.118C136.58 122.384 137.161 122.772 137.651 123.262C138.141 123.752 138.53 124.334 138.795 124.974C139.06 125.614 139.196 126.3 139.196 126.993C139.196 127.686 139.059 128.372 138.794 129.012C138.529 129.652 138.14 130.234 137.65 130.723L131.085 137.286L137.65 143.849C138.388 144.586 138.89 145.526 139.094 146.55C139.297 147.573 139.193 148.633 138.793 149.597C138.394 150.561 137.718 151.385 136.851 151.965C135.983 152.545 134.963 152.854 133.92 152.854Z" fill="#F25A51" stroke="#171717" stroke-width="2.57143" stroke-linecap="round" stroke-linejoin="round"/>
<path d="M57.2568 93.895H188.234V105.991H57.2568V93.895Z" fill="#F25A51" stroke="#171717" stroke-width="2.57143"/>
<path d="M57.2568 93.895H188.234V105.991H57.2568V93.895Z" stroke="#171717" stroke-width="2.57143" stroke-linecap="round" stroke-linejoin="round"/>
<path d="M57.2568 80.064H188.234V173.618H57.2568V80.064Z" stroke="#171717" stroke-width="2.57143" stroke-linecap="round" stroke-linejoin="round"/>
</svg>
