<svg width="34" height="33" viewBox="0 0 34 33" fill="none" xmlns="http://www.w3.org/2000/svg">
<g clip-path="url(#clip0_70_3190)" filter="url(#filter0_d_70_3190)">
<path d="M14.3333 16C14.3333 16.7073 14.6143 17.3856 15.1144 17.8857C15.6145 18.3858 16.2927 18.6667 17 18.6667C17.7072 18.6667 18.3855 18.3858 18.8856 17.8857C19.3857 17.3856 19.6666 16.7073 19.6666 16C19.6666 15.2928 19.3857 14.6145 18.8856 14.1144C18.3855 13.6143 17.7072 13.3334 17 13.3334C16.2927 13.3334 15.6145 13.6143 15.1144 14.1144C14.6143 14.6145 14.3333 15.2928 14.3333 16Z" stroke="#EA5148" stroke-width="1.5" stroke-linecap="round" stroke-linejoin="round"/>
<path d="M29 16C25.8 21.3333 21.8 24 17 24C12.2 24 8.2 21.3333 5 16C8.2 10.6667 12.2 8 17 8C21.8 8 25.8 10.6667 29 16Z" stroke="#EA5148" stroke-width="1.5" stroke-linecap="round" stroke-linejoin="round"/>
</g>
<defs>
<filter id="filter0_d_70_3190" x="-3" y="0" width="40" height="40" filterUnits="userSpaceOnUse" color-interpolation-filters="sRGB">
<feFlood flood-opacity="0" result="BackgroundImageFix"/>
<feColorMatrix in="SourceAlpha" type="matrix" values="0 0 0 0 0 0 0 0 0 0 0 0 0 0 0 0 0 0 127 0" result="hardAlpha"/>
<feOffset dy="4"/>
<feGaussianBlur stdDeviation="2"/>
<feComposite in2="hardAlpha" operator="out"/>
<feColorMatrix type="matrix" values="0 0 0 0 0 0 0 0 0 0 0 0 0 0 0 0 0 0 0.25 0"/>
<feBlend mode="normal" in2="BackgroundImageFix" result="effect1_dropShadow_70_3190"/>
<feBlend mode="normal" in="SourceGraphic" in2="effect1_dropShadow_70_3190" result="shape"/>
</filter>
<clipPath id="clip0_70_3190">
<rect width="32" height="32" fill="white" transform="translate(1)"/>
</clipPath>
</defs>
</svg>
