<svg width="21" height="20" viewBox="0 0 21 20" fill="none" xmlns="http://www.w3.org/2000/svg">
<g clip-path="url(#clip0_573_1632)">
<path d="M12.1667 2.5V5.83333C12.1667 6.05435 12.2545 6.26631 12.4107 6.42259C12.567 6.57887 12.779 6.66667 13 6.66667H16.3333" stroke="#8E8E8E" stroke-width="1.5" stroke-linecap="round" stroke-linejoin="round"/>
<path d="M14.6667 17.5H6.33333C5.8913 17.5 5.46738 17.3244 5.15482 17.0118C4.84226 16.6993 4.66666 16.2754 4.66666 15.8333V4.16667C4.66666 3.72464 4.84226 3.30072 5.15482 2.98816C5.46738 2.67559 5.8913 2.5 6.33333 2.5H12.1667L16.3333 6.66667V15.8333C16.3333 16.2754 16.1577 16.6993 15.8452 17.0118C15.5326 17.3244 15.1087 17.5 14.6667 17.5Z" stroke="#8E8E8E" stroke-width="1.5" stroke-linecap="round" stroke-linejoin="round"/>
<path d="M8 14.1665H13" stroke="#8E8E8E" stroke-width="1.5" stroke-linecap="round" stroke-linejoin="round"/>
<path d="M8 10.8335H13" stroke="#8E8E8E" stroke-width="1.5" stroke-linecap="round" stroke-linejoin="round"/>
</g>
<defs>
<clipPath id="clip0_573_1632">
<rect width="20" height="20" fill="white" transform="translate(0.5)"/>
</clipPath>
</defs>
</svg>
