<svg width="40" height="40" viewBox="0 0 40 40" fill="none" xmlns="http://www.w3.org/2000/svg">
<rect width="40" height="40" rx="20" fill="#F8F8F8"/>
<g clip-path="url(#clip0_1171_20852)">
<path d="M14.1667 20H12.5L20 12.5L27.5 20H25.8333" stroke="#EA5148" stroke-width="1.5" stroke-linecap="round" stroke-linejoin="round"/>
<path d="M14.1667 20V25.8333C14.1667 26.2754 14.3423 26.6993 14.6548 27.0118C14.9674 27.3244 15.3913 27.5 15.8334 27.5H24.1667C24.6087 27.5 25.0326 27.3244 25.3452 27.0118C25.6578 26.6993 25.8334 26.2754 25.8334 25.8333V20" stroke="#EA5148" stroke-width="1.5" stroke-linecap="round" stroke-linejoin="round"/>
<path d="M17.5 27.5V22.5C17.5 22.058 17.6756 21.6341 17.9882 21.3215C18.3007 21.009 18.7246 20.8334 19.1667 20.8334H20.8333C21.2754 20.8334 21.6993 21.009 22.0118 21.3215C22.3244 21.6341 22.5 22.058 22.5 22.5V27.5" stroke="#EA5148" stroke-width="1.5" stroke-linecap="round" stroke-linejoin="round"/>
</g>
<defs>
<clipPath id="clip0_1171_20852">
<rect width="20" height="20" fill="white" transform="translate(10 10)"/>
</clipPath>
</defs>
</svg>
