<svg width="140" height="140" viewBox="0 0 140 140" fill="none" xmlns="http://www.w3.org/2000/svg">
<g id="Frame">
<path id="Vector" d="M48.0888 120.885C61.5844 126.696 76.8358 126.908 90.4878 121.475C104.14 116.041 115.074 105.406 120.885 91.9108C126.696 78.4152 126.908 63.1638 121.474 49.5118C116.041 35.8599 105.406 24.9256 91.9106 19.1145C78.415 13.3036 63.1637 13.0917 49.5118 18.5256C35.86 23.9595 24.9259 34.594 19.115 48.0897C13.304 61.5853 13.0922 76.8366 18.5261 90.4884C23.96 104.14 34.5945 115.074 48.0902 120.885H48.0888Z" fill="#FFF7E9"/>
<path id="Vector_2" d="M102.063 69.9322L95.9317 73.7133C93.7534 75.0716 91.3278 75.9853 88.7947 76.4016C86.2616 76.8179 83.6711 76.7287 81.1727 76.139C78.6742 75.5493 76.3172 74.4709 74.2376 72.9659C72.158 71.4609 70.3968 69.559 69.0558 67.3701C67.7147 65.1812 66.8202 62.7484 66.4239 60.2121C66.0275 57.6758 66.1372 55.0861 66.7466 52.5924C67.356 50.0987 68.453 47.7502 69.9743 45.6825C71.4957 43.6148 73.4114 41.8688 75.6108 40.545L81.7423 36.7598C86.1412 34.065 91.4305 33.2282 96.4464 34.4332C101.462 35.6383 105.794 38.7866 108.489 43.1855C111.184 47.5845 112.021 52.8737 110.815 57.8897C109.61 62.9057 106.462 67.2375 102.063 69.9322ZM80.126 47.9105C77.7181 49.4239 76.0042 51.8258 75.3561 54.5949C74.7079 57.3641 75.1779 60.2771 76.6639 62.7019C78.15 65.1267 80.5323 66.8678 83.2939 67.5472C86.0556 68.2267 88.9737 67.7897 91.4152 66.3312L97.5467 62.5501C98.7734 61.8173 99.8426 60.8483 100.692 59.6994C101.542 58.5505 102.155 57.2444 102.497 55.8568C102.838 54.4692 102.901 53.0276 102.681 51.6156C102.462 50.2036 101.964 48.8492 101.217 47.6309C100.471 46.4125 99.4896 45.3544 98.3311 44.5178C97.1726 43.6811 95.8597 43.0827 94.4683 42.757C93.0769 42.4314 91.6348 42.385 90.2254 42.6206C88.8159 42.8561 87.4673 43.369 86.2574 44.1294L80.126 47.9105Z" fill="white"/>
<path id="Vector_3" d="M102.063 69.9322L95.9317 73.7133C93.7534 75.0716 91.3278 75.9853 88.7947 76.4016C86.2616 76.8179 83.6711 76.7287 81.1727 76.139C78.6742 75.5493 76.3172 74.4709 74.2376 72.9659C72.158 71.4609 70.3968 69.559 69.0558 67.3701C67.7147 65.1812 66.8202 62.7484 66.4239 60.2121C66.0275 57.6758 66.1372 55.0861 66.7466 52.5924C67.356 50.0987 68.453 47.7502 69.9743 45.6825C71.4957 43.6148 73.4114 41.8688 75.6108 40.545L81.7423 36.7598C86.1412 34.065 91.4305 33.2282 96.4464 34.4332C101.462 35.6383 105.794 38.7866 108.489 43.1855C111.184 47.5845 112.021 52.8737 110.815 57.8897C109.61 62.9057 106.462 67.2375 102.063 69.9322ZM80.126 47.9105C77.7181 49.4239 76.0042 51.8258 75.3561 54.5949C74.7079 57.3641 75.1779 60.2771 76.6639 62.7019C78.15 65.1267 80.5323 66.8678 83.2939 67.5472C86.0556 68.2267 88.9737 67.7897 91.4152 66.3312L97.5467 62.5501C98.7734 61.8173 99.8426 60.8483 100.692 59.6994C101.542 58.5505 102.155 57.2444 102.497 55.8568C102.838 54.4692 102.901 53.0276 102.681 51.6156C102.462 50.2036 101.964 48.8492 101.217 47.6309C100.471 46.4125 99.4896 45.3544 98.3311 44.5178C97.1726 43.6811 95.8597 43.0827 94.4683 42.757C93.0769 42.4314 91.6348 42.385 90.2254 42.6206C88.8159 42.8561 87.4673 43.369 86.2574 44.1294L80.126 47.9105Z" stroke="#171717" stroke-width="1.49864"/>
<path id="Vector_4" d="M49.7922 108.478C49.7922 109.116 51.8192 109.728 55.4273 110.179C59.0353 110.629 63.9289 110.883 69.0315 110.883C74.134 110.883 79.0276 110.629 82.6356 110.179C86.2437 109.728 88.2707 109.116 88.2707 108.478C88.2707 107.841 86.2437 107.229 82.6356 106.778C79.0276 106.327 74.134 106.074 69.0315 106.074C63.9289 106.074 59.0353 106.327 55.4273 106.778C51.8192 107.229 49.7922 107.841 49.7922 108.478Z" fill="#F25A51"/>
<path id="Vector_5" d="M62.1052 94.5813L55.9738 98.3624C51.5763 101.027 46.3029 101.841 41.3065 100.628C36.3101 99.4149 31.9974 96.2728 29.3112 91.8887C26.6251 87.5046 25.7842 82.2353 26.9723 77.233C28.1604 72.2306 31.2809 67.9022 35.6514 65.1941L41.7829 61.413C43.961 60.0634 46.3844 59.1575 48.9137 58.7474C51.4431 58.3372 54.0285 58.4309 56.5215 59.023C59.0145 59.6151 61.366 60.694 63.4408 62.1977C65.5155 63.7014 67.2728 65.6002 68.6114 67.785C69.9501 69.9699 70.8439 72.3978 71.2414 74.9291C71.6389 77.4605 71.5323 80.0454 70.9277 82.5354C70.3231 85.0255 69.2324 87.3715 67.7184 89.4387C66.2044 91.5059 64.2968 93.2536 62.1052 94.5813ZM40.168 72.5596C37.7494 74.0682 36.025 76.4716 35.3707 79.246C34.7164 82.0204 35.1851 84.941 36.6747 87.3713C38.1644 89.8016 40.5541 91.5447 43.3233 92.2207C46.0925 92.8967 49.0167 92.4509 51.4586 90.9803L57.5901 87.1992C58.8115 86.4637 59.8752 85.4936 60.7199 84.345C61.5646 83.1963 62.1736 81.8918 62.5117 80.5067C62.8499 79.1216 62.9105 77.6832 62.69 76.2746C62.4696 74.8659 61.9725 73.5148 61.2274 72.2992C60.4823 71.0836 59.504 70.0275 58.3488 69.1918C57.1936 68.3561 55.8844 67.7574 54.4966 67.4301C53.1089 67.1028 51.6701 67.0534 50.2632 67.2849C48.8563 67.5163 47.5092 68.024 46.2994 68.7785L40.168 72.5596Z" fill="white"/>
<path id="Vector_6" d="M62.1052 94.5813L55.9738 98.3624C51.5763 101.027 46.3029 101.841 41.3065 100.628C36.3101 99.4149 31.9974 96.2728 29.3112 91.8887C26.6251 87.5046 25.7842 82.2353 26.9723 77.233C28.1604 72.2306 31.2809 67.9022 35.6514 65.1941L41.7829 61.413C43.961 60.0634 46.3844 59.1575 48.9137 58.7474C51.4431 58.3372 54.0285 58.4309 56.5215 59.023C59.0145 59.6151 61.366 60.694 63.4408 62.1977C65.5155 63.7014 67.2728 65.6002 68.6114 67.785C69.9501 69.9699 70.8439 72.3978 71.2414 74.9291C71.6389 77.4605 71.5323 80.0454 70.9277 82.5354C70.3231 85.0255 69.2324 87.3715 67.7184 89.4387C66.2044 91.5059 64.2968 93.2536 62.1052 94.5813ZM40.168 72.5596C37.7494 74.0682 36.025 76.4716 35.3707 79.246C34.7164 82.0204 35.1851 84.941 36.6747 87.3713C38.1644 89.8016 40.5541 91.5447 43.3233 92.2207C46.0925 92.8967 49.0167 92.4509 51.4586 90.9803L57.5901 87.1992C58.8115 86.4637 59.8752 85.4936 60.7199 84.345C61.5646 83.1963 62.1736 81.8918 62.5117 80.5067C62.8499 79.1216 62.9105 77.6832 62.69 76.2746C62.4696 74.8659 61.9725 73.5148 61.2274 72.2992C60.4823 71.0836 59.504 70.0275 58.3488 69.1918C57.1936 68.3561 55.8844 67.7574 54.4966 67.4301C53.1089 67.1028 51.6701 67.0534 50.2632 67.2849C48.8563 67.5163 47.5092 68.024 46.2994 68.7785L40.168 72.5596Z" stroke="#171717" stroke-width="1.49864"/>
<path id="Vector_7" d="M87.6741 61.1649L54.5058 81.4858C53.5291 82.0615 52.3654 82.2304 51.2653 81.9562C50.1653 81.6819 49.217 80.9865 48.6249 80.0198C48.0327 79.0531 47.844 77.8924 48.0995 76.7878C48.3549 75.6833 49.0341 74.7233 49.9906 74.1148L83.1576 53.7953C84.1345 53.2114 85.3024 53.0364 86.4076 53.3082C87.5128 53.5801 88.4662 54.2769 89.0608 55.2473C89.6555 56.2178 89.8434 57.3836 89.5837 58.4918C89.3241 59.5999 88.6379 60.561 87.6741 61.1663V61.1649Z" fill="#F25A51"/>
<path id="Vector_8" d="M87.6741 61.1649L54.5058 81.4858C53.5291 82.0615 52.3654 82.2304 51.2653 81.9562C50.1653 81.6819 49.217 80.9865 48.6249 80.0198C48.0327 79.0531 47.844 77.8924 48.0995 76.7878C48.3549 75.6833 49.0341 74.7233 49.9906 74.1148L83.1576 53.7953C84.1345 53.2114 85.3024 53.0364 86.4076 53.3082C87.5128 53.5801 88.4662 54.2769 89.0608 55.2473C89.6555 56.2178 89.8434 57.3836 89.5837 58.4918C89.3241 59.5999 88.6379 60.561 87.6741 61.1663V61.1649Z" stroke="#171717" stroke-width="1.49864"/>
</g>
</svg>
