<svg width="32" height="32" viewBox="0 0 32 32" fill="none" xmlns="http://www.w3.org/2000/svg">
<g clip-path="url(#clip0_833_62879)">
<path d="M6.66666 17.3334C6.66666 16.6261 6.94761 15.9478 7.4477 15.4477C7.9478 14.9476 8.62608 14.6667 9.33332 14.6667H22.6667C23.3739 14.6667 24.0522 14.9476 24.5523 15.4477C25.0524 15.9478 25.3333 16.6261 25.3333 17.3334V25.3334C25.3333 26.0406 25.0524 26.7189 24.5523 27.219C24.0522 27.7191 23.3739 28 22.6667 28H9.33332C8.62608 28 7.9478 27.7191 7.4477 27.219C6.94761 26.7189 6.66666 26.0406 6.66666 25.3334V17.3334Z" stroke="#EA5148" stroke-width="1.5" stroke-linecap="round" stroke-linejoin="round"/>
<path d="M14.6667 21.3333C14.6667 21.687 14.8071 22.0261 15.0572 22.2761C15.3072 22.5262 15.6464 22.6667 16 22.6667C16.3536 22.6667 16.6928 22.5262 16.9428 22.2761C17.1928 22.0261 17.3333 21.687 17.3333 21.3333C17.3333 20.9797 17.1928 20.6406 16.9428 20.3905C16.6928 20.1405 16.3536 20 16 20C15.6464 20 15.3072 20.1405 15.0572 20.3905C14.8071 20.6406 14.6667 20.9797 14.6667 21.3333Z" stroke="#EA5148" stroke-width="1.5" stroke-linecap="round" stroke-linejoin="round"/>
<path d="M10.6667 14.6667V9.33333C10.6667 7.91885 11.2286 6.56229 12.2288 5.5621C13.2289 4.5619 14.5855 4 16 4C17.4145 4 18.771 4.5619 19.7712 5.5621C20.7714 6.56229 21.3333 7.91885 21.3333 9.33333V14.6667" stroke="#EA5148" stroke-width="1.5" stroke-linecap="round" stroke-linejoin="round"/>
</g>
<defs>
<clipPath id="clip0_833_62879">
<rect width="32" height="32" fill="white"/>
</clipPath>
</defs>
</svg>
