<svg width="64" height="64" viewBox="0 0 64 64" fill="none" xmlns="http://www.w3.org/2000/svg">
<path d="M0 12C0 5.37258 5.37258 0 12 0H52C58.6274 0 64 5.37258 64 12V52C64 58.6274 58.6274 64 52 64H12C5.37258 64 0 58.6274 0 52V12Z" fill="#F8F8F8"/>
<g clip-path="url(#clip0_1002_35455)">
<path d="M18 34C18 32.9391 18.4214 31.9217 19.1716 31.1716C19.9217 30.4214 20.9391 30 22 30H42C43.0609 30 44.0783 30.4214 44.8284 31.1716C45.5786 31.9217 46 32.9391 46 34V46C46 47.0609 45.5786 48.0783 44.8284 48.8284C44.0783 49.5786 43.0609 50 42 50H22C20.9391 50 19.9217 49.5786 19.1716 48.8284C18.4214 48.0783 18 47.0609 18 46V34Z" stroke="#2E2E2E" stroke-width="2.25" stroke-linecap="round" stroke-linejoin="round"/>
<path d="M30 40C30 40.5304 30.2107 41.0391 30.5858 41.4142C30.9609 41.7893 31.4696 42 32 42C32.5304 42 33.0391 41.7893 33.4142 41.4142C33.7893 41.0391 34 40.5304 34 40C34 39.4696 33.7893 38.9609 33.4142 38.5858C33.0391 38.2107 32.5304 38 32 38C31.4696 38 30.9609 38.2107 30.5858 38.5858C30.2107 38.9609 30 39.4696 30 40Z" stroke="#2E2E2E" stroke-width="2.25" stroke-linecap="round" stroke-linejoin="round"/>
<path d="M24 30V22C24 19.8783 24.8429 17.8434 26.3431 16.3431C27.8434 14.8429 29.8783 14 32 14C34.1217 14 36.1566 14.8429 37.6569 16.3431C39.1571 17.8434 40 19.8783 40 22V30" stroke="#2E2E2E" stroke-width="2.25" stroke-linecap="round" stroke-linejoin="round"/>
</g>
<defs>
<clipPath id="clip0_1002_35455">
<rect width="48" height="48" fill="white" transform="translate(8 8)"/>
</clipPath>
</defs>
</svg>
