<svg width="64" height="64" viewBox="0 0 64 64" fill="none" xmlns="http://www.w3.org/2000/svg">
<g id="Frame">
<path id="Vector" d="M32 57.3257C45.9868 57.3257 57.3257 45.9868 57.3257 32C57.3257 18.0133 45.9868 6.67432 32 6.67432C18.0133 6.67432 6.67432 18.0133 6.67432 32C6.67432 45.9868 18.0133 57.3257 32 57.3257Z" fill="#FFF7E9"/>
<path id="Vector_2" d="M29.6935 52.6025C38.9823 52.6025 46.5129 52.0624 46.5129 51.3957C46.5129 50.729 38.9823 50.189 29.6935 50.189C20.4046 50.189 12.874 50.729 12.874 51.3957C12.874 52.0624 20.404 52.6025 29.6935 52.6025Z" fill="#F25A51"/>
<g id="Group 25427">
<path id="Vector_3" d="M44.4778 45.7463C44.3918 45.9998 44.2567 46.2339 44.0803 46.4352C43.9038 46.6365 43.6895 46.8011 43.4494 46.9196C43.2093 47.038 42.9483 47.108 42.6812 47.1255C42.414 47.1431 42.1461 47.1078 41.8926 47.0218L24.9086 41.2486C24.6551 41.1625 24.4209 41.0274 24.2196 40.8509C24.0183 40.6744 23.8537 40.4599 23.7353 40.2198C23.6169 39.9797 23.5469 39.7186 23.5293 39.4514C23.5118 39.1842 23.5471 38.9162 23.6331 38.6627L27.0427 28.6247C27.2167 28.1127 27.5869 27.6908 28.0719 27.4516C28.5569 27.2124 29.1171 27.1756 29.6292 27.3492L46.6165 33.1224C47.1285 33.2965 47.5505 33.6667 47.7897 34.1517C48.0288 34.6367 48.0656 35.1968 47.892 35.709L44.4778 45.7463Z" fill="white"/>
<path id="Vector_4" d="M29.6265 27.3486C29.1143 27.1751 28.5543 27.212 28.0693 27.4512C27.5844 27.6903 27.2141 28.1121 27.0399 28.624L23.6304 38.6614C23.5426 38.9179 23.5071 39.1895 23.5262 39.46C23.5452 39.7305 23.6183 39.9945 23.7412 40.2362L41.6227 31.424L29.6265 27.3486Z" fill="white"/>
<path id="Vector_5" d="M26.9092 29.0085L26.1218 31.3245L46.9698 38.4088L47.7565 36.0928L26.9092 29.0092V29.0085Z" fill="white"/>
<path id="Vector_6" d="M26.078 39.062L31.8693 41.0289" stroke="#171717" stroke-width="0.727044" stroke-linecap="round" stroke-linejoin="round"/>
<path id="Vector_7" d="M27.6517 34.4279L26.8649 36.7452L43.0796 42.2532L43.8664 39.9372L27.6517 34.4279Z" fill="#F25A51"/>
<path id="Vector_8" d="M44.4778 45.7463C44.3918 45.9998 44.2567 46.2339 44.0803 46.4352C43.9038 46.6365 43.6895 46.8011 43.4494 46.9196C43.2093 47.038 42.9483 47.108 42.6812 47.1255C42.414 47.1431 42.1461 47.1078 41.8926 47.0218L24.9086 41.2486C24.6551 41.1625 24.4209 41.0274 24.2196 40.8509C24.0183 40.6744 23.8537 40.4599 23.7353 40.2198C23.6169 39.9797 23.5469 39.7186 23.5293 39.4514C23.5118 39.1842 23.5471 38.9162 23.6331 38.6627L27.0427 28.6247C27.2167 28.1127 27.5869 27.6908 28.0719 27.4516C28.5569 27.2124 29.1171 27.1756 29.6292 27.3492L46.6165 33.1224C47.1285 33.2965 47.5505 33.6667 47.7897 34.1517C48.0288 34.6367 48.0656 35.1968 47.892 35.709L44.4778 45.7463Z" stroke="#171717" stroke-width="0.727044" stroke-linecap="round" stroke-linejoin="round"/>
<path id="Vector_9" d="M26.9092 29.0085L26.1218 31.3245L46.9698 38.4088L47.7565 36.0928L26.9092 29.0092V29.0085Z" fill="#F25A51" stroke="#171717" stroke-width="0.727044" stroke-linecap="round" stroke-linejoin="round"/>
<path id="Vector_10" d="M27.6517 34.4279L26.8649 36.7452L43.0796 42.2532L43.8664 39.9372L27.6517 34.4279Z" stroke="#171717" stroke-width="0.727044" stroke-linecap="round" stroke-linejoin="round"/>
<path id="Vector_11" d="M45.7749 35.2619C45.7749 35.8025 45.5602 36.321 45.178 36.7033C44.7958 37.0856 44.2774 37.3005 43.7368 37.3007H25.7956C25.5278 37.3008 25.2625 37.2482 25.0151 37.1459C24.7676 37.0435 24.5427 36.8933 24.3533 36.704C24.1639 36.5146 24.0137 36.2898 23.9112 36.0424C23.8088 35.7949 23.7561 35.5297 23.7562 35.2619V24.6607C23.7567 24.12 23.9718 23.6017 24.3541 23.2194C24.7365 22.8372 25.2549 22.6223 25.7956 22.6219H43.7362C44.2767 22.6225 44.795 22.8374 45.1772 23.2197C45.5594 23.6019 45.7744 24.1202 45.7749 24.6607V35.2619Z" fill="white"/>
<path id="Vector_12" d="M25.7956 22.6215C25.2549 22.6218 24.7365 22.8367 24.3541 23.2189C23.9718 23.6012 23.7567 24.1195 23.7562 24.6602V35.2614C23.7557 35.5327 23.8096 35.8013 23.9146 36.0513C24.0196 36.3014 24.1737 36.5279 24.3677 36.7175L38.4651 22.6201L25.7956 22.6215Z" fill="white"/>
<path id="Vector_13" d="M45.7743 25.068H23.7562V27.5142H45.7743V25.068Z" fill="#F25A51"/>
<path id="Vector_14" d="M26.2031 34.8542L32.3193 34.8535" stroke="#171717" stroke-width="0.727044" stroke-linecap="round" stroke-linejoin="round"/>
<path id="Vector_15" d="M43.328 29.9611H26.2031V32.408H43.328V29.9611Z" fill="white"/>
<path id="Vector_16" d="M45.7749 35.2619C45.7749 35.8025 45.5602 36.321 45.178 36.7033C44.7958 37.0856 44.2774 37.3005 43.7368 37.3007H25.7956C25.5278 37.3008 25.2625 37.2482 25.0151 37.1459C24.7676 37.0435 24.5427 36.8933 24.3533 36.704C24.1639 36.5146 24.0137 36.2898 23.9112 36.0424C23.8088 35.7949 23.7561 35.5297 23.7562 35.2619V24.6607C23.7567 24.12 23.9718 23.6017 24.3541 23.2194C24.7365 22.8372 25.2549 22.6223 25.7956 22.6219H43.7362C44.2767 22.6225 44.795 22.8374 45.1772 23.2197C45.5594 23.6019 45.7744 24.1202 45.7749 24.6607V35.2619Z" stroke="#171717" stroke-width="0.727044" stroke-linecap="round" stroke-linejoin="round"/>
<path id="Vector_17" d="M45.7742 25.068H23.7562V27.5142H45.7742V25.068Z" stroke="#171717" stroke-width="0.727044" stroke-linecap="round" stroke-linejoin="round"/>
<path id="Vector_18" d="M43.328 29.9611H26.2031V32.408H43.328V29.9611Z" fill="#F25A51" stroke="#171717" stroke-width="0.727044" stroke-linecap="round" stroke-linejoin="round"/>
<path id="Vector_19" d="M16.9537 20.4582L34.0269 10.8129C34.6613 10.4547 35.412 10.363 36.114 10.5581C36.8159 10.7533 37.4116 11.2192 37.7701 11.8535L43.2198 21.5014C43.3972 21.8155 43.5111 22.1615 43.5549 22.5196C43.5987 22.8777 43.5714 23.241 43.4748 23.5886C43.3782 23.9362 43.2141 24.2613 42.9918 24.5455C42.7695 24.8296 42.4934 25.0672 42.1792 25.2446L25.106 34.8892C24.7919 35.0668 24.446 35.1807 24.0879 35.2246C23.7299 35.2684 23.3667 35.2412 23.0191 35.1445C22.6715 35.0479 22.3464 34.8837 22.0623 34.6614C21.7782 34.439 21.5408 34.1629 21.3635 33.8487L15.9138 24.2014C15.736 23.8873 15.6219 23.5413 15.578 23.1831C15.5341 22.8249 15.5612 22.4615 15.6579 22.1138C15.7545 21.766 15.9188 21.4408 16.1412 21.1566C16.3637 20.8724 16.64 20.6349 16.9543 20.4576L16.9537 20.4582Z" fill="#F25A51"/>
<path id="Vector_20" d="M23.7562 31.1592L27.9988 28.762" stroke="#171717" stroke-width="0.727044" stroke-linecap="round" stroke-linejoin="round"/>
<path id="Vector_21" d="M23.7781 23.3104L21.2647 24.7303C21.1511 24.7945 21.0513 24.8804 20.9709 24.9832C20.8905 25.086 20.8312 25.2037 20.7963 25.3294C20.7614 25.4551 20.7516 25.5865 20.7674 25.716C20.7833 25.8456 20.8246 25.9707 20.8888 26.0843L21.5896 27.3242C21.7193 27.5534 21.9347 27.7218 22.1885 27.7923C22.4423 27.8628 22.7136 27.8296 22.943 27.7001L25.4563 26.281C25.5699 26.2168 25.6698 26.1308 25.7502 26.028C25.8305 25.9252 25.8899 25.8076 25.9248 25.6818C25.9597 25.5561 25.9695 25.4247 25.9536 25.2952C25.9377 25.1657 25.8965 25.0405 25.8323 24.9269L25.1321 23.687C25.0679 23.5734 24.982 23.4735 24.8793 23.393C24.7765 23.3126 24.6589 23.2532 24.5331 23.2182C24.4074 23.1832 24.276 23.1734 24.1464 23.1892C24.0169 23.205 23.8917 23.2462 23.7781 23.3104Z" fill="white" stroke="#171717" stroke-width="0.727044" stroke-linecap="round" stroke-linejoin="round"/>
<path id="Vector_22" d="M16.9537 20.4582L34.0269 10.8129C34.6613 10.4547 35.412 10.363 36.114 10.5581C36.8159 10.7533 37.4116 11.2192 37.7701 11.8535L43.2198 21.5014C43.3972 21.8155 43.5111 22.1615 43.5549 22.5196C43.5987 22.8777 43.5714 23.241 43.4748 23.5886C43.3782 23.9362 43.2141 24.2613 42.9918 24.5455C42.7695 24.8296 42.4934 25.0672 42.1792 25.2446L25.106 34.8892C24.7919 35.0668 24.446 35.1807 24.0879 35.2246C23.7299 35.2684 23.3667 35.2412 23.0191 35.1445C22.6715 35.0479 22.3464 34.8837 22.0623 34.6614C21.7782 34.439 21.5408 34.1629 21.3635 33.8487L15.9138 24.2014C15.736 23.8873 15.6219 23.5413 15.578 23.1831C15.5341 22.8249 15.5612 22.4615 15.6579 22.1138C15.7545 21.766 15.9188 21.4408 16.1412 21.1566C16.3637 20.8724 16.64 20.6349 16.9543 20.4576L16.9537 20.4582Z" stroke="#171717" stroke-width="0.727044" stroke-linecap="round" stroke-linejoin="round"/>
<path id="Vector_23" d="M34.2748 26.4614C35.0504 26.4614 35.7942 26.1533 36.3426 25.605C36.891 25.0566 37.199 24.3128 37.199 23.5372C37.199 22.7617 36.891 22.0179 36.3426 21.4695C35.7942 20.9211 35.0504 20.613 34.2748 20.613C33.4993 20.613 32.7555 20.9211 32.2071 21.4695C31.6587 22.0179 31.3506 22.7617 31.3506 23.5372C31.3506 24.3128 31.6587 25.0566 32.2071 25.605C32.7555 26.1533 33.4993 26.4614 34.2748 26.4614Z" fill="white"/>
<path id="Vector_24" d="M37.2448 24.7833C38.0203 24.7833 38.7641 24.4752 39.3125 23.9269C39.8609 23.3785 40.169 22.6347 40.169 21.8591C40.169 21.0836 39.8609 20.3398 39.3125 19.7914C38.7641 19.243 38.0203 18.9349 37.2448 18.9349C36.4692 18.9349 35.7254 19.243 35.177 19.7914C34.6286 20.3398 34.3206 21.0836 34.3206 21.8591C34.3206 22.6347 34.6286 23.3785 35.177 23.9269C35.7254 24.4752 36.4692 24.7833 37.2448 24.7833Z" fill="white"/>
<path id="Vector_25" d="M34.6984 23.2977C34.9266 23.7018 35.2477 24.0457 35.6353 24.3009C36.0229 24.5561 36.4657 24.7153 36.9271 24.7652C37.1221 24.3441 37.214 23.8826 37.1953 23.419C37.1765 22.9553 37.0477 22.5028 36.8194 22.0987C36.5912 21.6947 36.27 21.3509 35.8825 21.0956C35.495 20.8403 35.0523 20.6809 34.591 20.6306C34.3955 21.0517 34.3033 21.5133 34.3219 21.9772C34.3406 22.441 34.4697 22.8937 34.6984 23.2977Z" fill="white"/>
<path id="Vector_26" d="M34.2748 26.4614C35.0504 26.4614 35.7942 26.1533 36.3426 25.605C36.891 25.0566 37.199 24.3128 37.199 23.5372C37.199 22.7617 36.891 22.0179 36.3426 21.4695C35.7942 20.9211 35.0504 20.613 34.2748 20.613C33.4993 20.613 32.7555 20.9211 32.2071 21.4695C31.6587 22.0179 31.3506 22.7617 31.3506 23.5372C31.3506 24.3128 31.6587 25.0566 32.2071 25.605C32.7555 26.1533 33.4993 26.4614 34.2748 26.4614Z" stroke="#171717" stroke-width="0.727044" stroke-linecap="round" stroke-linejoin="round"/>
<path id="Vector_27" d="M37.2448 24.7833C38.0203 24.7833 38.7641 24.4752 39.3125 23.9269C39.8609 23.3785 40.169 22.6347 40.169 21.8591C40.169 21.0836 39.8609 20.3398 39.3125 19.7914C38.7641 19.243 38.0203 18.9349 37.2448 18.9349C36.4692 18.9349 35.7254 19.243 35.177 19.7914C34.6286 20.3398 34.3206 21.0836 34.3206 21.8591C34.3206 22.6347 34.6286 23.3785 35.177 23.9269C35.7254 24.4752 36.4692 24.7833 37.2448 24.7833Z" stroke="#171717" stroke-width="0.727044" stroke-linecap="round" stroke-linejoin="round"/>
</g>
</g>
</svg>
