<svg width="40" height="34" viewBox="0 0 40 34" fill="none" xmlns="http://www.w3.org/2000/svg">
<g id="MCB Logo Vector 1" clip-path="url(#clip0_733_83707)">
<path id="Vector" fill-rule="evenodd" clip-rule="evenodd" d="M0.0695801 31.2861H39.6762V33.6702H0.0695801V31.2861ZM18.9676 16.4788C18.9525 15.5689 18.6731 14.683 18.1635 13.9291C17.6539 13.1752 16.9361 12.5857 16.0974 12.2325C11.2342 10.0892 5.97683 8.98571 0.662295 8.99272H0.22256C0.131402 9.39027 0.084977 9.79677 0.0841497 10.2046L0.0695801 19.7265L18.9755 19.7192L18.9676 16.4788ZM20.7775 16.4788C20.7926 15.569 21.0719 14.6832 21.5814 13.9293C22.0909 13.1754 22.8086 12.5858 23.6471 12.2325C28.5108 10.0893 33.7685 8.9858 39.0835 8.99272H39.5232C39.6144 9.39027 39.6608 9.79677 39.6616 10.2046L39.6762 19.7265L20.7702 19.7192L20.7775 16.4788ZM19.863 8.62914C14.8519 6.13481 9.4011 4.64523 3.81792 4.24437C2.57422 5.13046 1.60203 6.12053 0.962957 7.18676C7.57053 7.22587 14.0649 8.90551 19.863 12.0748C25.6681 8.90548 32.169 7.22595 38.7828 7.18676C38.1424 6.12053 37.1709 5.13046 35.9279 4.24437C30.3384 4.6453 24.8811 6.13481 19.863 8.62914ZM19.8822 6.60397C24.0916 4.61322 28.5866 3.29307 33.204 2.69139C29.6875 1.03576 25.01 0 19.8729 0C14.7358 0 10.0583 1.03709 6.54243 2.69139C11.1656 3.29295 15.6665 4.61306 19.8822 6.60397Z" fill="#4DAE45"/>
<path id="Vector_2" d="M14.6087 22.5517C14.6087 21.743 16.0974 22.1808 16.0974 21.8113C16.0974 21.7073 16.0266 21.6729 15.8325 21.6729C15.1411 21.6729 14.1305 21.6954 12.8372 21.6954H11.1868L8.36894 26.4483L5.51398 21.6954H3.82987C2.53583 21.6954 1.52524 21.6729 0.833845 21.6729C0.63517 21.6729 0.568944 21.7073 0.568944 21.8113C0.568944 22.1808 2.05769 21.745 2.05769 22.5517V27.6404C2.05769 29.5232 0.000732422 29.0146 0.000732422 29.4086C0.000732422 29.5132 0.124574 29.5589 0.337156 29.5589C1.04643 29.5589 1.70272 29.5358 2.34179 29.5358C2.98087 29.5358 3.63517 29.5589 4.3451 29.5589C4.55769 29.5589 4.68219 29.5132 4.68219 29.4086C4.68219 29.0113 2.6259 29.5232 2.6259 27.6404V22.9212H2.661L6.64974 29.4543C6.70206 29.5205 6.7557 29.6285 6.91464 29.6285C7.03782 29.6285 7.07424 29.5623 7.14444 29.4543L11.0279 22.851H11.063V28.6788C11.063 29.4874 9.57424 29.0483 9.57424 29.4192C9.57424 29.5219 9.64444 29.5576 9.83914 29.5576C10.5312 29.5576 11.5411 29.5344 12.8358 29.5344C14.1305 29.5344 15.1398 29.5576 15.8312 29.5576C16.0259 29.5576 16.0961 29.5219 16.0961 29.4192C16.0961 29.0483 14.6074 29.4854 14.6074 28.6788V22.5517" fill="#145BA4"/>
<path id="Vector_3" d="M27.5153 26.8185C27.5153 26.7152 27.4623 26.645 27.3166 26.645C26.9802 26.645 27.118 27.0265 26.5008 27.6861C25.4902 28.7457 23.967 29.443 22.7425 29.443C20.9875 29.443 19.9955 28.541 19.9955 25.6152C19.9955 23.5457 20.6862 21.7874 22.7425 21.7874C24.0902 21.7874 25.3133 22.5629 26.1643 23.4649C27.1749 24.5397 26.9802 24.898 27.3166 24.898C27.4769 24.898 27.4769 24.8179 27.4769 24.6901V21.9265C27.4769 21.743 27.3524 21.6954 27.2279 21.6954C26.8206 21.6954 27.1034 22.2252 26.4829 22.2252C25.6325 22.2252 24.4961 21.5079 22.5094 21.5079C19.1405 21.5079 16.0908 23.1046 16.0908 25.6139C16.0908 28.1232 18.8213 29.7199 22.5809 29.7199C24.4961 29.7199 25.8968 29.106 26.6412 29.106C27.1378 29.106 26.9782 29.5344 27.3147 29.5344C27.4385 29.5344 27.5133 29.4682 27.5133 29.3159V26.8185" fill="#145BA4"/>
<path id="Vector_4" fill-rule="evenodd" clip-rule="evenodd" d="M33.8835 25.4702C35.6915 25.4702 36.0994 25.9444 36.0994 27.355C36.0994 29.1477 35.5849 29.2636 33.9729 29.2636C33.2623 29.2636 33.0855 29.1357 33.0855 28.8463V25.4689H33.8802M29.5372 28.6788C29.5372 29.4874 28.0471 29.0483 28.0471 29.4192C28.0471 29.5218 28.1173 29.5576 28.312 29.5576C29.0047 29.5576 30.0147 29.5344 31.3087 29.5344C32.5849 29.5344 33.8253 29.5576 35.1213 29.5576C38.4008 29.5576 39.9961 28.7702 39.9961 27.2331C39.9961 25.7298 37.5458 25.394 35.2624 25.3715V25.3258C38.0094 25.3258 39.4286 24.6318 39.4286 23.5556C39.4286 22.5271 38.3114 21.6715 34.8544 21.6715C33.7014 21.6715 32.567 21.694 31.3087 21.694C30.0147 21.694 29.0047 21.6715 28.312 21.6715C28.1133 21.6715 28.0471 21.7059 28.0471 21.8099C28.0471 22.1795 29.5372 21.7437 29.5372 22.5503V28.6788ZM33.0822 21.9304H34.1286C35.4047 21.9304 35.6716 22.1728 35.6716 23.4914C35.6716 25.0185 35.208 25.1907 33.916 25.1907H33.0855L33.0822 21.9304Z" fill="#145BA4"/>
</g>
<defs>
<clipPath id="clip0_733_83707">
<rect width="40" height="33.6735" fill="white"/>
</clipPath>
</defs>
</svg>
