<svg width="49" height="48" viewBox="0 0 49 48" fill="none" xmlns="http://www.w3.org/2000/svg">
<rect x="0.666664" width="48" height="48" rx="24" fill="#F8F8F8"/>
<g clip-path="url(#clip0_1193_18661)">
<path d="M21.6667 19H27.6667M21.6667 23H27.6667M25.6667 27H27.6667M17.6667 33V17C17.6667 16.4696 17.8774 15.9609 18.2525 15.5858C18.6275 15.2107 19.1362 15 19.6667 15H29.6667C30.1971 15 30.7058 15.2107 31.0809 15.5858C31.456 15.9609 31.6667 16.4696 31.6667 17V33L28.6667 31L26.6667 33L24.6667 31L22.6667 33L20.6667 31L17.6667 33Z" stroke="#EA5148" stroke-width="1.5" stroke-linecap="round" stroke-linejoin="round"/>
</g>
<defs>
<clipPath id="clip0_1193_18661">
<rect width="24" height="24" fill="white" transform="translate(12.6667 12)"/>
</clipPath>
</defs>
</svg>
