<svg width="21" height="20" viewBox="0 0 21 20" fill="none" xmlns="http://www.w3.org/2000/svg">
<g clip-path="url(#clip0_573_1635)">
<path d="M3.83334 4.16683C3.83334 3.94582 3.92113 3.73385 4.07741 3.57757C4.23369 3.42129 4.44566 3.3335 4.66667 3.3335H8C8.22102 3.3335 8.43298 3.42129 8.58926 3.57757C8.74554 3.73385 8.83334 3.94582 8.83334 4.16683V7.50016C8.83334 7.72118 8.74554 7.93314 8.58926 8.08942C8.43298 8.2457 8.22102 8.3335 8 8.3335H4.66667C4.44566 8.3335 4.23369 8.2457 4.07741 8.08942C3.92113 7.93314 3.83334 7.72118 3.83334 7.50016V4.16683Z" stroke="#8E8E8E" stroke-width="1.5" stroke-linecap="round" stroke-linejoin="round"/>
<path d="M12.1667 4.16683C12.1667 3.94582 12.2545 3.73385 12.4107 3.57757C12.567 3.42129 12.779 3.3335 13 3.3335H16.3333C16.5543 3.3335 16.7663 3.42129 16.9226 3.57757C17.0789 3.73385 17.1667 3.94582 17.1667 4.16683V7.50016C17.1667 7.72118 17.0789 7.93314 16.9226 8.08942C16.7663 8.2457 16.5543 8.3335 16.3333 8.3335H13C12.779 8.3335 12.567 8.2457 12.4107 8.08942C12.2545 7.93314 12.1667 7.72118 12.1667 7.50016V4.16683Z" stroke="#8E8E8E" stroke-width="1.5" stroke-linecap="round" stroke-linejoin="round"/>
<path d="M3.83334 12.4998C3.83334 12.2788 3.92113 12.0669 4.07741 11.9106C4.23369 11.7543 4.44566 11.6665 4.66667 11.6665H8C8.22102 11.6665 8.43298 11.7543 8.58926 11.9106C8.74554 12.0669 8.83334 12.2788 8.83334 12.4998V15.8332C8.83334 16.0542 8.74554 16.2661 8.58926 16.4224C8.43298 16.5787 8.22102 16.6665 8 16.6665H4.66667C4.44566 16.6665 4.23369 16.5787 4.07741 16.4224C3.92113 16.2661 3.83334 16.0542 3.83334 15.8332V12.4998Z" stroke="#8E8E8E" stroke-width="1.5" stroke-linecap="round" stroke-linejoin="round"/>
<path d="M12.1667 12.4998C12.1667 12.2788 12.2545 12.0669 12.4107 11.9106C12.567 11.7543 12.779 11.6665 13 11.6665H16.3333C16.5543 11.6665 16.7663 11.7543 16.9226 11.9106C17.0789 12.0669 17.1667 12.2788 17.1667 12.4998V15.8332C17.1667 16.0542 17.0789 16.2661 16.9226 16.4224C16.7663 16.5787 16.5543 16.6665 16.3333 16.6665H13C12.779 16.6665 12.567 16.5787 12.4107 16.4224C12.2545 16.2661 12.1667 16.0542 12.1667 15.8332V12.4998Z" stroke="#8E8E8E" stroke-width="1.5" stroke-linecap="round" stroke-linejoin="round"/>
</g>
<defs>
<clipPath id="clip0_573_1635">
<rect width="20" height="20" fill="white" transform="translate(0.5)"/>
</clipPath>
</defs>
</svg>
