<svg width="80" height="80" viewBox="0 0 80 80" fill="none" xmlns="http://www.w3.org/2000/svg">
<g id="Frame">
<path id="Vector" d="M8.34277 40C8.34277 48.396 11.6781 56.4482 17.6149 62.385C23.5518 68.3219 31.6039 71.6572 39.9999 71.6572C48.3959 71.6572 56.448 68.3219 62.3849 62.385C68.3218 56.4482 71.6571 48.396 71.6571 40C71.6571 31.604 68.3218 23.5519 62.3849 17.6151C56.448 11.6782 48.3959 8.3429 39.9999 8.3429C31.6039 8.3429 23.5518 11.6782 17.6149 17.6151C11.6781 23.5519 8.34277 31.604 8.34277 40Z" fill="#FFF7E9"/>
<path id="Vector_2" d="M45.4671 64.0927C45.4671 64.8516 40.956 65.4674 35.3891 65.4674C29.8222 65.4674 25.311 64.8509 25.311 64.0927C25.311 63.3345 29.8222 62.7188 35.3891 62.7188C40.956 62.7188 45.4671 63.3337 45.4671 64.0927Z" fill="#F25A51"/>
<path id="Vector_3" d="M46.0742 46.6717L49.847 42.8982L54.2473 47.2985L50.4746 51.0721L46.0742 46.6717Z" fill="white" stroke="#171717" stroke-linecap="round" stroke-linejoin="round"/>
<path id="Vector_4" d="M63.0487 54.8417C63.7157 55.5086 64.0904 56.4131 64.0905 57.3562C64.0906 58.2993 63.716 59.2039 63.0491 59.8708C62.3823 60.5378 61.4778 60.9125 60.5346 60.9126C59.5915 60.9127 58.687 60.5381 58.02 59.8712L50.4769 52.3273C50.3943 52.2449 50.3287 52.1469 50.284 52.0391C50.2393 51.9313 50.2163 51.8157 50.2163 51.699C50.2163 51.5822 50.2393 51.4666 50.284 51.3588C50.3287 51.251 50.3943 51.153 50.4769 51.0706L54.2457 47.2986C54.3282 47.216 54.4262 47.1504 54.5341 47.1057C54.642 47.061 54.7577 47.038 54.8745 47.038C54.9913 47.038 55.1069 47.061 55.2148 47.1057C55.3227 47.1504 55.4207 47.216 55.5033 47.2986L63.0487 54.8417Z" fill="#F25A51"/>
<path id="Vector_5" d="M63.0487 54.8417C63.7157 55.5086 64.0904 56.4131 64.0905 57.3562C64.0906 58.2993 63.716 59.2039 63.0491 59.8708C62.3823 60.5378 61.4778 60.9125 60.5346 60.9126C59.5915 60.9127 58.687 60.5381 58.02 59.8712L50.4769 52.3273C50.3943 52.2449 50.3287 52.1469 50.284 52.0391C50.2393 51.9313 50.2163 51.8157 50.2163 51.699C50.2163 51.5822 50.2393 51.4666 50.284 51.3588C50.3287 51.251 50.3943 51.153 50.4769 51.0706L54.2457 47.2986C54.3282 47.216 54.4262 47.1504 54.5341 47.1057C54.642 47.061 54.7577 47.038 54.8745 47.038C54.9913 47.038 55.1069 47.061 55.2148 47.1057C55.3227 47.1504 55.4207 47.216 55.5033 47.2986L63.0487 54.8417Z" stroke="#171717" stroke-linecap="round" stroke-linejoin="round"/>
<path id="Vector_6" d="M16.7202 32.2123C16.7202 37.1637 18.6871 41.9122 22.1882 45.4133C25.6894 48.9144 30.4379 50.8814 35.3892 50.8814C40.3405 50.8814 45.0891 48.9144 48.5902 45.4133C52.0913 41.9122 54.0582 37.1637 54.0582 32.2123C54.0582 27.261 52.0913 22.5125 48.5902 19.0114C45.0891 15.5102 40.3405 13.5433 35.3892 13.5433C30.4379 13.5433 25.6894 15.5102 22.1882 19.0114C18.6871 22.5125 16.7202 27.261 16.7202 32.2123Z" fill="white"/>
<path id="Vector_7" d="M32.0193 46.4881C33.898 46.9418 35.8477 47.0198 37.7566 46.7176C39.6655 46.4154 41.4958 45.739 43.1424 44.7271C44.789 43.7153 46.2194 42.3881 47.3515 40.8217C48.4835 39.2553 49.2949 37.4806 49.7389 35.5997C50.1829 33.7187 50.2508 31.7686 49.9388 29.8613C49.6267 27.954 48.9408 26.1272 47.9205 24.4858C46.9002 22.8445 45.5656 21.4209 43.9934 20.297C42.4212 19.173 40.6423 18.3708 38.7591 17.9366C36.8805 17.4828 34.9307 17.4048 33.0219 17.7071C31.113 18.0093 29.2827 18.6857 27.636 19.6975C25.9894 20.7094 24.559 22.0366 23.427 23.603C22.2949 25.1694 21.4836 26.9441 21.0396 28.825C20.5956 30.7059 20.5276 32.6561 20.8397 34.5634C21.1517 36.4707 21.8376 38.2975 22.8579 39.9388C23.8782 41.5802 25.2129 43.0038 26.7851 44.1277C28.3573 45.2517 30.1361 46.0538 32.0193 46.4881Z" fill="#FFF7E9"/>
<g id="Group 25427">
<path id="Vector_8" d="M35.714 33.6122C35.683 33.734 35.6123 33.842 35.5131 33.9191C35.4138 33.9963 35.2917 34.0381 35.1661 34.0381C35.0404 34.0381 34.9183 33.9963 34.8191 33.9191C34.7198 33.842 34.6491 33.734 34.6181 33.6122C32.4023 24.8906 32.4984 25.2861 32.4896 25.1961C32.4586 24.8258 32.5047 24.453 32.6251 24.1014C32.7455 23.7499 32.9375 23.4271 33.1891 23.1535C33.4407 22.88 33.7463 22.6616 34.0865 22.5123C34.4268 22.3629 34.7944 22.2858 35.1661 22.2858C35.5377 22.2858 35.9053 22.3629 36.2456 22.5123C36.5859 22.6616 36.8915 22.88 37.143 23.1535C37.3946 23.4271 37.5866 23.7499 37.707 24.1014C37.8274 24.453 37.8736 24.8258 37.8425 25.1961C37.8338 25.2834 37.9271 24.8879 35.714 33.6122Z" fill="#F25A51" stroke="#171717" stroke-linecap="round" stroke-linejoin="round"/>
<path id="Vector_9" d="M37.8546 38.7892C37.8546 39.3204 37.6971 39.8397 37.4019 40.2814C37.1068 40.7231 36.6873 41.0673 36.1966 41.2706C35.7058 41.4739 35.1658 41.5271 34.6448 41.4235C34.1238 41.3198 33.6452 41.064 33.2696 40.6884C32.894 40.3128 32.6382 39.8342 32.5345 39.3132C32.4309 38.7922 32.4841 38.2522 32.6874 37.7614C32.8906 37.2706 33.2349 36.8512 33.6766 36.556C34.1183 36.2609 34.6375 36.1034 35.1687 36.1034C35.8811 36.1034 36.5642 36.3864 37.0679 36.8901C37.5716 37.3937 37.8546 38.0769 37.8546 38.7892Z" fill="#F25A51" stroke="#171717" stroke-linecap="round" stroke-linejoin="round"/>
</g>
<path id="Vector_10" d="M32.0193 46.4881C33.898 46.9418 35.8477 47.0198 37.7566 46.7176C39.6655 46.4154 41.4958 45.739 43.1424 44.7271C44.789 43.7153 46.2194 42.3881 47.3515 40.8217C48.4835 39.2553 49.2949 37.4806 49.7389 35.5997C50.1829 33.7187 50.2508 31.7686 49.9388 29.8613C49.6267 27.954 48.9408 26.1272 47.9205 24.4858C46.9002 22.8445 45.5656 21.4209 43.9934 20.297C42.4212 19.173 40.6423 18.3708 38.7591 17.9366C36.8805 17.4828 34.9307 17.4048 33.0219 17.7071C31.113 18.0093 29.2827 18.6857 27.636 19.6975C25.9894 20.7094 24.559 22.0366 23.427 23.603C22.2949 25.1694 21.4836 26.9441 21.0396 28.825C20.5956 30.7059 20.5276 32.6561 20.8397 34.5634C21.1517 36.4707 21.8376 38.2975 22.8579 39.9388C23.8782 41.5802 25.2129 43.0038 26.7851 44.1277C28.3573 45.2517 30.1361 46.0538 32.0193 46.4881Z" stroke="#171717" stroke-linecap="round" stroke-linejoin="round"/>
<path id="Vector_11" d="M16.7202 32.2123C16.7202 37.1637 18.6871 41.9122 22.1882 45.4133C25.6894 48.9144 30.4379 50.8813 35.3892 50.8813C40.3405 50.8813 45.0891 48.9144 48.5902 45.4133C52.0913 41.9122 54.0582 37.1637 54.0582 32.2123C54.0582 27.261 52.0913 22.5125 48.5902 19.0114C45.0891 15.5102 40.3405 13.5433 35.3892 13.5433C30.4379 13.5433 25.6894 15.5102 22.1882 19.0114C18.6871 22.5125 16.7202 27.261 16.7202 32.2123Z" stroke="#171717" stroke-linecap="round" stroke-linejoin="round"/>
</g>
</svg>
