<svg width="81" height="80" viewBox="0 0 81 80" fill="none" xmlns="http://www.w3.org/2000/svg">
<g id="UX Duotone">
<g id="Group">
<path id="Vector" d="M8.5 39.9999C8.5 48.4869 11.8714 56.6262 17.8726 62.6274C23.8737 68.6285 32.0131 71.9999 40.5 71.9999C48.9869 71.9999 57.1263 68.6285 63.1274 62.6274C69.1286 56.6262 72.5 48.4869 72.5 39.9999C72.5 31.513 69.1286 23.3737 63.1274 17.3725C57.1263 11.3714 48.9869 7.99994 40.5 7.99994C32.0131 7.99994 23.8737 11.3714 17.8726 17.3725C11.8714 23.3737 8.5 31.513 8.5 39.9999Z" fill="#FFF7E9"/>
<path id="Vector_2" d="M13.2075 26.4047L53.7598 13.9942L62.6244 42.9601L22.0721 55.3706L13.2075 26.4047Z" fill="#F25A51"/>
<path id="Vector_3" d="M13.2075 26.4047L53.7598 13.9942L62.6244 42.9601L22.0721 55.3706L13.2075 26.4047Z" stroke="#171717" stroke-linecap="round" stroke-linejoin="round"/>
<path id="Vector_4" d="M13.2075 26.4047L53.7598 13.9942L62.6244 42.9601L22.0721 55.3706L13.2075 26.4047Z" stroke="#171717" stroke-linecap="round" stroke-linejoin="round"/>
<path id="Vector_5" d="M29.8281 65.1256C29.8281 65.4013 30.1676 65.6744 30.8272 65.9292C31.4868 66.184 32.4535 66.4155 33.6723 66.6105C34.891 66.8055 36.3379 66.9602 37.9303 67.0657C39.5227 67.1713 41.2294 67.2256 42.9529 67.2256C44.6765 67.2256 46.3832 67.1713 47.9756 67.0657C49.5679 66.9602 51.0148 66.8055 52.2336 66.6105C53.4523 66.4155 54.4191 66.184 55.0787 65.9292C55.7382 65.6744 56.0777 65.4013 56.0777 65.1256C56.0777 64.8498 55.7382 64.5767 55.0787 64.3219C54.4191 64.0672 53.4523 63.8357 52.2336 63.6406C51.0148 63.4456 49.5679 63.291 47.9756 63.1854C46.3832 63.0799 44.6765 63.0256 42.9529 63.0256C41.2294 63.0256 39.5227 63.0799 37.9303 63.1854C36.3379 63.291 34.891 63.4456 33.6723 63.6406C32.4535 63.8357 31.4868 64.0672 30.8272 64.3219C30.1676 64.5767 29.8281 64.8498 29.8281 65.1256Z" fill="#F25A51"/>
<path id="Vector_6" d="M19.5857 26.8571H63.2449V58.0419H19.5857V26.8571Z" fill="white"/>
<path id="Vector_7" d="M45.14 50.9514C44.909 50.9523 44.68 50.9072 44.4666 50.8188C44.2531 50.7303 44.0594 50.6003 43.8967 50.4362L41.7092 48.2479L39.5209 50.4362C39.3585 50.6036 39.1644 50.7371 38.95 50.8288C38.7355 50.9205 38.505 50.9686 38.2717 50.9703C38.0385 50.9721 37.8072 50.9274 37.5914 50.8389C37.3756 50.7504 37.1796 50.6199 37.0147 50.4549C36.8498 50.2899 36.7194 50.0938 36.631 49.8779C36.5427 49.6621 36.4982 49.4308 36.5001 49.1976C36.502 48.9643 36.5502 48.7338 36.6421 48.5194C36.7339 48.305 36.8675 48.111 37.035 47.9487L39.2233 45.7612L37.035 43.5737C36.8717 43.4104 36.7421 43.2166 36.6537 43.0032C36.5653 42.7899 36.5198 42.5612 36.5197 42.3302C36.5197 42.0993 36.5651 41.8706 36.6535 41.6572C36.7418 41.4439 36.8713 41.25 37.0346 41.0866C37.1979 40.9233 37.3918 40.7937 37.6051 40.7053C37.8185 40.6169 38.0471 40.5714 38.2781 40.5714C38.509 40.5713 38.7377 40.6168 38.9511 40.7051C39.1645 40.7935 39.3584 40.923 39.5217 41.0862L41.7092 43.2745L43.8967 41.087C44.06 40.9238 44.2539 40.7942 44.4673 40.7059C44.6807 40.6176 44.9094 40.5721 45.1403 40.5721C45.3713 40.5722 45.5999 40.6177 45.8133 40.7061C46.0266 40.7945 46.2205 40.9241 46.3838 41.0874C46.5471 41.2508 46.6766 41.4446 46.7649 41.658C46.8532 41.8714 46.8987 42.1001 46.8987 42.331C46.8986 42.562 46.8531 42.7907 46.7647 43.004C46.6763 43.2174 46.5467 43.4112 46.3834 43.5745L44.1951 45.762L46.3834 47.9495C46.6293 48.1954 46.7967 48.5088 46.8645 48.8498C46.9324 49.1909 46.8975 49.5445 46.7644 49.8658C46.6314 50.1871 46.406 50.4617 46.1169 50.6549C45.8277 50.8482 45.4878 50.9513 45.14 50.9514Z" fill="#F25A51" stroke="#171717" stroke-linecap="round" stroke-linejoin="round"/>
<path id="Vector_8" d="M19.5857 31.2983H63.2449V35.3303H19.5857V31.2983Z" fill="#F25A51" stroke="#171717"/>
<path id="Vector_9" d="M19.5857 31.2983H63.2449V35.3303H19.5857V31.2983Z" stroke="#171717" stroke-linecap="round" stroke-linejoin="round"/>
<path id="Vector_10" d="M19.5857 26.688H63.2449V57.8728H19.5857V26.688Z" stroke="#171717" stroke-linecap="round" stroke-linejoin="round"/>
</g>
</g>
</svg>
