<svg width="80" height="80" viewBox="0 0 80 80" fill="none" xmlns="http://www.w3.org/2000/svg">
<g id="Frame">
<path id="Vector" d="M6.28809 40C6.28809 48.3961 9.62341 56.4483 15.5603 62.3852C21.4973 68.3221 29.5495 71.6574 37.9455 71.6574C46.3416 71.6574 54.3938 68.3221 60.3307 62.3852C66.2677 56.4483 69.603 48.3961 69.603 40C69.603 31.6039 66.2677 23.5517 60.3307 17.6148C54.3938 11.6779 46.3416 8.34253 37.9455 8.34253C29.5495 8.34253 21.4973 11.6779 15.5603 17.6148C9.62341 23.5517 6.28809 31.6039 6.28809 40Z" fill="#FFF7E9"/>
<path id="Vector_2" d="M12.6013 57.5192C12.6013 57.8487 12.8998 58.1749 13.4797 58.4793C14.0597 58.7837 14.9097 59.0603 15.9813 59.2933C17.0529 59.5262 18.325 59.711 19.7251 59.8371C21.1252 59.9632 22.6258 60.0281 24.1413 60.0281C25.6567 60.0281 27.1573 59.9632 28.5574 59.8371C29.9575 59.711 31.2296 59.5262 32.3012 59.2933C33.3728 59.0603 34.2228 58.7837 34.8028 58.4793C35.3827 58.1749 35.6812 57.8487 35.6812 57.5192C35.6812 57.1898 35.3827 56.8635 34.8028 56.5591C34.2228 56.2547 33.3728 55.9782 32.3012 55.7452C31.2296 55.5122 29.9575 55.3274 28.5574 55.2014C27.1573 55.0753 25.6567 55.0104 24.1413 55.0104C22.6258 55.0104 21.1252 55.0753 19.7251 55.2014C18.325 55.3274 17.0529 55.5122 15.9813 55.7452C14.9097 55.9782 14.0597 56.2547 13.4797 56.5591C12.8998 56.8635 12.6013 57.1898 12.6013 57.5192Z" fill="#F25A51"/>
<path id="Vector_3" d="M22.636 38.4535V48.9899C22.636 49.6553 22.9003 50.2934 23.3708 50.7639C23.8413 51.2344 24.4795 51.4987 25.1448 51.4987H57.7568C58.4222 51.4987 59.0603 51.2344 59.5308 50.7639C60.0013 50.2934 60.2656 49.6553 60.2656 48.9899V38.4535H22.636Z" fill="white"/>
<path id="Vector_4" d="M22.636 38.4535V48.9899C22.636 49.6553 22.9003 50.2934 23.3708 50.7639C23.8413 51.2344 24.4795 51.4987 25.1448 51.4987H57.7568C58.4222 51.4987 59.0603 51.2344 59.5308 50.7639C60.0013 50.2934 60.2656 49.6553 60.2656 48.9899V38.4535H22.636Z" stroke="#171717" stroke-linecap="round" stroke-linejoin="round"/>
<path id="Vector_5" d="M22.636 31.4295H60.2656V29.9258C60.2656 29.5964 60.2007 29.2702 60.0746 28.9658C59.9485 28.6615 59.7637 28.3849 59.5307 28.152C59.2978 27.9191 59.0212 27.7344 58.7168 27.6084C58.4124 27.4824 58.0862 27.4176 57.7568 27.4177H25.1448C24.8154 27.4176 24.4892 27.4824 24.1848 27.6084C23.8804 27.7344 23.6038 27.9191 23.3709 28.152C23.1379 28.3849 22.9531 28.6615 22.827 28.9658C22.7009 29.2702 22.636 29.5964 22.636 29.9258V31.4295Z" fill="white"/>
<path id="Vector_6" d="M22.636 31.4295H60.2656V29.9258C60.2656 29.5964 60.2007 29.2702 60.0746 28.9658C59.9485 28.6615 59.7637 28.3849 59.5307 28.152C59.2978 27.9191 59.0212 27.7344 58.7168 27.6084C58.4124 27.4824 58.0862 27.4176 57.7568 27.4177H25.1448C24.8154 27.4176 24.4892 27.4824 24.1848 27.6084C23.8804 27.7344 23.6038 27.9191 23.3709 28.152C23.1379 28.3849 22.9531 28.6615 22.827 28.9658C22.7009 29.2702 22.636 29.5964 22.636 29.9258V31.4295Z" stroke="#171717" stroke-linecap="round" stroke-linejoin="round"/>
<path id="Vector_7" d="M25.9775 27.5579L44.2897 33.6891L52.6433 31.3425L49.9271 21.6822C49.8917 21.5554 49.8315 21.4368 49.7502 21.3332C49.6689 21.2296 49.5679 21.143 49.4531 21.0785C49.3383 21.0139 49.2118 20.9727 49.081 20.957C48.9503 20.9414 48.8177 20.9517 48.6909 20.9874L25.6316 27.4676C25.7488 27.4898 25.8644 27.5199 25.9775 27.5579Z" fill="#F25A51"/>
<path id="Vector_8" d="M25.9775 27.5579L44.2897 33.6891L52.6433 31.3425L49.9271 21.6822C49.8917 21.5554 49.8315 21.4368 49.7502 21.3332C49.6689 21.2296 49.5679 21.143 49.4531 21.0785C49.3383 21.0139 49.2118 20.9727 49.081 20.957C48.9503 20.9414 48.8177 20.9517 48.6909 20.9874L25.6316 27.4676C25.7488 27.4898 25.8644 27.5199 25.9775 27.5579Z" stroke="#171717" stroke-linecap="round" stroke-linejoin="round"/>
<path id="Vector_9" d="M56.2514 34.9419L34.517 41.0494L31.8016 31.3939C31.7658 31.267 31.7554 31.1342 31.7709 31.0032C31.7865 30.8722 31.8277 30.7456 31.8922 30.6306C31.9568 30.5155 32.0434 30.4143 32.147 30.3328C32.2507 30.2512 32.3695 30.1909 32.4965 30.1553L52.2998 24.5899C52.5548 24.5184 52.8277 24.5508 53.059 24.68C53.2902 24.8092 53.4608 25.0246 53.5336 25.2793L56.2514 34.9419Z" fill="#F25A51"/>
<path id="Vector_10" d="M56.2514 34.9419L34.517 41.0494L31.8016 31.3939C31.7658 31.267 31.7554 31.1342 31.7709 31.0032C31.7865 30.8722 31.8277 30.7456 31.8922 30.6306C31.9568 30.5155 32.0434 30.4143 32.147 30.3328C32.2507 30.2512 32.3695 30.1909 32.4965 30.1553L52.2998 24.5899C52.5548 24.5184 52.8277 24.5508 53.059 24.68C53.2902 24.8092 53.4608 25.0246 53.5336 25.2793L56.2514 34.9419Z" stroke="#171717" stroke-linecap="round" stroke-linejoin="round"/>
<path id="Vector_11" d="M22.636 31.4296H60.2648V35.4437H22.636V31.4296Z" fill="white"/>
<path id="Vector_12" d="M22.636 31.4296H60.2648V35.4437H22.636V31.4296Z" stroke="#171717" stroke-linecap="round" stroke-linejoin="round"/>
<path id="Vector_13" d="M22.636 35.4437H60.2648V38.4543H22.636V35.4437Z" fill="white"/>
<path id="Vector_14" d="M22.636 35.4437H60.2648V38.4543H22.636V35.4437Z" stroke="#171717" stroke-linecap="round" stroke-linejoin="round"/>
<path id="Vector_15" d="M22.636 29.9242C22.6364 29.5233 22.7328 29.1283 22.9171 28.7723C23.1015 28.4163 23.3684 28.1097 23.6955 27.878C24.0227 27.6463 24.4006 27.4963 24.7976 27.4406C25.1946 27.3849 25.5991 27.4251 25.9774 27.5578L48.5516 35.1168C49.0407 35.2803 49.4661 35.5935 49.7675 36.0121C50.0689 36.4306 50.231 36.9334 50.231 37.4492V56.5157C50.2307 56.9172 50.135 57.3129 49.9517 57.6701C49.7684 58.0273 49.5028 58.3359 49.1769 58.5703C48.8509 58.8047 48.4738 58.9582 48.0768 59.0182C47.6798 59.0782 47.2742 59.0429 46.8935 58.9153L24.3494 51.3697C23.8504 51.2025 23.4165 50.8828 23.109 50.4556C22.8016 50.0284 22.6361 49.5154 22.636 48.9891V29.9242Z" fill="white"/>
<path id="Vector_16" d="M22.636 29.9242C22.6364 29.5233 22.7328 29.1283 22.9171 28.7723C23.1015 28.4163 23.3684 28.1097 23.6955 27.878C24.0227 27.6463 24.4006 27.4963 24.7976 27.4406C25.1946 27.3849 25.5991 27.4251 25.9774 27.5578L48.5516 35.1168C49.0407 35.2803 49.4661 35.5935 49.7675 36.0121C50.0689 36.4306 50.231 36.9334 50.231 37.4492V56.5157C50.2307 56.9172 50.135 57.3129 49.9517 57.6701C49.7684 58.0273 49.5028 58.3359 49.1769 58.5703C48.8509 58.8047 48.4738 58.9582 48.0768 59.0182C47.6798 59.0782 47.2742 59.0429 46.8935 58.9153L24.3494 51.3697C23.8504 51.2025 23.4165 50.8828 23.109 50.4556C22.8016 50.0284 22.6361 49.5154 22.636 48.9891V29.9242Z" stroke="#171717" stroke-linecap="round" stroke-linejoin="round"/>
<path id="Vector_17" d="M25.1448 32.399L26.0961 32.7172" stroke="#171717" stroke-linecap="round" stroke-linejoin="round"/>
<path id="Vector_18" d="M27.9756 33.3464L45.8272 39.3249" stroke="#171717" stroke-linecap="round" stroke-linejoin="round"/>
<path id="Vector_19" d="M46.7668 39.6406L47.7182 39.9588" stroke="#171717" stroke-linecap="round" stroke-linejoin="round"/>
<path id="Vector_20" d="M36.9688 52.1105L37.9201 52.4295" stroke="#171717" stroke-linecap="round" stroke-linejoin="round"/>
<path id="Vector_21" d="M39.6897 53.0223L45.8819 55.0958" stroke="#171717" stroke-linecap="round" stroke-linejoin="round"/>
<path id="Vector_22" d="M46.7668 55.3918L47.7182 55.7108" stroke="#171717" stroke-linecap="round" stroke-linejoin="round"/>
<path id="Vector_23" d="M16.1136 57.5192C15.7148 57.5192 15.3323 57.3608 15.0503 57.0788C14.7683 56.7968 14.6099 56.4143 14.6099 56.0155C14.6099 55.6167 14.7683 55.2342 15.0503 54.9522C15.3323 54.6702 15.7148 54.5118 16.1136 54.5118H22.6358C23.0346 54.5118 23.4171 54.6702 23.6991 54.9522C23.9811 55.2342 24.1395 55.6167 24.1395 56.0155C24.1395 56.4143 23.9811 56.7968 23.6991 57.0788C23.4171 57.3608 23.0346 57.5192 22.6358 57.5192H16.1136Z" fill="white"/>
<path id="Vector_24" d="M16.1136 57.5192C15.7148 57.5192 15.3323 57.3608 15.0503 57.0788C14.7683 56.7968 14.6099 56.4143 14.6099 56.0155C14.6099 55.6167 14.7683 55.2342 15.0503 54.9522C15.3323 54.6702 15.7148 54.5118 16.1136 54.5118H22.6358C23.0346 54.5118 23.4171 54.6702 23.6991 54.9522C23.9811 55.2342 24.1395 55.6167 24.1395 56.0155C24.1395 56.4143 23.9811 56.7968 23.6991 57.0788C23.4171 57.3608 23.0346 57.5192 22.6358 57.5192H16.1136Z" stroke="#171717"/>
<path id="Vector_25" d="M25.6466 57.5192C25.2477 57.5192 24.8653 57.3608 24.5833 57.0788C24.3013 56.7968 24.1428 56.4143 24.1428 56.0155C24.1428 55.6167 24.3013 55.2342 24.5833 54.9522C24.8653 54.6702 25.2477 54.5118 25.6466 54.5118H32.1648C32.5636 54.5118 32.9461 54.6702 33.2281 54.9522C33.5101 55.2342 33.6685 55.6167 33.6685 56.0155C33.6685 56.4143 33.5101 56.7968 33.2281 57.0788C32.9461 57.3608 32.5636 57.5192 32.1648 57.5192H25.6466Z" fill="white"/>
<path id="Vector_26" d="M25.6466 57.5192C25.2477 57.5192 24.8653 57.3608 24.5833 57.0788C24.3013 56.7968 24.1428 56.4143 24.1428 56.0155C24.1428 55.6167 24.3013 55.2342 24.5833 54.9522C24.8653 54.6702 25.2477 54.5118 25.6466 54.5118H32.1648C32.5636 54.5118 32.9461 54.6702 33.2281 54.9522C33.5101 55.2342 33.6685 55.6167 33.6685 56.0155C33.6685 56.4143 33.5101 56.7968 33.2281 57.0788C32.9461 57.3608 32.5636 57.5192 32.1648 57.5192H25.6466Z" stroke="#171717"/>
<path id="Vector_27" d="M15.1102 54.5086C14.7114 54.5086 14.3289 54.3502 14.0469 54.0682C13.7649 53.7862 13.6064 53.4037 13.6064 53.0049C13.6064 52.6061 13.7649 52.2236 14.0469 51.9416C14.3289 51.6596 14.7114 51.5012 15.1102 51.5012H21.6332C22.032 51.5012 22.4145 51.6596 22.6965 51.9416C22.9785 52.2236 23.1369 52.6061 23.1369 53.0049C23.1369 53.4037 22.9785 53.7862 22.6965 54.0682C22.4145 54.3502 22.032 54.5086 21.6332 54.5086H15.1102Z" fill="white"/>
<path id="Vector_28" d="M15.1102 54.5086C14.7114 54.5086 14.3289 54.3502 14.0469 54.0682C13.7649 53.7862 13.6064 53.4037 13.6064 53.0049C13.6064 52.6061 13.7649 52.2236 14.0469 51.9416C14.3289 51.6596 14.7114 51.5012 15.1102 51.5012H21.6332C22.032 51.5012 22.4145 51.6596 22.6965 51.9416C22.9785 52.2236 23.1369 52.6061 23.1369 53.0049C23.1369 53.4037 22.9785 53.7862 22.6965 54.0682C22.4145 54.3502 22.032 54.5086 21.6332 54.5086H15.1102Z" stroke="#171717"/>
<path id="Vector_29" d="M24.6461 54.5086C24.2473 54.5086 23.8648 54.3502 23.5828 54.0682C23.3008 53.7862 23.1423 53.4037 23.1423 53.0049C23.1423 52.6061 23.3008 52.2236 23.5828 51.9416C23.8648 51.6596 24.2473 51.5012 24.6461 51.5012H31.1683C31.5671 51.5012 31.9496 51.6596 32.2316 51.9416C32.5136 52.2236 32.672 52.6061 32.672 53.0049C32.672 53.4037 32.5136 53.7862 32.2316 54.0682C31.9496 54.3502 31.5671 54.5086 31.1683 54.5086H24.6461Z" fill="white"/>
<path id="Vector_30" d="M24.6461 54.5086C24.2473 54.5086 23.8648 54.3502 23.5828 54.0682C23.3008 53.7862 23.1423 53.4037 23.1423 53.0049C23.1423 52.6061 23.3008 52.2236 23.5828 51.9416C23.8648 51.6596 24.2473 51.5012 24.6461 51.5012H31.1683C31.5671 51.5012 31.9496 51.6596 32.2316 51.9416C32.5136 52.2236 32.672 52.6061 32.672 53.0049C32.672 53.4037 32.5136 53.7862 32.2316 54.0682C31.9496 54.3502 31.5671 54.5086 31.1683 54.5086H24.6461Z" stroke="#171717"/>
<path id="Vector_31" d="M16.6155 51.4988C16.2167 51.4988 15.8343 51.3404 15.5522 51.0584C15.2702 50.7764 15.1118 50.3939 15.1118 49.9951C15.1118 49.5962 15.2702 49.2138 15.5522 48.9318C15.8343 48.6498 16.2167 48.4913 16.6155 48.4913H23.1378C23.5366 48.4913 23.9191 48.6498 24.2011 48.9318C24.4831 49.2138 24.6415 49.5962 24.6415 49.9951C24.6415 50.3939 24.4831 50.7764 24.2011 51.0584C23.9191 51.3404 23.5366 51.4988 23.1378 51.4988H16.6155Z" fill="white"/>
<path id="Vector_32" d="M16.6155 51.4988C16.2167 51.4988 15.8343 51.3404 15.5522 51.0584C15.2702 50.7764 15.1118 50.3939 15.1118 49.9951C15.1118 49.5962 15.2702 49.2138 15.5522 48.9318C15.8343 48.6498 16.2167 48.4913 16.6155 48.4913H23.1378C23.5366 48.4913 23.9191 48.6498 24.2011 48.9318C24.4831 49.2138 24.6415 49.5962 24.6415 49.9951C24.6415 50.3939 24.4831 50.7764 24.2011 51.0584C23.9191 51.3404 23.5366 51.4988 23.1378 51.4988H16.6155Z" stroke="#171717"/>
<path id="Vector_33" d="M26.15 51.4988C25.7512 51.4988 25.3687 51.3404 25.0867 51.0584C24.8047 50.7764 24.6462 50.3939 24.6462 49.9951C24.6462 49.5962 24.8047 49.2138 25.0867 48.9318C25.3687 48.6498 25.7512 48.4913 26.15 48.4913H32.6722C33.071 48.4913 33.4535 48.6498 33.7355 48.9318C34.0175 49.2138 34.1759 49.5962 34.1759 49.9951C34.1759 50.3939 34.0175 50.7764 33.7355 51.0584C33.4535 51.3404 33.071 51.4988 32.6722 51.4988H26.15Z" fill="white"/>
<path id="Vector_34" d="M26.15 51.4988C25.7512 51.4988 25.3687 51.3404 25.0867 51.0584C24.8047 50.7764 24.6462 50.3939 24.6462 49.9951C24.6462 49.5962 24.8047 49.2138 25.0867 48.9318C25.3687 48.6498 25.7512 48.4913 26.15 48.4913H32.6722C33.071 48.4913 33.4535 48.6498 33.7355 48.9318C34.0175 49.2138 34.1759 49.5962 34.1759 49.9951C34.1759 50.3939 34.0175 50.7764 33.7355 51.0584C33.4535 51.3404 33.071 51.4988 32.6722 51.4988H26.15Z" stroke="#171717"/>
<path id="Vector_35" d="M17.619 48.4882C17.2201 48.4882 16.8377 48.3297 16.5557 48.0477C16.2737 47.7657 16.1152 47.3833 16.1152 46.9844C16.1152 46.5856 16.2737 46.2031 16.5557 45.9211C16.8377 45.6391 17.2201 45.4807 17.619 45.4807H24.1412C24.54 45.4807 24.9225 45.6391 25.2045 45.9211C25.4865 46.2031 25.6449 46.5856 25.6449 46.9844C25.6449 47.3833 25.4865 47.7657 25.2045 48.0477C24.9225 48.3297 24.54 48.4882 24.1412 48.4882H17.619Z" fill="white"/>
<path id="Vector_36" d="M17.619 48.4882C17.2201 48.4882 16.8377 48.3297 16.5557 48.0477C16.2737 47.7657 16.1152 47.3833 16.1152 46.9844C16.1152 46.5856 16.2737 46.2031 16.5557 45.9211C16.8377 45.6391 17.2201 45.4807 17.619 45.4807H24.1412C24.54 45.4807 24.9225 45.6391 25.2045 45.9211C25.4865 46.2031 25.6449 46.5856 25.6449 46.9844C25.6449 47.3833 25.4865 47.7657 25.2045 48.0477C24.9225 48.3297 24.54 48.4882 24.1412 48.4882H17.619Z" stroke="#171717"/>
<path id="Vector_37" d="M16.1136 45.4776C15.7148 45.4776 15.3323 45.3191 15.0503 45.0371C14.7683 44.7551 14.6099 44.3726 14.6099 43.9738C14.6099 43.575 14.7683 43.1925 15.0503 42.9105C15.3323 42.6285 15.7148 42.4701 16.1136 42.4701H22.6358C23.0346 42.4701 23.4171 42.6285 23.6991 42.9105C23.9811 43.1925 24.1395 43.575 24.1395 43.9738C24.1395 44.3726 23.9811 44.7551 23.6991 45.0371C23.4171 45.3191 23.0346 45.4776 22.6358 45.4776H16.1136Z" fill="white"/>
<path id="Vector_38" d="M16.1136 45.4776C15.7148 45.4776 15.3323 45.3191 15.0503 45.0371C14.7683 44.7551 14.6099 44.3726 14.6099 43.9738C14.6099 43.575 14.7683 43.1925 15.0503 42.9105C15.3323 42.6285 15.7148 42.4701 16.1136 42.4701H22.6358C23.0346 42.4701 23.4171 42.6285 23.6991 42.9105C23.9811 43.1925 24.1395 43.575 24.1395 43.9738C24.1395 44.3726 23.9811 44.7551 23.6991 45.0371C23.4171 45.3191 23.0346 45.4776 22.6358 45.4776H16.1136Z" stroke="#171717"/>
<path id="Vector_39" d="M68.051 25.7984C68.1526 25.3586 68.3756 24.9562 68.6948 24.637C69.014 24.3178 69.4164 24.0947 69.8563 23.9932L73.4779 23.1574C73.5441 23.1419 73.6032 23.1045 73.6455 23.0512C73.6878 22.9979 73.7108 22.9318 73.7108 22.8638C73.7108 22.7957 73.6878 22.7297 73.6455 22.6764C73.6032 22.6231 73.5441 22.5857 73.4779 22.5702L69.8555 21.7344C69.4156 21.6332 69.0131 21.4103 68.6939 21.0912C68.3747 20.7721 68.1516 20.3697 68.0502 19.9299L67.2144 16.3091C67.1993 16.2427 67.162 16.1833 67.1088 16.1408C67.0555 16.0983 66.9894 16.0752 66.9212 16.0752C66.8531 16.0752 66.7869 16.0983 66.7337 16.1408C66.6804 16.1833 66.6431 16.2427 66.628 16.3091L65.793 19.9299C65.6915 20.3698 65.4684 20.7722 65.1492 21.0914C64.83 21.4105 64.4276 21.6336 63.9878 21.7352L60.3669 22.5702C60.3007 22.5857 60.2416 22.6231 60.1993 22.6764C60.157 22.7297 60.134 22.7957 60.134 22.8638C60.134 22.9318 60.157 22.9979 60.1993 23.0512C60.2416 23.1045 60.3007 23.1419 60.3669 23.1574L63.9878 23.9932C64.4276 24.0947 64.83 24.3178 65.1492 24.637C65.4684 24.9562 65.6915 25.3586 65.793 25.7984L66.6288 29.4208C66.6439 29.4873 66.6812 29.5466 66.7345 29.5891C66.7877 29.6316 66.8539 29.6548 66.922 29.6548C66.9902 29.6548 67.0563 29.6316 67.1096 29.5891C67.1628 29.5466 67.2001 29.4873 67.2152 29.4208L68.051 25.7984Z" fill="white" stroke="#171717" stroke-linecap="round" stroke-linejoin="round"/>
<path id="Vector_40" d="M13.547 30.9222L16.3812 29.9772C16.4343 29.9596 16.4805 29.9258 16.5132 29.8805C16.546 29.8351 16.5636 29.7806 16.5636 29.7247C16.5636 29.6688 16.546 29.6143 16.5132 29.569C16.4805 29.5237 16.4343 29.4898 16.3812 29.4723L14.052 28.6959C13.8952 28.6436 13.7528 28.5557 13.6359 28.4389C13.519 28.3222 13.4309 28.1798 13.3785 28.0231L12.6021 25.6932C12.5845 25.6401 12.5507 25.5939 12.5053 25.5611C12.46 25.5284 12.4055 25.5107 12.3496 25.5107C12.2937 25.5107 12.2392 25.5284 12.1939 25.5611C12.1485 25.5939 12.1147 25.6401 12.0971 25.6932L11.3207 28.0224C11.2685 28.1792 11.1804 28.3217 11.0635 28.4386C10.9466 28.5555 10.8041 28.6436 10.6472 28.6959L8.31644 29.4738C8.26335 29.4914 8.21715 29.5253 8.18441 29.5706C8.15166 29.6159 8.13403 29.6704 8.13403 29.7263C8.13403 29.7822 8.15166 29.8367 8.18441 29.882C8.21715 29.9274 8.26335 29.9612 8.31644 29.9788L10.6472 30.756C10.804 30.8083 10.9465 30.8964 11.0634 31.0133C11.1803 31.1302 11.2684 31.2727 11.3207 31.4295L12.0971 33.7603C12.1147 33.8133 12.1485 33.8596 12.1939 33.8923C12.2392 33.925 12.2937 33.9427 12.3496 33.9427C12.4055 33.9427 12.46 33.925 12.5053 33.8923C12.5507 33.8596 12.5845 33.8133 12.6021 33.7603L13.547 30.9222Z" fill="white" stroke="#171717" stroke-linecap="round" stroke-linejoin="round"/>
</g>
</svg>
