<svg width="80" height="80" viewBox="0 0 80 80" fill="none" xmlns="http://www.w3.org/2000/svg">
<g id="Frame">
<path id="Vector" d="M8.34253 40C8.34253 48.3961 11.6779 56.4483 17.6148 62.3852C23.5517 68.3221 31.6039 71.6574 40 71.6574C48.3961 71.6574 56.4483 68.3221 62.3852 62.3852C68.3221 56.4483 71.6574 48.3961 71.6574 40C71.6574 31.6039 68.3221 23.5517 62.3852 17.6148C56.4483 11.6779 48.3961 8.34253 40 8.34253C31.6039 8.34253 23.5517 11.6779 17.6148 17.6148C11.6779 23.5517 8.34253 31.6039 8.34253 40Z" fill="#FFF7E9"/>
<path id="Vector_2" d="M17.4868 57.8287C17.4868 58.0743 18.0672 58.3174 19.1947 58.5443C20.3223 58.7712 21.975 58.9774 24.0585 59.1511C26.142 59.3247 28.6155 59.4625 31.3377 59.5565C34.0599 59.6505 36.9775 59.6988 39.924 59.6988C42.8705 59.6988 45.7882 59.6505 48.5104 59.5565C51.2326 59.4625 53.7061 59.3247 55.7896 59.1511C57.873 58.9774 59.5258 58.7712 60.6533 58.5443C61.7809 58.3174 62.3613 58.0743 62.3613 57.8287C62.3613 57.5831 61.7809 57.3399 60.6533 57.113C59.5258 56.8861 57.873 56.6799 55.7896 56.5063C53.7061 56.3326 51.2326 56.1948 48.5104 56.1009C45.7882 56.0069 42.8705 55.9585 39.924 55.9585C36.9775 55.9585 34.0599 56.0069 31.3377 56.1009C28.6155 56.1948 26.142 56.3326 24.0585 56.5063C21.975 56.6799 20.3223 56.8861 19.1947 57.113C18.0672 57.3399 17.4868 57.5831 17.4868 57.8287Z" fill="#F25A51"/>
<g id="Vector_3">
<path d="M65.3094 50.1359H14.5388C14.3288 50.1359 14.1275 50.2193 13.9791 50.3677C13.8307 50.5162 13.7473 50.7175 13.7473 50.9274V54.1121H66.1008V50.9274C66.1008 50.7175 66.0174 50.5162 65.869 50.3677C65.7206 50.2193 65.5193 50.1359 65.3094 50.1359ZM66.1008 54.1121H13.7473C14.1457 54.9089 14.7581 55.579 15.5159 56.0472C16.2737 56.5155 17.1469 56.7635 18.0377 56.7634H61.8318C62.7159 56.763 63.5825 56.5167 64.3346 56.0519C65.0867 55.5872 65.6947 54.9224 66.0905 54.1319L66.1008 54.1121Z" fill="#F25A51"/>
<path d="M13.7473 54.1121V50.9274C13.7473 50.7175 13.8307 50.5162 13.9791 50.3677C14.1275 50.2193 14.3288 50.1359 14.5388 50.1359H65.3094C65.5193 50.1359 65.7206 50.2193 65.869 50.3677C66.0174 50.5162 66.1008 50.7175 66.1008 50.9274V54.1121M13.7473 54.1121H66.1008M13.7473 54.1121C14.1457 54.9089 14.7581 55.579 15.5159 56.0472C16.2737 56.5155 17.1469 56.7635 18.0377 56.7634H61.8318C62.7159 56.763 63.5825 56.5167 64.3346 56.0519C65.0867 55.5872 65.6947 54.9224 66.0905 54.1319L66.1008 54.1121" stroke="#171717" stroke-linecap="round" stroke-linejoin="round"/>
</g>
<path id="Vector_4" d="M60.5418 22.3027H19.308C18.8882 22.3027 18.4856 22.4695 18.1887 22.7663C17.8919 23.0632 17.7251 23.4658 17.7251 23.8856V50.136H62.1247V23.8856C62.1247 23.6777 62.0837 23.4719 62.0042 23.2799C61.9246 23.0878 61.8081 22.9133 61.6611 22.7663C61.5141 22.6194 61.3396 22.5028 61.1475 22.4232C60.9555 22.3437 60.7497 22.3027 60.5418 22.3027Z" fill="white"/>
<path id="Vector_5" d="M60.5418 22.3027H19.308C18.8882 22.3027 18.4856 22.4695 18.1887 22.7663C17.8919 23.0632 17.7251 23.4658 17.7251 23.8856V50.136H62.1247V23.8856C62.1247 23.6777 62.0837 23.4719 62.0042 23.2799C61.9246 23.0878 61.8081 22.9133 61.6611 22.7663C61.5141 22.6194 61.3396 22.5028 61.1475 22.4232C60.9555 22.3437 60.7497 22.3027 60.5418 22.3027Z" stroke="#171717" stroke-miterlimit="10"/>
<path id="Vector_6" d="M39.9209 44.9536C38.1112 44.9583 36.3186 44.6039 34.6468 43.9111C32.975 43.2182 31.4573 42.2007 30.1814 40.9173L29.6915 40.4274C29.5959 40.3313 29.5202 40.2174 29.4686 40.0921C29.417 39.9668 29.3906 39.8325 29.3909 39.697C29.3912 39.5615 29.4181 39.4273 29.4703 39.3023C29.5224 39.1772 29.5987 39.0636 29.6947 38.9679C29.7907 38.8723 29.9047 38.7966 30.03 38.745C30.1553 38.6934 30.2895 38.667 30.4251 38.6673C30.5606 38.6676 30.6947 38.6946 30.8198 38.7467C30.9449 38.7988 31.0585 38.8751 31.1541 38.9711L31.6448 39.4618C32.732 40.5491 34.0228 41.4115 35.4433 41.9999C36.8639 42.5883 38.3864 42.8912 39.924 42.8912C41.4616 42.8912 42.9842 42.5883 44.4047 41.9999C45.8253 41.4115 47.116 40.5491 48.2032 39.4618L48.6931 38.9711C48.8868 38.7775 49.1494 38.6687 49.4232 38.6687C49.6971 38.6687 49.9597 38.7775 50.1533 38.9711C50.347 39.1648 50.4558 39.4274 50.4558 39.7012C50.4558 39.9751 50.347 40.2377 50.1533 40.4313L49.6634 40.9212C48.3868 42.2041 46.8684 43.2211 45.1961 43.9133C43.5237 44.6054 41.7307 44.959 39.9209 44.9536ZM34.4639 36.3728C34.1915 36.3714 33.9306 36.2625 33.738 36.0699C33.5454 35.8772 33.4365 35.6164 33.435 35.344V31.1889C33.435 30.9151 33.5438 30.6525 33.7374 30.4589C33.931 30.2653 34.1936 30.1565 34.4675 30.1565C34.7413 30.1565 35.0039 30.2653 35.1975 30.4589C35.3911 30.6525 35.4999 30.9151 35.4999 31.1889V35.34C35.4998 35.4759 35.4729 35.6104 35.4208 35.7359C35.3686 35.8613 35.2923 35.9753 35.196 36.0712C35.0998 36.1671 34.9856 36.2432 34.86 36.2949C34.7344 36.3467 34.5998 36.3731 34.4639 36.3728ZM45.3818 36.3728C45.1093 36.3714 44.8485 36.2625 44.6559 36.0699C44.4632 35.8772 44.3544 35.6164 44.3529 35.344V31.1889C44.3529 30.9151 44.4617 30.6525 44.6553 30.4589C44.8489 30.2653 45.1115 30.1565 45.3853 30.1565C45.6591 30.1565 45.9218 30.2653 46.1154 30.4589C46.309 30.6525 46.4178 30.9151 46.4178 31.1889V35.34C46.4177 35.4759 46.3908 35.6104 46.3386 35.7359C46.2865 35.8613 46.2101 35.9753 46.1139 36.0712C46.0177 36.1671 45.9035 36.2432 45.7779 36.2949C45.6522 36.3467 45.5176 36.3731 45.3818 36.3728Z" fill="#171717"/>
</g>
</svg>
