<svg width="81" height="80" viewBox="0 0 81 80" fill="none" xmlns="http://www.w3.org/2000/svg">
<g id="Frame">
<path id="Vector" d="M8.84277 40C8.84277 48.396 12.1781 56.4481 18.1149 62.385C24.0518 68.3218 32.1039 71.6571 40.4999 71.6571C48.8959 71.6571 56.948 68.3218 62.8849 62.385C68.8218 56.4481 72.1571 48.396 72.1571 40C72.1571 31.604 68.8218 23.5519 62.8849 17.615C56.948 11.6781 48.8959 8.34283 40.4999 8.34283C32.1039 8.34283 24.0518 11.6781 18.1149 17.615C12.1781 23.5519 8.84277 31.604 8.84277 40Z" fill="#FFF7E9"/>
<path id="Vector_2" d="M45.9671 64.0927C45.9671 64.8516 41.456 65.4674 35.8891 65.4674C30.3222 65.4674 25.811 64.8509 25.811 64.0927C25.811 63.3345 30.3222 62.7188 35.8891 62.7188C41.456 62.7188 45.9671 63.3337 45.9671 64.0927Z" fill="#F25A51"/>
<path id="Vector_3" d="M46.5742 46.6718L50.347 42.8982L54.7473 47.2986L50.9746 51.0721L46.5742 46.6718Z" fill="white" stroke="#171717" stroke-linecap="round" stroke-linejoin="round"/>
<path id="Vector_4" d="M63.5487 54.8417C64.2157 55.5085 64.5904 56.413 64.5905 57.3561C64.5906 58.2993 64.216 59.2038 63.5491 59.8708C62.8823 60.5377 61.9778 60.9125 61.0346 60.9126C60.0915 60.9126 59.187 60.538 58.52 59.8712L50.9769 52.3273C50.8943 52.2448 50.8287 52.1469 50.784 52.039C50.7393 51.9312 50.7163 51.8156 50.7163 51.6989C50.7163 51.5822 50.7393 51.4666 50.784 51.3588C50.8287 51.2509 50.8943 51.153 50.9769 51.0705L54.7457 47.2985C54.8282 47.2159 54.9262 47.1504 55.0341 47.1056C55.142 47.0609 55.2577 47.0379 55.3745 47.0379C55.4913 47.0379 55.6069 47.0609 55.7148 47.1056C55.8227 47.1504 55.9207 47.2159 56.0033 47.2985L63.5487 54.8417Z" fill="#F25A51"/>
<path id="Vector_5" d="M63.5487 54.8417C64.2157 55.5085 64.5904 56.413 64.5905 57.3561C64.5906 58.2993 64.216 59.2038 63.5491 59.8708C62.8823 60.5377 61.9778 60.9125 61.0346 60.9126C60.0915 60.9126 59.187 60.538 58.52 59.8712L50.9769 52.3273C50.8943 52.2448 50.8287 52.1469 50.784 52.039C50.7393 51.9312 50.7163 51.8156 50.7163 51.6989C50.7163 51.5822 50.7393 51.4666 50.784 51.3588C50.8287 51.2509 50.8943 51.153 50.9769 51.0705L54.7457 47.2985C54.8282 47.2159 54.9262 47.1504 55.0341 47.1056C55.142 47.0609 55.2577 47.0379 55.3745 47.0379C55.4913 47.0379 55.6069 47.0609 55.7148 47.1056C55.8227 47.1504 55.9207 47.2159 56.0033 47.2985L63.5487 54.8417Z" stroke="#171717" stroke-linecap="round" stroke-linejoin="round"/>
<path id="Vector_6" d="M17.2202 32.2123C17.2202 37.1637 19.1871 41.9122 22.6882 45.4133C26.1894 48.9144 30.9379 50.8814 35.8892 50.8814C40.8405 50.8814 45.5891 48.9144 49.0902 45.4133C52.5913 41.9122 54.5582 37.1637 54.5582 32.2123C54.5582 27.261 52.5913 22.5125 49.0902 19.0114C45.5891 15.5102 40.8405 13.5433 35.8892 13.5433C30.9379 13.5433 26.1894 15.5102 22.6882 19.0114C19.1871 22.5125 17.2202 27.261 17.2202 32.2123Z" fill="white"/>
<path id="Vector_7" d="M32.5193 46.4881C34.398 46.9418 36.3477 47.0198 38.2566 46.7176C40.1655 46.4154 41.9958 45.739 43.6424 44.7271C45.289 43.7153 46.7194 42.3881 47.8515 40.8217C48.9835 39.2553 49.7949 37.4806 50.2389 35.5997C50.6829 33.7187 50.7508 31.7686 50.4388 29.8613C50.1267 27.954 49.4408 26.1272 48.4205 24.4858C47.4002 22.8445 46.0656 21.4209 44.4934 20.297C42.9212 19.173 41.1423 18.3708 39.2591 17.9366C37.3805 17.4828 35.4307 17.4048 33.5219 17.7071C31.613 18.0093 29.7827 18.6857 28.136 19.6975C26.4894 20.7094 25.059 22.0366 23.927 23.603C22.7949 25.1694 21.9836 26.9441 21.5396 28.825C21.0956 30.7059 21.0276 32.6561 21.3397 34.5634C21.6517 36.4707 22.3376 38.2975 23.3579 39.9388C24.3782 41.5802 25.7129 43.0038 27.2851 44.1277C28.8573 45.2517 30.6361 46.0538 32.5193 46.4881Z" fill="#FFF7E9"/>
<g id="Group 25427">
<path id="Vector_8" d="M36.214 33.6121C36.183 33.7339 36.1123 33.8419 36.0131 33.9191C35.9138 33.9962 35.7917 34.0381 35.6661 34.0381C35.5404 34.0381 35.4183 33.9962 35.3191 33.9191C35.2198 33.8419 35.1491 33.7339 35.1181 33.6121C32.9023 24.8905 32.9984 25.286 32.9896 25.1961C32.9586 24.8257 33.0047 24.453 33.1251 24.1014C33.2455 23.7498 33.4375 23.427 33.6891 23.1535C33.9407 22.8799 34.2463 22.6616 34.5865 22.5122C34.9268 22.3628 35.2944 22.2857 35.6661 22.2857C36.0377 22.2857 36.4053 22.3628 36.7456 22.5122C37.0859 22.6616 37.3915 22.8799 37.643 23.1535C37.8946 23.427 38.0866 23.7498 38.207 24.1014C38.3274 24.453 38.3736 24.8257 38.3425 25.1961C38.3338 25.2833 38.4271 24.8879 36.214 33.6121Z" fill="#F25A51" stroke="#171717" stroke-linecap="round" stroke-linejoin="round"/>
<path id="Vector_9" d="M38.3546 38.7891C38.3546 39.3203 38.1971 39.8396 37.9019 40.2813C37.6068 40.723 37.1873 41.0672 36.6966 41.2705C36.2058 41.4738 35.6658 41.527 35.1448 41.4234C34.6238 41.3197 34.1452 41.0639 33.7696 40.6883C33.394 40.3127 33.1382 39.8341 33.0345 39.3131C32.9309 38.7921 32.9841 38.2521 33.1874 37.7613C33.3906 37.2705 33.7349 36.8511 34.1766 36.5559C34.6183 36.2608 35.1375 36.1033 35.6687 36.1033C36.3811 36.1033 37.0642 36.3863 37.5679 36.89C38.0716 37.3937 38.3546 38.0768 38.3546 38.7891Z" fill="#F25A51" stroke="#171717" stroke-linecap="round" stroke-linejoin="round"/>
</g>
<path id="Vector_10" d="M32.5193 46.4881C34.398 46.9418 36.3477 47.0198 38.2566 46.7176C40.1655 46.4154 41.9958 45.739 43.6424 44.7271C45.289 43.7153 46.7194 42.3881 47.8515 40.8217C48.9835 39.2553 49.7949 37.4806 50.2389 35.5997C50.6829 33.7187 50.7508 31.7686 50.4388 29.8613C50.1267 27.954 49.4408 26.1272 48.4205 24.4858C47.4002 22.8445 46.0656 21.4209 44.4934 20.297C42.9212 19.173 41.1423 18.3708 39.2591 17.9366C37.3805 17.4828 35.4307 17.4048 33.5219 17.7071C31.613 18.0093 29.7827 18.6857 28.136 19.6975C26.4894 20.7094 25.059 22.0366 23.927 23.603C22.7949 25.1694 21.9836 26.9441 21.5396 28.825C21.0956 30.7059 21.0276 32.6561 21.3397 34.5634C21.6517 36.4707 22.3376 38.2975 23.3579 39.9388C24.3782 41.5802 25.7129 43.0038 27.2851 44.1277C28.8573 45.2517 30.6361 46.0538 32.5193 46.4881Z" stroke="#171717" stroke-linecap="round" stroke-linejoin="round"/>
<path id="Vector_11" d="M17.2202 32.2123C17.2202 37.1637 19.1871 41.9122 22.6882 45.4133C26.1894 48.9144 30.9379 50.8813 35.8892 50.8813C40.8405 50.8813 45.5891 48.9144 49.0902 45.4133C52.5913 41.9122 54.5582 37.1637 54.5582 32.2123C54.5582 27.261 52.5913 22.5125 49.0902 19.0114C45.5891 15.5102 40.8405 13.5433 35.8892 13.5433C30.9379 13.5433 26.1894 15.5102 22.6882 19.0114C19.1871 22.5125 17.2202 27.261 17.2202 32.2123Z" stroke="#171717" stroke-linecap="round" stroke-linejoin="round"/>
</g>
</svg>
