<svg width="81" height="80" viewBox="0 0 81 80" fill="none" xmlns="http://www.w3.org/2000/svg">
<g id="Frame">
<path id="Vector" d="M8.84277 40C8.84277 48.396 12.1781 56.4481 18.1149 62.385C24.0518 68.3218 32.1039 71.6571 40.4999 71.6571C48.8959 71.6571 56.948 68.3218 62.8849 62.385C68.8218 56.4481 72.1571 48.396 72.1571 40C72.1571 31.604 68.8218 23.5519 62.8849 17.615C56.948 11.6781 48.8959 8.34283 40.4999 8.34283C32.1039 8.34283 24.0518 11.6781 18.1149 17.615C12.1781 23.5519 8.84277 31.604 8.84277 40Z" fill="#FFF7E9"/>
<path id="Vector_2" d="M23.0491 58.8811C23.0491 59.2612 24.8877 59.6258 28.1604 59.8946C31.433 60.1634 35.8718 60.3144 40.5001 60.3144C45.1284 60.3144 49.5671 60.1634 52.8398 59.8946C56.1125 59.6258 57.9511 59.2612 57.9511 58.8811C57.9511 58.501 56.1125 58.1364 52.8398 57.8676C49.5671 57.5988 45.1284 57.4478 40.5001 57.4478C35.8718 57.4478 31.433 57.5988 28.1604 57.8676C24.8877 58.1364 23.0491 58.501 23.0491 58.8811Z" fill="#F25A51"/>
<path id="Vector_3" d="M23.7123 21.5051H57.2879C57.2879 21.5051 58.9499 21.5051 58.9499 23.1671V56.7427C58.9499 56.7427 58.9499 58.4047 57.2879 58.4047H23.7123C23.7123 58.4047 22.0503 58.4047 22.0503 56.7427V23.1671C22.0503 23.1671 22.0503 21.5051 23.7123 21.5051Z" fill="white"/>
<path id="Vector_4" d="M58.9499 27.9022H22.0503V23.1671C22.0503 22.9489 22.0933 22.7328 22.1768 22.5311C22.2603 22.3295 22.3828 22.1462 22.5371 21.9919C22.6914 21.8376 22.8746 21.7152 23.0763 21.6316C23.2779 21.5481 23.494 21.5051 23.7123 21.5051H57.2879C57.5061 21.5051 57.7222 21.5481 57.9239 21.6316C58.1255 21.7152 58.3087 21.8376 58.4631 21.9919C58.6174 22.1462 58.7398 22.3295 58.8233 22.5311C58.9069 22.7328 58.9499 22.9489 58.9499 23.1671V27.9022ZM58.9499 27.9022H52.5527V52.0068H58.9499M58.9499 27.9022V52.0068M58.9499 52.0068H22.0503V56.7419C22.0503 56.9602 22.0933 57.1763 22.1768 57.3779C22.2603 57.5796 22.3828 57.7628 22.5371 57.9171C22.6914 58.0714 22.8746 58.1939 23.0763 58.2774C23.2779 58.3609 23.494 58.4039 23.7123 58.4039H57.2879C57.7286 58.4039 58.1514 58.2288 58.4631 57.9171C58.7748 57.6054 58.9499 57.1827 58.9499 56.7419V52.0068ZM22.0511 27.9022H28.4482V52.0068H22.0511V27.9022Z" stroke="#171717" stroke-linecap="round" stroke-linejoin="round"/>
<path id="Vector_5" d="M32.088 52.0076L52.5535 31.5412V27.903H48.9145L28.449 48.3686V52.0068L32.088 52.0076Z" fill="#F25A51"/>
<path id="Vector_6" d="M32.088 52.0076L52.5535 31.5412V27.903H48.9145L28.449 48.3686V52.0068L32.088 52.0076Z" stroke="#171717" stroke-linecap="round" stroke-linejoin="round"/>
<path id="Vector_7" d="M48.9145 52.0076L28.449 31.5412V27.903H32.088L52.5535 48.3686V52.0068L48.9145 52.0076Z" fill="#F25A51"/>
<path id="Vector_8" d="M48.9145 52.0076L28.449 31.5412V27.903H32.088L52.5535 48.3686V52.0068L48.9145 52.0076Z" stroke="#171717" stroke-linecap="round" stroke-linejoin="round"/>
</g>
</svg>
