<svg width="240" height="240" viewBox="0 0 240 240" fill="none" xmlns="http://www.w3.org/2000/svg">
<g id="Frame">
<path id="Vector" d="M25.0286 120C25.0286 145.188 35.0345 169.344 52.8451 187.155C70.6557 204.965 94.812 214.971 120 214.971C145.188 214.971 169.344 204.965 187.155 187.155C204.966 169.344 214.971 145.188 214.971 120C214.971 94.8118 204.966 70.6554 187.155 52.8448C169.344 35.0342 145.188 25.0283 120 25.0283C94.812 25.0283 70.6557 35.0342 52.8451 52.8448C35.0345 70.6554 25.0286 94.8118 25.0286 120Z" fill="#FFF7E9"/>
<path id="Vector_2" d="M136.402 192.278C136.402 194.555 122.868 196.402 106.167 196.402C89.4667 196.402 75.9333 194.553 75.9333 192.278C75.9333 190.003 89.4667 188.156 106.167 188.156C122.868 188.156 136.402 190.001 136.402 192.278Z" fill="#F25A51"/>
<path id="Vector_3" d="M138.223 140.016L149.541 128.695L162.742 141.896L151.424 153.217L138.223 140.016Z" fill="white" stroke="#171717" stroke-width="2.57143" stroke-linecap="round" stroke-linejoin="round"/>
<path id="Vector_4" d="M189.146 164.525C191.147 166.525 192.271 169.239 192.272 172.068C192.272 174.897 191.148 177.611 189.147 179.612C187.147 181.613 184.433 182.737 181.604 182.737C178.775 182.737 176.061 181.614 174.06 179.613L151.431 156.981C151.183 156.734 150.986 156.44 150.852 156.117C150.718 155.793 150.649 155.446 150.649 155.096C150.649 154.746 150.718 154.399 150.852 154.076C150.986 153.752 151.183 153.458 151.431 153.211L162.737 141.895C162.985 141.647 163.279 141.451 163.602 141.317C163.926 141.182 164.273 141.113 164.623 141.113C164.974 141.113 165.321 141.182 165.645 141.317C165.968 141.451 166.262 141.647 166.51 141.895L189.146 164.525Z" fill="#F25A51"/>
<path id="Vector_5" d="M189.146 164.525C191.147 166.525 192.271 169.239 192.272 172.068C192.272 174.897 191.148 177.611 189.147 179.612C187.147 181.613 184.433 182.737 181.604 182.737C178.775 182.737 176.061 181.614 174.06 179.613L151.431 156.981C151.183 156.734 150.986 156.44 150.852 156.117C150.718 155.793 150.649 155.446 150.649 155.096C150.649 154.746 150.718 154.399 150.852 154.076C150.986 153.752 151.183 153.458 151.431 153.211L162.737 141.895C162.985 141.647 163.279 141.451 163.602 141.317C163.926 141.182 164.273 141.113 164.623 141.113C164.974 141.113 165.321 141.182 165.645 141.317C165.968 141.451 166.262 141.647 166.51 141.895L189.146 164.525Z" stroke="#171717" stroke-width="2.57143" stroke-linecap="round" stroke-linejoin="round"/>
<path id="Vector_6" d="M50.1604 96.6379C50.1604 111.492 56.0611 125.737 66.5644 136.241C77.0678 146.744 91.3134 152.645 106.167 152.645C121.021 152.645 135.267 146.744 145.77 136.241C156.274 125.737 162.174 111.492 162.174 96.6379C162.174 81.7839 156.274 67.5383 145.77 57.0349C135.267 46.5316 121.021 40.6309 106.167 40.6309C91.3134 40.6309 77.0678 46.5316 66.5644 57.0349C56.0611 67.5383 50.1604 81.7839 50.1604 96.6379Z" fill="white"/>
<path id="Vector_7" d="M96.0577 139.466C101.694 140.827 107.543 141.061 113.27 140.154C118.996 139.247 124.487 137.218 129.427 134.183C134.367 131.147 138.658 127.165 142.054 122.466C145.45 117.767 147.884 112.443 149.216 106.8C150.548 101.157 150.752 95.307 149.816 89.5851C148.88 83.8633 146.822 78.3828 143.761 73.4587C140.7 68.5346 136.697 64.2639 131.98 60.8921C127.263 57.5203 121.927 55.1138 116.277 53.8109C110.641 52.4497 104.792 52.2158 99.0653 53.1224C93.3387 54.029 87.8477 56.0584 82.9079 59.0938C77.968 62.1293 73.6768 66.111 70.2806 70.8102C66.8845 75.5094 64.4505 80.8334 63.1185 86.4762C61.7864 92.1191 61.5826 97.9695 62.5188 103.691C63.455 109.413 65.5126 114.894 68.5735 119.818C71.6345 124.742 75.6383 129.013 80.3549 132.384C85.0716 135.756 90.4081 138.163 96.0577 139.466Z" fill="#FFF7E9"/>
<g id="Group 25427">
<path id="Vector_8" d="M107.142 100.836C107.049 101.201 106.837 101.525 106.539 101.756C106.241 101.988 105.875 102.114 105.498 102.114C105.121 102.114 104.755 101.988 104.457 101.756C104.159 101.525 103.947 101.201 103.854 100.836C97.2069 74.671 97.495 75.8574 97.4688 75.5875C97.3756 74.4765 97.5139 73.3583 97.8752 72.3035C98.2364 71.2487 98.8125 70.2804 99.5672 69.4598C100.322 68.6391 101.239 67.984 102.26 67.5359C103.28 67.0878 104.383 66.8564 105.498 66.8564C106.613 66.8564 107.716 67.0878 108.737 67.5359C109.757 67.984 110.674 68.6391 111.429 69.4598C112.184 70.2804 112.76 71.2487 113.121 72.3035C113.482 73.3583 113.621 74.4765 113.527 75.5875C113.501 75.8494 113.781 74.6629 107.142 100.836Z" fill="#F25A51" stroke="#171717" stroke-width="2.18163" stroke-linecap="round" stroke-linejoin="round"/>
<path id="Vector_9" d="M113.564 116.366C113.564 117.96 113.091 119.518 112.206 120.843C111.321 122.168 110.062 123.2 108.59 123.81C107.118 124.42 105.498 124.58 103.935 124.269C102.372 123.958 100.936 123.19 99.8089 122.064C98.6821 120.937 97.9147 119.501 97.6038 117.938C97.2929 116.375 97.4524 114.755 98.0623 113.283C98.6721 111.81 99.7049 110.552 101.03 109.667C102.355 108.781 103.913 108.309 105.506 108.309C107.643 108.309 109.693 109.158 111.204 110.669C112.715 112.18 113.564 114.229 113.564 116.366Z" fill="#F25A51" stroke="#171717" stroke-width="2.18163" stroke-linecap="round" stroke-linejoin="round"/>
</g>
<path id="Vector_10" d="M96.0577 139.466C101.694 140.827 107.543 141.061 113.27 140.154C118.996 139.247 124.487 137.218 129.427 134.183C134.367 131.147 138.658 127.165 142.054 122.466C145.45 117.767 147.884 112.443 149.216 106.8C150.548 101.157 150.752 95.307 149.816 89.5851C148.88 83.8633 146.822 78.3828 143.761 73.4587C140.7 68.5346 136.697 64.2639 131.98 60.8921C127.263 57.5203 121.927 55.1138 116.277 53.8109C110.641 52.4497 104.792 52.2158 99.0653 53.1224C93.3387 54.029 87.8477 56.0584 82.9079 59.0938C77.968 62.1293 73.6768 66.111 70.2806 70.8102C66.8845 75.5094 64.4505 80.8334 63.1185 86.4762C61.7864 92.1191 61.5826 97.9695 62.5188 103.691C63.455 109.413 65.5126 114.894 68.5735 119.818C71.6345 124.742 75.6383 129.013 80.3549 132.384C85.0716 135.756 90.4081 138.163 96.0577 139.466Z" stroke="#171717" stroke-width="2.57143" stroke-linecap="round" stroke-linejoin="round"/>
<path id="Vector_11" d="M50.1604 96.6379C50.1604 111.492 56.0611 125.737 66.5644 136.241C77.0678 146.744 91.3134 152.645 106.167 152.645C121.021 152.645 135.267 146.744 145.77 136.241C156.274 125.737 162.174 111.492 162.174 96.6379C162.174 81.7839 156.274 67.5383 145.77 57.0349C135.267 46.5316 121.021 40.6309 106.167 40.6309C91.3134 40.6309 77.0678 46.5316 66.5644 57.0349C56.0611 67.5383 50.1604 81.7839 50.1604 96.6379Z" stroke="#171717" stroke-width="2.57143" stroke-linecap="round" stroke-linejoin="round"/>
</g>
</svg>
