<svg width="140" height="140" viewBox="0 0 140 140" fill="none" xmlns="http://www.w3.org/2000/svg">
<path d="M14.6006 76.3766C14.6006 91.0696 20.4374 105.161 30.8269 115.55C41.2164 125.94 55.3076 131.777 70.0006 131.777C84.6936 131.777 98.7848 125.94 109.174 115.55C119.564 105.161 125.401 91.0696 125.401 76.3766C125.401 61.6836 119.564 47.5924 109.174 37.2028C98.7848 26.8133 84.6936 20.9766 70.0006 20.9766C55.3076 20.9766 41.2164 26.8133 30.8269 37.2028C20.4374 47.5924 14.6006 61.6836 14.6006 76.3766Z" fill="#FFF7E9"/>
<path d="M107.08 8.22896H36.4454C35.3801 8.2244 34.3244 8.42971 33.3384 8.83317C32.3525 9.23663 31.4557 9.83033 30.6992 10.5804C29.9427 11.3304 29.3414 12.2221 28.9295 13.2046C28.5177 14.187 28.3034 15.241 28.2988 16.3063V112.846C33.8147 119.154 40.6896 124.129 48.4062 127.396C56.1227 130.662 64.4797 132.136 72.8481 131.706C81.2166 131.276 89.3784 128.953 96.7192 124.912C104.06 120.871 110.389 115.217 115.228 108.377V16.3007C115.217 14.1501 114.353 12.0919 112.825 10.5783C111.297 9.06478 109.231 8.21975 107.08 8.22896Z" fill="white"/>
<path d="M115.228 108.377V16.3007C115.217 14.1501 114.353 12.0919 112.825 10.5783C111.297 9.06478 109.231 8.21975 107.08 8.22896H36.4454C35.3801 8.2244 34.3244 8.42971 33.3384 8.83317C32.3525 9.23663 31.4557 9.83033 30.6992 10.5804C29.9427 11.3304 29.3414 12.2221 28.9295 13.2046C28.5177 14.187 28.3034 15.241 28.2988 16.3063V112.846" stroke="#171717" stroke-width="1.75" stroke-linecap="round" stroke-linejoin="round"/>
<path d="M107.081 32.9028C107.081 32.6465 107.029 32.3929 106.931 32.1564C106.832 31.9199 106.688 31.7052 106.506 31.5245C106.324 31.3438 106.109 31.2007 105.872 31.1033C105.634 31.0059 105.381 30.9561 105.124 30.9569H38.4033C38.147 30.9561 37.8931 31.0059 37.6561 31.1033C37.419 31.2007 37.2035 31.3438 37.0218 31.5245C36.84 31.7052 36.6957 31.9199 36.597 32.1564C36.4982 32.3929 36.447 32.6465 36.4463 32.9028V120.462C46.6984 128.266 59.3496 132.251 72.223 131.734C85.0964 131.217 97.3871 126.229 106.98 117.629L107.081 32.9028Z" fill="#F25A51"/>
<path d="M106.98 117.629L107.083 32.9028C107.082 32.6464 107.031 32.3927 106.932 32.1561C106.833 31.9195 106.689 31.7047 106.507 31.524C106.325 31.3433 106.109 31.2002 105.872 31.1029C105.635 31.0056 105.381 30.9559 105.124 30.9569H38.4033C38.147 30.9561 37.8931 31.0059 37.6561 31.1033C37.419 31.2007 37.2035 31.3438 37.0218 31.5245C36.84 31.7052 36.6957 31.9199 36.597 32.1564C36.4982 32.3929 36.447 32.6465 36.4463 32.9028V120.462" stroke="#171717" stroke-width="1.75" stroke-linecap="round" stroke-linejoin="round"/>
<path d="M57.3711 18.3215C57.3711 18.6888 57.517 19.0411 57.7767 19.3008C58.0365 19.5605 58.3888 19.7065 58.7561 19.7065C59.1234 19.7065 59.4757 19.5605 59.7354 19.3008C59.9952 19.0411 60.1411 18.6888 60.1411 18.3215C60.1411 17.9541 59.9952 17.6019 59.7354 17.3421C59.4757 17.0824 59.1234 16.9365 58.7561 16.9365C58.3888 16.9365 58.0365 17.0824 57.7767 17.3421C57.517 17.6019 57.3711 17.9541 57.3711 18.3215Z" fill="#171717"/>
<path d="M65.8838 18.3215H84.2156" stroke="#171717" stroke-width="1.75" stroke-linecap="round" stroke-linejoin="round"/>
<path d="M45.7617 85.7834H95.6217V96.8634H45.7617V85.7834Z" fill="white" stroke="#171717" stroke-width="1.75" stroke-linecap="round" stroke-linejoin="round"/>
<path d="M55.8459 88.0909C55.8459 88.4164 55.724 88.9468 55.6825 89.3734C56.2531 88.9662 56.6603 88.5424 57.127 88.5424C57.4216 88.5651 57.6961 88.7006 57.8932 88.9207C58.0904 89.1408 58.195 89.4285 58.1852 89.7238C58.1852 90.4966 57.1893 90.6587 56.5592 90.9855C57.1893 91.2902 58.1852 91.4523 58.1852 92.232C58.1952 92.5293 58.0912 92.8191 57.8945 93.0421C57.6978 93.2651 57.4232 93.4044 57.127 93.4315C56.6603 93.4315 56.2531 92.9841 55.6825 92.5783C55.724 93.0049 55.8459 93.5339 55.8459 93.8594C55.8227 94.1189 55.7032 94.3602 55.5109 94.536C55.3187 94.7118 55.0676 94.8093 54.8071 94.8093C54.5466 94.8093 54.2956 94.7118 54.1033 94.536C53.9111 94.3602 53.7916 94.1189 53.7684 93.8594C53.7684 93.5339 53.8917 93.0049 53.9318 92.5783C53.3418 92.9841 52.9152 93.4315 52.4665 93.4315C52.1731 93.4057 51.9017 93.2653 51.7112 93.0408C51.5206 92.8163 51.4263 92.5257 51.4485 92.232C51.4485 91.4578 52.4471 91.2958 53.0565 90.9855C52.4471 90.6587 51.4485 90.4966 51.4485 89.7238C51.4283 89.4325 51.5238 89.1449 51.7145 88.9237C51.9051 88.7025 52.1754 88.5654 52.4665 88.5424C52.9152 88.5424 53.3418 88.9704 53.9318 89.3734C53.8917 88.9468 53.7684 88.4164 53.7684 88.0909C53.7916 87.8314 53.9111 87.5901 54.1033 87.4143C54.2956 87.2385 54.5466 87.141 54.8071 87.141C55.0676 87.141 55.3187 87.2385 55.5109 87.4143C55.7032 87.5901 55.8227 87.8314 55.8459 88.0909Z" fill="#171717"/>
<path d="M66.6761 88.0909C66.6761 88.4164 66.5528 88.9468 66.5127 89.3734C67.0819 88.9662 67.4891 88.5424 67.9572 88.5424C68.2518 88.5651 68.5263 88.7006 68.7234 88.9207C68.9206 89.1408 69.0251 89.4285 69.0153 89.7238C69.0153 90.4966 68.0181 90.6587 67.388 90.9855C68.0181 91.2902 69.0153 91.4523 69.0153 92.232C69.0254 92.5293 68.9214 92.8191 68.7247 93.0421C68.5279 93.2651 68.2534 93.4044 67.9572 93.4315C67.4891 93.4315 67.0819 92.9841 66.5127 92.5783C66.5528 93.0049 66.6761 93.5339 66.6761 93.8594C66.6529 94.1189 66.5334 94.3602 66.3411 94.536C66.1489 94.7118 65.8978 94.8093 65.6373 94.8093C65.3768 94.8093 65.1258 94.7118 64.9335 94.536C64.7413 94.3602 64.6218 94.1189 64.5986 93.8594C64.5986 93.5339 64.7205 93.0049 64.762 92.5783C64.172 92.9841 63.744 93.4315 63.2953 93.4315C63.002 93.4057 62.7308 93.2653 62.5405 93.0407C62.3501 92.8161 62.2561 92.5256 62.2787 92.232C62.2787 91.4578 63.2759 91.2958 63.8867 90.9855C63.2759 90.6587 62.2787 90.4966 62.2787 89.7238C62.2676 89.5794 62.285 89.4343 62.3302 89.2966C62.3753 89.159 62.4471 89.0317 62.5416 88.9219C62.636 88.8121 62.7512 88.7221 62.8806 88.657C63.0099 88.5919 63.1509 88.5529 63.2953 88.5424C63.744 88.5424 64.172 88.9704 64.762 89.3734C64.7205 88.9468 64.5986 88.4164 64.5986 88.0909C64.6218 87.8314 64.7413 87.5901 64.9335 87.4143C65.1258 87.2385 65.3768 87.141 65.6373 87.141C65.8978 87.141 66.1489 87.2385 66.3411 87.4143C66.5334 87.5901 66.6529 87.8314 66.6761 88.0909Z" fill="#171717"/>
<path d="M77.5168 88.0909C77.5168 88.4164 77.3949 88.9468 77.3534 89.3734C77.924 88.9662 78.3312 88.5424 78.7979 88.5424C79.0925 88.5651 79.367 88.7006 79.5641 88.9207C79.7613 89.1408 79.8659 89.4285 79.8561 89.7238C79.8561 90.4966 78.8602 90.6587 78.2301 90.9855C78.8602 91.2902 79.8561 91.4523 79.8561 92.232C79.8661 92.5293 79.7621 92.8191 79.5654 93.0421C79.3687 93.2651 79.0941 93.4044 78.7979 93.4315C78.3312 93.4315 77.924 92.9841 77.3534 92.5783C77.3949 93.0049 77.5168 93.5339 77.5168 93.8594C77.4936 94.1189 77.3741 94.3602 77.1818 94.536C76.9896 94.7118 76.7385 94.8093 76.478 94.8093C76.2175 94.8093 75.9665 94.7118 75.7742 94.536C75.582 94.3602 75.4625 94.1189 75.4393 93.8594C75.4393 93.5339 75.5626 93.0049 75.6027 92.5783C75.0127 92.9841 74.5861 93.4315 74.1374 93.4315C73.844 93.4057 73.5727 93.2653 73.3821 93.0408C73.1915 92.8163 73.0971 92.5257 73.1194 92.232C73.1194 91.4578 74.118 91.2958 74.7274 90.9855C74.118 90.6587 73.1194 90.4966 73.1194 89.7238C73.0992 89.4325 73.1947 89.1449 73.3854 88.9237C73.576 88.7025 73.8463 88.5654 74.1374 88.5424C74.5861 88.5424 75.0127 88.9704 75.6027 89.3734C75.5626 88.9468 75.4393 88.4164 75.4393 88.0909C75.4625 87.8314 75.582 87.5901 75.7742 87.4143C75.9665 87.2385 76.2175 87.141 76.478 87.141C76.7385 87.141 76.9896 87.2385 77.1818 87.4143C77.3741 87.5901 77.4936 87.8314 77.5168 88.0909Z" fill="#171717"/>
<path d="M88.3528 88.0909C88.3528 88.4164 88.2296 88.9468 88.1894 89.3734C88.7586 88.9662 89.1589 88.5424 89.634 88.5424C89.9286 88.5651 90.2031 88.7006 90.4002 88.9207C90.5973 89.1408 90.7019 89.4285 90.6921 89.7238C90.6921 90.4966 89.6949 90.6587 89.0647 90.9855C89.6949 91.2902 90.6921 91.4523 90.6921 92.232C90.7022 92.5293 90.5982 92.8191 90.4014 93.0421C90.2047 93.2651 89.9301 93.4044 89.634 93.4315C89.1658 93.4315 88.7586 92.9841 88.1894 92.5783C88.2296 93.0049 88.3528 93.5339 88.3528 93.8594C88.3296 94.1189 88.2101 94.3602 88.0179 94.536C87.8257 94.7118 87.5746 94.8093 87.3141 94.8093C87.0536 94.8093 86.8025 94.7118 86.6103 94.536C86.4181 94.3602 86.2986 94.1189 86.2753 93.8594C86.2753 93.5339 86.3972 93.0049 86.4388 92.5783C85.8488 92.9841 85.4208 93.4315 84.9721 93.4315C84.6788 93.4057 84.4075 93.2653 84.2172 93.0407C84.0269 92.8161 83.9328 92.5256 83.9555 92.232C83.9555 91.4578 84.9527 91.2958 85.5635 90.9855C84.9527 90.6587 83.9555 90.4966 83.9555 89.7238C83.9443 89.5794 83.9618 89.4343 84.0069 89.2966C84.052 89.159 84.1239 89.0317 84.2183 88.9219C84.3128 88.8121 84.428 88.7221 84.5573 88.657C84.6867 88.5919 84.8276 88.5529 84.9721 88.5424C85.4208 88.5424 85.8488 88.9704 86.4388 89.3734C86.3972 88.9468 86.2753 88.4164 86.2753 88.0909C86.2986 87.8314 86.4181 87.5901 86.6103 87.4143C86.8025 87.2385 87.0536 87.141 87.3141 87.141C87.5746 87.141 87.8257 87.2385 88.0179 87.4143C88.2101 87.5901 88.3296 87.8314 88.3528 88.0909Z" fill="#171717"/>
<path d="M45.7617 102.404H95.6217V113.484H45.7617V102.404Z" fill="#F25A51" stroke="#171717" stroke-width="1.75"/>
<path d="M45.7617 102.404H59.6117V113.484H45.7617V102.404Z" fill="white" stroke="#171717" stroke-width="1.75" stroke-linecap="round" stroke-linejoin="round"/>
<path d="M51.5048 111.492C51.2713 111.491 51.0433 111.421 50.8495 111.29C50.6558 111.16 50.505 110.975 50.4161 110.759C50.3273 110.543 50.3043 110.306 50.3502 110.077C50.396 109.848 50.5086 109.638 50.6738 109.472L52.1973 107.949L50.6738 106.419C50.4593 106.195 50.341 105.897 50.3442 105.587C50.3474 105.277 50.4719 104.981 50.6909 104.763C50.9099 104.544 51.206 104.42 51.5157 104.417C51.8253 104.414 52.1237 104.532 52.3469 104.747L54.7124 107.112C54.8225 107.222 54.9098 107.353 54.9694 107.496C55.029 107.64 55.0596 107.794 55.0596 107.949C55.0596 108.104 55.029 108.258 54.9694 108.402C54.9098 108.545 54.8225 108.676 54.7124 108.785L52.3413 111.146C52.2315 111.255 52.1011 111.343 51.9576 111.402C51.814 111.461 51.6601 111.492 51.5048 111.492Z" fill="#171717"/>
<path d="M51.3027 60.1319C51.3027 65.0985 53.2757 69.8616 56.7876 73.3736C60.2995 76.8855 65.0627 78.8584 70.0293 78.8584C74.9959 78.8584 79.7591 76.8855 83.271 73.3736C86.7829 69.8616 88.7559 65.0985 88.7559 60.1319C88.7559 55.1653 86.7829 50.4021 83.271 46.8902C79.7591 43.3782 74.9959 41.4053 70.0293 41.4053C65.0627 41.4053 60.2995 43.3782 56.7876 46.8902C53.2757 50.4021 51.3027 55.1653 51.3027 60.1319Z" fill="white" stroke="#171717" stroke-width="1.75" stroke-linecap="round" stroke-linejoin="round"/>
<path d="M64.0033 59.6984C64.0371 61.2739 64.6867 62.7735 65.8129 63.8758C66.9391 64.9781 68.4522 65.5953 70.0281 65.5953C71.6039 65.5953 73.1171 64.9781 74.2433 63.8758C75.3695 62.7735 76.0191 61.2739 76.0528 59.6984V56.686C76.07 55.884 75.9269 55.0866 75.6319 54.3405C75.3368 53.5945 74.8958 52.915 74.3346 52.3416C73.7735 51.7683 73.1035 51.3128 72.364 51.0019C71.6245 50.6909 70.8303 50.5307 70.0281 50.5307C69.2259 50.5307 68.4317 50.6909 67.6922 51.0019C66.9527 51.3128 66.2827 51.7683 65.7215 52.3416C65.1604 52.915 64.7194 53.5945 64.4243 54.3405C64.1293 55.0866 63.9861 55.884 64.0033 56.686V59.6984Z" fill="white" stroke="#171717" stroke-width="1.75" stroke-linecap="round" stroke-linejoin="round"/>
<path d="M82.5463 74.0595C79.1093 77.1476 74.652 78.8559 70.0315 78.8559C65.4109 78.8559 60.9536 77.1476 57.5166 74.0595C58.5451 71.591 60.2808 69.4819 62.5053 67.9977C64.7297 66.5134 67.3435 65.7202 70.0176 65.718C72.6918 65.7158 75.3069 66.5046 77.5337 67.9852C79.7606 69.4658 81.4998 71.572 82.5325 74.0387" fill="#F25A51"/>
<path d="M82.5463 74.0595C79.1093 77.1476 74.652 78.8559 70.0315 78.8559C65.4109 78.8559 60.9536 77.1476 57.5166 74.0595C58.5451 71.591 60.2808 69.4819 62.5053 67.9977C64.7297 66.5134 67.3435 65.7202 70.0176 65.718C72.6918 65.7158 75.3069 66.5046 77.5337 67.9852C79.7606 69.4658 81.4998 71.572 82.5325 74.0387" stroke="#171717" stroke-width="1.75"/>
<path d="M64.0527 55.9076C64.2107 54.6924 64.7355 53.5542 65.5571 52.6449C66.3787 51.7356 67.458 51.0985 68.6511 50.8186C69.8442 50.5387 71.0943 50.6293 72.2346 51.0783C73.3748 51.5273 74.3511 52.3133 75.033 53.3315C73.607 54.714 71.8326 55.6837 69.899 56.1373C67.9653 56.591 65.9448 56.5116 64.0527 55.9076Z" fill="white" stroke="#171717" stroke-width="1.75"/>
</svg>
