<svg width="41" height="40" viewBox="0 0 41 40" fill="none" xmlns="http://www.w3.org/2000/svg">
<rect x="0.666656" width="40" height="40" rx="20" fill="#F8F8F8"/>
<g clip-path="url(#clip0_1206_30723)">
<path d="M17.3333 15.8333C17.3333 16.7174 17.6845 17.5652 18.3096 18.1904C18.9347 18.8155 19.7826 19.1667 20.6666 19.1667C21.5507 19.1667 22.3985 18.8155 23.0237 18.1904C23.6488 17.5652 24 16.7174 24 15.8333C24 14.9493 23.6488 14.1014 23.0237 13.4763C22.3985 12.8512 21.5507 12.5 20.6666 12.5C19.7826 12.5 18.9347 12.8512 18.3096 13.4763C17.6845 14.1014 17.3333 14.9493 17.3333 15.8333Z" stroke="#EA5148" stroke-width="1.5" stroke-linecap="round" stroke-linejoin="round"/>
<path d="M15.6667 27.5V25.8333C15.6667 24.9493 16.0178 24.1014 16.643 23.4763C17.2681 22.8512 18.1159 22.5 19 22.5H22.3333C23.2174 22.5 24.0652 22.8512 24.6903 23.4763C25.3155 24.1014 25.6667 24.9493 25.6667 25.8333V27.5" stroke="#EA5148" stroke-width="1.5" stroke-linecap="round" stroke-linejoin="round"/>
</g>
<defs>
<clipPath id="clip0_1206_30723">
<rect width="20" height="20" fill="white" transform="translate(10.6667 10)"/>
</clipPath>
</defs>
</svg>
