<svg width="41" height="40" viewBox="0 0 41 40" fill="none" xmlns="http://www.w3.org/2000/svg">
<rect x="0.666664" width="40" height="40" rx="20" fill="#F8F8F8"/>
<g clip-path="url(#clip0_1206_30711)">
<path d="M18.1667 15.8333H23.1667M18.1667 19.1667H23.1667M21.5 22.5H23.1667M14.8333 27.5V14.1667C14.8333 13.7246 15.0089 13.3007 15.3215 12.9882C15.634 12.6756 16.058 12.5 16.5 12.5H24.8333C25.2754 12.5 25.6993 12.6756 26.0118 12.9882C26.3244 13.3007 26.5 13.7246 26.5 14.1667V27.5L24 25.8333L22.3333 27.5L20.6667 25.8333L19 27.5L17.3333 25.8333L14.8333 27.5Z" stroke="#EA5148" stroke-width="1.5" stroke-linecap="round" stroke-linejoin="round"/>
</g>
<defs>
<clipPath id="clip0_1206_30711">
<rect width="20" height="20" fill="white" transform="translate(10.6667 10)"/>
</clipPath>
</defs>
</svg>
