<svg width="412" height="24" viewBox="0 0 412 24" fill="none" xmlns="http://www.w3.org/2000/svg">
<line y1="11.5" x2="182" y2="11.5" stroke="#E1E1E1"/>
<g clip-path="url(#clip0_734_104125)">
<path d="M209 12H212.586C212.784 12 212.977 12.0587 213.141 12.1686C213.306 12.2785 213.434 12.4346 213.51 12.6173C213.585 12.8 213.605 13.0011 213.567 13.195C213.528 13.389 213.433 13.5671 213.293 13.707L206.707 20.293C206.519 20.4805 206.265 20.5858 206 20.5858C205.735 20.5858 205.48 20.4805 205.293 20.293L198.707 13.707C198.567 13.5671 198.472 13.389 198.433 13.195C198.395 13.0011 198.415 12.8 198.49 12.6173C198.566 12.4346 198.694 12.2785 198.859 12.1686C199.023 12.0587 199.216 12 199.414 12H203V9H209V12Z" stroke="#EA5148" stroke-width="1.5" stroke-linecap="round" stroke-linejoin="round"/>
<path d="M209 3H203" stroke="#EA5148" stroke-width="1.5" stroke-linecap="round" stroke-linejoin="round"/>
<path d="M209 6H203" stroke="#EA5148" stroke-width="1.5" stroke-linecap="round" stroke-linejoin="round"/>
</g>
<line x1="230" y1="11.5" x2="412" y2="11.5" stroke="#E1E1E1"/>
<defs>
<clipPath id="clip0_734_104125">
<rect width="24" height="24" fill="white" transform="translate(194)"/>
</clipPath>
</defs>
</svg>
