<svg width="41" height="40" viewBox="0 0 41 40" fill="none" xmlns="http://www.w3.org/2000/svg">
<rect x="0.666672" width="40" height="40" rx="20" fill="#F8F8F8"/>
<g clip-path="url(#clip0_1206_30695)">
<path d="M14.8333 15.8333C14.8333 16.7174 15.1845 17.5652 15.8096 18.1904C16.4348 18.8155 17.2826 19.1667 18.1667 19.1667C19.0507 19.1667 19.8986 18.8155 20.5237 18.1904C21.1488 17.5652 21.5 16.7174 21.5 15.8333C21.5 14.9493 21.1488 14.1014 20.5237 13.4763C19.8986 12.8512 19.0507 12.5 18.1667 12.5C17.2826 12.5 16.4348 12.8512 15.8096 13.4763C15.1845 14.1014 14.8333 14.9493 14.8333 15.8333Z" stroke="#EA5148" stroke-width="1.5" stroke-linecap="round" stroke-linejoin="round"/>
<path d="M13.1667 27.5V25.8333C13.1667 24.9493 13.5179 24.1014 14.143 23.4763C14.7681 22.8512 15.616 22.5 16.5 22.5H19.8333C20.7174 22.5 21.5652 22.8512 22.1904 23.4763C22.8155 24.1014 23.1667 24.9493 23.1667 25.8333V27.5" stroke="#EA5148" stroke-width="1.5" stroke-linecap="round" stroke-linejoin="round"/>
<path d="M24 12.6083C24.717 12.7919 25.3525 13.2089 25.8064 13.7936C26.2602 14.3783 26.5065 15.0974 26.5065 15.8375C26.5065 16.5776 26.2602 17.2967 25.8064 17.8814C25.3525 18.4661 24.717 18.8831 24 19.0667" stroke="#EA5148" stroke-width="1.5" stroke-linecap="round" stroke-linejoin="round"/>
<path d="M28.1667 27.5V25.8333C28.1624 25.0976 27.9149 24.384 27.4627 23.8037C27.0105 23.2233 26.379 22.8089 25.6667 22.625" stroke="#EA5148" stroke-width="1.5" stroke-linecap="round" stroke-linejoin="round"/>
</g>
<defs>
<clipPath id="clip0_1206_30695">
<rect width="20" height="20" fill="white" transform="translate(10.6667 10)"/>
</clipPath>
</defs>
</svg>
