<svg width="40" height="40" viewBox="0 0 40 40" fill="none" xmlns="http://www.w3.org/2000/svg">
<rect x="-7.62939e-06" width="40" height="40" rx="20" fill="#F8F8F8"/>
<g clip-path="url(#clip0_1206_30731)">
<path d="M25.8333 18.3333L20 12.5L12.5 20H14.1667V25.8333C14.1667 26.2754 14.3423 26.6993 14.6548 27.0118C14.9674 27.3244 15.3913 27.5 15.8333 27.5H20.8333" stroke="#EA5148" stroke-width="1.5" stroke-linecap="round" stroke-linejoin="round"/>
<path d="M17.5 27.5V22.5C17.5 22.058 17.6756 21.6341 17.9881 21.3215C18.3007 21.0089 18.7246 20.8333 19.1667 20.8333H20.8333C21.1558 20.8333 21.4567 20.925 21.7117 21.0833" stroke="#EA5148" stroke-width="1.5" stroke-linecap="round" stroke-linejoin="round"/>
<path d="M27.5 22.5H25.4167C25.0851 22.5 24.7672 22.6317 24.5328 22.8661C24.2984 23.1005 24.1667 23.4185 24.1667 23.75C24.1667 24.0815 24.2984 24.3995 24.5328 24.6339C24.7672 24.8683 25.0851 25 25.4167 25H26.25C26.5815 25 26.8995 25.1317 27.1339 25.3661C27.3683 25.6005 27.5 25.9185 27.5 26.25C27.5 26.5815 27.3683 26.8995 27.1339 27.1339C26.8995 27.3683 26.5815 27.5 26.25 27.5H24.1667" stroke="#EA5148" stroke-width="1.5" stroke-linecap="round" stroke-linejoin="round"/>
<path d="M25.8333 27.5V28.3333M25.8333 21.6667V22.5" stroke="#EA5148" stroke-width="1.5" stroke-linecap="round" stroke-linejoin="round"/>
</g>
<defs>
<clipPath id="clip0_1206_30731">
<rect width="20" height="20" fill="white" transform="translate(9.99999 10)"/>
</clipPath>
</defs>
</svg>
