<svg width="41" height="40" viewBox="0 0 41 40" fill="none" xmlns="http://www.w3.org/2000/svg">
<rect x="0.333328" width="40" height="40" rx="20" fill="#F8F8F8"/>
<g clip-path="url(#clip0_1206_30719)">
<path d="M18.25 12.5H22.4167C22.7482 12.5 23.0661 12.6317 23.3006 12.8661C23.535 13.1005 23.6667 13.4185 23.6667 13.75C23.6667 14.5235 23.3594 15.2654 22.8124 15.8124C22.2654 16.3594 21.5235 16.6667 20.75 16.6667H19.9167C19.1431 16.6667 18.4013 16.3594 17.8543 15.8124C17.3073 15.2654 17 14.5235 17 13.75C17 13.4185 17.1317 13.1005 17.3661 12.8661C17.6005 12.6317 17.9185 12.5 18.25 12.5Z" stroke="#EA5148" stroke-width="1.5" stroke-linecap="round" stroke-linejoin="round"/>
<path d="M13.6667 24.1667V23.3333C13.6667 21.5652 14.369 19.8695 15.6193 18.6193C16.8695 17.369 18.5652 16.6667 20.3333 16.6667C22.1014 16.6667 23.7971 17.369 25.0474 18.6193C26.2976 19.8695 27 21.5652 27 23.3333V24.1667C27 25.0507 26.6488 25.8986 26.0237 26.5237C25.3986 27.1488 24.5507 27.5 23.6667 27.5H17C16.1159 27.5 15.2681 27.1488 14.643 26.5237C14.0178 25.8986 13.6667 25.0507 13.6667 24.1667Z" stroke="#EA5148" stroke-width="1.5" stroke-linecap="round" stroke-linejoin="round"/>
</g>
<defs>
<clipPath id="clip0_1206_30719">
<rect width="20" height="20" fill="white" transform="translate(10.3333 10)"/>
</clipPath>
</defs>
</svg>
