<svg width="41" height="40" viewBox="0 0 41 40" fill="none" xmlns="http://www.w3.org/2000/svg">
<rect x="0.333328" width="40" height="40" rx="20" fill="#F8F8F8"/>
<g clip-path="url(#clip0_1206_30735)">
<path d="M17 15.8333C17 16.7174 17.3512 17.5652 17.9763 18.1904C18.6014 18.8155 19.4493 19.1667 20.3333 19.1667C21.2174 19.1667 22.0652 18.8155 22.6904 18.1904C23.3155 17.5652 23.6667 16.7174 23.6667 15.8333C23.6667 14.9493 23.3155 14.1014 22.6904 13.4763C22.0652 12.8512 21.2174 12.5 20.3333 12.5C19.4493 12.5 18.6014 12.8512 17.9763 13.4763C17.3512 14.1014 17 14.9493 17 15.8333Z" stroke="#EA5148" stroke-width="1.5" stroke-linecap="round" stroke-linejoin="round"/>
<path d="M15.3333 27.5V25.8333C15.3333 24.9493 15.6845 24.1014 16.3096 23.4763C16.9348 22.8512 17.7826 22.5 18.6667 22.5H22C22.884 22.5 23.7319 22.8512 24.357 23.4763C24.9821 24.1014 25.3333 24.9493 25.3333 25.8333V27.5" stroke="#EA5148" stroke-width="1.5" stroke-linecap="round" stroke-linejoin="round"/>
</g>
<defs>
<clipPath id="clip0_1206_30735">
<rect width="20" height="20" fill="white" transform="translate(10.3333 10)"/>
</clipPath>
</defs>
</svg>
