<svg width="21" height="20" viewBox="0 0 21 20" fill="none" xmlns="http://www.w3.org/2000/svg">
<g clip-path="url(#clip0_1708_75963)">
<path d="M12.1666 2.5V5.83333C12.1666 6.05435 12.2544 6.26631 12.4107 6.42259C12.567 6.57887 12.7789 6.66667 13 6.66667H16.3333" stroke="#EA5148" stroke-width="1.5" stroke-linecap="round" stroke-linejoin="round"/>
<path d="M14.6666 17.5H6.33329C5.89127 17.5 5.46734 17.3244 5.15478 17.0118C4.84222 16.6993 4.66663 16.2754 4.66663 15.8333V4.16667C4.66663 3.72464 4.84222 3.30072 5.15478 2.98816C5.46734 2.67559 5.89127 2.5 6.33329 2.5H12.1666L16.3333 6.66667V15.8333C16.3333 16.2754 16.1577 16.6993 15.8451 17.0118C15.5326 17.3244 15.1087 17.5 14.6666 17.5Z" stroke="#EA5148" stroke-width="1.5" stroke-linecap="round" stroke-linejoin="round"/>
<path d="M8 5.83331H8.83333" stroke="#EA5148" stroke-width="1.5" stroke-linecap="round" stroke-linejoin="round"/>
<path d="M8 10.8333H13" stroke="#EA5148" stroke-width="1.5" stroke-linecap="round" stroke-linejoin="round"/>
<path d="M11.3334 14.1667H13" stroke="#EA5148" stroke-width="1.5" stroke-linecap="round" stroke-linejoin="round"/>
</g>
<defs>
<clipPath id="clip0_1708_75963">
<rect width="20" height="20" fill="white" transform="translate(0.5)"/>
</clipPath>
</defs>
</svg>
