<svg width="25" height="24" viewBox="0 0 25 24" fill="none" xmlns="http://www.w3.org/2000/svg">
<g clip-path="url(#clip0_733_72331)">
<path d="M14.5 3V7C14.5 7.26522 14.6054 7.51957 14.7929 7.70711C14.9804 7.89464 15.2348 8 15.5 8H19.5" stroke="#EA5148" stroke-width="1.5" stroke-linecap="round" stroke-linejoin="round"/>
<path d="M5.5 12V5C5.5 4.46957 5.71071 3.96086 6.08579 3.58579C6.46086 3.21071 6.96957 3 7.5 3H14.5L19.5 8V12" stroke="#EA5148" stroke-width="1.5" stroke-linecap="round" stroke-linejoin="round"/>
<path d="M5.5 18H7C7.39782 18 7.77936 17.842 8.06066 17.5607C8.34196 17.2794 8.5 16.8978 8.5 16.5C8.5 16.1022 8.34196 15.7206 8.06066 15.4393C7.77936 15.158 7.39782 15 7 15H5.5V21" stroke="#EA5148" stroke-width="1.5" stroke-linecap="round" stroke-linejoin="round"/>
<path d="M17.5 18H19.5" stroke="#EA5148" stroke-width="1.5" stroke-linecap="round" stroke-linejoin="round"/>
<path d="M20.5 15H17.5V21" stroke="#EA5148" stroke-width="1.5" stroke-linecap="round" stroke-linejoin="round"/>
<path d="M11.5 15V21H12.5C13.0304 21 13.5391 20.7893 13.9142 20.4142C14.2893 20.0391 14.5 19.5304 14.5 19V17C14.5 16.4696 14.2893 15.9609 13.9142 15.5858C13.5391 15.2107 13.0304 15 12.5 15H11.5Z" stroke="#EA5148" stroke-width="1.5" stroke-linecap="round" stroke-linejoin="round"/>
</g>
<defs>
<clipPath id="clip0_733_72331">
<rect width="24" height="24" fill="white" transform="translate(0.5)"/>
</clipPath>
</defs>
</svg>
