<svg width="21" height="20" viewBox="0 0 21 20" fill="none" xmlns="http://www.w3.org/2000/svg">
<g clip-path="url(#clip0_573_1629)">
<path d="M8 12.5L13 7.5" stroke="#8E8E8E" stroke-width="1.5" stroke-linecap="round" stroke-linejoin="round"/>
<path d="M8.41667 8.33333C8.64679 8.33333 8.83333 8.14679 8.83333 7.91667C8.83333 7.68655 8.64679 7.5 8.41667 7.5C8.18655 7.5 8 7.68655 8 7.91667C8 8.14679 8.18655 8.33333 8.41667 8.33333Z" fill="#8E8E8E" stroke="#8E8E8E" stroke-width="1.5" stroke-linecap="round" stroke-linejoin="round"/>
<path d="M12.5833 12.4998C12.8135 12.4998 13 12.3133 13 12.0832C13 11.8531 12.8135 11.6665 12.5833 11.6665C12.3532 11.6665 12.1667 11.8531 12.1667 12.0832C12.1667 12.3133 12.3532 12.4998 12.5833 12.4998Z" fill="#8E8E8E" stroke="#8E8E8E" stroke-width="1.5" stroke-linecap="round" stroke-linejoin="round"/>
<path d="M3 10C3 10.9849 3.19399 11.9602 3.5709 12.8701C3.94781 13.7801 4.50026 14.6069 5.1967 15.3033C5.89314 15.9997 6.71993 16.5522 7.62987 16.9291C8.53982 17.306 9.51509 17.5 10.5 17.5C11.4849 17.5 12.4602 17.306 13.3701 16.9291C14.2801 16.5522 15.1069 15.9997 15.8033 15.3033C16.4997 14.6069 17.0522 13.7801 17.4291 12.8701C17.806 11.9602 18 10.9849 18 10C18 9.01509 17.806 8.03982 17.4291 7.12987C17.0522 6.21993 16.4997 5.39314 15.8033 4.6967C15.1069 4.00026 14.2801 3.44781 13.3701 3.0709C12.4602 2.69399 11.4849 2.5 10.5 2.5C9.51509 2.5 8.53982 2.69399 7.62987 3.0709C6.71993 3.44781 5.89314 4.00026 5.1967 4.6967C4.50026 5.39314 3.94781 6.21993 3.5709 7.12987C3.19399 8.03982 3 9.01509 3 10Z" stroke="#8E8E8E" stroke-width="1.5" stroke-linecap="round" stroke-linejoin="round"/>
</g>
<defs>
<clipPath id="clip0_573_1629">
<rect width="20" height="20" fill="white" transform="translate(0.5)"/>
</clipPath>
</defs>
</svg>
