<svg width="40" height="40" viewBox="0 0 40 40" fill="none" xmlns="http://www.w3.org/2000/svg">
<path d="M0 8C0 3.58172 3.58172 0 8 0H32C36.4183 0 40 3.58172 40 8V32C40 36.4183 36.4183 40 32 40H8C3.58172 40 0 36.4183 0 32V8Z" fill="#FFEFD6"/>
<g clip-path="url(#clip0_1299_20765)">
<path d="M17 15H23M17 19H23M21 23H23M13 29V13C13 12.4696 13.2107 11.9609 13.5858 11.5858C13.9609 11.2107 14.4696 11 15 11H25C25.5304 11 26.0391 11.2107 26.4142 11.5858C26.7893 11.9609 27 12.4696 27 13V29L24 27L22 29L20 27L18 29L16 27L13 29Z" stroke="#A66300" stroke-width="1.5" stroke-linecap="round" stroke-linejoin="round"/>
</g>
<defs>
<clipPath id="clip0_1299_20765">
<rect width="24" height="24" fill="white" transform="translate(8 8)"/>
</clipPath>
</defs>
</svg>
