<svg width="21" height="20" viewBox="0 0 21 20" fill="none" xmlns="http://www.w3.org/2000/svg">
<g clip-path="url(#clip0_573_1638)">
<path d="M3 10C3 10.9849 3.19399 11.9602 3.5709 12.8701C3.94781 13.7801 4.50026 14.6069 5.1967 15.3033C5.89314 15.9997 6.71993 16.5522 7.62987 16.9291C8.53982 17.306 9.51509 17.5 10.5 17.5C11.4849 17.5 12.4602 17.306 13.3701 16.9291C14.2801 16.5522 15.1069 15.9997 15.8033 15.3033C16.4997 14.6069 17.0522 13.7801 17.4291 12.8701C17.806 11.9602 18 10.9849 18 10C18 9.01509 17.806 8.03982 17.4291 7.12987C17.0522 6.21993 16.4997 5.39314 15.8033 4.6967C15.1069 4.00026 14.2801 3.44781 13.3701 3.0709C12.4602 2.69399 11.4849 2.5 10.5 2.5C9.51509 2.5 8.53982 2.69399 7.62987 3.0709C6.71993 3.44781 5.89314 4.00026 5.1967 4.6967C4.50026 5.39314 3.94781 6.21993 3.5709 7.12987C3.19399 8.03982 3 9.01509 3 10Z" stroke="#8E8E8E" stroke-width="1.5" stroke-linecap="round" stroke-linejoin="round"/>
<path d="M10.5 14.1665V14.1748" stroke="#8E8E8E" stroke-width="1.5" stroke-linecap="round" stroke-linejoin="round"/>
<path d="M10.5 11.25C10.4847 10.9795 10.5576 10.7113 10.7079 10.4858C10.8582 10.2604 11.0777 10.0899 11.3333 9.99998C11.6466 9.88019 11.9277 9.68934 12.1546 9.44244C12.3816 9.19554 12.5481 8.89933 12.6411 8.57713C12.7341 8.25494 12.751 7.91555 12.6906 7.5857C12.6302 7.25584 12.494 6.94452 12.2928 6.67624C12.0915 6.40796 11.8308 6.19005 11.5311 6.03966C11.2313 5.88927 10.9008 5.81051 10.5654 5.80958C10.2301 5.80865 9.8991 5.88557 9.59853 6.0343C9.29797 6.18302 9.03602 6.39948 8.83333 6.66664" stroke="#8E8E8E" stroke-width="1.5" stroke-linecap="round" stroke-linejoin="round"/>
</g>
<defs>
<clipPath id="clip0_573_1638">
<rect width="20" height="20" fill="white" transform="translate(0.5)"/>
</clipPath>
</defs>
</svg>
