<svg width="32" height="32" viewBox="0 0 32 32" fill="none" xmlns="http://www.w3.org/2000/svg">
<g id="Frame 25034">
<g id="Group 25555">
<path id="Vector" d="M12.2897 30.9051C11.4527 31.4039 10.6919 31.6948 9.89306 31.6948C7.82676 31.6948 6.10002 30.0036 6 27.9689L10.026 25.5696L16.2788 28.3716L12.2897 30.9051Z" fill="#83B8D7"/>
<path id="Vector_2" d="M14.6771 20.6063L11.6869 19.2902C10.351 18.6927 9.08887 18.1952 9.08887 16.7251C9.08887 15.9631 9.32182 15.563 9.68638 15.1655L16.0037 17.9531L14.4362 18.8585C14.0032 19.1218 13.7045 19.356 13.7045 19.6903C13.7045 20.0496 14.1164 20.3484 14.6705 20.6116" fill="#B3D3A2"/>
<path id="Vector_3" d="M17.6134 6.80036L14.5482 8.66135C14.2771 8.82586 13.9125 9.0904 13.9125 9.4984C13.9125 9.96299 14.6193 10.3183 15.2484 10.6184L11.4132 8.92589C10.2827 8.4284 9.15607 7.86378 9.15607 6.5016C9.14986 5.99112 9.30004 5.49097 9.58644 5.06836L17.878 0C18.8729 0.564613 19.8363 1.70305 19.8363 3.23106C19.8363 4.86699 19.0085 5.962 17.6134 6.80036Z" fill="#83B8D7"/>
<path id="Vector_4" d="M24.1347 12.7927L23.3727 13.2243L17.0396 10.4276L24.3979 5.99756C25.3929 6.57138 26.3721 7.69798 26.3721 9.22599C26.3721 10.8619 25.5667 11.9898 24.1347 12.794" fill="#B3D3A2"/>
<path id="Vector_5" d="M18.7887 18.1702L22.5356 19.8166C23.9386 20.4457 24.3703 21.1841 24.3703 22.1159C24.3703 22.6423 24.0716 23.1767 23.6412 23.5439L17.3409 20.7445L18.4057 20.147C19.3085 19.6495 19.6073 19.3494 19.6073 19.0191C19.6073 18.6887 19.3967 18.4466 18.7887 18.1702Z" fill="#83B8D7"/>
<path id="Vector_6" d="M25.4653 31.9999C23.8715 30.772 22.175 29.9429 20.1034 29.0045L10.5498 24.7784C8.15048 23.7084 6.55798 22.2778 6.55798 19.8812C6.55798 17.549 7.68721 16.4198 9.15599 15.4919L9.68244 15.1589C9.31656 15.5538 9.08492 15.9552 9.08492 16.7185C9.08492 18.1886 10.3471 18.6861 11.6829 19.2836L22.7975 24.1809C24.7309 25.0127 26.4997 26.4394 26.4997 28.8702C26.4997 30.2074 25.9917 31.4037 25.4613 31.9999" fill="#26A135"/>
<path id="Vector_7" d="M24.3375 23.107L23.6413 23.54C24.0703 23.1741 24.3704 22.6411 24.3704 22.1107C24.3704 21.1815 23.9374 20.4419 22.5344 19.8115L10.6499 14.5812C8.25061 13.5244 6.76208 12.1543 6.76208 9.76425C6.76208 7.56503 7.85709 6.12783 9.59173 5.06836C9.30525 5.49101 9.15464 5.99105 9.16004 6.50161C9.16004 7.86378 10.288 8.4284 11.4185 8.92589L22.9661 14.0258C25.0719 14.955 26.767 16.358 26.767 18.9244C26.767 20.9236 25.8313 22.1844 24.3375 23.1149" fill="#006EA6"/>
</g>
</g>
</svg>
