<svg width="64" height="64" viewBox="0 0 64 64" fill="none" xmlns="http://www.w3.org/2000/svg">
<g filter="url(#filter0_d_1171_55835)">
<rect x="4" y="4" width="56" height="56" rx="28" fill="white"/>
<g clip-path="url(#clip0_1171_55835)">
<path d="M32 28V32L34 34" stroke="#EA5148" stroke-width="1.5" stroke-linecap="round" stroke-linejoin="round"/>
<path d="M23.05 30.9999C23.2741 28.8 24.3003 26.7596 25.9328 25.2679C27.5653 23.7763 29.6897 22.9378 31.9009 22.9126C34.1121 22.8873 36.2552 23.677 37.9213 25.131C39.5874 26.585 40.6599 28.6014 40.9342 30.7957C41.2085 32.9899 40.6654 35.2084 39.4084 37.0277C38.1515 38.8471 36.2687 40.14 34.1193 40.6598C31.97 41.1796 29.7045 40.8899 27.755 39.846C25.8056 38.8021 24.3088 37.077 23.55 34.9999M23.05 39.9999V34.9999H28.05" stroke="#EA5148" stroke-width="1.5" stroke-linecap="round" stroke-linejoin="round"/>
</g>
</g>
<defs>
<filter id="filter0_d_1171_55835" x="0" y="0" width="64" height="64" filterUnits="userSpaceOnUse" color-interpolation-filters="sRGB">
<feFlood flood-opacity="0" result="BackgroundImageFix"/>
<feColorMatrix in="SourceAlpha" type="matrix" values="0 0 0 0 0 0 0 0 0 0 0 0 0 0 0 0 0 0 127 0" result="hardAlpha"/>
<feOffset/>
<feGaussianBlur stdDeviation="2"/>
<feColorMatrix type="matrix" values="0 0 0 0 0 0 0 0 0 0 0 0 0 0 0 0 0 0 0.15 0"/>
<feBlend mode="normal" in2="BackgroundImageFix" result="effect1_dropShadow_1171_55835"/>
<feBlend mode="normal" in="SourceGraphic" in2="effect1_dropShadow_1171_55835" result="shape"/>
</filter>
<clipPath id="clip0_1171_55835">
<rect width="24" height="24" fill="white" transform="translate(20 20)"/>
</clipPath>
</defs>
</svg>
