<svg width="140" height="140" viewBox="0 0 140 140" fill="none" xmlns="http://www.w3.org/2000/svg">
<path d="M14.6001 70C14.6001 84.693 20.4369 98.7842 30.8264 109.174C41.2159 119.563 55.3071 125.4 70.0001 125.4C84.6931 125.4 98.7843 119.563 109.174 109.174C119.563 98.7842 125.4 84.693 125.4 70C125.4 55.307 119.563 41.2158 109.174 30.8263C98.7843 20.4367 84.6931 14.6 70.0001 14.6C55.3071 14.6 41.2159 20.4367 30.8264 30.8263C20.4369 41.2158 14.6001 55.307 14.6001 70Z" fill="#FFF7E9"/>
<path d="M79.5676 112.162C79.5676 113.49 71.6731 114.568 61.931 114.568C52.1889 114.568 44.2944 113.489 44.2944 112.162C44.2944 110.835 52.1889 109.758 61.931 109.758C71.6731 109.758 79.5676 110.834 79.5676 112.162Z" fill="#F25A51"/>
<path d="M80.6299 81.6756L87.2322 75.0719L94.9328 82.7725L88.3305 89.3762L80.6299 81.6756Z" fill="white" stroke="#171717" stroke-width="1.5" stroke-linecap="round" stroke-linejoin="round"/>
<path d="M110.335 95.9729C111.503 97.1399 112.158 98.7228 112.158 100.373C112.159 102.024 111.503 103.607 110.336 104.774C109.169 105.941 107.586 106.597 105.936 106.597C104.285 106.597 102.702 105.942 101.535 104.775L88.3347 91.5728C88.1901 91.4284 88.0754 91.257 87.9972 91.0683C87.9189 90.8796 87.8787 90.6774 87.8787 90.4731C87.8787 90.2688 87.9189 90.0665 87.9972 89.8778C88.0754 89.6891 88.1901 89.5177 88.3347 89.3734L94.93 82.7725C95.0745 82.6279 95.246 82.5132 95.4348 82.4349C95.6236 82.3566 95.826 82.3163 96.0304 82.3163C96.2348 82.3163 96.4372 82.3566 96.626 82.4349C96.8148 82.5132 96.9864 82.6279 97.1308 82.7725L110.335 95.9729Z" fill="#F25A51"/>
<path d="M110.335 95.9729C111.503 97.1399 112.158 98.7228 112.158 100.373C112.159 102.024 111.503 103.607 110.336 104.774C109.169 105.941 107.586 106.597 105.936 106.597C104.285 106.597 102.702 105.942 101.535 104.775L88.3347 91.5728C88.1901 91.4284 88.0754 91.257 87.9972 91.0683C87.9189 90.8796 87.8787 90.6774 87.8787 90.4731C87.8787 90.2688 87.9189 90.0665 87.9972 89.8778C88.0754 89.6891 88.1901 89.5177 88.3347 89.3734L94.93 82.7725C95.0745 82.6279 95.246 82.5132 95.4348 82.4349C95.6236 82.3566 95.826 82.3163 96.0304 82.3163C96.2348 82.3163 96.4372 82.3566 96.626 82.4349C96.8148 82.5132 96.9864 82.6279 97.1308 82.7725L110.335 95.9729Z" stroke="#171717" stroke-width="1.5" stroke-linecap="round" stroke-linejoin="round"/>
<path d="M29.2603 56.3716C29.2603 65.0364 32.7023 73.3463 38.8293 79.4733C44.9563 85.6002 53.2662 89.0423 61.931 89.0423C70.5958 89.0423 78.9058 85.6002 85.0327 79.4733C91.1597 73.3463 94.6018 65.0364 94.6018 56.3716C94.6018 47.7067 91.1597 39.3968 85.0327 33.2699C78.9058 27.1429 70.5958 23.7008 61.931 23.7008C53.2662 23.7008 44.9563 27.1429 38.8293 33.2699C32.7023 39.3968 29.2603 47.7067 29.2603 56.3716Z" fill="white"/>
<path d="M56.0338 81.3542C59.3214 82.1482 62.7335 82.2847 66.074 81.7558C69.4145 81.227 72.6176 80.0432 75.4991 78.2725C78.3807 76.5018 80.884 74.1791 82.865 71.4379C84.8461 68.6968 86.2659 65.5911 87.043 62.2994C87.82 59.0078 87.9389 55.595 87.3928 52.2573C86.8467 48.9195 85.6464 45.7226 83.8608 42.8502C82.0753 39.9778 79.7397 37.4866 76.9884 35.5197C74.237 33.5528 71.124 32.149 67.8284 31.389C64.5408 30.595 61.1287 30.4585 57.7882 30.9873C54.4477 31.5162 51.2446 32.7 48.363 34.4707C45.4815 36.2414 42.9782 38.5641 40.9971 41.3052C39.0161 44.0464 37.5962 47.1521 36.8192 50.4438C36.0422 53.7354 35.9233 57.1482 36.4694 60.4859C37.0155 63.8237 38.2158 67.0206 40.0013 69.893C41.7869 72.7654 44.1224 75.2566 46.8738 77.2235C49.6252 79.1904 52.7381 80.5942 56.0338 81.3542Z" fill="#FFF7E9"/>
<path d="M62.4994 58.8212C62.4452 59.0344 62.3214 59.2234 62.1478 59.3584C61.9742 59.4933 61.7605 59.5666 61.5405 59.5666C61.3206 59.5666 61.1069 59.4933 60.9333 59.3584C60.7596 59.2234 60.6359 59.0344 60.5817 58.8212C56.704 43.5585 56.8721 44.2506 56.8568 44.0931C56.8024 43.445 56.8831 42.7927 57.0938 42.1774C57.3045 41.5622 57.6406 40.9973 58.0809 40.5186C58.5211 40.0399 59.0559 39.6578 59.6514 39.3964C60.2469 39.135 60.8902 39 61.5405 39C62.1909 39 62.8342 39.135 63.4297 39.3964C64.0252 39.6578 64.56 40.0399 65.0002 40.5186C65.4404 40.9973 65.7765 41.5622 65.9872 42.1774C66.1979 42.7927 66.2787 43.445 66.2243 44.0931C66.209 44.2459 66.3724 43.5538 62.4994 58.8212Z" fill="#F25A51" stroke="#171717" stroke-width="1.27262" stroke-linecap="round" stroke-linejoin="round"/>
<path d="M66.2456 67.881C66.2456 68.8106 65.97 69.7193 65.4535 70.4923C64.937 71.2652 64.203 71.8677 63.3441 72.2234C62.4853 72.5792 61.5402 72.6722 60.6285 72.4909C59.7167 72.3095 58.8792 71.8619 58.2219 71.2045C57.5645 70.5472 57.1169 69.7097 56.9355 68.798C56.7542 67.8862 56.8473 66.9412 57.203 66.0823C57.5587 65.2235 58.1612 64.4894 58.9341 63.9729C59.7071 63.4564 60.6158 63.1808 61.5454 63.1808C62.792 63.1808 63.9875 63.676 64.869 64.5574C65.7504 65.4389 66.2456 66.6344 66.2456 67.881Z" fill="#F25A51" stroke="#171717" stroke-width="1.27262" stroke-linecap="round" stroke-linejoin="round"/>
<path d="M56.0338 81.3542C59.3214 82.1482 62.7335 82.2847 66.074 81.7558C69.4145 81.227 72.6176 80.0432 75.4991 78.2725C78.3807 76.5018 80.884 74.1791 82.865 71.4379C84.8461 68.6968 86.2659 65.5911 87.043 62.2994C87.82 59.0078 87.9389 55.595 87.3928 52.2573C86.8467 48.9195 85.6464 45.7226 83.8608 42.8502C82.0753 39.9778 79.7397 37.4866 76.9884 35.5197C74.237 33.5528 71.124 32.149 67.8284 31.389C64.5408 30.595 61.1287 30.4585 57.7882 30.9873C54.4477 31.5162 51.2446 32.7 48.363 34.4707C45.4815 36.2414 42.9782 38.5641 40.9971 41.3052C39.0161 44.0464 37.5962 47.1521 36.8192 50.4438C36.0422 53.7354 35.9233 57.1482 36.4694 60.4859C37.0155 63.8237 38.2158 67.0206 40.0013 69.893C41.7869 72.7654 44.1224 75.2566 46.8738 77.2235C49.6252 79.1904 52.7381 80.5942 56.0338 81.3542Z" stroke="#171717" stroke-width="1.5" stroke-linecap="round" stroke-linejoin="round"/>
<path d="M29.2603 56.3716C29.2603 65.0364 32.7023 73.3463 38.8293 79.4733C44.9563 85.6002 53.2662 89.0423 61.931 89.0423C70.5958 89.0423 78.9058 85.6002 85.0327 79.4733C91.1597 73.3463 94.6018 65.0364 94.6018 56.3716C94.6018 47.7067 91.1597 39.3968 85.0327 33.2699C78.9058 27.1429 70.5958 23.7008 61.931 23.7008C53.2662 23.7008 44.9563 27.1429 38.8293 33.2699C32.7023 39.3968 29.2603 47.7067 29.2603 56.3716Z" stroke="#171717" stroke-width="1.5" stroke-linecap="round" stroke-linejoin="round"/>
</svg>
