<svg width="25" height="25" viewBox="0 0 25 25" fill="none" xmlns="http://www.w3.org/2000/svg">
<g id="Tabler Icon" clip-path="url(#clip0_9_713)">
<path id="Vector" d="M3.5 12.1438C3.5 12.9394 3.81607 13.7025 4.37868 14.2651C4.94129 14.8277 5.70435 15.1438 6.5 15.1438C7.29565 15.1438 8.05871 14.8277 8.62132 14.2651C9.18393 13.7025 9.5 12.9394 9.5 12.1438C9.5 11.3481 9.18393 10.5851 8.62132 10.0225C8.05871 9.45987 7.29565 9.1438 6.5 9.1438C5.70435 9.1438 4.94129 9.45987 4.37868 10.0225C3.81607 10.5851 3.5 11.3481 3.5 12.1438Z" stroke="white" stroke-width="1.5" stroke-linecap="round" stroke-linejoin="round"/>
<path id="Vector_2" d="M15.5 6.1438C15.5 6.93945 15.8161 7.70251 16.3787 8.26512C16.9413 8.82773 17.7044 9.1438 18.5 9.1438C19.2956 9.1438 20.0587 8.82773 20.6213 8.26512C21.1839 7.70251 21.5 6.93945 21.5 6.1438C21.5 5.34815 21.1839 4.58509 20.6213 4.02248C20.0587 3.45987 19.2956 3.1438 18.5 3.1438C17.7044 3.1438 16.9413 3.45987 16.3787 4.02248C15.8161 4.58509 15.5 5.34815 15.5 6.1438Z" stroke="white" stroke-width="1.5" stroke-linecap="round" stroke-linejoin="round"/>
<path id="Vector_3" d="M15.5 18.1438C15.5 18.9394 15.8161 19.7025 16.3787 20.2651C16.9413 20.8277 17.7044 21.1438 18.5 21.1438C19.2956 21.1438 20.0587 20.8277 20.6213 20.2651C21.1839 19.7025 21.5 18.9394 21.5 18.1438C21.5 17.3481 21.1839 16.5851 20.6213 16.0225C20.0587 15.4599 19.2956 15.1438 18.5 15.1438C17.7044 15.1438 16.9413 15.4599 16.3787 16.0225C15.8161 16.5851 15.5 17.3481 15.5 18.1438Z" stroke="white" stroke-width="1.5" stroke-linecap="round" stroke-linejoin="round"/>
<path id="Vector_4" d="M9.20001 10.8438L15.8 7.44385" stroke="white" stroke-width="1.5" stroke-linecap="round" stroke-linejoin="round"/>
<path id="Vector_5" d="M9.20001 13.4438L15.8 16.8438" stroke="white" stroke-width="1.5" stroke-linecap="round" stroke-linejoin="round"/>
</g>
<defs>
<clipPath id="clip0_9_713">
<rect width="24" height="24" fill="white" transform="translate(0.5 0.143799)"/>
</clipPath>
</defs>
</svg>
