<svg width="122" height="123" viewBox="0 0 122 123" fill="none" xmlns="http://www.w3.org/2000/svg">
<g id="Stamp">
<path id="Vector" d="M25.8253 33.8502C26.4971 33.0263 27.1369 32.1736 27.8459 31.3823C30.8284 28.0576 34.2848 25.2993 38.1104 23.0209C42.4893 20.4131 47.202 18.6365 52.2159 17.6844C57.7457 16.6343 63.2851 16.6371 68.8258 17.6849C73.6276 18.5931 78.1605 20.2604 82.4285 22.6575C82.7165 22.8193 83.0829 22.9084 83.0683 23.3939C83.0627 23.5925 83.2789 23.7996 83.4173 24.045C83.6173 23.8811 83.7826 23.7458 84.0054 23.563C85.097 24.3081 86.1987 25.0587 87.3596 25.8513C86.8535 26.215 86.4409 26.5445 85.9922 26.8114C85.8763 26.8808 85.6151 26.807 85.4731 26.7158C84.0582 25.8051 82.6941 24.806 81.2355 23.976C79.9847 23.2644 78.6437 22.7036 77.3166 22.1377C71.049 19.4636 64.5146 18.3569 57.7337 18.7929C52.4086 19.1362 47.3346 20.4562 42.5079 22.7265C39.8585 23.9726 37.4034 25.5249 35.0272 27.229C33.4474 28.3618 32.0314 29.6739 30.6772 31.0426C29.3211 32.4139 28.0287 33.867 26.8621 35.4028C25.6869 36.951 24.6445 38.611 23.6442 40.2824C22.2995 42.5323 21.2968 44.9494 20.4301 47.4267C19.8543 49.0722 19.4176 50.7541 19.0803 52.4593C18.9673 53.0332 18.7827 53.392 18.1709 53.4313C18.0747 53.4372 17.9812 53.4906 17.8619 53.5308C17.8236 54.0497 18.2587 54.2941 18.4738 54.6536C18.5349 54.7562 18.618 54.8809 18.6055 54.9859C18.4992 55.9491 18.3736 56.9097 18.2477 57.9261C17.7708 57.8281 17.5737 58.1693 17.5785 58.5296C17.5803 58.7001 17.9318 58.8682 18.1974 59.1004C18.0674 61.9135 18.1429 64.8594 18.6661 67.7714C19 69.6284 19.4663 71.4635 19.8854 73.3046C19.9541 73.6051 19.8486 73.8098 19.7608 74.0864C19.5663 74.7024 18.9926 74.7863 18.6096 75.2814C18.3553 74.4296 18.1063 73.6624 17.898 72.8837C16.3248 66.9935 15.9555 61.0338 16.7996 55.0055C17.4077 50.6589 18.6371 46.4997 20.465 42.5206C20.5623 42.308 20.678 42.0896 20.8362 41.9216C21.1471 41.5921 21.5682 41.3323 21.3371 40.7632C21.315 40.7097 21.3969 40.6104 21.4361 40.5355C22.6423 38.2499 24.0336 36.0841 25.6092 34.0371C25.6703 33.9578 25.7544 33.8948 25.8272 33.8248C25.8312 33.8724 25.8299 33.9214 25.8407 33.9679C25.8758 34.1271 25.9148 34.2848 25.9522 34.4436C26.0989 34.3875 26.3035 34.3718 26.3792 34.2656C26.4883 34.1114 26.5027 33.89 26.558 33.6975C26.4182 33.6653 26.2698 33.5914 26.1408 33.6146C26.0237 33.6368 25.928 33.7676 25.8218 33.8489L25.8253 33.8502ZM23.3968 39.8918C23.5244 39.3907 23.6592 38.8909 23.7592 38.3845C23.7655 38.3547 23.4645 38.187 23.3476 38.2218C23.0185 38.3194 22.5634 39.225 22.6204 39.5757C22.6871 39.9837 22.9326 40.0915 23.3968 39.8918ZM28.4727 31.9537C29.1278 31.9553 29.5891 31.6693 29.6726 31.1469C29.7033 30.9569 29.601 30.6691 29.4577 30.5497C29.3607 30.4704 29.0463 30.5536 28.8967 30.6599C28.4706 30.9636 28.3881 31.4209 28.4727 31.9537ZM18.3059 72.1345C18.8567 72.0014 19.1153 71.6829 18.9304 71.3042C18.8573 71.1533 18.5613 71.0048 18.3919 71.0293C18.1145 71.0695 18.0774 71.6444 18.3059 72.1345ZM36.8486 25.383C36.8672 25.1271 36.916 24.9518 36.8719 24.8029C36.8557 24.7488 36.5485 24.6967 36.4952 24.7553C36.3895 24.8705 36.3686 25.0636 36.3127 25.2237C36.458 25.2671 36.6033 25.3104 36.8486 25.383Z" fill="#06C270"/>
<path id="Vector_2" d="M74.2662 103.909C74.3575 103.611 74.4448 103.406 74.4782 103.19C74.502 103.038 74.4514 102.874 74.4345 102.716C74.2426 102.739 73.9844 102.692 73.8727 102.799C73.662 103.002 73.4774 103.275 73.3857 103.553C73.1969 104.125 72.8398 104.378 72.2553 104.529C66.6181 105.986 60.9114 106.339 55.134 105.574C51.7503 105.126 48.4549 104.302 45.2596 103.081C45.1975 103.057 45.1385 103.024 45.1119 103.011C45.3497 102.476 45.5835 101.954 45.8011 101.462C47.4555 101.946 49.1817 102.524 50.9435 102.951C58.8552 104.865 66.6769 104.536 74.393 102.002C74.8917 101.838 75.3785 101.635 75.8785 101.476C76.178 101.381 76.4502 101.109 76.8096 101.514C76.9947 101.724 77.273 101.446 77.4016 101.162C77.4781 100.992 77.6139 100.795 77.7739 100.724C80.8154 99.3856 83.6714 97.7345 86.344 95.7594C86.5046 95.6402 86.7564 95.6221 86.9699 95.6013C87.3322 95.5658 87.5851 95.4598 87.5505 95.0248C87.5434 94.9327 87.5971 94.8045 87.6665 94.7419C88.3991 94.0852 89.1406 93.4373 89.8825 92.7917C89.9558 92.7277 90.0567 92.6514 90.1427 92.654C90.4943 92.6665 90.557 92.4686 90.6597 92.1725C90.7578 91.8911 91.0373 91.6649 91.2599 91.4379C94.8446 87.7979 97.6618 83.632 99.7257 78.9527C102.6 72.4354 103.759 65.6071 103.274 58.4879C103.217 57.656 103.116 56.8277 103.031 55.9552C103.452 55.9095 103.67 55.6335 103.534 55.2388C103.474 55.0659 103.168 54.9779 102.952 54.8385C102.476 52.9401 101.97 50.9451 101.484 48.9461C101.455 48.8253 101.543 48.6184 101.644 48.5355C102.025 48.2265 102.434 47.9537 102.925 47.6008C103.203 48.5291 103.462 49.394 103.731 50.2922C103.457 50.3843 103.224 50.4629 102.946 50.5557C103.105 51.0805 103.34 51.4823 103.839 51.7161C103.972 51.7786 104.107 51.9545 104.14 52.1016C105.062 56.2726 105.364 60.4895 105.065 64.7432C104.669 70.3594 103.27 75.7109 100.859 80.787C98.8692 84.9761 96.33 88.7982 93.0794 92.1008C91.4524 93.754 89.6594 95.2423 87.9384 96.8013C87.8013 96.9251 87.6387 97.0205 87.4921 97.1258C86.8774 96.6519 86.7841 96.7038 86.4967 97.4371C86.3758 97.7463 86.1704 98.0847 85.9049 98.2641C82.3775 100.659 78.5979 102.552 74.5287 103.848C74.4693 103.867 74.407 103.876 74.2634 103.909L74.2662 103.909ZM103.448 69.1451C104.031 68.9805 104.261 68.6896 104.063 68.2963C103.987 68.1441 103.688 68.0002 103.514 68.024C103.25 68.0613 103.219 68.682 103.448 69.1451ZM103.662 62.7413C103.677 63.1584 103.657 63.4141 103.714 63.6525C103.73 63.719 104.089 63.7774 104.094 63.7644C104.195 63.4965 104.278 63.2192 104.324 62.9378C104.327 62.9163 104.011 62.8438 103.662 62.7422L103.662 62.7413ZM71.0163 103.462C70.6913 103.693 70.4305 103.93 70.6 104.341C70.6146 104.378 70.9774 104.348 71.0965 104.25C71.3841 104.01 71.4656 103.723 71.0163 103.462ZM95.1532 87.782L95.3378 87.9676C95.5474 87.8486 95.7578 87.729 95.9674 87.6099L95.5865 86.9615C95.5275 86.9685 95.4683 86.977 95.4093 86.984C95.324 87.25 95.238 87.5152 95.1526 87.7812L95.1532 87.782Z" fill="#06C270"/>
<path id="Vector_3" d="M47.3077 89.799L46.2717 88.3544C46.4245 88.2332 46.5601 88.1143 46.7059 88.0095C61.2742 77.5376 75.8452 67.0676 90.4064 56.5857C90.8229 56.2863 91.0047 56.3578 91.2699 56.7521C91.9236 57.7248 91.9445 57.7173 90.9963 58.3989C78.8564 67.1241 66.7163 75.847 54.5758 84.5714C52.3298 86.1857 50.0849 87.8017 47.8394 89.4169C47.6771 89.5335 47.5147 89.6502 47.3077 89.799ZM62.5992 78.729C62.8461 77.8656 62.7555 77.6377 62.0779 77.3579C61.6612 78.03 61.8464 78.5437 62.5992 78.729ZM54.3015 84.2746C54.4746 83.9279 54.8333 83.6423 54.4716 83.2745C54.4062 83.2078 53.9913 83.3292 53.9152 83.4647C53.7273 83.7994 53.8462 84.1017 54.3015 84.2746ZM57.9499 81.0436C58.0048 81.0257 58.059 81.0068 58.1139 80.9889C58.0841 80.8335 58.1008 80.589 58.013 80.5435C57.8806 80.4745 57.677 80.5424 57.504 80.5531C57.4965 80.604 57.4891 80.6548 57.483 80.7059C57.6391 80.8185 57.7938 80.931 57.9499 81.0436Z" fill="#06C270"/>
<path id="Vector_4" d="M75.2975 34.4955L30.6796 66.5635L29.673 65.1598C29.814 65.0483 29.962 64.9205 30.1202 64.8068C40.7207 57.1904 51.3233 49.5751 61.9233 41.9579C65.8788 39.115 69.8363 36.2732 73.7792 33.4127C74.1839 33.1194 74.403 33.1501 74.6445 33.5728C74.8197 33.8801 75.053 34.1546 75.2975 34.4955ZM62.331 42.7715C62.3906 42.4608 62.4286 42.2566 62.4681 42.0527C62.3163 42.0405 62.0867 41.9618 62.0272 42.0311C61.8921 42.1875 61.8397 42.4172 61.7541 42.6164C61.9084 42.6583 62.0628 42.7002 62.3307 42.7729L62.331 42.7715Z" fill="#06C270"/>
<path id="Vector_5" d="M98.9651 62.4104L99.4039 63.0223C99.5227 62.971 99.6407 62.9203 99.7822 62.8603C99.7957 62.9264 99.8213 62.9901 99.8187 63.0513C99.7263 65.7489 99.3499 68.4057 98.704 71.0212C98.0485 73.6739 97.1422 76.2377 95.9451 78.6935C95.7515 79.0904 95.5559 79.4861 95.3414 79.8714C95.1644 80.1881 95.0889 80.5746 94.5718 80.6166C94.3893 80.6316 94.1346 81.0255 94.0918 81.2774C93.758 83.2883 92.3261 84.6345 91.2012 86.1618C90.8871 86.5884 90.442 86.9146 90.0875 87.3146C89.5772 87.8911 89.1309 88.5289 88.5935 89.0781C86.5567 91.161 84.3125 92.995 81.8365 94.532C80.8228 95.1608 79.7949 95.7733 78.7338 96.3186C77.6338 96.8831 76.5048 97.4002 75.3569 97.8577C74.2252 98.3098 73.065 98.7028 71.8953 99.0458C70.7261 99.3897 69.5393 99.6931 68.3413 99.9214C63.3855 100.867 58.4223 100.864 53.4573 99.8879C50.4574 99.2978 47.5582 98.3877 44.7791 97.1008C44.5216 96.9815 44.2762 96.76 44.1164 96.5249C43.9347 96.2576 43.7481 96.1846 43.4413 96.1979C43.1736 96.2096 42.8618 96.1861 42.6363 96.0589C41.3519 95.3336 40.0871 94.5727 38.8032 93.8167C39.3672 93.1296 39.4555 93.1179 40.0782 93.5155C47.8498 98.4776 56.3061 100.479 65.4333 99.4471C72.3223 98.6682 78.5316 96.1242 84.0184 91.9128C90.3626 87.0436 94.7484 80.7562 97.1879 73.1075C97.3189 72.695 97.557 72.3129 97.6537 71.8948C97.8768 70.9247 98.092 69.949 98.221 68.9632C98.4872 66.9402 98.6953 64.9097 98.9256 62.8822C98.9384 62.7669 98.944 62.6505 98.9623 62.41L98.9651 62.4104Z" fill="#06C270"/>
<path id="Vector_6" d="M81.6385 84.6662C80.5333 84.8087 79.5624 84.9582 78.5865 85.0482C78.0826 85.0946 77.763 85.265 77.5507 85.7548C77.1533 86.6708 76.6862 87.556 76.1916 88.5709C75.992 88.1737 75.8326 87.8726 75.6891 87.564C75.3578 86.8534 75.0502 86.1322 74.698 85.4328C74.6255 85.2879 74.4082 85.1548 74.2412 85.1283C73.2167 84.9703 72.1883 84.8454 71.1606 84.7074C71.0825 84.6965 71.0059 84.672 70.8367 84.632C71.647 83.8752 72.3794 83.1517 73.1575 82.4813C73.5138 82.1748 73.6034 81.878 73.5105 81.423C73.3054 80.4247 73.1594 79.4142 72.9721 78.3059C73.7428 78.7208 74.442 79.0886 75.1324 79.4703C76.3217 80.1276 76.3168 80.126 77.4892 79.4717C78.1787 79.0873 78.8803 78.7232 79.6811 78.2929C79.4569 79.4065 79.2709 80.4055 79.0494 81.3971C78.9537 81.8272 78.975 82.1403 79.3606 82.4594C80.0013 82.9905 80.5756 83.6023 81.1753 84.183C81.307 84.3107 81.43 84.4472 81.6387 84.6647L81.6385 84.6662ZM78.3185 81.7936C78.3819 81.4866 78.4245 81.2765 78.468 81.0659C78.2973 81.0623 78.0575 80.987 77.9737 81.0713C77.8413 81.2018 77.8147 81.4395 77.7433 81.6322C77.9017 81.6763 78.0593 81.721 78.3199 81.7939L78.3185 81.7936Z" fill="#06C270"/>
<path id="Vector_7" d="M42.3229 35.6002C43.3336 36.1345 44.2746 36.619 45.203 37.1278C45.4958 37.2875 45.7215 37.3274 46.0395 37.1443C46.9747 36.6073 47.9402 36.123 49.0098 35.5564C48.8123 36.5813 48.6953 37.5067 48.4433 38.3927C48.2527 39.0615 48.3968 39.4847 48.9215 39.9224C49.6237 40.5078 50.253 41.1823 51.0034 41.9049C50.1785 42.0165 49.4656 42.1967 48.7544 42.1886C47.5899 42.1767 46.8843 42.6384 46.5203 43.7653C46.3037 44.4364 45.9035 45.0474 45.5839 45.6851C45.5775 45.6972 45.5562 45.7025 45.4814 45.7487C45.1052 44.9529 44.663 44.1856 44.3758 43.3651C44.107 42.5982 43.6662 42.2847 42.8719 42.2568C42.0943 42.2296 41.3207 42.0731 40.5459 41.9693C40.4542 41.9569 40.3658 41.9194 40.1936 41.8701C40.8855 41.2212 41.4883 40.5795 42.1705 40.0362C42.7787 39.5523 43.0104 39.0599 42.7877 38.2663C42.5508 37.4196 42.4749 36.528 42.3206 35.6006L42.3229 35.6002ZM46.4633 39.5555C46.6648 39.2869 46.8606 39.0262 46.9886 38.8546C47.2263 38.9516 47.457 39.1193 47.5406 39.0643C47.7052 38.9561 47.8439 38.7364 47.8904 38.5387C47.9281 38.3778 47.842 38.1668 47.7581 38.006C47.6922 37.8791 47.5233 37.696 47.4383 37.7141C47.3093 37.7424 47.1205 37.9236 47.1218 38.0376C47.1274 38.3936 46.9133 38.4679 46.6511 38.5818C46.1727 38.788 46.1243 39.0792 46.4625 39.5561L46.4633 39.5555Z" fill="#06C270"/>
<path id="Vector_8" d="M82.7075 29.1492C82.045 29.734 82.0479 29.7293 81.3752 29.297C80.9606 29.0304 80.5407 28.7687 80.1141 28.5221C79.7144 28.2902 79.2578 28.1156 79.4381 27.3379C78.7155 27.9369 78.2643 27.4565 77.7638 27.2276C76.6189 26.7039 75.4716 26.1857 74.4108 25.7039C74.3071 25.4386 74.2216 25.2196 74.1355 24.9998C73.9227 25.0934 73.7106 25.1877 73.4166 25.3169C72.1705 24.967 70.8067 24.5425 69.4232 24.2042C65.068 23.138 60.6553 22.8547 56.2184 23.4162C54.3063 23.6586 52.4238 24.1261 50.5301 24.5043C50.2055 24.5697 49.9011 24.7 49.7674 24.2301C49.7479 24.1608 49.5849 24.1314 49.4879 24.0837C49.4497 24.1844 49.3823 24.2846 49.3821 24.3858C49.3806 24.4993 49.4398 24.6134 49.4929 24.7976C48.8791 24.885 48.3699 25.4089 47.8036 25.1389C47.4753 25.3445 47.2281 25.5423 46.9488 25.6673C45.532 26.3029 44.1071 26.9202 42.6906 27.5404C42.6253 27.3006 42.553 27.0317 42.4781 26.7558C54.7414 19.9845 71.0346 20.8961 82.7075 29.1492Z" fill="#06C270"/>
<path id="Vector_9" d="M53.7917 28.9742C54.7239 29.4777 55.5347 29.8979 56.3262 30.3522C56.6117 30.5159 56.8356 30.5217 57.1196 30.3631C57.9404 29.9045 58.7767 29.4727 59.6978 28.9825C59.5453 29.778 59.4588 30.5185 59.2517 31.2219C59.0368 31.9549 59.1197 32.4853 59.7761 32.9735C60.3561 33.4043 60.8321 33.9754 61.4423 34.569C60.5848 34.6876 59.826 34.8476 59.0612 34.8819C58.3501 34.9142 57.9365 35.1863 57.679 35.8615C57.4094 36.5706 57.0205 37.2342 56.6306 38.0259C56.3799 37.5101 56.0975 37.1004 55.9764 36.6481C55.624 35.3324 54.8382 34.7073 53.4602 34.7844C52.9822 34.8109 52.4931 34.6609 51.8898 34.5741C52.6161 33.898 53.2557 33.2829 53.9192 32.6961C54.237 32.4146 54.3821 32.1462 54.2756 31.6896C54.0785 30.846 53.9672 29.9837 53.7925 28.9736L53.7917 28.9742ZM57.437 34.1065C57.1373 34.5076 57.0999 35.0119 57.3774 35.1119C57.5012 35.1568 57.7867 35.0614 57.8322 34.9568C58.0056 34.558 57.771 34.3009 57.437 34.1065Z" fill="#06C270"/>
<path id="Vector_10" d="M68.8863 87.1769C68.6898 88.1998 68.5437 89.1057 68.3301 89.9944C68.2379 90.3752 68.3561 90.5959 68.6115 90.833C69.2688 91.4469 69.9128 92.0755 70.6414 92.7746C69.8382 92.8832 69.1298 93.0488 68.419 93.0569C67.56 93.0667 67.0752 93.4126 66.7878 94.223C66.5473 94.9011 66.1587 95.5265 65.8021 96.2439C65.3997 95.3747 65.0185 94.5788 64.6671 93.7703C64.6101 93.6382 64.7212 93.4396 64.6822 93.2908C64.6212 93.0605 64.4976 92.8461 64.4007 92.6253C64.2385 92.7229 64.0791 92.8261 63.913 92.9164C63.7838 92.9866 63.639 93.1032 63.5122 93.0908C62.7384 93.0129 61.9676 92.9024 61.0751 92.7884C61.6419 92.2522 62.0955 91.7279 62.6422 91.3299C63.3921 90.7846 63.6288 90.161 63.3519 89.2585C63.1643 88.6468 63.1237 87.99 63.0177 87.3538C63.0149 87.3394 63.0264 87.3222 63.0597 87.2112C63.7682 87.7213 64.6584 87.8496 65.22 88.6169C65.3334 88.7716 65.912 88.7209 66.1959 88.59C67.0845 88.1788 67.9352 87.6848 68.8871 87.1763L68.8863 87.1769Z" fill="#06C270"/>
<path id="Vector_11" d="M82.5448 77.3338C83.3367 76.5916 84.0399 75.9586 84.7066 75.2887C84.855 75.1403 84.9495 74.859 84.937 74.6456C84.9119 74.2064 84.7576 73.7741 84.7317 73.3354C84.7061 72.899 84.7737 72.4577 84.8063 71.9239C85.6206 72.3593 86.3259 72.7618 87.0568 73.1107C87.2444 73.2007 87.5494 73.2026 87.7354 73.1118C88.5852 72.6956 89.4127 72.2322 90.3614 71.7246C90.1493 72.8132 89.9623 73.7863 89.7625 74.7573C89.7486 74.8254 89.6435 74.8959 89.5658 74.924C88.9799 75.1379 88.9176 75.4745 89.4059 75.9332C89.5802 75.7107 89.7522 75.4885 89.9478 75.238C90.6645 75.9293 91.349 76.5881 92.11 77.322C91.3224 77.4296 90.615 77.5982 89.9058 77.6051C89.0448 77.6139 88.5563 77.9687 88.2624 78.7699C88.0191 79.4336 87.6474 80.0494 87.3338 80.6866C87.2797 80.6952 87.2248 80.7044 87.1707 80.7129C86.984 80.1359 86.8019 79.5581 86.6068 78.9833C86.569 78.8728 86.4922 78.7727 86.4187 78.679C86.3398 78.5778 86.1951 78.5037 86.1644 78.3944C86.0179 77.868 85.6737 77.7049 85.1519 77.6668C84.3261 77.6073 83.5063 77.46 82.545 77.3324L82.5448 77.3338Z" fill="#06C270"/>
<path id="Vector_12" d="M22.548 60.8092C22.3613 60.6276 22.1975 60.4674 22.0322 60.307C22.0196 60.5309 22.0248 60.757 21.9879 60.9768C21.9582 61.1523 21.8765 61.3184 21.6957 61.4723C21.7006 60.9787 21.6967 60.485 21.7125 59.9924C21.8386 56.1184 22.5222 52.3479 23.7516 48.6789C23.848 48.3898 23.9598 48.1869 24.2882 48.0987C24.6755 47.9947 25.0111 47.7838 24.9994 47.2301C24.8061 47.2073 24.6006 47.1832 24.3031 47.1482C27.765 38.363 33.6243 31.7238 41.8238 27.114C41.6911 27.6781 41.6551 28.2282 41.03 28.5991C35.8898 31.6417 31.7403 35.7244 28.5299 40.7615C26.1911 44.4307 24.5491 48.4013 23.563 52.6495C23.5076 52.889 23.3324 53.1033 23.1959 53.3189C23.0191 53.5975 22.832 53.8546 23.1474 54.1736C23.2148 54.2413 23.2024 54.4132 23.1884 54.5319C23.0193 56.0025 22.9205 57.4871 22.6344 58.9345C22.5071 59.5779 22.777 60.1975 22.5508 60.8097L22.548 60.8092Z" fill="#06C270"/>
<path id="Vector_13" d="M32.3297 44.4259C33.2408 44.9193 34.0345 45.3139 34.7891 45.7746C35.1571 45.9989 35.4285 45.9416 35.7638 45.7511C36.5405 45.3116 37.3331 44.9011 38.2293 44.42C38.0214 45.4865 37.8341 46.4434 37.6479 47.3983C36.7808 47.304 36.5773 47.4351 36.3407 48.2987C36.2203 48.7364 36.1532 49.1889 36.0609 49.643C37.0278 49.5771 37.5184 49.1272 37.8348 47.9828C38.136 48.2627 38.4098 48.5169 38.6417 48.7317C38.6212 48.9586 38.6059 49.1263 38.5906 49.2939C38.7273 49.2816 38.8636 49.2581 39 49.2611C39.0883 49.2634 39.1979 49.2781 39.2589 49.3315C39.4742 49.5216 39.6727 49.7301 39.9698 50.0219C39.152 50.1347 38.43 50.3075 37.7068 50.3157C36.8735 50.3246 36.4303 50.6937 36.1432 51.4432C35.8841 52.1196 35.5139 52.7533 35.1504 53.4908C34.704 52.5446 34.3079 51.6684 33.8709 50.814C33.7829 50.6423 33.5509 50.4693 33.3621 50.437C32.5249 50.2934 31.6792 50.2027 30.8363 50.0897C30.7267 50.075 30.6187 50.0452 30.4382 50.007C31.1458 49.3468 31.7841 48.7213 32.457 48.1353C32.7739 47.8596 32.8854 47.595 32.7955 47.167C32.6105 46.2894 32.4913 45.3986 32.33 44.4282L32.3297 44.4259Z" fill="#06C270"/>
<path id="Vector_14" d="M44.6432 100.931C44.4338 101.49 44.2336 102.023 44.0187 102.593C40.5661 101.169 37.3094 99.3294 34.2055 96.9963C34.6983 96.6421 35.1358 96.3124 35.5927 96.0131C35.6704 95.9623 35.8614 95.9994 35.9506 96.0642C38.6564 98.0417 41.5842 99.6183 44.6516 100.943C44.666 100.949 44.6757 100.966 44.641 100.932L44.6432 100.931Z" fill="#06C270"/>
<path id="Vector_15" d="M98.4298 50.8495C98.7609 52.4874 99.0786 53.9998 99.367 55.5168C99.4872 56.1517 99.5612 56.7957 99.6191 57.44C99.6407 57.6784 99.5484 57.9242 99.5223 58.1678C99.5063 58.3119 99.4621 58.4952 99.5275 58.5986C99.908 59.1992 99.8765 59.7574 99.565 60.3906C99.3067 60.916 99.1983 61.5157 98.9805 62.2217C98.9427 61.1802 98.9214 60.2772 98.8758 59.3752C98.7482 56.8521 98.3676 54.363 97.692 51.928C97.513 51.281 97.9646 51.2003 98.4306 50.8489L98.4298 50.8495Z" fill="#06C270"/>
<path id="Vector_16" d="M21.7009 62.176C22.3476 62.6612 22.2887 62.005 22.5768 61.712C22.5937 62.1836 22.6075 62.5843 22.6213 62.9799C22.4487 63.0647 22.2903 63.1432 22.0033 63.2838C22.8251 63.5913 22.6866 64.2365 22.7524 64.8044C22.8267 65.447 23.0122 66.0994 22.9539 66.7287C22.8892 67.4296 23.2193 68.0071 23.314 68.6502C23.4137 69.3213 23.5963 69.9821 23.7592 70.6432C23.9629 71.4681 23.9707 71.465 23.1711 71.9374C22.2626 68.754 21.7877 65.5331 21.6995 62.1758L21.7009 62.176Z" fill="#06C270"/>
<g id="Text here">
<path d="M26.0526 91.4265L20.1655 83.2172L23.5541 80.7818C24.1683 80.3403 24.7846 80.0796 25.403 79.9996C26.0221 79.915 26.6065 79.9992 27.1561 80.2521C27.7038 80.5024 28.1798 80.9094 28.5842 81.4733C28.9905 82.0398 29.2218 82.6248 29.2781 83.2282C29.3353 83.827 29.2189 84.4067 28.929 84.9674C28.6391 85.528 28.1804 86.0339 27.5529 86.4849L25.462 87.9876L24.341 86.4243L26.0633 85.1864C26.3624 84.9715 26.5747 84.7399 26.7002 84.4918C26.8284 84.2417 26.8775 83.9857 26.8475 83.7238C26.8156 83.4592 26.7095 83.2013 26.5294 82.9501C26.3474 82.6962 26.1381 82.5145 25.9018 82.405C25.6635 82.2928 25.4065 82.2588 25.1307 82.3032C24.8549 82.3475 24.5689 82.4761 24.2725 82.6892L23.2951 83.3916L28.0352 90.0015L26.0526 91.4265Z" fill="#06C270"/>
<path d="M34.1936 85.5754L32.0627 87.1069L28.9434 76.9083L31.5829 75.0112L40.2377 81.2313L38.1068 82.7628L31.7765 78.0066L31.7124 78.0526L34.1936 85.5754ZM31.5923 82.549L36.0463 79.3478L37.1271 80.8549L32.6731 84.0562L31.5923 82.549Z" fill="#06C270"/>
<path d="M37.2165 70.9622L43.1036 79.1715L41.1209 80.5965L35.2339 72.3872L37.2165 70.9622Z" fill="#06C270"/>
<path d="M47.3804 76.0977L44.3483 78.277L38.4612 70.0676L41.4893 67.8913C42.3251 67.2906 43.1626 66.9377 44.0018 66.8326C44.8417 66.723 45.6463 66.8575 46.4155 67.236C47.1828 67.6119 47.8721 68.2261 48.4834 69.0786C49.0967 69.9337 49.4594 70.7866 49.5718 71.6373C49.6867 72.4861 49.559 73.2927 49.1886 74.057C48.8162 74.8187 48.2135 75.4989 47.3804 76.0977ZM45.1179 75.1604L46.0912 74.4608C46.5505 74.1307 46.8834 73.774 47.09 73.3906C47.2974 73.0027 47.3561 72.5738 47.266 72.1039C47.1767 71.6295 46.9203 71.097 46.4967 70.5065C46.0732 69.9159 45.6532 69.505 45.2366 69.274C44.8181 69.0402 44.3917 68.962 43.9574 69.0392C43.5239 69.1118 43.0722 69.317 42.6022 69.6548L41.657 70.3342L45.1179 75.1604Z" fill="#06C270"/>
<path d="M55.0107 70.6136L49.1236 62.4043L52.5442 59.9458C53.1584 59.5044 53.7347 59.2218 54.2732 59.098C54.8143 58.9723 55.3011 58.991 55.7336 59.1539C56.1687 59.315 56.5339 59.6013 56.829 60.0128C57.0532 60.3255 57.1881 60.6517 57.2335 60.9916C57.2771 61.3288 57.2415 61.6601 57.1268 61.9855C57.0122 62.3109 56.827 62.6141 56.5712 62.8951L56.6287 62.9753C56.9713 62.7534 57.3413 62.6231 57.7386 62.5846C58.1385 62.5442 58.5284 62.6082 58.9081 62.7767C59.286 62.9424 59.6167 63.2231 59.9004 63.6186C60.2166 64.0595 60.3871 64.5343 60.4119 65.0429C60.4348 65.5488 60.3058 66.0546 60.025 66.5602C59.7422 67.0631 59.2978 67.5324 58.6916 67.968L55.0107 70.6136ZM55.8464 67.5892L57.072 66.7083C57.502 66.3993 57.7599 66.0904 57.846 65.7815C57.9347 65.4708 57.8746 65.1697 57.6657 64.8784C57.5143 64.6673 57.3346 64.5211 57.1266 64.4398C56.9166 64.3558 56.6912 64.3377 56.4502 64.3853C56.2073 64.4303 55.959 64.544 55.7053 64.7263L54.4436 65.6331L55.8464 67.5892ZM53.5266 64.3544L54.6241 63.5656C54.8404 63.4102 55.0068 63.2359 55.1233 63.0429C55.2398 62.8498 55.2959 62.6515 55.2916 62.4481C55.29 62.2427 55.2202 62.0438 55.0822 61.8514C54.8849 61.5761 54.6322 61.4297 54.3242 61.4122C54.0162 61.3946 53.6966 61.5048 53.3655 61.7428L52.236 62.5546L53.5266 64.3544Z" fill="#06C270"/>
<path d="M56.2052 57.3146L58.4202 55.7226L62.618 57.9114L62.6901 57.8595L61.9609 53.1778L64.1759 51.5858L65.0967 59.2096L67.0629 61.9513L65.0923 63.3677L63.1261 60.6259L56.2052 57.3146Z" fill="#06C270"/>
<path d="M75.0918 56.1808L72.9609 57.7123L69.8416 47.5138L72.4811 45.6166L81.1359 51.8367L79.005 53.3682L72.6747 48.612L72.6106 48.658L75.0918 56.1808ZM72.4905 53.1544L76.9445 49.9532L78.0253 51.4604L73.5713 54.6616L72.4905 53.1544Z" fill="#06C270"/>
<path d="M82.0191 51.202L76.1321 42.9926L78.1147 41.5676L82.8462 48.1656L86.2588 45.7128L87.4144 47.3242L82.0191 51.202Z" fill="#06C270"/>
<path d="M88.4408 46.5865L82.5537 38.3772L88.1533 34.3527L89.3089 35.9641L85.692 38.5636L86.8993 40.2472L90.1597 37.9038L91.3181 39.5192L88.0577 41.8626L90.4234 45.1615L88.4408 46.5865Z" fill="#06C270"/>
<path d="M95.7887 41.3054L93.6578 42.8369L90.5385 32.6383L93.1781 30.7412L101.833 36.9613L99.702 38.4928L93.3716 33.7366L93.3075 33.7826L95.7887 41.3054ZM93.1874 38.279L97.6414 35.0778L98.7223 36.5849L94.2683 39.7862L93.1874 38.279Z" fill="#06C270"/>
</g>
</g>
</svg>
