<svg width="24" height="24" viewBox="0 0 24 24" fill="none" xmlns="http://www.w3.org/2000/svg">
<rect x="0.5" y="0.5" width="23" height="23" rx="11.5" stroke="#C4C4C4"/>
<path d="M11.168 11.176C11.728 11.176 12.1387 11.064 12.4 10.84C12.6707 10.6067 12.806 10.3127 12.806 9.958V9.86C12.806 9.45867 12.6753 9.146 12.414 8.922C12.162 8.68867 11.812 8.572 11.364 8.572C10.9347 8.572 10.552 8.67467 10.216 8.88C9.88933 9.08533 9.60467 9.37467 9.362 9.748L8.186 8.684C8.354 8.46 8.536 8.25 8.732 8.054C8.93733 7.84867 9.17067 7.676 9.432 7.536C9.69333 7.38667 9.98733 7.27 10.314 7.186C10.6407 7.102 11.0093 7.06 11.42 7.06C11.9147 7.06 12.3627 7.12067 12.764 7.242C13.1747 7.354 13.5247 7.522 13.814 7.746C14.1127 7.97 14.3413 8.24067 14.5 8.558C14.6587 8.866 14.738 9.216 14.738 9.608C14.738 9.92533 14.6867 10.21 14.584 10.462C14.4907 10.714 14.3553 10.9333 14.178 11.12C14.01 11.3067 13.8093 11.4607 13.576 11.582C13.352 11.694 13.114 11.778 12.862 11.834V11.918C13.142 11.974 13.408 12.0627 13.66 12.184C13.912 12.3053 14.1267 12.4687 14.304 12.674C14.4907 12.87 14.6353 13.1033 14.738 13.374C14.85 13.6447 14.906 13.9527 14.906 14.298C14.906 14.7273 14.8173 15.1193 14.64 15.474C14.472 15.8287 14.2293 16.132 13.912 16.384C13.5947 16.636 13.2167 16.832 12.778 16.972C12.3393 17.1027 11.8493 17.168 11.308 17.168C10.832 17.168 10.412 17.1167 10.048 17.014C9.684 16.9207 9.362 16.79 9.082 16.622C8.81133 16.454 8.57333 16.2627 8.368 16.048C8.16267 15.824 7.98533 15.5907 7.836 15.348L9.194 14.312C9.306 14.508 9.42733 14.69 9.558 14.858C9.68867 15.0167 9.838 15.1567 10.006 15.278C10.174 15.3993 10.3653 15.4927 10.58 15.558C10.7947 15.6233 11.0373 15.656 11.308 15.656C11.8493 15.656 12.2647 15.5253 12.554 15.264C12.8433 15.0027 12.988 14.6433 12.988 14.186V14.088C12.988 13.64 12.8293 13.2993 12.512 13.066C12.204 12.8327 11.756 12.716 11.168 12.716H10.202V11.176H11.168Z" fill="#767676"/>
</svg>
