<svg width="24" height="24" viewBox="0 0 24 24" fill="none" xmlns="http://www.w3.org/2000/svg">
<rect width="24" height="24" rx="12" fill="#18B368"/>
<path d="M15.144 17H8.368V15.292L11.434 12.604C11.9567 12.1467 12.3393 11.736 12.582 11.372C12.8247 10.9987 12.946 10.5973 12.946 10.168V9.986C12.946 9.55667 12.806 9.23 12.526 9.006C12.246 8.77267 11.9053 8.656 11.504 8.656C11 8.656 10.6173 8.80067 10.356 9.09C10.0947 9.37 9.908 9.71067 9.796 10.112L8.2 9.496C8.30267 9.16933 8.44733 8.86133 8.634 8.572C8.82067 8.27333 9.054 8.012 9.334 7.788C9.62333 7.564 9.95933 7.38667 10.342 7.256C10.7247 7.12533 11.1633 7.06 11.658 7.06C12.1713 7.06 12.6287 7.13467 13.03 7.284C13.4313 7.424 13.7673 7.62467 14.038 7.886C14.318 8.14733 14.528 8.45533 14.668 8.81C14.8173 9.16467 14.892 9.552 14.892 9.972C14.892 10.3827 14.8267 10.756 14.696 11.092C14.5653 11.428 14.388 11.75 14.164 12.058C13.94 12.3567 13.6787 12.646 13.38 12.926C13.0813 13.1967 12.764 13.472 12.428 13.752L10.37 15.446H15.144V17Z" fill="white"/>
</svg>
