<svg width="140" height="140" viewBox="0 0 140 140" fill="none" xmlns="http://www.w3.org/2000/svg">
<g id="Frame">
<path id="Vector" d="M69.9997 125.401C100.596 125.401 125.4 100.596 125.4 70.0002C125.4 39.4038 100.596 14.5996 69.9997 14.5996C39.4033 14.5996 14.5991 39.4038 14.5991 70.0002C14.5991 100.596 39.4033 125.401 69.9997 125.401Z" fill="#FFF7E9"/>
<path id="Vector_2" d="M108.824 29.3914C108.975 29.4194 109.117 29.4818 109.24 29.5736C109.362 29.6654 109.462 29.7843 109.531 29.9209C109.601 30.0575 109.638 30.2083 109.639 30.3614C109.641 30.5146 109.607 30.6661 109.541 30.8041L105.539 39.0422C105.443 39.2422 105.282 39.404 105.082 39.502C104.883 39.5999 104.657 39.6283 104.439 39.5825C104.222 39.5368 104.026 39.4196 103.883 39.2496C103.74 39.0796 103.658 38.8667 103.65 38.6447L103.311 29.6116C103.305 29.4628 103.333 29.3146 103.393 29.1781C103.452 29.0415 103.541 28.92 103.654 28.8226C103.766 28.7251 103.899 28.6542 104.043 28.6151C104.187 28.5759 104.337 28.5695 104.484 28.5964L108.824 29.3914Z" fill="#F25A51" stroke="#171717" stroke-width="1.49864" stroke-linejoin="round"/>
<path id="Vector_3" d="M88.493 29.973C88.3439 30.0091 88.2052 30.0791 88.0877 30.1777C87.9702 30.2763 87.8771 30.4008 87.8156 30.5413C87.7542 30.6819 87.7261 30.8347 87.7336 30.988C87.7411 31.1412 87.7839 31.2906 87.8587 31.4245L92.3198 39.4229C92.4278 39.6166 92.5974 39.7687 92.8018 39.8549C93.0061 39.9411 93.2334 39.9566 93.4475 39.8988C93.6616 39.841 93.8503 39.7133 93.9835 39.536C94.1167 39.3587 94.1868 39.1419 94.1826 38.9202L94.0109 29.8816C94.008 29.7327 93.9718 29.5864 93.9048 29.4534C93.8378 29.3204 93.7418 29.2041 93.6239 29.1132C93.506 29.0223 93.3692 28.959 93.2235 28.928C93.0779 28.897 92.9271 28.8992 92.7824 28.9342L88.493 29.973Z" fill="#F25A51" stroke="#171717" stroke-width="1.49864" stroke-linejoin="round"/>
<path id="Vector_4" d="M52.6527 34.0978C52.534 34.0007 52.3944 33.9323 52.2449 33.8981C52.0954 33.8639 51.94 33.8647 51.7908 33.9005C51.6417 33.9363 51.5029 34.0062 51.3852 34.1045C51.2675 34.2029 51.1742 34.3272 51.1125 34.4676L47.4312 42.8538C47.3433 43.0565 47.3254 43.2827 47.3804 43.4967C47.4353 43.7107 47.56 43.9003 47.7346 44.0356C47.9093 44.1708 48.124 44.2441 48.3449 44.2438C48.5659 44.2435 48.7804 44.1696 48.9547 44.0339L56.0543 38.4384C56.1715 38.3463 56.2665 38.229 56.3322 38.0952C56.398 37.9614 56.4328 37.8145 56.4341 37.6654C56.4355 37.5164 56.4033 37.3689 56.3399 37.2339C56.2766 37.099 56.1837 36.98 56.0681 36.8858L52.6527 34.0978Z" fill="#F25A51" stroke="#171717" stroke-width="1.49864" stroke-linejoin="round"/>
<path id="Vector_5" d="M35.7112 28.1139C35.558 28.1085 35.4055 28.1387 35.2659 28.2021C35.1262 28.2654 35.0031 28.3602 34.9061 28.479C34.8091 28.5978 34.741 28.7375 34.7069 28.887C34.6729 29.0365 34.6739 29.1919 34.7099 29.341L36.8525 38.2453C36.9045 38.4608 37.027 38.6528 37.2006 38.7908C37.3742 38.9287 37.5889 39.0047 37.8107 39.0066C38.0324 39.0085 38.2484 38.9362 38.4244 38.8013C38.6003 38.6664 38.7261 38.4765 38.7818 38.2619L41.0532 29.5114C41.0914 29.367 41.0966 29.2158 41.0683 29.0692C41.04 28.9226 40.979 28.7842 40.8898 28.6644C40.8006 28.5446 40.6855 28.4465 40.5532 28.3773C40.4208 28.3081 40.2746 28.2697 40.1253 28.2649L35.7112 28.1139Z" fill="#F25A51" stroke="#171717" stroke-width="1.49864" stroke-linejoin="round"/>
<path id="Vector_6" d="M43.4079 58.3049C43.2044 53.8271 42.4038 44.2761 38.7211 44.8148C38.3718 44.8655 38.036 44.9846 37.7329 45.1653C37.4298 45.3459 37.1653 45.5846 36.9545 45.8677C36.7438 46.1507 36.591 46.4725 36.5048 46.8147C36.4186 47.1569 36.4008 47.5128 36.4524 47.8619L36.5812 48.7483C37.5313 55.244 35.7059 62.4488 30.2559 63.2452L32.2364 76.8294L32.9289 76.7283C36.3361 76.2297 38.2931 78.3571 44.3941 77.4652L54.7374 75.9555C55.349 75.847 55.8944 75.5045 56.2578 75.0007C56.6211 74.4969 56.774 73.8713 56.6839 73.2567C56.5939 72.642 56.268 72.0866 55.7753 71.7083C55.2826 71.3299 54.6619 71.1583 54.0449 71.2298L55.2263 71.0581C55.8379 70.9496 56.3833 70.6071 56.7467 70.1033C57.1101 69.5994 57.2629 68.9739 57.1729 68.3593C57.0828 67.7446 56.7569 67.1892 56.2642 66.8108C55.7715 66.4325 55.1508 66.2609 54.5338 66.3324L55.7152 66.1607C56.3268 66.0522 56.8722 65.7097 57.2356 65.2059C57.599 64.702 57.7518 64.0765 57.6618 63.4618C57.5717 62.8472 57.2458 62.2918 56.7531 61.9134C56.2604 61.5351 55.6397 61.3635 55.0227 61.435L56.2027 61.2633C56.8144 61.1548 57.3597 60.8123 57.7231 60.3085C58.0865 59.8046 58.2394 59.1791 58.1493 58.5644C58.0592 57.9498 57.7333 57.3944 57.2406 57.016C56.7479 56.6376 56.1273 56.466 55.5102 56.5376L43.4079 58.3049Z" fill="white"/>
<path id="Vector_7" d="M41.0479 58.6496L43.4107 58.3047" stroke="#171717" stroke-width="1.49864" stroke-linecap="round" stroke-linejoin="round"/>
<path id="Vector_8" d="M54.0462 71.2266L52.8647 71.3997" stroke="#171717" stroke-width="1.49864" stroke-linecap="round" stroke-linejoin="round"/>
<path id="Vector_9" d="M54.5365 66.3301L53.3564 66.5032" stroke="#171717" stroke-width="1.49864" stroke-linecap="round" stroke-linejoin="round"/>
<path id="Vector_10" d="M55.0276 61.4316L53.8462 61.6048" stroke="#171717" stroke-width="1.49864" stroke-linecap="round" stroke-linejoin="round"/>
<path id="Vector_11" d="M28.8023 78.0751C28.8337 78.2883 28.8228 78.5057 28.7702 78.7147C28.7176 78.9238 28.6243 79.1204 28.4957 79.2934C28.3671 79.4664 28.2056 79.6123 28.0206 79.7229C27.8356 79.8335 27.6306 79.9065 27.4173 79.9379L17.1073 81.7827C16.4572 78.1048 16.1328 74.3767 16.1378 70.6417C16.1378 68.1431 16.2818 65.6459 16.5657 63.1626L25.1528 61.5823C25.313 61.558 25.4764 61.5655 25.6337 61.6045C25.791 61.6436 25.939 61.7133 26.0692 61.8097C26.1995 61.9061 26.3094 62.0273 26.3927 62.1663C26.4759 62.3053 26.5309 62.4594 26.5544 62.6197L28.8023 78.0751Z" fill="#F25A51"/>
<path id="Vector_12" d="M16.563 63.1773V63.1607L25.1501 61.5804C25.3103 61.556 25.4737 61.5636 25.631 61.6026C25.7883 61.6416 25.9363 61.7113 26.0665 61.8077C26.1968 61.9041 26.3067 62.0253 26.3899 62.1643C26.4732 62.3033 26.5282 62.4574 26.5517 62.6177L28.8093 78.0759C28.8407 78.2891 28.8298 78.5065 28.7771 78.7155C28.7245 78.9246 28.6313 79.1212 28.5026 79.2942C28.374 79.4672 28.2126 79.6131 28.0276 79.7237C27.8425 79.8343 27.6375 79.9074 27.4243 79.9387L17.1142 81.7836" stroke="#171717" stroke-width="1.49864" stroke-linecap="round" stroke-linejoin="round"/>
<path id="Vector_13" d="M28.8735 78.5255L30.7863 78.2485C31.2174 78.1832 31.6051 77.9498 31.8646 77.5994C32.1241 77.2491 32.2344 76.8102 32.1713 76.3787L30.3167 63.6934C30.2517 63.2624 30.0187 62.8747 29.6685 62.6151C29.3183 62.3556 28.8796 62.2453 28.4484 62.3084L26.5356 62.5854L28.8735 78.5255Z" fill="white" stroke="#171717" stroke-width="1.49864" stroke-linecap="round" stroke-linejoin="round"/>
<path id="Vector_14" d="M43.4079 58.3049C43.2044 53.8271 42.4038 44.2761 38.7211 44.8148C38.3718 44.8655 38.036 44.9846 37.7329 45.1653C37.4298 45.3459 37.1653 45.5846 36.9545 45.8677C36.7438 46.1507 36.591 46.4725 36.5048 46.8147C36.4186 47.1569 36.4008 47.5128 36.4524 47.8619L36.5812 48.7483C37.5313 55.244 35.7059 62.4488 30.2559 63.2452L32.2364 76.8294L32.9289 76.7283C36.3361 76.2297 38.2931 78.3571 44.3941 77.4652L54.7374 75.9555C55.349 75.847 55.8944 75.5045 56.2578 75.0007C56.6211 74.4969 56.774 73.8713 56.6839 73.2567C56.5939 72.642 56.268 72.0866 55.7753 71.7083C55.2826 71.3299 54.6619 71.1583 54.0449 71.2298L55.2263 71.0581C55.8379 70.9496 56.3833 70.6071 56.7467 70.1033C57.1101 69.5994 57.2629 68.9739 57.1729 68.3593C57.0828 67.7446 56.7569 67.1892 56.2642 66.8108C55.7715 66.4325 55.1508 66.2609 54.5338 66.3324L55.7152 66.1607C56.3268 66.0522 56.8722 65.7097 57.2356 65.2059C57.599 64.702 57.7518 64.0765 57.6618 63.4618C57.5717 62.8472 57.2458 62.2918 56.7531 61.9134C56.2604 61.5351 55.6397 61.3635 55.0227 61.435L56.2027 61.2633C56.8144 61.1548 57.3597 60.8123 57.7231 60.3085C58.0865 59.8046 58.2394 59.1791 58.1493 58.5644C58.0592 57.9498 57.7333 57.3944 57.2406 57.016C56.7479 56.6376 56.1273 56.466 55.5102 56.5376L43.4079 58.3049Z" stroke="#171717" stroke-width="1.49864" stroke-linejoin="round"/>
<path id="Vector_15" d="M96.2405 58.3049C96.4441 53.8271 97.2446 44.2761 100.927 44.8148C101.277 44.8655 101.612 44.9846 101.916 45.1653C102.219 45.3459 102.483 45.5846 102.694 45.8677C102.905 46.1507 103.057 46.4725 103.144 46.8147C103.23 47.1569 103.248 47.5128 103.196 47.8619L103.067 48.7483C102.117 55.244 103.943 62.4488 109.393 63.2452L107.412 76.8294L106.719 76.7283C103.314 76.2297 101.355 78.3571 95.2543 77.4652L84.9138 75.9555C84.2872 75.8637 83.7226 75.5266 83.3445 75.0186C82.9663 74.5105 82.8054 73.8731 82.8972 73.2464C82.9891 72.6197 83.3261 72.0552 83.8341 71.677C84.3422 71.2989 84.9797 71.138 85.6063 71.2298L84.4249 71.0581C83.7983 70.9662 83.2337 70.6292 82.8556 70.1212C82.4774 69.6131 82.3165 68.9757 82.4083 68.349C82.5002 67.7223 82.8372 67.1578 83.3452 66.7796C83.8533 66.4015 84.4908 66.2406 85.1174 66.3324L83.936 66.1607C83.3093 66.0688 82.7448 65.7318 82.3666 65.2238C81.9885 64.7157 81.8276 64.0782 81.9194 63.4516C82.0113 62.8249 82.3483 62.2604 82.8563 61.8822C83.3644 61.504 84.0019 61.3432 84.6285 61.435L83.4471 61.2633C82.8204 61.1714 82.2559 60.8344 81.8777 60.3264C81.4996 59.8183 81.3387 59.1808 81.4305 58.5542C81.5224 57.9275 81.8594 57.363 82.3674 56.9848C82.8755 56.6066 83.5129 56.4458 84.1396 56.5376L96.2405 58.3049Z" fill="white"/>
<path id="Vector_16" d="M98.6035 58.6496L96.2407 58.3047" stroke="#171717" stroke-width="1.49864" stroke-linecap="round" stroke-linejoin="round"/>
<path id="Vector_17" d="M85.605 71.2266L86.7864 71.3997" stroke="#171717" stroke-width="1.49864" stroke-linecap="round" stroke-linejoin="round"/>
<path id="Vector_18" d="M85.1152 66.3301L86.2967 66.5032" stroke="#171717" stroke-width="1.49864" stroke-linecap="round" stroke-linejoin="round"/>
<path id="Vector_19" d="M84.6245 61.4316L85.8059 61.6048" stroke="#171717" stroke-width="1.49864" stroke-linecap="round" stroke-linejoin="round"/>
<path id="Vector_20" d="M123.532 70.2762C123.532 73.9936 123.214 77.7041 122.577 81.3674L112.243 79.9381C112.028 79.9092 111.821 79.838 111.634 79.7284C111.447 79.6188 111.283 79.4731 111.153 79.2998C111.022 79.1265 110.928 78.929 110.874 78.7188C110.821 78.5085 110.81 78.2898 110.841 78.0752L113.096 62.6171C113.147 62.292 113.325 62.0003 113.591 61.8057C113.856 61.6111 114.188 61.5294 114.513 61.5783L123.088 62.7487C123.386 65.2468 123.534 67.7604 123.532 70.2762Z" fill="#F25A51"/>
<path id="Vector_21" d="M122.577 81.3702L112.243 79.9381C112.028 79.9092 111.821 79.838 111.634 79.7284C111.447 79.6188 111.283 79.4731 111.153 79.2998C111.022 79.1265 110.928 78.929 110.874 78.7188C110.821 78.5085 110.81 78.2898 110.841 78.0752L113.096 62.6171C113.147 62.292 113.325 62.0003 113.591 61.8057C113.856 61.6111 114.188 61.5294 114.513 61.5783L123.088 62.7487" stroke="#171717" stroke-width="1.49864" stroke-linecap="round" stroke-linejoin="round"/>
<path id="Vector_22" d="M110.779 78.5269L108.865 78.2499C108.433 78.1862 108.043 77.9535 107.782 77.603C107.521 77.2524 107.41 76.8126 107.473 76.3801L109.335 63.6934C109.4 63.2624 109.633 62.8747 109.983 62.6151C110.333 62.3556 110.772 62.2453 111.203 62.3084L113.117 62.5854L110.779 78.5269Z" fill="white" stroke="#171717" stroke-width="1.49864" stroke-linecap="round" stroke-linejoin="round"/>
<path id="Vector_23" d="M96.2405 58.3049C96.4441 53.8271 97.2446 44.2761 100.927 44.8148C101.277 44.8655 101.612 44.9846 101.916 45.1653C102.219 45.3459 102.483 45.5846 102.694 45.8677C102.905 46.1507 103.057 46.4725 103.144 46.8147C103.23 47.1569 103.248 47.5128 103.196 47.8619L103.067 48.7483C102.117 55.244 103.943 62.4488 109.393 63.2452L107.412 76.8294L106.719 76.7283C103.314 76.2297 101.355 78.3571 95.2543 77.4652L84.9138 75.9555C84.2872 75.8637 83.7226 75.5266 83.3445 75.0186C82.9663 74.5105 82.8054 73.8731 82.8972 73.2464C82.9891 72.6197 83.3261 72.0552 83.8341 71.677C84.3422 71.2989 84.9797 71.138 85.6063 71.2298L84.4249 71.0581C83.7983 70.9662 83.2337 70.6292 82.8556 70.1212C82.4774 69.6131 82.3165 68.9757 82.4083 68.349C82.5002 67.7223 82.8372 67.1578 83.3452 66.7796C83.8533 66.4015 84.4908 66.2406 85.1174 66.3324L83.936 66.1607C83.3093 66.0688 82.7448 65.7318 82.3666 65.2238C81.9885 64.7157 81.8276 64.0782 81.9194 63.4516C82.0113 62.8249 82.3483 62.2604 82.8563 61.8822C83.3644 61.504 84.0019 61.3432 84.6285 61.435L83.4471 61.2633C82.8204 61.1714 82.2559 60.8344 81.8777 60.3264C81.4996 59.8183 81.3387 59.1808 81.4305 58.5542C81.5224 57.9275 81.8594 57.363 82.3674 56.9848C82.8755 56.6066 83.5129 56.4458 84.1396 56.5376L96.2405 58.3049Z" stroke="#171717" stroke-width="1.49864" stroke-linejoin="round"/>
<path id="Vector_24" d="M65.9404 92.3327C66.4044 86.319 67.8794 73.5034 72.817 74.3829C73.7607 74.5516 74.5988 75.0882 75.147 75.8746C75.6953 76.661 75.9088 77.6329 75.7408 78.5767L75.5289 79.7637C73.9749 88.463 76.1258 98.2315 83.4234 99.5334L80.1839 117.724L79.2504 117.558C74.6895 116.744 71.9652 119.522 63.795 118.063L49.956 115.594C49.117 115.444 48.3718 114.967 47.8844 114.268C47.397 113.569 47.2073 112.705 47.357 111.866C47.5067 111.027 47.9835 110.282 48.6826 109.795C49.3817 109.307 50.2458 109.118 51.0848 109.267L49.5031 108.99C48.6641 108.84 47.919 108.363 47.4317 107.664C46.9445 106.965 46.7549 106.101 46.9048 105.262C47.0547 104.423 47.5317 103.678 48.2309 103.19C48.9301 102.703 49.7943 102.514 50.6332 102.664L49.0516 102.387C48.2126 102.237 47.4674 101.76 46.98 101.061C46.4926 100.362 46.3029 99.4977 46.4526 98.6587C46.6023 97.8198 47.0791 97.0746 47.7782 96.5872C48.4773 96.0998 49.3414 95.9101 50.1803 96.0598L48.5987 95.7828C47.7597 95.6331 47.0145 95.1562 46.5271 94.4571C46.0397 93.758 45.85 92.894 45.9997 92.055C46.1494 91.216 46.6262 90.4709 47.3253 89.9835C48.0244 89.496 48.8885 89.3063 49.7274 89.456L65.9404 92.3327Z" fill="white"/>
<path id="Vector_25" d="M69.1043 92.8991L65.9409 92.334" stroke="#171717" stroke-width="1.49864" stroke-linecap="round" stroke-linejoin="round"/>
<path id="Vector_26" d="M51.0845 109.268L52.6662 109.549" stroke="#171717" stroke-width="1.49864" stroke-linecap="round" stroke-linejoin="round"/>
<path id="Vector_27" d="M50.6333 102.658L52.215 102.939" stroke="#171717" stroke-width="1.49864" stroke-linecap="round" stroke-linejoin="round"/>
<path id="Vector_28" d="M50.1802 96.0488L51.7619 96.3314" stroke="#171717" stroke-width="1.49864" stroke-linecap="round" stroke-linejoin="round"/>
<path id="Vector_29" d="M114.42 101.805C107.042 111.092 97.1889 118.104 85.997 122.033L85.9333 122.018C85.516 121.94 85.1464 121.701 84.9055 121.351C84.6646 121.002 84.572 120.571 84.648 120.153L88.4554 98.8007C88.4913 98.5923 88.5682 98.3931 88.6816 98.2146C88.7949 98.0361 88.9426 97.8819 89.1159 97.7608C89.2893 97.6398 89.485 97.5543 89.6916 97.5093C89.8982 97.4643 90.1117 97.4607 90.3197 97.4988L114.42 101.805Z" fill="#F25A51"/>
<path id="Vector_30" d="M86.0136 122.033H85.997L85.9333 122.018C85.516 121.94 85.1464 121.701 84.9055 121.351C84.6646 121.002 84.572 120.571 84.648 120.153L88.4554 98.8007C88.4913 98.5923 88.5682 98.3931 88.6816 98.2146C88.7949 98.0361 88.9426 97.8819 89.1159 97.7608C89.2893 97.6398 89.485 97.5543 89.6916 97.5093C89.8982 97.4643 90.1117 97.4607 90.3197 97.4988L114.419 101.805" stroke="#171717" stroke-width="1.49864" stroke-linecap="round" stroke-linejoin="round"/>
<path id="Vector_31" d="M84.6392 120.154L81.4758 119.584C81.0566 119.509 80.6843 119.271 80.4407 118.922C80.1971 118.573 80.1021 118.141 80.1767 117.722L83.4232 99.5308C83.4987 99.1116 83.7374 98.7396 84.0868 98.496C84.4363 98.2525 84.868 98.1574 85.2874 98.2317L88.4508 98.7967L84.6392 120.154Z" fill="white" stroke="#171717" stroke-width="1.49864" stroke-linecap="round" stroke-linejoin="round"/>
<path id="Vector_32" d="M65.9404 92.3327C66.4044 86.319 67.8794 73.5034 72.817 74.3829C73.7607 74.5516 74.5988 75.0882 75.147 75.8746C75.6953 76.661 75.9088 77.6329 75.7408 78.5767L75.5289 79.7637C73.9749 88.463 76.1258 98.2315 83.4234 99.5334L80.1839 117.724L79.2504 117.558C74.6895 116.744 71.9652 119.522 63.795 118.063L49.956 115.594C49.117 115.444 48.3718 114.967 47.8844 114.268C47.397 113.569 47.2073 112.705 47.357 111.866C47.5067 111.027 47.9835 110.282 48.6826 109.795C49.3817 109.307 50.2458 109.118 51.0848 109.267L49.5031 108.99C48.6641 108.84 47.919 108.363 47.4317 107.664C46.9445 106.965 46.7549 106.101 46.9048 105.262C47.0547 104.423 47.5317 103.678 48.2309 103.19C48.9301 102.703 49.7943 102.514 50.6332 102.664L49.0516 102.387C48.2126 102.237 47.4674 101.76 46.98 101.061C46.4926 100.362 46.3029 99.4977 46.4526 98.6587C46.6023 97.8198 47.0791 97.0746 47.7782 96.5872C48.4773 96.0998 49.3414 95.9101 50.1803 96.0598L48.5987 95.7828C47.7597 95.6331 47.0145 95.1562 46.5271 94.4571C46.0397 93.758 45.85 92.894 45.9997 92.055C46.1494 91.216 46.6262 90.4709 47.3253 89.9835C48.0244 89.496 48.8885 89.3063 49.7274 89.456L65.9404 92.3327Z" stroke="#171717" stroke-width="1.49864" stroke-linejoin="round"/>
</g>
</svg>
