<svg width="40" height="13" viewBox="0 0 40 13" fill="none" xmlns="http://www.w3.org/2000/svg">
<g id="Ufone logo vector 1" clip-path="url(#clip0_733_79951)">
<path id="Vector" d="M10.0621 4.6364C10.1375 4.11832 10.2513 3.60656 10.4026 3.10536C10.5689 2.59569 10.803 2.11068 11.0985 1.66336C11.3999 1.17757 11.8037 0.763348 12.2816 0.449564C12.7443 0.148624 13.3012 -0.00163781 13.9524 -0.00121983C14.2465 0.00413678 14.5399 0.0307467 14.8302 0.0784033C14.799 0.249407 14.7807 0.422523 14.7756 0.596272C14.7612 0.832009 14.7568 1.00379 14.7568 1.11226V1.45583L14.7374 2.1806L14.4991 2.26273C14.2063 2.12919 13.9305 2.0201 13.6665 1.92793C13.4158 1.84326 13.1531 1.79903 12.8885 1.7969C12.6825 1.79471 12.4766 1.80287 12.2715 1.82135C12.1509 1.83026 12.0359 1.87624 11.9424 1.95301C11.8634 2.02448 11.7963 2.08718 11.7405 2.1411C11.7128 2.16891 11.6911 2.20214 11.6769 2.23872C11.6627 2.27529 11.6561 2.31442 11.6577 2.35364C11.6577 2.50787 11.706 2.71414 11.8032 2.97746C11.9004 3.24079 12.1167 3.75364 12.4678 4.51978V4.63326L12.5305 5.46837V10.0646L12.6107 12.3681H9.91479C9.95045 12.0895 9.97138 11.8093 9.97749 11.5286C9.98627 11.1837 9.99128 10.864 9.99128 10.5712L10.054 7.07151V5.47151L10.0621 4.6364Z" fill="#FF6601"/>
<path id="Vector_2" d="M20.5567 4.24204C20.5567 4.24204 14.0608 0.255206 6.09399 8.77119L6.136 10.7656C6.136 10.7656 12.3141 1.16994 20.5567 4.24204Z" fill="#FF6601"/>
<path id="Vector_3" d="M13.3543 9.46714C13.1267 8.9015 13.0019 8.29981 12.9856 7.69033C12.9759 7.12845 13.0999 6.57231 13.3474 6.06776C13.5982 5.55303 13.9856 5.09284 14.5066 4.68218C14.9947 4.29084 15.551 3.99324 16.1474 3.80444C16.7775 3.61242 17.4322 3.51316 18.091 3.50977C18.7656 3.50057 19.3612 3.62011 19.8778 3.86839C20.3985 4.11867 20.8637 4.47086 21.2458 4.90413C21.6311 5.33482 21.9352 5.83163 22.1436 6.37059C22.6314 7.6383 22.6264 8.79169 22.1286 9.83077C21.6308 10.8699 20.6845 11.6032 19.2897 12.0308C17.9405 12.4462 16.7296 12.4253 15.6571 11.9681C14.5846 11.5108 13.817 10.6772 13.3543 9.46714ZM15.6396 7.32733L16.0421 8.58501C16.328 9.35924 16.7327 10.0843 17.2414 10.7342C17.7229 11.3323 18.3073 11.5267 18.9969 11.3135C19.4571 11.1737 19.7411 10.9198 19.8533 10.5574C19.968 10.1953 20.0052 9.81318 19.9624 9.43579C19.9098 8.98609 19.8209 8.54137 19.6966 8.10601C19.5599 7.61071 19.4364 7.21949 19.3305 6.93798C19.2809 6.8082 19.217 6.66463 19.1386 6.50413C19.0602 6.34362 18.9988 6.22889 18.9568 6.14362C18.754 5.62053 18.4244 5.15604 17.9975 4.7919C17.5587 4.41572 17.0665 4.30475 16.5167 4.47278C15.9668 4.6408 15.6289 5.01384 15.533 5.5756C15.4389 6.16012 15.4747 6.75817 15.6377 7.32733H15.6396Z" fill="#FF6601"/>
<path id="Vector_4" d="M22.7216 3.75858L24.1498 3.65763L25.4037 3.815L25.3461 5.06579C25.719 4.62636 26.1687 4.25841 26.6733 3.97989C27.1634 3.71414 27.7127 3.57675 28.2702 3.58052C29.2069 3.58052 29.9149 3.81605 30.3943 4.2871C30.8771 4.75795 31.1467 5.1755 31.2138 5.53789C31.2809 5.90027 31.3084 6.40622 31.3084 7.06202V12.0225H28.4639L28.5523 11.1266L28.6595 9.13601V7.84823C28.6595 6.97676 28.5805 6.29839 28.4188 5.8056C28.257 5.31281 27.8081 5.06579 27.0696 5.06579C26.2955 5.06579 25.8211 5.34666 25.6464 5.90842C25.4717 6.47017 25.3843 7.22002 25.3843 8.15795L25.494 12.0225H22.7216C22.7216 11.8721 22.7285 11.7241 22.7373 11.573C22.7461 11.4219 22.7567 11.2739 22.7667 11.1228V8.96735L22.8294 6.99745V6.3172L22.7197 4.10905L22.7216 3.75858Z" fill="#FF6601"/>
<path id="Vector_5" d="M34.4496 7.91971L34.5273 8.90091C34.5273 9.15169 34.6207 9.45702 34.8145 9.80498C34.9737 10.1142 35.195 10.3872 35.4646 10.6069C35.6924 10.7877 35.9536 10.9219 36.2333 11.0018C36.5378 11.086 36.8528 11.1267 37.1687 11.1228C37.569 11.1224 37.9661 11.0516 38.3417 10.9134C38.7281 10.7762 39.0925 10.5834 39.4233 10.341L39.6546 10.4971L39.2276 11.4608C38.4035 11.9794 37.4471 12.249 36.4734 12.237C35.6508 12.237 34.9507 12.145 34.3731 11.9611C33.7865 11.7716 33.2536 11.4446 32.8189 11.0075C32.3885 10.5925 32.0674 10.0775 31.8841 9.50843C31.7126 8.92485 31.6281 8.31917 31.6333 7.71094C31.6333 6.48085 32.0285 5.47917 32.8189 4.70592C33.6126 3.92849 34.6853 3.54041 36.0502 3.54041C37.4638 3.54041 38.4759 3.93163 39.0866 4.71407C39.6972 5.49652 40.0017 6.56506 40.0001 7.91971H34.4496ZM37.4433 7.09652C37.4289 7.0296 37.4223 6.9612 37.4239 6.89276V6.70467C37.4237 6.15037 37.3241 5.60061 37.1298 5.08147C36.9367 4.55232 36.5881 4.28732 36.0841 4.28649C35.4646 4.28649 35.0352 4.58743 34.8007 5.18555C34.5659 5.79589 34.4484 6.4451 34.4546 7.09903L37.4433 7.09652Z" fill="#FF6601"/>
<path id="Vector_6" d="M5.94176 10.753C5.42953 11.2615 4.98188 11.6251 4.59881 11.8483C4.21574 12.0715 3.70602 12.1775 3.06715 12.1775C2.56698 12.1832 2.06992 12.0983 1.60007 11.9267C1.15806 11.7599 0.816993 11.5254 0.573733 11.2201C0.339293 10.9299 0.179182 10.5868 0.107276 10.2207C0.0341636 9.84904 -0.00175071 9.471 6.55823e-05 9.0922V3.75866L1.53549 3.65771H2.83831C2.76057 4.32647 2.70811 5.08635 2.68094 5.93734C2.65649 6.78562 2.64207 7.60442 2.64207 8.38687C2.64207 8.75991 2.65148 9.05082 2.67279 9.25458C2.68988 9.4612 2.75217 9.66153 2.85524 9.84141C2.96498 10.1106 3.14892 10.343 3.38565 10.5116C3.61198 10.6715 3.88721 10.7511 4.22452 10.7511C4.98314 10.7511 5.4496 10.4577 5.62953 9.87026C5.80947 9.28279 5.89348 8.54298 5.89348 7.6458L5.78627 3.75866L7.16245 3.65771H8.538C8.538 3.88405 8.52358 4.26461 8.49474 4.80505C8.4659 5.34549 8.44959 5.63264 8.44959 5.66963V9.36493L8.538 11.669V12.0226H5.89348L5.94176 10.753Z" fill="#8CB517"/>
</g>
<defs>
<clipPath id="clip0_733_79951">
<rect width="40" height="12.3712" fill="white"/>
</clipPath>
</defs>
</svg>
