<svg width="140" height="140" viewBox="0 0 140 140" fill="none" xmlns="http://www.w3.org/2000/svg">
<g id="Frame">
<path id="Vector" d="M48.0895 120.885C61.5852 126.696 76.8365 126.908 90.4885 121.475C104.14 116.041 115.075 105.406 120.886 91.9108C126.697 78.4152 126.909 63.1638 121.475 49.5118C116.041 35.8599 105.407 24.9256 91.9113 19.1145C78.4157 13.3036 63.1644 13.0917 49.5126 18.5256C35.8608 23.9595 24.9267 34.594 19.1157 48.0897C13.3048 61.5853 13.0929 76.8366 18.5268 90.4884C23.9607 104.14 34.5953 115.074 48.0909 120.885H48.0895Z" fill="#FFF7E9"/>
<path id="Vector_2" d="M51.614 114.285C51.614 114.557 52.0439 114.828 52.8791 115.08C53.7144 115.332 54.9386 115.561 56.4819 115.754C58.0253 115.946 59.8575 116.1 61.8739 116.204C63.8904 116.308 66.0516 116.362 68.2342 116.362C70.4168 116.362 72.578 116.308 74.5944 116.204C76.6109 116.1 78.4431 115.946 79.9864 115.754C81.5297 115.561 82.754 115.332 83.5892 115.08C84.4245 114.828 84.8543 114.557 84.8543 114.285C84.8543 114.012 84.4245 113.742 83.5892 113.49C82.754 113.237 81.5297 113.008 79.9864 112.816C78.4431 112.623 76.6109 112.47 74.5944 112.365C72.578 112.261 70.4168 112.207 68.2342 112.207C66.0516 112.207 63.8904 112.261 61.8739 112.365C59.8575 112.47 58.0253 112.623 56.4819 112.816C54.9386 113.008 53.7144 113.237 52.8791 113.49C52.0439 113.742 51.614 114.012 51.614 114.285Z" fill="#F25A51"/>
<path id="Vector_3" d="M47.7151 101.511C44.2824 98.0722 42.3545 93.4122 42.3545 88.5537C42.3545 83.6952 44.2824 79.0352 47.7151 75.5969L52.1471 71.1649C52.2913 71.0202 52.4702 70.9148 52.6667 70.8588C52.8631 70.8028 53.0707 70.7981 53.2695 70.845C53.4683 70.8919 53.6518 70.989 53.8026 71.1269C53.9533 71.2649 54.0661 71.4391 54.1304 71.633L54.7648 73.5221C54.8394 73.7483 54.9659 73.9538 55.1343 74.1221C55.3027 74.2905 55.5082 74.4171 55.7343 74.4917L57.4822 75.0734C57.6057 75.1145 57.7167 75.1865 57.8045 75.2827C57.8923 75.3788 57.9541 75.4958 57.984 75.6225C58.0138 75.7493 58.0107 75.8815 57.975 76.0067C57.9393 76.132 57.8722 76.2459 57.78 76.3379L53.1194 80.9985C51.1971 83.019 50.1406 85.7107 50.1753 88.4994C50.21 91.288 51.3331 93.9526 53.305 95.9247C55.2769 97.8968 57.9415 99.0202 60.7301 99.0551C63.5187 99.0901 66.2106 98.0338 68.2313 96.1117L73.6328 90.7102C75.6351 88.7045 76.7596 85.9862 76.7596 83.1521C76.7596 80.3181 75.6351 77.5998 73.6328 75.5941C73.2129 75.1744 72.7584 74.7907 72.2741 74.4473C72.1593 74.3655 72.0693 74.2535 72.0141 74.1237C71.959 73.994 71.9408 73.8515 71.9616 73.712C71.9823 73.5725 72.0413 73.4415 72.1319 73.3334C72.2225 73.2254 72.3412 73.1445 72.4749 73.0997L73.9888 72.5956C74.2149 72.521 74.4204 72.3944 74.5887 72.226C74.7571 72.0577 74.8837 71.8522 74.9583 71.6261L75.4943 70.0001C75.5837 69.7314 75.7424 69.4912 75.9545 69.3037C76.1666 69.1162 76.4245 68.988 76.702 68.9322C76.9377 68.8845 77.1812 68.8914 77.4139 68.9523C77.6465 69.0133 77.8621 69.1268 78.0441 69.284C78.3806 69.5749 78.7089 69.8768 79.0274 70.1967C82.4604 73.6349 84.3886 78.2949 84.3886 83.1535C84.3886 88.0121 82.4604 92.6722 79.0274 96.1103L73.6259 101.512C70.1877 104.944 65.5281 106.871 60.6702 106.871C55.8122 106.871 51.1529 104.943 47.7151 101.511Z" fill="white"/>
<path id="Vector_4" d="M111.828 56.1319C111.824 60.9905 109.892 65.6491 106.457 69.0847C103.021 72.5203 98.3626 74.452 93.504 74.4556H87.2299C87.0259 74.4554 86.8254 74.403 86.6473 74.3036C86.4692 74.2042 86.3195 74.0609 86.2123 73.8874C86.105 73.7138 86.0439 73.5158 86.0346 73.312C86.0254 73.1083 86.0683 72.9055 86.1593 72.723L87.0499 70.9391C87.1561 70.7272 87.2114 70.4934 87.2114 70.2563C87.2114 70.0192 87.1561 69.7854 87.0499 69.5735L86.2272 67.9253C86.1681 67.8088 86.14 67.6791 86.1455 67.5486C86.1509 67.4181 86.1897 67.2912 86.2582 67.1801C86.3268 67.0689 86.4227 66.9771 86.5368 66.9136C86.6509 66.8501 86.7794 66.8169 86.91 66.8173H93.4999C94.9138 66.8334 96.3168 66.5688 97.6278 66.0389C98.9387 65.5089 100.132 64.7241 101.137 63.73C102.143 62.7358 102.941 61.5521 103.486 60.2472C104.031 58.9424 104.311 57.5425 104.311 56.1285C104.311 54.7144 104.031 53.3145 103.486 52.0097C102.941 50.7048 102.143 49.5211 101.137 48.5269C100.132 47.5328 98.9387 46.748 97.6278 46.218C96.3168 45.6881 94.9138 45.4235 93.4999 45.4396H85.8657C84.3111 45.4379 82.775 45.7755 81.3645 46.4291C79.954 47.0826 78.7032 48.0362 77.6995 49.2232C76.6957 50.4103 75.9633 51.8022 75.5533 53.3017C75.1433 54.8012 75.0656 56.3721 75.3257 57.9047C75.3499 58.0439 75.3349 58.187 75.2824 58.3182C75.2299 58.4493 75.142 58.5633 75.0285 58.6473C74.915 58.7314 74.7804 58.7822 74.6396 58.7942C74.4989 58.8061 74.3576 58.7787 74.2316 58.715L72.805 58.0017C72.5927 57.8958 72.3587 57.8407 72.1215 57.8407C71.8843 57.8407 71.6503 57.8958 71.438 58.0017L69.9034 58.769C69.6496 58.8962 69.3667 58.9541 69.0834 58.9369C68.8 58.9196 68.5263 58.8278 68.2898 58.6706C68.0909 58.5377 67.9251 58.361 67.805 58.1541C67.685 57.9471 67.6139 57.7154 67.5973 57.4768C67.5647 57.0297 67.548 56.5816 67.5475 56.1333C67.5512 51.2747 69.4829 46.6161 72.9184 43.1805C76.354 39.7449 81.0126 37.8132 85.8712 37.8096H93.5054C98.3636 37.8136 103.022 39.7453 106.457 43.1805C109.892 46.6157 111.824 51.2738 111.828 56.1319Z" fill="white"/>
<path id="Vector_5" d="M43.9505 58.8106C44.1112 58.7664 44.2819 58.7754 44.4372 58.8361C44.5925 58.8968 44.724 59.006 44.8122 59.1474C44.9005 59.2889 44.9407 59.455 44.9269 59.6212C44.9131 59.7873 44.8461 59.9445 44.7358 60.0695L36.4492 69.4876C36.3696 69.5783 36.2698 69.649 36.1579 69.6943C36.046 69.7395 35.925 69.7579 35.8047 69.7481C35.6844 69.7383 35.5681 69.7005 35.465 69.6377C35.3619 69.5749 35.275 69.4889 35.211 69.3865L31.3953 63.2689C31.3315 63.1665 31.2925 63.0506 31.2814 62.9305C31.2703 62.8104 31.2874 62.6893 31.3314 62.5769C31.3754 62.4646 31.445 62.3641 31.5348 62.2834C31.6245 62.2028 31.7318 62.1442 31.8482 62.1124L43.9505 58.8106Z" fill="#F25A51" stroke="#171717" stroke-width="1.49864" stroke-linecap="round" stroke-linejoin="round"/>
<path id="Vector_6" d="M47.1125 50.8604L30.25 44.1708C30.0876 44.1066 29.9425 44.0052 29.8264 43.8749C29.7102 43.7445 29.6261 43.5888 29.5809 43.4201C29.5357 43.2515 29.5306 43.0746 29.5659 42.9036C29.6013 42.7326 29.6762 42.5723 29.7846 42.4354L36.2526 34.2555C36.3609 34.1178 36.4999 34.0074 36.6586 33.9332C36.8172 33.859 36.9911 33.823 37.1661 33.8281C37.3412 33.8332 37.5126 33.8793 37.6667 33.9627C37.8207 34.0461 37.9531 34.1644 38.0531 34.3081L48.4504 49.1777C48.5908 49.3754 48.6631 49.6134 48.6565 49.8558C48.6499 50.0982 48.5647 50.3319 48.4138 50.5218C48.2628 50.7116 48.0543 50.8472 47.8197 50.9083C47.585 50.9694 47.3368 50.9526 47.1125 50.8604Z" fill="#F25A51" stroke="#171717" stroke-width="1.49864" stroke-linecap="round" stroke-linejoin="round"/>
<path id="Vector_7" d="M55.9906 40.9063L54.3937 28.3747C54.3782 28.2542 54.3911 28.1318 54.4314 28.0172C54.4717 27.9026 54.5383 27.7991 54.6258 27.7148C54.7133 27.6305 54.8192 27.5679 54.9353 27.532C55.0513 27.496 55.1741 27.4877 55.2939 27.5077L62.4558 28.6974C62.5751 28.7176 62.688 28.7653 62.7857 28.8366C62.8834 28.908 62.9631 29.0011 63.0186 29.1086C63.0741 29.216 63.1038 29.335 63.1054 29.4559C63.107 29.5769 63.0805 29.6965 63.0279 29.8054L57.4629 41.1459C57.3898 41.2967 57.2699 41.4198 57.1212 41.4971C56.9725 41.5743 56.8029 41.6014 56.6375 41.5745C56.4721 41.5476 56.3198 41.468 56.2033 41.3477C56.0867 41.2273 56.0121 41.0725 55.9906 40.9063Z" fill="#F25A51" stroke="#171717" stroke-width="1.49864" stroke-linecap="round" stroke-linejoin="round"/>
<path id="Vector_8" d="M111.828 56.1319C111.824 60.9905 109.892 65.6491 106.457 69.0847C103.021 72.5203 98.3626 74.452 93.504 74.4556H87.2299C87.0259 74.4554 86.8254 74.4031 86.6473 74.3036C86.4692 74.2042 86.3195 74.0609 86.2123 73.8874C86.105 73.7138 86.0439 73.5158 86.0346 73.312C86.0254 73.1083 86.0683 72.9055 86.1593 72.723L87.0499 70.9391C87.1561 70.7272 87.2114 70.4934 87.2114 70.2563C87.2114 70.0192 87.1561 69.7854 87.0499 69.5735L86.2272 67.9253C86.1681 67.8088 86.14 67.6791 86.1455 67.5486C86.1509 67.4181 86.1897 67.2912 86.2582 67.1801C86.3268 67.0689 86.4227 66.9771 86.5368 66.9136C86.6509 66.8501 86.7794 66.8169 86.91 66.8173H93.4999C94.9138 66.8334 96.3168 66.5688 97.6278 66.0389C98.9387 65.5089 100.132 64.7241 101.137 63.73C102.143 62.7358 102.941 61.5521 103.486 60.2472C104.031 58.9424 104.311 57.5425 104.311 56.1285C104.311 54.7144 104.031 53.3145 103.486 52.0097C102.941 50.7048 102.143 49.5211 101.137 48.5269C100.132 47.5328 98.9387 46.748 97.6278 46.218C96.3168 45.6881 94.9138 45.4235 93.4999 45.4396H85.8657C84.3111 45.4379 82.775 45.7755 81.3645 46.4291C79.954 47.0826 78.7032 48.0362 77.6995 49.2232C76.6957 50.4103 75.9633 51.8022 75.5533 53.3017C75.1433 54.8012 75.0656 56.3721 75.3257 57.9047C75.3499 58.0439 75.3349 58.187 75.2824 58.3182C75.2299 58.4493 75.142 58.5633 75.0285 58.6473C74.915 58.7314 74.7804 58.7822 74.6396 58.7942C74.4989 58.8061 74.3576 58.7787 74.2316 58.715L72.805 58.0017C72.5927 57.8958 72.3587 57.8407 72.1215 57.8407C71.8843 57.8407 71.6503 57.8958 71.438 58.0017L69.9034 58.769C69.6496 58.8962 69.3667 58.9541 69.0834 58.9369C68.8 58.9196 68.5263 58.8278 68.2898 58.6706C68.0909 58.5377 67.9251 58.361 67.805 58.1541C67.685 57.9471 67.6139 57.7154 67.5973 57.4768C67.5647 57.0297 67.548 56.5816 67.5475 56.1333C67.5512 51.2747 69.4829 46.6161 72.9184 43.1805C76.354 39.7449 81.0126 37.8132 85.8712 37.8096H93.5054C98.3636 37.8136 103.022 39.7453 106.457 43.1805C109.892 46.6157 111.824 51.2738 111.828 56.1319Z" stroke="#171717" stroke-width="1.49864" stroke-linecap="round" stroke-linejoin="round"/>
<path id="Vector_9" d="M47.7151 101.511C44.2824 98.0722 42.3545 93.4122 42.3545 88.5537C42.3545 83.6952 44.2824 79.0352 47.7151 75.5969L52.1471 71.1649C52.2913 71.0202 52.4702 70.9148 52.6667 70.8588C52.8631 70.8028 53.0707 70.7981 53.2695 70.845C53.4683 70.8919 53.6518 70.989 53.8026 71.1269C53.9533 71.2649 54.0661 71.4391 54.1304 71.633L54.7648 73.5221C54.8394 73.7483 54.9659 73.9538 55.1343 74.1221C55.3027 74.2905 55.5082 74.4171 55.7343 74.4917L57.4822 75.0734C57.6057 75.1145 57.7167 75.1865 57.8045 75.2827C57.8923 75.3788 57.9541 75.4958 57.984 75.6225C58.0138 75.7493 58.0107 75.8815 57.975 76.0067C57.9393 76.132 57.8722 76.2459 57.7799 76.3379L53.1194 80.9985C51.1971 83.019 50.1406 85.7107 50.1753 88.4994C50.21 91.288 51.3331 93.9526 53.305 95.9247C55.2769 97.8968 57.9415 99.0202 60.7301 99.0551C63.5187 99.0901 66.2106 98.0338 68.2313 96.1117L73.6328 90.7102C75.6351 88.7045 76.7596 85.9862 76.7596 83.1521C76.7596 80.3181 75.6351 77.5998 73.6328 75.5941C73.2129 75.1744 72.7584 74.7907 72.2741 74.4473C72.1593 74.3655 72.0693 74.2535 72.0141 74.1237C71.959 73.994 71.9408 73.8515 71.9616 73.712C71.9823 73.5725 72.0413 73.4415 72.1319 73.3334C72.2225 73.2254 72.3412 73.1445 72.4749 73.0997L73.9888 72.5956C74.2149 72.521 74.4204 72.3944 74.5887 72.226C74.7571 72.0577 74.8837 71.8522 74.9583 71.6261L75.4943 70.0001C75.5837 69.7314 75.7424 69.4912 75.9545 69.3037C76.1666 69.1162 76.4245 68.988 76.702 68.9322C76.9377 68.8845 77.1812 68.8914 77.4139 68.9523C77.6465 69.0133 77.8621 69.1268 78.0441 69.284C78.3806 69.5749 78.7089 69.8768 79.0274 70.1967C82.4604 73.6349 84.3886 78.2949 84.3886 83.1535C84.3886 88.0121 82.4604 92.6722 79.0274 96.1103L73.6259 101.512C70.1877 104.944 65.5281 106.871 60.6702 106.871C55.8122 106.871 51.1529 104.943 47.7151 101.511Z" stroke="#171717" stroke-width="1.49864" stroke-linecap="round" stroke-linejoin="round"/>
</g>
</svg>
