<svg width="40" height="13" viewBox="0 0 40 13" fill="none" xmlns="http://www.w3.org/2000/svg">
<g id="Zong logo vector 1" clip-path="url(#clip0_733_79963)">
<path id="Vector" d="M34.3917 0.13916H33.9341L31.1472 4.54167H33.5297V5.47709H34.3892V4.54167H34.9842V3.64073H34.3949L34.3917 0.13916ZM33.5322 3.64073L32.6513 3.64762L33.5322 2.14982V3.64073Z" fill="#EC0080"/>
<path id="Vector_2" d="M38.0796 2.35805V3.25899H39.1617V4.27843C39.0046 4.39602 38.8286 4.48612 38.6413 4.54489C38.4575 4.6024 38.2659 4.63157 38.0733 4.63141C37.8281 4.63333 37.5851 4.58511 37.3592 4.48971C36.9198 4.30444 36.5702 3.95482 36.3849 3.51542C36.291 3.29148 36.2426 3.05106 36.2426 2.80821C36.2426 2.56536 36.291 2.32494 36.3849 2.101C36.5702 1.6616 36.9198 1.31198 37.3592 1.1267C37.8055 0.94133 38.3065 0.93773 38.7554 1.11667C38.9731 1.20345 39.1721 1.33115 39.3416 1.49285L39.9862 0.847707C39.7298 0.602794 39.43 0.407824 39.1021 0.272786C38.4288 -0.000250772 37.6747 0.00470915 37.005 0.286579C36.6796 0.425434 36.3831 0.624059 36.131 0.872159C35.8804 1.12124 35.6804 1.41656 35.5423 1.74175C35.4004 2.07974 35.3274 2.44261 35.3274 2.80915C35.3274 3.17569 35.4004 3.53856 35.5423 3.87655C35.6804 4.20197 35.8803 4.4975 36.131 4.74677C36.3827 4.9954 36.6793 5.1941 37.005 5.33235C37.6747 5.61422 38.4288 5.61918 39.1021 5.34614C39.4298 5.21073 39.7295 5.0158 39.9862 4.77122L39.9999 4.72921V2.35805H38.0796Z" fill="#EC0080"/>
<path id="Vector_3" d="M0.245768 1.40821H4.22382L0 7.14865V7.85021H6.46959V6.61887H2.12163L6.24263 0.853977L6.24828 0.852723V0.845826L6.25016 0.843945H6.24828V0.136108H0.245768V1.40821Z" fill="#8BC53F"/>
<path id="Vector_4" d="M16.9688 1.55798H19.1938C20.0089 1.54983 20.6879 1.9072 20.6252 3.01691V7.84951H22.0722V2.83008C22.0835 0.864563 20.7744 0.13729 19.3581 0.134155H15.4521V7.84575H16.9688V1.55798Z" fill="#8BC53F"/>
<path id="Vector_5" d="M22.6653 4.01062C22.6653 6.22002 24.6615 8.02316 27.1085 8.02316C27.9879 8.02675 28.851 7.78651 29.602 7.32911L29.6132 7.32222V4.17049H28.1556V6.55294C27.8541 6.64075 27.5417 6.68529 27.2277 6.68523C25.5669 6.68523 24.2114 5.46203 24.2114 3.96234C24.2114 2.46266 25.5669 1.24008 27.2277 1.24008C27.8723 1.23681 28.5029 1.42751 29.0377 1.78742L29.6132 0.700273C28.8589 0.237513 27.9903 -0.00526435 27.1054 -0.000668357C24.6615 -4.13983e-05 22.6653 1.80435 22.6653 4.01062Z" fill="#8BC53F"/>
<path id="Vector_6" d="M14.7698 4.01816C14.77 3.23736 14.5427 2.47342 14.1157 1.81971C13.6887 1.16599 13.0806 0.650814 12.3655 0.337127C11.6505 0.0234398 10.8596 -0.0751679 10.0895 0.0533554C9.31932 0.181879 8.60329 0.531966 8.02888 1.06083C7.45447 1.5897 7.04656 2.27444 6.855 3.03138C6.66344 3.78832 6.69653 4.58466 6.95022 5.3231C7.20391 6.06154 7.66721 6.71008 8.28352 7.18948C8.89982 7.66887 9.64242 7.95835 10.4206 8.02255V6.60562C9.76222 6.52154 9.1606 6.18987 8.73806 5.67804C8.31552 5.16622 8.10378 4.51267 8.14591 3.8503C8.18803 3.18793 8.48085 2.56647 8.96483 2.1123C9.4488 1.65813 10.0876 1.40534 10.7513 1.40534C11.415 1.40534 12.0538 1.65813 12.5378 2.1123C13.0217 2.56647 13.3146 3.18793 13.3567 3.8503C13.3988 4.51267 13.1871 5.16622 12.7645 5.67804C12.342 6.18987 11.7404 6.52154 11.082 6.60562V8.02255C12.0863 7.93766 13.0223 7.47926 13.705 6.73788C14.3878 5.99649 14.7677 5.02603 14.7698 4.01816Z" fill="#8BC53F"/>
<path id="Vector_7" d="M15.4521 12.6615H15.8985L16.0779 12.2527H17.0277L17.2064 12.6615H17.6534L16.5518 10.1461L15.4521 12.6615ZM16.2572 11.8464L16.5518 11.1649L16.8478 11.8439L16.2572 11.8464Z" fill="#EC0080"/>
<path id="Vector_8" d="M20.7763 11.7248L19.3198 10.1461V12.6621H19.7286V11.1837L21.185 12.7624V10.2402H20.7763V11.7248Z" fill="#EC0080"/>
<path id="Vector_9" d="M21.8132 12.6621H23.3229V12.2533H22.222V11.6558H23.1976V11.247H22.222V10.6489H23.3229V10.2401H21.8132V12.6621Z" fill="#EC0080"/>
<path id="Vector_10" d="M25.7221 11.7373L25.4864 11.1931L25.9015 10.2401H25.4551L25.2632 10.684L25.0688 10.2401H24.6218L25.04 11.1931L24.8011 11.7373L24.1472 10.2401H23.7002L24.8011 12.7561L25.2632 11.7028L25.7221 12.7561L26.8231 10.2401H26.3767L25.7221 11.7373Z" fill="#EC0080"/>
<path id="Vector_11" d="M30.0515 10.5944C29.9407 10.484 29.8098 10.3959 29.6659 10.3348C29.5168 10.2717 29.3564 10.2397 29.1945 10.2407H28.4897V12.6621H29.1945C29.3564 12.6631 29.5168 12.6311 29.6659 12.568C29.8097 12.5067 29.9406 12.4186 30.0515 12.3085C30.1619 12.1979 30.2498 12.0669 30.3104 11.9229C30.3725 11.7739 30.4044 11.6141 30.4044 11.4527C30.4044 11.2913 30.3725 11.1314 30.3104 10.9824C30.2503 10.8374 30.1623 10.7056 30.0515 10.5944ZM29.9336 11.7643C29.8932 11.8592 29.8351 11.9456 29.7625 12.0188C29.6894 12.0917 29.603 12.1498 29.5079 12.19C29.4089 12.2322 29.3021 12.2536 29.1945 12.2527H28.9029V10.6489H29.1982C29.3059 10.6477 29.4127 10.669 29.5117 10.7116C29.7037 10.7925 29.8565 10.9453 29.9374 11.1373C29.9788 11.2366 30.0001 11.3432 30.0001 11.4508C30.0001 11.5584 29.9788 11.6649 29.9374 11.7643H29.9336Z" fill="#EC0080"/>
<path id="Vector_12" d="M32.2883 11.533C32.3511 11.4901 32.4067 11.4377 32.4532 11.3775C32.4997 11.3172 32.5359 11.2496 32.5604 11.1775C32.5855 11.1036 32.5983 11.0261 32.598 10.948C32.5986 10.8541 32.5798 10.761 32.5428 10.6746C32.4708 10.5053 32.336 10.3705 32.1667 10.2985C32.0801 10.2615 31.9868 10.2427 31.8927 10.2433H30.9397V12.6646H31.3478V11.6615H31.64L32.1416 12.6646H32.6131L32.0751 11.6333C32.1513 11.6121 32.2234 11.5782 32.2883 11.533ZM31.8902 11.2471H31.3478V10.6496H31.8914C31.9309 10.6493 31.9699 10.6572 32.0062 10.6728C32.0419 10.6875 32.0747 10.7088 32.1027 10.7355C32.1296 10.7631 32.1509 10.7957 32.1654 10.8314C32.1808 10.8677 32.1887 10.9067 32.1886 10.9461C32.1891 10.9862 32.1812 11.0259 32.1654 11.0627C32.15 11.0974 32.1288 11.1292 32.1027 11.1568C32.0749 11.1837 32.0421 11.205 32.0062 11.2195C31.9705 11.2367 31.9316 11.2461 31.892 11.2471H31.8902Z" fill="#EC0080"/>
<path id="Vector_13" d="M33.1504 12.6621H34.6595V12.2533H33.5592V11.6558H34.5341V11.247H33.5592V10.6489H34.6595V10.2401H33.1504V12.6621Z" fill="#EC0080"/>
<path id="Vector_14" d="M35.0376 12.6615H35.4859L35.6652 12.2527H36.6144L36.7937 12.6615H37.2414L36.1379 10.1461L35.0376 12.6615ZM35.8426 11.8464L36.1379 11.1674L36.4338 11.8464H35.8426Z" fill="#EC0080"/>
<path id="Vector_15" d="M37.6946 10.1461V12.6621H38.1034V11.3944L38.8476 12.3599L39.5911 11.3944V12.6621H39.9999V10.1461L38.8476 11.7217L37.6946 10.1461Z" fill="#EC0080"/>
</g>
<defs>
<clipPath id="clip0_733_79963">
<rect width="40" height="12.7624" fill="white"/>
</clipPath>
</defs>
</svg>
