<svg width="48" height="48" viewBox="0 0 48 48" fill="none" xmlns="http://www.w3.org/2000/svg">
<rect width="48" height="48" rx="24" fill="white"/>
<g clip-path="url(#clip0_33_1492)">
<path d="M25.1606 11C25.2087 11.0167 25.2582 11.0289 25.3085 11.0363C27.2694 11.147 29.1938 11.4699 31.0674 12.0807C32.8812 12.6721 34.5828 13.4902 36.0762 14.7175C37.0036 15.4797 37.7956 16.3643 38.3375 17.4568C39.3112 19.4198 39.1967 21.3441 38.0931 23.2146C37.3777 24.4271 36.3783 25.359 35.2388 26.1414C33.5686 27.2881 31.7282 28.0395 29.7814 28.5151C25.3829 29.5894 21.0154 29.4797 16.6984 28.0673C14.9863 27.5072 13.3892 26.7038 11.9739 25.5536C11.1792 24.9078 10.4762 24.1724 9.94573 23.2823C8.66763 21.1375 8.68669 18.9917 9.99359 16.8705C10.7801 15.594 11.8792 14.6405 13.1186 13.8483C14.909 12.7038 16.8676 11.9965 18.9213 11.5425C20.1593 11.2734 21.4161 11.1043 22.6801 11.0368C22.7193 11.0294 22.7574 11.0171 22.7935 11H23.2866C23.3185 11.0166 23.3527 11.0281 23.388 11.0341C23.7585 11.0362 24.129 11.0358 24.4994 11.0329C24.5349 11.0271 24.5694 11.016 24.6017 11L25.1606 11ZM23.6371 28.2088C25.4105 28.2087 26.7883 28.0794 28.1514 27.8008C30.018 27.4193 31.7987 26.7986 33.43 25.7769C34.5538 25.0732 35.5464 24.2179 36.27 23.0763C37.2424 21.5422 37.4725 19.9143 36.7943 18.195C36.3711 17.1221 35.6668 16.2567 34.8164 15.5101C33.5595 14.4065 32.1112 13.65 30.5506 13.1167C27.048 11.9196 23.4793 11.7514 19.8655 12.468C17.9967 12.8386 16.2194 13.4752 14.5917 14.503C13.4123 15.2477 12.3822 16.1583 11.6595 17.3874C10.9107 18.6609 10.6702 20.0202 11.061 21.4685C11.3431 22.5135 11.9077 23.392 12.6376 24.165C13.7572 25.3508 15.1127 26.1708 16.5911 26.7907C18.9707 27.7884 21.4606 28.1934 23.6371 28.2088Z" fill="#0D4E29"/>
<path d="M24.6016 11C24.5692 11.016 24.5348 11.0271 24.4993 11.0329C24.1288 11.0357 23.7584 11.0361 23.3879 11.0341C23.3526 11.0281 23.3184 11.0166 23.2865 11H24.6016Z" fill="#366C4E"/>
<path d="M38.9967 35.6682V37H9.02661V35.6682H38.9967Z" fill="#0B4D28"/>
<path d="M15.6314 32.4381C15.9569 32.8325 16.0344 33.2822 15.9611 33.7674C15.9229 34.0299 15.7982 34.2713 15.6075 34.4515C15.4169 34.6317 15.1719 34.7401 14.9128 34.7586C14.8038 34.7679 14.694 34.7715 14.5846 34.7716C12.985 34.7724 11.3854 34.7725 9.78576 34.772C9.56849 34.772 9.55059 34.7537 9.55056 34.5341C9.55043 33.5598 9.54418 32.5854 9.55538 31.6113C9.5526 31.3881 9.58946 31.1663 9.66416 30.9566C9.85577 30.4697 10.2613 30.2647 10.7486 30.2602C12.0961 30.2478 13.4437 30.2478 14.7914 30.2602C15.2718 30.2646 15.6657 30.4684 15.8738 30.9407C16.0548 31.3513 16.0548 31.9851 15.6314 32.4381ZM10.6344 34.1284C10.6488 34.1353 10.664 34.1405 10.6795 34.1438C11.9228 34.1448 13.1661 34.148 14.4093 34.1438C14.6955 34.1429 14.8705 33.9609 14.8991 33.661C14.908 33.5662 14.9091 33.4709 14.9022 33.3759C14.8684 32.9014 14.6663 32.7527 14.2788 32.756C13.1232 32.7658 11.9675 32.7594 10.8119 32.7599C10.7542 32.7599 10.6964 32.7651 10.6344 32.7681L10.6344 34.1284ZM10.6343 32.1312C11.9145 32.1312 13.1778 32.1338 14.4411 32.1288C14.6607 32.1279 14.8122 31.9983 14.8679 31.7789C14.8957 31.6597 14.9067 31.537 14.9007 31.4147C14.8896 31.0743 14.7041 30.8886 14.3729 30.8878C13.3058 30.8851 12.2387 30.8851 11.1715 30.8876C10.844 30.8883 10.6604 31.056 10.6374 31.3921C10.6211 31.6307 10.6343 31.8714 10.6343 32.1312Z" fill="#0F4E2B"/>
<path d="M26.4893 34.7659C25.6569 34.7659 24.8242 34.7782 23.992 34.7621C23.2987 34.7486 22.8337 34.2877 22.8192 33.5803C22.7978 32.5283 22.8107 31.4756 22.8086 30.4232C22.8083 30.3044 22.8635 30.2522 22.9804 30.2539C23.2159 30.2572 23.4516 30.2608 23.6868 30.2527C23.8393 30.2475 23.8858 30.3139 23.8853 30.4623C23.8815 31.4531 23.8832 32.444 23.8836 33.4349C23.8816 33.502 23.8837 33.5692 23.8901 33.636C23.9354 33.9952 24.1033 34.1458 24.4585 34.1459C25.9702 34.1465 27.4819 34.1466 28.9935 34.1462C29.2363 34.1462 29.238 34.1496 29.24 34.4033C29.243 34.7923 29.2632 34.7735 28.8718 34.7726C28.0777 34.7708 27.2835 34.772 26.4893 34.772V34.7659Z" fill="#0E4D2A"/>
<path d="M35.7277 34.7659C34.8952 34.7659 34.0625 34.7785 33.2304 34.762C32.5361 34.7482 32.0719 34.2877 32.0576 33.5804C32.0363 32.5284 32.0491 31.4756 32.0469 30.4232C32.0466 30.3042 32.1018 30.2523 32.2186 30.2539C32.4541 30.2572 32.6898 30.2607 32.9251 30.2527C33.0773 30.2475 33.1243 30.3135 33.1237 30.4622C33.1199 31.453 33.1216 32.4439 33.122 33.4348C33.12 33.5019 33.1222 33.5691 33.1286 33.636C33.1737 33.995 33.3416 34.1458 33.6969 34.146C35.2085 34.1465 36.7202 34.1465 38.2318 34.1462C38.4746 34.1462 38.4767 34.1499 38.4783 34.4034C38.4808 34.7925 38.5027 34.7735 38.1102 34.7726C37.3161 34.7708 36.5219 34.7721 35.7277 34.7721L35.7277 34.7659Z" fill="#0E4D2A"/>
<path d="M18.8444 32.5061C18.8444 31.8293 18.8444 31.1525 18.8445 30.4758C18.8446 30.2728 18.8622 30.2553 19.0607 30.2549C19.2687 30.2544 19.4766 30.2544 19.6846 30.2548C19.9033 30.255 19.9211 30.2722 19.9212 30.4912C19.9215 31.4085 19.9216 32.3257 19.9214 33.243C19.9214 33.6849 19.9177 34.1268 19.9233 34.5686C19.9252 34.7216 19.8666 34.7792 19.7188 34.7742C19.5002 34.7667 19.2811 34.7727 19.0622 34.7721C18.8635 34.7716 18.8447 34.7529 18.8445 34.5532C18.8442 33.8708 18.8441 33.1885 18.8444 32.5061Z" fill="#0F4E2B"/>
<path d="M23.6369 28.2089C21.4604 28.1934 18.9705 27.7884 16.5909 26.7907C15.1126 26.1708 13.7571 25.3508 12.6374 24.165C11.9076 23.392 11.3429 22.5135 11.0609 21.4685C10.6701 20.0202 10.9105 18.6609 11.6593 17.3874C12.3821 16.1583 13.4122 15.2477 14.5916 14.5031C16.2193 13.4753 17.9965 12.8386 19.8654 12.468C23.4792 11.7515 27.0478 11.9196 30.5504 13.1167C32.111 13.65 33.5593 14.4065 34.8163 15.5101C35.6667 16.2567 36.3709 17.1221 36.7942 18.195C37.4724 19.9143 37.2422 21.5422 36.2699 23.0763C35.5463 24.2179 34.5536 25.0732 33.4298 25.777C31.7986 26.7986 30.0179 27.4193 28.1512 27.8008C26.7882 28.0793 25.4104 28.2087 23.6369 28.2089ZM27.2477 26.4086V13.9566H27.0548L24.6056 13.9566C24.0193 13.9566 23.433 13.9563 22.8467 13.9559C22.7719 13.9557 22.7136 13.9554 22.6882 14.0543C22.4711 14.8976 21.9221 15.4584 21.1899 15.8506C20.1497 16.4079 19.0152 16.5826 17.8641 16.6769C17.4619 16.7098 17.0581 16.7224 16.6513 16.7444V19.1785H21.2602V26.4086H27.2477Z" fill="#F8A21D"/>
<path d="M27.2477 26.4086H21.2602V19.1785H16.6512V16.7444C17.058 16.7224 17.4618 16.7098 17.864 16.6769C19.0152 16.5826 20.1497 16.4079 21.1899 15.8506C21.9221 15.4584 22.471 14.8976 22.6881 14.0543C22.7136 13.9554 22.7718 13.9557 22.8467 13.9559C23.433 13.9571 24.0193 13.9573 24.6056 13.9566L27.0548 13.9566H27.2477L27.2477 26.4086Z" fill="#0C4D28"/>
</g>
<defs>
<clipPath id="clip0_33_1492">
<rect width="30" height="26" fill="white" transform="translate(9 11)"/>
</clipPath>
</defs>
</svg>
