<svg width="48" height="48" viewBox="0 0 48 48" fill="none" xmlns="http://www.w3.org/2000/svg">
<rect width="48" height="48" rx="24" fill="#F8F8F8"/>
<g clip-path="url(#clip0_10_3626)">
<path d="M31.5 25.572L24 33L21.104 30.132M14.987 22.028C14.9786 20.9734 15.304 19.9431 15.9165 19.0845C16.529 18.2259 17.3974 17.583 18.3973 17.2478C19.3973 16.9125 20.4777 16.902 21.4839 17.2178C22.4902 17.5336 23.3709 18.1595 24 19.006C24.4135 18.456 24.9361 17.9973 25.5351 17.6586C26.134 17.3199 26.7965 17.1084 27.4809 17.0375C28.1653 16.9666 28.8571 17.0377 29.5127 17.2464C30.1684 17.4551 30.774 17.7969 31.2915 18.2504C31.8091 18.7039 32.2274 19.2593 32.5204 19.8819C32.8134 20.5045 32.9747 21.1809 32.9943 21.8687C33.0138 22.5565 32.8912 23.241 32.6341 23.8792C32.377 24.5175 31.9909 25.0958 31.5 25.578" stroke="#EA5148" stroke-width="1.5" stroke-linecap="round" stroke-linejoin="round"/>
<path d="M15 25H17L19 28L21 22L22 25H25" stroke="#EA5148" stroke-width="1.5" stroke-linecap="round" stroke-linejoin="round"/>
</g>
<defs>
<clipPath id="clip0_10_3626">
<rect width="24" height="24" fill="white" transform="translate(12 12)"/>
</clipPath>
</defs>
</svg>
