<svg width="48" height="48" viewBox="0 0 48 48" fill="none" xmlns="http://www.w3.org/2000/svg">
<rect width="48" height="48" rx="24" fill="#F8F8F8"/>
<g clip-path="url(#clip0_10_3622)">
<path d="M17 31L19.757 23.649C19.8284 23.4584 19.9563 23.2942 20.1236 23.1782C20.2908 23.0623 20.4895 23.0001 20.693 23H33M17 31H31.026C31.4913 30.9999 31.942 30.8375 32.3004 30.5409C32.6589 30.2443 32.9028 29.832 32.99 29.375L33.986 24.164C34.0098 24.0208 34.0022 23.8741 33.9636 23.7342C33.925 23.5943 33.8564 23.4644 33.7626 23.3536C33.6688 23.2429 33.5519 23.1539 33.4203 23.0928C33.2886 23.0317 33.1452 23.0001 33 23M17 31C16.4696 31 15.9609 30.7893 15.5858 30.4142C15.2107 30.0391 15 29.5304 15 29V18C15 17.4696 15.2107 16.9609 15.5858 16.5858C15.9609 16.2107 16.4696 16 17 16H21L24 19H31C31.5304 19 32.0391 19.2107 32.4142 19.5858C32.7893 19.9609 33 20.4696 33 21V23" stroke="#EA5148" stroke-width="1.5" stroke-linecap="round" stroke-linejoin="round"/>
</g>
<defs>
<clipPath id="clip0_10_3622">
<rect width="24" height="24" fill="white" transform="translate(12 12)"/>
</clipPath>
</defs>
</svg>
