<svg width="48" height="48" viewBox="0 0 48 48" fill="none" xmlns="http://www.w3.org/2000/svg">
<rect width="48" height="48" rx="24" fill="#F8F8F8"/>
<g clip-path="url(#clip0_33_2981)">
<path d="M17.636 31.364C16.3773 30.1053 15.5202 28.5017 15.1729 26.7558C14.8257 25.01 15.0039 23.2004 15.6851 21.5559C16.3663 19.9114 17.5198 18.5058 18.9999 17.5168C20.4799 16.5279 22.22 16.0001 24 16.0001C25.78 16.0001 27.5201 16.5279 29.0001 17.5168C30.4802 18.5058 31.6337 19.9114 32.3149 21.5559C32.9961 23.2004 33.1743 25.01 32.8271 26.7558C32.4798 28.5017 31.6227 30.1053 30.364 31.364" stroke="#EA5148" stroke-width="1.5" stroke-linecap="round" stroke-linejoin="round"/>
<path d="M28 21L24 25" stroke="#EA5148" stroke-width="1.5" stroke-linecap="round" stroke-linejoin="round"/>
</g>
<defs>
<clipPath id="clip0_33_2981">
<rect width="24" height="24" fill="white" transform="translate(12 12)"/>
</clipPath>
</defs>
</svg>
