<svg width="49" height="48" viewBox="0 0 49 48" fill="none" xmlns="http://www.w3.org/2000/svg">
<rect x="0.666748" width="48" height="48" rx="24" fill="#F8F8F8"/>
<g clip-path="url(#clip0_33_2993)">
<path d="M24.6667 27C24.6667 27.7956 24.9828 28.5587 25.5454 29.1213C26.108 29.6839 26.8711 30 27.6667 30C28.4624 30 29.2255 29.6839 29.7881 29.1213C30.3507 28.5587 30.6667 27.7956 30.6667 27C30.6667 26.2044 30.3507 25.4413 29.7881 24.8787C29.2255 24.3161 28.4624 24 27.6667 24C26.8711 24 26.108 24.3161 25.5454 24.8787C24.9828 25.4413 24.6667 26.2044 24.6667 27Z" stroke="#EA5148" stroke-width="1.5" stroke-linecap="round" stroke-linejoin="round"/>
<path d="M25.6667 29.5V34L27.6667 32.5L29.6667 34V29.5" stroke="#EA5148" stroke-width="1.5" stroke-linecap="round" stroke-linejoin="round"/>
<path d="M22.6667 31H17.6667C17.1363 31 16.6276 30.7893 16.2525 30.4142C15.8775 30.0391 15.6667 29.5304 15.6667 29V19C15.6667 17.9 16.5667 17 17.6667 17H31.6667C32.1972 17 32.7059 17.2107 33.081 17.5858C33.456 17.9609 33.6667 18.4696 33.6667 19V29C33.6664 29.3507 33.5738 29.6952 33.3983 29.9988C33.2228 30.3025 32.9705 30.5546 32.6667 30.73" stroke="#EA5148" stroke-width="1.5" stroke-linecap="round" stroke-linejoin="round"/>
<path d="M18.6667 21H30.6667" stroke="#EA5148" stroke-width="1.5" stroke-linecap="round" stroke-linejoin="round"/>
<path d="M18.6667 24H21.6667" stroke="#EA5148" stroke-width="1.5" stroke-linecap="round" stroke-linejoin="round"/>
<path d="M18.6667 27H20.6667" stroke="#EA5148" stroke-width="1.5" stroke-linecap="round" stroke-linejoin="round"/>
</g>
<defs>
<clipPath id="clip0_33_2993">
<rect width="24" height="24" fill="white" transform="translate(12.6667 12)"/>
</clipPath>
</defs>
</svg>
