<svg width="49" height="49" viewBox="0 0 49 49" fill="none" xmlns="http://www.w3.org/2000/svg">
<rect x="0.10083" y="0.768921" width="48" height="48" rx="24" fill="#F8F8F8"/>
<g clip-path="url(#clip0_33_3064)">
<path d="M15.1008 19.7689C15.1008 18.9733 15.4169 18.2102 15.9795 17.6476C16.5421 17.085 17.3052 16.7689 18.1008 16.7689H30.1008C30.8965 16.7689 31.6595 17.085 32.2222 17.6476C32.7848 18.2102 33.1008 18.9733 33.1008 19.7689V29.7689C33.1008 30.5646 32.7848 31.3276 32.2222 31.8902C31.6595 32.4529 30.8965 32.7689 30.1008 32.7689H18.1008C17.3052 32.7689 16.5421 32.4529 15.9795 31.8902C15.4169 31.3276 15.1008 30.5646 15.1008 29.7689V19.7689Z" stroke="#EA5148" stroke-width="1.5" stroke-linecap="round" stroke-linejoin="round"/>
<path d="M19.1008 22.7689C19.1008 23.2994 19.3115 23.8081 19.6866 24.1831C20.0617 24.5582 20.5704 24.7689 21.1008 24.7689C21.6313 24.7689 22.14 24.5582 22.515 24.1831C22.8901 23.8081 23.1008 23.2994 23.1008 22.7689C23.1008 22.2385 22.8901 21.7298 22.515 21.3547C22.14 20.9796 21.6313 20.7689 21.1008 20.7689C20.5704 20.7689 20.0617 20.9796 19.6866 21.3547C19.3115 21.7298 19.1008 22.2385 19.1008 22.7689Z" stroke="#EA5148" stroke-width="1.5" stroke-linecap="round" stroke-linejoin="round"/>
<path d="M27.1008 20.7689H29.1008" stroke="#EA5148" stroke-width="1.5" stroke-linecap="round" stroke-linejoin="round"/>
<path d="M27.1008 24.7689H29.1008" stroke="#EA5148" stroke-width="1.5" stroke-linecap="round" stroke-linejoin="round"/>
<path d="M19.1008 28.7689H29.1008" stroke="#EA5148" stroke-width="1.5" stroke-linecap="round" stroke-linejoin="round"/>
</g>
<defs>
<clipPath id="clip0_33_3064">
<rect width="24" height="24" fill="white" transform="translate(12.1008 12.7689)"/>
</clipPath>
</defs>
</svg>
