<svg width="48" height="48" viewBox="0 0 48 48" fill="none" xmlns="http://www.w3.org/2000/svg">
<rect width="48" height="48" rx="24" fill="#F8F8F8"/>
<g clip-path="url(#clip0_1167_30908)">
<path d="M14.6227 24.9278H21.9473V26.2032H14.6227V24.9278ZM14.6227 26.9381H21.9473V28.2135H14.6227V26.9381ZM25.109 28.8956H29.2897V30.171H25.109V28.8956Z" fill="#EA5148"/>
<path d="M35.8639 15.4739C35.7642 15.1972 35.6105 14.943 35.4118 14.7261C35.2131 14.5091 34.9733 14.3338 34.7063 14.2102C34.4104 14.0714 34.0875 13.9996 33.7606 14C33.3343 14.0009 32.9171 14.1229 32.5575 14.3519C32.1979 14.5809 31.9108 14.9073 31.7297 15.2933L28.8754 21.4141H14.4809C13.1128 21.4141 12 22.4229 12 23.663V31.3826C12 32.6225 13.1128 33.6313 14.4809 33.6313H29.9444C31.3125 33.6313 32.4255 32.6225 32.4255 31.3826V24.3989L35.7887 17.1864C35.9138 16.9201 35.9849 16.6316 35.9979 16.3377C36.0108 16.0437 35.9653 15.7502 35.8639 15.4739ZM33.7604 15.2752C33.9011 15.2752 34.0378 15.3058 34.167 15.366C34.4004 15.4748 34.5773 15.668 34.6653 15.9099C34.7533 16.1518 34.7418 16.4137 34.633 16.6473L34.2999 17.3619L32.5524 16.547L32.8855 15.8323C32.9635 15.6661 33.0872 15.5255 33.2421 15.4268C33.397 15.3282 33.5767 15.2756 33.7604 15.2752ZM29.0446 24.0695L30.7919 24.8842L30.6112 25.2715L29.0285 26.3849L28.8641 24.4565L29.0446 24.0695ZM31.331 23.7283L29.5835 22.9135L32.0133 17.7025L33.7608 18.5175L31.331 23.7283ZM29.9444 32.3561H14.4809C13.8162 32.3561 13.2754 31.9195 13.2754 31.3828V23.663C13.2754 23.1263 13.8162 22.6895 14.4809 22.6895H28.2806L27.5641 24.2261L27.9461 28.7057L31.1501 26.4517V31.3824C31.1501 31.9195 30.6093 32.3561 29.9444 32.3561Z" fill="#EA5148"/>
</g>
<defs>
<clipPath id="clip0_1167_30908">
<rect width="24" height="24" fill="white" transform="translate(12 12)"/>
</clipPath>
</defs>
</svg>
