<svg width="49" height="48" viewBox="0 0 49 48" fill="none" xmlns="http://www.w3.org/2000/svg">
<rect x="0.428711" width="48" height="48" rx="24" fill="#F8F8F8"/>
<g clip-path="url(#clip0_1205_86427)">
<path d="M15.4287 24C15.4287 25.1819 15.6615 26.3522 16.1138 27.4442C16.5661 28.5361 17.229 29.5282 18.0647 30.364C18.9005 31.1997 19.8926 31.8626 20.9846 32.3149C22.0765 32.7672 23.2468 33 24.4287 33C25.6106 33 26.7809 32.7672 27.8729 32.3149C28.9648 31.8626 29.9569 31.1997 30.7927 30.364C31.6284 29.5282 32.2913 28.5361 32.7436 27.4442C33.1959 26.3522 33.4287 25.1819 33.4287 24C33.4287 21.6131 32.4805 19.3239 30.7927 17.636C29.1048 15.9482 26.8157 15 24.4287 15C22.0418 15 19.7526 15.9482 18.0647 17.636C16.3769 19.3239 15.4287 21.6131 15.4287 24Z" stroke="#EA5148" stroke-width="1.5" stroke-linecap="round" stroke-linejoin="round"/>
<path d="M24.4287 21H24.4387" stroke="#EA5148" stroke-width="1.5" stroke-linecap="round" stroke-linejoin="round"/>
<path d="M23.4287 24H24.4287V28H25.4287" stroke="#EA5148" stroke-width="1.5" stroke-linecap="round" stroke-linejoin="round"/>
</g>
<defs>
<clipPath id="clip0_1205_86427">
<rect width="24" height="24" fill="white" transform="translate(12.4287 12)"/>
</clipPath>
</defs>
</svg>
