<svg width="49" height="48" viewBox="0 0 49 48" fill="none" xmlns="http://www.w3.org/2000/svg">
<rect x="0.143066" width="48" height="48" rx="24" fill="#F8F8F8"/>
<g clip-path="url(#clip0_1205_86372)">
<path d="M17.1431 19C17.1431 20.0609 17.5645 21.0783 18.3146 21.8284C19.0648 22.5786 20.0822 23 21.1431 23C22.2039 23 23.2213 22.5786 23.9715 21.8284C24.7216 21.0783 25.1431 20.0609 25.1431 19C25.1431 17.9391 24.7216 16.9217 23.9715 16.1716C23.2213 15.4214 22.2039 15 21.1431 15C20.0822 15 19.0648 15.4214 18.3146 16.1716C17.5645 16.9217 17.1431 17.9391 17.1431 19Z" stroke="#EA5148" stroke-width="1.5" stroke-linecap="round" stroke-linejoin="round"/>
<path d="M15.1431 33V31C15.1431 29.9391 15.5645 28.9217 16.3146 28.1716C17.0648 27.4214 18.0822 27 19.1431 27H23.1431C24.2039 27 25.2213 27.4214 25.9715 28.1716C26.7216 28.9217 27.1431 29.9391 27.1431 31V33" stroke="#EA5148" stroke-width="1.5" stroke-linecap="round" stroke-linejoin="round"/>
<path d="M28.1431 15.13C29.0035 15.3503 29.7661 15.8507 30.3107 16.5523C30.8553 17.2539 31.1509 18.1168 31.1509 19.005C31.1509 19.8932 30.8553 20.7561 30.3107 21.4577C29.7661 22.1593 29.0035 22.6597 28.1431 22.88" stroke="#EA5148" stroke-width="1.5" stroke-linecap="round" stroke-linejoin="round"/>
<path d="M33.1431 33V31C33.138 30.1172 32.841 29.2608 32.2983 28.5644C31.7557 27.868 30.9979 27.3707 30.1431 27.15" stroke="#EA5148" stroke-width="1.5" stroke-linecap="round" stroke-linejoin="round"/>
</g>
<defs>
<clipPath id="clip0_1205_86372">
<rect width="24" height="24" fill="white" transform="translate(12.1431 12)"/>
</clipPath>
</defs>
</svg>
