<svg width="49" height="48" viewBox="0 0 49 48" fill="none" xmlns="http://www.w3.org/2000/svg">
<rect x="0.857178" width="48" height="48" rx="24" fill="#F8F8F8"/>
<g clip-path="url(#clip0_1205_86392)">
<path d="M24.8572 15C29.8277 15 33.8572 18.5258 33.8572 22.875V25.125C33.8572 29.4742 29.8277 33 24.8572 33V15Z" fill="#EA5148"/>
<path d="M15.8572 24C15.8572 25.1819 16.09 26.3522 16.5423 27.4442C16.9946 28.5361 17.6575 29.5282 18.4932 30.364C19.3289 31.1997 20.3211 31.8626 21.413 32.3149C22.505 32.7672 23.6753 33 24.8572 33C26.0391 33 27.2094 32.7672 28.3013 32.3149C29.3933 31.8626 30.3854 31.1997 31.2211 30.364C32.0569 29.5282 32.7198 28.5361 33.1721 27.4442C33.6244 26.3522 33.8572 25.1819 33.8572 24C33.8572 22.8181 33.6244 21.6478 33.1721 20.5558C32.7198 19.4639 32.0569 18.4718 31.2211 17.636C30.3854 16.8003 29.3933 16.1374 28.3013 15.6851C27.2094 15.2328 26.0391 15 24.8572 15C23.6753 15 22.505 15.2328 21.413 15.6851C20.3211 16.1374 19.3289 16.8003 18.4932 17.636C17.6575 18.4718 16.9946 19.4639 16.5423 20.5558C16.09 21.6478 15.8572 22.8181 15.8572 24Z" stroke="#EA5148" stroke-width="1.5" stroke-linecap="round" stroke-linejoin="round"/>
<path d="M24.8572 15V33" stroke="#EA5148" stroke-width="1.5" stroke-linecap="round" stroke-linejoin="round"/>
</g>
<defs>
<clipPath id="clip0_1205_86392">
<rect width="24" height="24" fill="white" transform="translate(12.8572 12)"/>
</clipPath>
</defs>
</svg>
