<svg width="49" height="48" viewBox="0 0 49 48" fill="none" xmlns="http://www.w3.org/2000/svg">
<rect x="0.714355" width="48" height="48" rx="24" fill="#F8F8F8"/>
<g clip-path="url(#clip0_1205_86415)">
<path d="M16.7144 33V20C16.7144 19.2044 17.0304 18.4413 17.593 17.8787C18.1556 17.3161 18.9187 17 19.7144 17H29.7144C30.51 17 31.2731 17.3161 31.8357 17.8787C32.3983 18.4413 32.7144 19.2044 32.7144 20V26C32.7144 26.7956 32.3983 27.5587 31.8357 28.1213C31.2731 28.6839 30.51 29 29.7144 29H20.7144L16.7144 33Z" stroke="#EA5148" stroke-width="1.5" stroke-linecap="round" stroke-linejoin="round"/>
<path d="M24.7144 20V23" stroke="#EA5148" stroke-width="1.5" stroke-linecap="round" stroke-linejoin="round"/>
<path d="M24.7144 26V26.01" stroke="#EA5148" stroke-width="1.5" stroke-linecap="round" stroke-linejoin="round"/>
</g>
<defs>
<clipPath id="clip0_1205_86415">
<rect width="24" height="24" fill="white" transform="translate(12.7144 12)"/>
</clipPath>
</defs>
</svg>
