<svg width="49" height="48" viewBox="0 0 49 48" fill="none" xmlns="http://www.w3.org/2000/svg">
<rect x="0.5" width="48" height="48" rx="24" fill="#F8F8F8"/>
<g clip-path="url(#clip0_1205_86407)">
<path d="M16.5 26V23C16.5 20.8783 17.3429 18.8434 18.8431 17.3431C20.3434 15.8429 22.3783 15 24.5 15C26.6217 15 28.6566 15.8429 30.1569 17.3431C31.6571 18.8434 32.5 20.8783 32.5 23V26" stroke="#EA5148" stroke-width="1.5" stroke-linecap="round" stroke-linejoin="round"/>
<path d="M30.5 31C30.5 32.657 27.814 34 24.5 34" stroke="#EA5148" stroke-width="1.5" stroke-linecap="round" stroke-linejoin="round"/>
<path d="M16.5 26C16.5 25.4696 16.7107 24.9609 17.0858 24.5858C17.4609 24.2107 17.9696 24 18.5 24H19.5C20.0304 24 20.5391 24.2107 20.9142 24.5858C21.2893 24.9609 21.5 25.4696 21.5 26V29C21.5 29.5304 21.2893 30.0391 20.9142 30.4142C20.5391 30.7893 20.0304 31 19.5 31H18.5C17.9696 31 17.4609 30.7893 17.0858 30.4142C16.7107 30.0391 16.5 29.5304 16.5 29V26Z" stroke="#EA5148" stroke-width="1.5" stroke-linecap="round" stroke-linejoin="round"/>
<path d="M27.5 26C27.5 25.4696 27.7107 24.9609 28.0858 24.5858C28.4609 24.2107 28.9696 24 29.5 24H30.5C31.0304 24 31.5391 24.2107 31.9142 24.5858C32.2893 24.9609 32.5 25.4696 32.5 26V29C32.5 29.5304 32.2893 30.0391 31.9142 30.4142C31.5391 30.7893 31.0304 31 30.5 31H29.5C28.9696 31 28.4609 30.7893 28.0858 30.4142C27.7107 30.0391 27.5 29.5304 27.5 29V26Z" stroke="#EA5148" stroke-width="1.5" stroke-linecap="round" stroke-linejoin="round"/>
</g>
<defs>
<clipPath id="clip0_1205_86407">
<rect width="24" height="24" fill="white" transform="translate(12.5 12)"/>
</clipPath>
</defs>
</svg>
