<svg width="25" height="24" viewBox="0 0 25 24" fill="none" xmlns="http://www.w3.org/2000/svg">
<g clip-path="url(#clip0_1199_43838)">
<path d="M12.3338 3C12.4658 3 12.5968 3 12.7268 3C11.4421 4.1937 10.6164 5.79984 10.3931 7.53922C10.1698 9.27859 10.563 11.0412 11.5045 12.5207C12.446 14.0002 13.8761 15.103 15.5464 15.6375C17.2166 16.1719 19.0213 16.1041 20.6468 15.446C20.0215 16.9505 18.9996 18.257 17.69 19.2263C16.3804 20.1955 14.8322 20.791 13.2107 20.9494C11.5891 21.1077 9.95503 20.8229 8.48265 20.1254C7.01028 19.4278 5.75488 18.3437 4.85035 16.9886C3.94583 15.6335 3.42612 14.0583 3.34665 12.431C3.26719 10.8037 3.63095 9.18529 4.39914 7.74851C5.16733 6.31173 6.31113 5.11042 7.70853 4.27273C9.10593 3.43504 10.7045 2.99239 12.3338 2.992V3Z" stroke="#454545" stroke-width="1.8" stroke-linecap="round" stroke-linejoin="round"/>
</g>
<defs>
<clipPath id="clip0_1199_43838">
<rect width="24" height="24" fill="white" transform="translate(0.333496)"/>
</clipPath>
</defs>
</svg>
