<svg width="48" height="48" viewBox="0 0 48 48" fill="none" xmlns="http://www.w3.org/2000/svg">
<rect width="48" height="48" rx="24" fill="#F8F8F8"/>
<g clip-path="url(#clip0_1205_86411)">
<path d="M15 24C15 25.1819 15.2328 26.3522 15.6851 27.4442C16.1374 28.5361 16.8003 29.5282 17.636 30.364C18.4718 31.1997 19.4639 31.8626 20.5558 32.3149C21.6478 32.7672 22.8181 33 24 33C25.1819 33 26.3522 32.7672 27.4442 32.3149C28.5361 31.8626 29.5282 31.1997 30.364 30.364C31.1997 29.5282 31.8626 28.5361 32.3149 27.4442C32.7672 26.3522 33 25.1819 33 24C33 22.8181 32.7672 21.6478 32.3149 20.5558C31.8626 19.4639 31.1997 18.4718 30.364 17.636C29.5282 16.8003 28.5361 16.1374 27.4442 15.6851C26.3522 15.2328 25.1819 15 24 15C22.8181 15 21.6478 15.2328 20.5558 15.6851C19.4639 16.1374 18.4718 16.8003 17.636 17.636C16.8003 18.4718 16.1374 19.4639 15.6851 20.5558C15.2328 21.6478 15 22.8181 15 24Z" stroke="#EA5148" stroke-width="1.5" stroke-linecap="round" stroke-linejoin="round"/>
<path d="M24 29V29.01" stroke="#EA5148" stroke-width="1.5" stroke-linecap="round" stroke-linejoin="round"/>
<path d="M24 25.5C23.9816 25.1754 24.0692 24.8535 24.2495 24.583C24.4299 24.3125 24.6933 24.1079 25 24C25.3759 23.8563 25.7132 23.6272 25.9856 23.331C26.2579 23.0347 26.4577 22.6792 26.5693 22.2926C26.6809 21.906 26.7013 21.4987 26.6287 21.1029C26.5562 20.707 26.3928 20.3334 26.1513 20.0115C25.9099 19.6896 25.597 19.4281 25.2373 19.2476C24.8776 19.0671 24.4809 18.9726 24.0785 18.9715C23.6761 18.9704 23.2789 19.0627 22.9182 19.2412C22.5576 19.4197 22.2432 19.6794 22 20" stroke="#EA5148" stroke-width="1.5" stroke-linecap="round" stroke-linejoin="round"/>
</g>
<defs>
<clipPath id="clip0_1205_86411">
<rect width="24" height="24" fill="white" transform="translate(12 12)"/>
</clipPath>
</defs>
</svg>
