<svg width="24" height="24" viewBox="0 0 24 24" fill="none" xmlns="http://www.w3.org/2000/svg">
<g id="Group 25427">
<path id="Vector" d="M0 23.99L11.2229 0.305353C11.3503 0.0346147 11.6639 -0.0756862 11.9286 0.0546694C12.007 0.0947788 12.0756 0.144916 12.1246 0.215107L22.9358 15.2261C25.5528 18.856 23.024 24 18.6133 24C16.8588 24 15.2121 23.1276 14.2025 21.6636L12.3206 18.9262C11.6835 17.9936 10.4485 17.7229 9.48797 18.3045L0 23.99Z" fill="#016672"/>
<path id="Vector_2" d="M22.9358 15.2259L12.1148 0.225003C11.9384 -0.0156539 11.6149 -0.0657907 11.3797 0.114702C11.3111 0.164839 11.2523 0.23503 11.2229 0.315249L0 23.9898L13.9673 15.607C14.9279 15.0354 16.3295 15.3061 16.9764 16.2387L18.8583 18.9762C19.8483 20.4402 21.4852 21.3226 23.2298 21.3125C24.2688 19.5277 24.3374 17.1612 22.9358 15.2259Z" fill="#008593"/>
</g>
</svg>
