<svg width="49" height="48" viewBox="0 0 49 48" fill="none" xmlns="http://www.w3.org/2000/svg">
<rect x="0.714355" width="48" height="48" rx="24" fill="#F8F8F8"/>
<g clip-path="url(#clip0_1205_86368)">
<path d="M17.7144 25C17.7144 24.4696 17.9251 23.9609 18.3001 23.5858C18.6752 23.2107 19.1839 23 19.7144 23H29.7144C30.2448 23 30.7535 23.2107 31.1286 23.5858C31.5036 23.9609 31.7144 24.4696 31.7144 25V31C31.7144 31.5304 31.5036 32.0391 31.1286 32.4142C30.7535 32.7893 30.2448 33 29.7144 33H19.7144C19.1839 33 18.6752 32.7893 18.3001 32.4142C17.9251 32.0391 17.7144 31.5304 17.7144 31V25Z" stroke="#EA5148" stroke-width="1.5" stroke-linecap="round" stroke-linejoin="round"/>
<path d="M23.7144 28C23.7144 28.2652 23.8197 28.5196 24.0072 28.7071C24.1948 28.8946 24.4491 29 24.7144 29C24.9796 29 25.2339 28.8946 25.4215 28.7071C25.609 28.5196 25.7144 28.2652 25.7144 28C25.7144 27.7348 25.609 27.4804 25.4215 27.2929C25.2339 27.1054 24.9796 27 24.7144 27C24.4491 27 24.1948 27.1054 24.0072 27.2929C23.8197 27.4804 23.7144 27.7348 23.7144 28Z" stroke="#EA5148" stroke-width="1.5" stroke-linecap="round" stroke-linejoin="round"/>
<path d="M20.7144 23V19C20.7144 17.9391 21.1358 16.9217 21.8859 16.1716C22.6361 15.4214 23.6535 15 24.7144 15C25.7752 15 26.7926 15.4214 27.5428 16.1716C28.2929 16.9217 28.7144 17.9391 28.7144 19V23" stroke="#EA5148" stroke-width="1.5" stroke-linecap="round" stroke-linejoin="round"/>
</g>
<defs>
<clipPath id="clip0_1205_86368">
<rect width="24" height="24" fill="white" transform="translate(12.7144 12)"/>
</clipPath>
</defs>
</svg>
