<svg width="49" height="48" viewBox="0 0 49 48" fill="none" xmlns="http://www.w3.org/2000/svg">
<rect x="0.428711" width="48" height="48" rx="24" fill="#F8F8F8"/>
<g clip-path="url(#clip0_1205_86384)">
<path d="M27.1187 30.498C26.6107 30.708 26.2337 31.148 26.1037 31.683C25.6777 33.439 23.1797 33.439 22.7537 31.683C22.6898 31.4192 22.5645 31.1742 22.388 30.968C22.2115 30.7618 21.9888 30.6001 21.7381 30.4963C21.4873 30.3924 21.2155 30.3491 20.9449 30.3701C20.6743 30.3911 20.4125 30.4757 20.1807 30.617C18.6377 31.557 16.8707 29.791 17.8107 28.247C17.9518 28.0153 18.0363 27.7537 18.0572 27.4832C18.0781 27.2128 18.035 26.9412 17.9312 26.6906C17.8274 26.44 17.666 26.2174 17.46 26.0409C17.254 25.8645 17.0093 25.7391 16.7457 25.675C14.9897 25.249 14.9897 22.751 16.7457 22.325C17.0095 22.2611 17.2545 22.1358 17.4607 21.9593C17.6669 21.7828 17.8286 21.5601 17.9325 21.3093C18.0363 21.0586 18.0796 20.7868 18.0586 20.5162C18.0376 20.2456 17.953 19.9838 17.8117 19.752C16.8717 18.209 18.6377 16.442 20.1817 17.382C21.1817 17.99 22.4777 17.452 22.7537 16.317C23.1797 14.561 25.6777 14.561 26.1037 16.317C26.1676 16.5808 26.2929 16.8258 26.4694 17.032C26.6459 17.2382 26.8686 17.3999 27.1194 17.5037C27.3701 17.6076 27.6419 17.6509 27.9125 17.6299C28.1831 17.6089 28.445 17.5243 28.6767 17.383C30.2197 16.443 31.9867 18.209 31.0467 19.753C30.9056 19.9847 30.8212 20.2463 30.8002 20.5168C30.7793 20.7872 30.8225 21.0588 30.9262 21.3094C31.03 21.56 31.1915 21.7826 31.3974 21.9591C31.6034 22.1355 31.8481 22.2609 32.1117 22.325C32.3724 22.3825 32.6155 22.5017 32.8207 22.6726C33.0258 22.8434 33.187 23.061 33.2907 23.307" stroke="#EA5148" stroke-width="1.5" stroke-linecap="round" stroke-linejoin="round"/>
<path d="M27.3787 24.553C27.5072 23.8686 27.3936 23.1608 27.0574 22.5509C26.7212 21.9411 26.1833 21.4672 25.5359 21.2106C24.8886 20.9539 24.1721 20.9304 23.5094 21.1442C22.8466 21.3579 22.2788 21.7956 21.9034 22.3821C21.528 22.9686 21.3684 23.6674 21.4518 24.3588C21.5352 25.0501 21.8566 25.6909 22.3607 26.1713C22.8649 26.6517 23.5205 26.9417 24.2151 26.9916C24.9096 27.0416 25.6 26.8483 26.1677 26.445" stroke="#EA5148" stroke-width="1.5" stroke-linecap="round" stroke-linejoin="round"/>
<path d="M31.4287 34V34.01" stroke="#EA5148" stroke-width="1.5" stroke-linecap="round" stroke-linejoin="round"/>
<path d="M31.4287 31C31.877 30.9986 32.3119 30.8468 32.6637 30.569C33.0155 30.2911 33.264 29.9033 33.3693 29.4675C33.4746 29.0318 33.4307 28.5733 33.2445 28.1655C33.0584 27.7576 32.7409 27.424 32.3427 27.218C31.9449 27.0142 31.4898 26.951 31.0515 27.0387C30.6132 27.1264 30.2175 27.3598 29.9287 27.701" stroke="#EA5148" stroke-width="1.5" stroke-linecap="round" stroke-linejoin="round"/>
</g>
<defs>
<clipPath id="clip0_1205_86384">
<rect width="24" height="24" fill="white" transform="translate(12.4287 12)"/>
</clipPath>
</defs>
</svg>
