<svg width="128" height="140" viewBox="0 0 128 140" fill="none" xmlns="http://www.w3.org/2000/svg">
<g id="Group 25561">
<path id="Vector" d="M14.9779 53.8726C14.8147 52.4039 13.8356 51.3922 13.1503 50.2173C11.9753 48.2265 10.7352 46.2683 9.49498 44.3101C9.26652 43.9511 9.20125 43.5594 9.33179 43.1025C41.6093 43.1025 73.8867 43.1025 106.229 43.1025C106.164 43.2984 106.164 43.4615 106.099 43.6247C105.022 45.7787 103.912 47.9001 102.835 50.0215C102.313 51.0332 101.824 52.0123 101.334 53.024C101.203 53.2851 101.171 53.5789 101.073 53.9052C72.4181 53.8726 43.7306 53.8726 14.9779 53.8726Z" fill="url(#paint0_linear_1255_3001)"/>
<path id="Vector_2" d="M112.3 91.6332C111.974 92.0249 111.745 92.3512 111.451 92.7102C111.06 92.4491 110.733 92.2207 110.374 91.9922C106.915 90.0014 103.26 88.3696 99.4738 87.1294C97.6462 86.5419 95.8185 85.9218 93.9582 85.367C90.5967 84.3227 87.1699 83.5394 83.7104 82.8214C81.589 82.3645 79.4677 81.9728 77.3463 81.6465C75.3228 81.3201 73.332 81.059 71.3085 80.7979C69.6441 80.6021 67.9796 80.5042 66.3478 80.2431C63.2147 79.7536 60.0816 79.5251 56.9485 79.3293C54.4355 79.1661 51.8898 79.0355 49.3768 78.905C48.6262 78.8724 47.9082 78.7745 47.1575 79.1008C46.7006 79.2966 46.0805 79.1661 45.5257 79.1335C43.8613 79.0355 42.1968 79.0029 40.5323 78.8397C37.7909 78.546 35.0494 78.8071 32.3406 78.8071C30.1866 78.8071 28.0652 78.8397 25.9112 78.8724C24.9321 78.905 23.953 79.0029 22.9413 79.0682C22.6802 79.0682 22.4517 79.0682 22.1906 78.9703C23.3003 78.6439 24.4425 78.6765 25.5848 78.5786C26.7924 78.4807 27.9673 78.5134 29.1748 78.4807C30.3498 78.4481 31.5247 78.4155 32.6996 78.3828C33.9071 78.3502 35.1147 78.3828 36.2896 78.3502C37.4645 78.3175 38.6068 78.2849 39.847 78.2196C39.847 77.9259 39.8796 77.6322 39.8796 77.3711C39.8796 72.8999 39.8796 68.4287 39.8796 63.9901C39.8796 63.6311 39.9775 63.3374 40.1733 63.0437C41.0872 61.8035 41.0872 60.9223 40.206 59.6821C39.9775 59.3558 39.8796 59.062 39.9122 58.6704C39.9449 58.3767 39.9122 58.0829 39.8796 57.8218C39.8796 57.7239 39.847 57.626 39.7817 57.4628C33.7439 57.4628 27.7388 57.4628 21.7011 57.4628C21.7011 57.9197 21.6684 58.4093 21.7011 58.8662C21.7011 59.1926 21.6358 59.421 21.4074 59.6495C21.2768 59.7474 21.1789 59.8779 21.081 60.0085C20.363 60.9549 20.363 61.9667 21.1789 62.8479C21.5705 63.2721 21.7011 63.6964 21.6684 64.2512C21.6358 68.7551 21.6358 73.2263 21.6358 77.7301C21.6358 78.0891 21.7011 78.4481 21.7337 78.8071C21.7664 79.1661 21.6358 79.3619 21.2768 79.3619C19.9387 79.4272 18.6333 79.4598 17.2952 79.5251C16.7077 79.5577 16.0876 79.6556 15.5002 79.6883C14.7169 79.7209 14.5863 79.5904 14.5863 78.8071C14.5863 74.9886 14.5863 71.2028 14.619 67.3843C14.619 65.524 14.619 63.6638 14.619 61.8361C14.619 61.575 14.5537 61.3139 14.4231 61.1181C13.7051 60.139 13.6399 59.1599 14.2926 58.1482C14.1947 57.9198 14.0968 57.6913 14.0315 57.4628C13.9336 57.1365 13.6725 56.8101 13.9989 56.5164C14.3579 56.1574 14.6516 55.6678 15.2717 55.7005C15.5654 55.7005 15.8592 55.7331 16.1202 55.7331C43.8613 55.7331 71.6349 55.7331 99.3759 55.7331C99.7675 55.7331 100.159 55.7657 100.551 55.7005C101.138 55.6026 101.432 55.8963 101.66 56.3532C101.856 56.8101 101.889 57.267 101.465 57.626C101.399 57.6913 101.334 57.7892 101.236 57.8871C101.954 58.8988 101.889 59.9106 101.334 60.9549C101.236 61.1508 101.204 61.4119 101.204 61.6403C101.204 68.3308 101.236 75.0213 101.269 81.6791C101.269 83.2457 101.269 84.8122 101.269 86.4767C105.087 87.88 108.84 89.3813 112.3 91.6332ZM92.8812 83.931C92.9139 83.7352 92.9465 83.6373 92.9465 83.572C92.9465 77.3385 92.9465 71.1049 92.9139 64.8713C92.9139 64.0228 92.9465 63.2721 93.5013 62.5215C94.0562 61.7709 94.1214 60.7918 93.4687 60.0411C92.9139 59.3884 92.7181 58.703 92.8486 57.8871C92.8486 57.7892 92.816 57.6913 92.7833 57.4955C89.6502 57.4955 86.4845 57.5281 83.3514 57.4955C80.2183 57.4628 77.0526 57.3976 73.8215 57.3649C73.8215 57.9197 73.8215 58.344 73.8215 58.8009C73.8215 59.1599 73.7236 59.4537 73.5278 59.7474C72.6793 60.857 72.6793 61.8361 73.5278 62.9458C73.7563 63.2395 73.8215 63.5332 73.8215 63.8596C73.8215 69.1467 73.8215 74.4664 73.8215 79.7536C73.8215 79.9167 73.8542 80.1126 73.8542 80.3084C80.2836 81.1896 86.615 82.2992 92.8812 83.931ZM66.0214 57.4955C65.4013 57.1691 64.7812 57.2344 64.1938 57.267C61.7787 57.3323 59.3636 57.4628 56.9158 57.5281C54.9577 57.5607 52.9995 57.5281 51.0413 57.5281C50.0295 57.5281 49.0178 57.4628 48.0061 57.4628C47.4513 57.4628 47.386 57.5607 47.386 58.0829C47.386 58.1808 47.386 58.2787 47.4186 58.4093C47.4513 58.9641 47.4513 59.4863 47.027 59.9432C46.9291 60.0411 46.8964 60.2043 46.7985 60.3675C46.2437 61.3466 46.3743 62.2604 47.1249 63.1089C47.386 63.4027 47.4513 63.6964 47.4186 64.0228C47.4186 68.6572 47.386 73.3242 47.386 77.9585C47.386 78.0891 47.4186 78.2523 47.4513 78.3502C49.5726 78.4481 51.5961 78.5786 53.6522 78.6765C55.7083 78.7745 57.7644 78.8724 59.8205 78.9376C61.8766 79.0355 63.9001 79.3619 65.9562 79.4272C65.9562 79.1987 65.9888 79.0682 65.9888 78.9376C65.9888 74.3359 65.9888 69.7668 65.9562 65.165C65.9562 64.186 65.9562 63.2395 66.6089 62.3583C67.1311 61.6077 67.1311 60.6612 66.4783 59.9758C65.9888 59.4537 65.9235 58.8988 65.9888 58.2788C65.9888 57.985 65.9888 57.7566 66.0214 57.4955Z" fill="url(#paint1_linear_1255_3001)"/>
<path id="Vector_3" d="M15.1738 20.9092C43.8612 20.9092 72.4182 20.9092 101.008 20.9092C100.975 21.105 100.975 21.2682 100.942 21.3987C100.616 22.2799 100.257 23.1611 99.9307 24.0096C99.6696 24.695 99.7675 25.413 99.7675 26.0984C99.7675 28.3829 99.8328 30.7001 99.8654 32.9847C99.8981 33.9638 99.9307 34.9102 99.9633 35.8893C99.9633 36.1504 99.9307 36.4115 99.9307 36.6726C72.1244 36.6726 44.3508 36.6726 16.5445 36.6726C16.5119 36.3789 16.4466 36.1504 16.4466 35.922C16.4466 32.2014 16.4792 28.4808 16.4792 24.7603C16.4792 24.336 16.2508 23.9117 16.1202 23.4875C15.7939 22.6389 15.5001 21.823 15.1738 20.9092ZM19.9387 27.2407C19.9061 29.7537 19.8734 32.1688 19.8734 34.5839C19.8734 34.8776 20.0366 35.0081 20.3303 34.9755C20.7872 34.9755 21.2768 34.9429 21.7337 34.9429C27.2819 34.9429 32.8627 34.9429 38.4109 34.9429C45.0361 34.9429 51.6614 34.9429 58.2866 34.9429C65.4339 34.9429 72.5813 34.9429 79.7287 34.9429C84.3957 34.9429 89.0628 34.9755 93.7298 34.9755C94.252 34.9755 94.3172 34.9102 94.3172 34.388C94.3172 32.1361 94.3172 29.8842 94.3172 27.6649C94.3172 27.5344 94.252 27.3712 94.2193 27.208C69.4809 27.2407 44.7424 27.2407 19.9387 27.2407Z" fill="url(#paint2_linear_1255_3001)"/>
<path id="Vector_4" d="M54.1744 11.1185C54.3049 9.74782 54.4028 8.47499 54.566 7.16953C54.7945 5.34189 55.1208 3.54689 56.002 1.91506C56.4263 1.13179 57.0138 0.44642 57.8623 0.0874191C58.2539 -0.0757632 58.5477 -0.0104903 58.8414 0.283238C59.7552 1.16442 60.4732 2.17615 60.9954 3.35107C61.6808 4.88498 62.1051 6.48417 62.1051 8.18126C62.1051 9.06245 62.1051 9.94363 62.1051 10.8575C62.6599 10.9227 63.1494 10.988 63.639 11.0533C67.0332 11.4775 70.4274 11.9018 73.8216 12.2935C77.1505 12.6851 80.512 13.0441 83.8409 13.4357C87.0067 13.7947 90.1724 14.1864 93.3382 14.5454C93.7298 14.578 94.1214 14.6759 94.5131 14.7086C95.0026 14.7412 95.1005 14.6759 95.1658 14.1537C95.2637 13.3705 95.2963 12.5872 95.4269 11.8365C95.6553 10.5637 96.0144 9.2909 96.6671 8.14863C97.1566 7.26744 97.842 6.64735 98.7558 6.22308C98.8537 6.19044 98.9516 6.19044 99.1475 6.12517C99.2127 7.59381 99.1801 8.99718 99.1801 10.4332C99.1801 11.8692 99.1801 13.3052 99.1801 14.7412C99.1801 16.1772 99.1801 17.5806 99.1801 19.0492C71.8634 19.0492 44.6772 19.0492 17.491 19.0492C17.4584 19.0166 17.4584 19.0166 17.4257 18.9839C17.3931 18.9513 17.3931 18.9513 17.3604 18.9187C17.3278 18.7881 17.3278 18.6576 17.3278 18.527C17.3278 14.4148 17.3278 10.3353 17.3604 6.22308C17.3604 6.19044 17.4257 6.12517 17.4584 6.02726C18.2743 5.99462 18.9923 6.32099 19.645 6.84317C20.4609 7.46326 20.9505 8.31181 21.2442 9.2909C21.6358 10.5637 21.7664 11.8365 21.7337 13.142C21.7337 13.3378 21.7337 13.5663 21.7337 13.7621C21.7337 13.7947 21.799 13.86 21.8316 13.9253C32.6017 13.0115 43.4043 12.065 54.1744 11.1185Z" fill="url(#paint3_linear_1255_3001)"/>
<path id="Vector_5" d="M4.53421 97.7362C5.02376 97.7362 5.48067 97.7362 5.90494 97.7362C10.2782 97.7362 14.6189 97.7035 18.9922 97.7362C20.8851 97.7688 22.8106 97.8667 24.7036 98.0299C26.9881 98.2584 29.0442 99.1069 30.6108 100.902C31.394 101.816 31.9162 102.893 32.3078 104.035C32.8627 105.699 32.9606 107.429 32.6669 109.094C32.1447 112.488 30.2191 114.903 26.9228 116.078C25.9764 116.437 24.9646 116.665 23.9529 116.959C23.9529 117.253 24.2466 117.318 24.4751 117.449C25.65 118.199 26.7923 118.983 27.6408 120.092C28.4567 121.137 29.24 122.214 29.9907 123.291C31.035 124.857 32.0468 126.489 33.0585 128.088C33.8744 129.394 34.6577 130.699 35.4736 132.07C35.3104 132.102 35.1799 132.168 35.0493 132.168C32.6669 132.168 30.2844 132.135 27.9346 132.168C27.3797 132.168 27.086 131.972 26.7923 131.548C25.291 129.296 23.8224 127.076 22.2885 124.857C21.2114 123.291 20.1344 121.724 18.9922 120.19C18.3394 119.309 17.5235 118.558 16.4465 118.199C16.0549 118.069 15.6632 117.971 15.239 117.938C14.0314 117.84 12.7912 117.775 11.4858 117.71C11.3879 119.374 11.4531 120.941 11.4531 122.54C11.4531 124.139 11.4531 125.738 11.4531 127.305C11.4531 128.904 11.4531 130.471 11.4531 132.135C9.13595 132.135 6.8514 132.135 4.50157 132.135C4.53421 120.68 4.53421 109.257 4.53421 97.7362ZM11.5184 112.194C11.6816 112.227 11.7469 112.259 11.8448 112.259C13.6071 112.259 15.4022 112.259 17.1645 112.227C18.6658 112.194 20.1997 112.162 21.701 112.064C23.0717 111.998 24.1814 111.411 24.9973 110.269C25.4216 109.648 25.5521 108.898 25.5847 108.18C25.7153 105.699 24.5404 103.872 21.7336 103.676C20.1344 103.545 18.5026 103.611 16.9034 103.578C15.2716 103.545 13.6071 103.545 11.9753 103.513C11.8448 103.513 11.7142 103.545 11.5511 103.578C11.5184 106.45 11.5184 109.322 11.5184 112.194Z" fill="#C42C2C"/>
<path id="Vector_6" d="M100.649 39.7409C102.607 39.7409 104.598 39.7409 106.686 39.7409C106.752 40.6547 106.686 41.5359 106.719 42.515C74.2131 42.515 41.7725 42.515 9.29919 42.4823C9.29919 41.6012 9.29919 40.7852 9.29919 39.9367C9.49501 39.9041 9.6582 39.8714 9.82138 39.8714C11.5837 39.8714 13.3788 39.9041 15.1411 39.9041C15.6307 39.9041 15.6959 39.8388 15.7286 39.3166C15.7612 38.7618 15.8265 38.2396 15.8918 37.6848C15.957 37.2931 16.2181 37.1626 16.6424 37.1952C20.8851 37.2279 25.1605 37.2279 29.4033 37.2279C35.8653 37.2279 42.2947 37.2279 48.7567 37.2279C62.7251 37.2279 76.6935 37.2605 90.6619 37.2605C93.5992 37.2605 96.5691 37.2931 99.5064 37.2605C99.9633 37.2605 100.224 37.3911 100.29 37.8153C100.453 38.4028 100.551 39.0229 100.649 39.7409Z" fill="url(#paint4_linear_1255_3001)"/>
<path id="Vector_7" d="M59.9836 132.168C59.6246 132.168 59.3309 132.168 59.0045 132.168C57.3727 132.168 55.7083 132.168 54.0764 132.168C53.6195 132.168 53.3911 132.037 53.2931 131.613C53.1626 131.058 52.9994 130.503 52.8362 129.948C52.8036 129.818 52.7383 129.687 52.6404 129.459C52.412 129.655 52.2488 129.785 52.0856 129.948C49.442 132.298 46.3742 133.114 42.9148 132.559C41.1197 132.266 39.5858 131.548 38.3783 130.177C37.3013 128.969 36.7138 127.533 36.6485 125.901C36.6159 124.857 36.6812 123.845 37.0076 122.834C37.6929 120.908 38.9984 119.603 40.826 118.819C42.4905 118.101 44.2528 117.808 46.0152 117.416C47.8429 117.024 49.6705 116.535 51.4655 116.111C51.694 116.045 51.8898 115.915 52.0856 115.849C52.2161 115.033 52.1182 114.283 51.8898 113.565C51.6287 112.684 50.976 112.161 50.1274 111.998C49.2136 111.802 48.2998 111.672 47.3533 111.705C45.5909 111.77 44.3181 112.488 43.6001 114.12C43.5022 114.348 43.3717 114.577 43.2411 114.805C42.1967 114.642 41.185 114.511 40.1733 114.25C39.2268 114.022 38.1825 114.087 37.236 113.597C37.7582 112.455 38.1498 111.378 38.8352 110.399C40.0101 108.669 41.6419 107.658 43.6328 107.135C46.0152 106.515 48.4303 106.581 50.8454 106.776C51.8898 106.842 52.9015 107.005 53.9132 107.364C55.0882 107.788 56.1978 108.376 57.079 109.322C57.6664 109.942 58.0254 110.725 58.2539 111.574C58.9393 114.087 58.6782 116.633 58.7108 119.178C58.7434 121.724 58.7108 124.237 58.7108 126.783C58.7108 127.99 58.874 129.165 59.3309 130.275C59.5267 130.764 59.7225 131.221 59.9184 131.711C59.9184 131.809 59.9184 131.972 59.9836 132.168ZM52.1182 120.223C51.7919 120.255 51.5634 120.255 51.3676 120.321C50.5517 120.549 49.7358 120.778 48.9199 121.006C47.7123 121.332 46.5048 121.593 45.2972 121.952C44.3508 122.214 43.6001 122.834 43.339 123.78C42.7842 125.608 44.0897 127.566 45.9826 127.958C47.1249 128.186 48.1692 127.99 49.1483 127.533C50.3885 126.978 51.4002 126.097 51.8245 124.727C52.2814 123.323 52.0856 121.822 52.1182 120.223Z" fill="#C42C2C"/>
<path id="Vector_8" d="M85.9623 132.167C84.2652 132.167 82.6986 132.167 81.1321 132.167C80.6752 132.167 80.2509 132.167 79.794 132.167C79.4676 132.167 79.2718 132.037 79.1739 131.71C79.0433 131.09 78.8475 130.503 78.6843 129.915C78.6517 129.785 78.5864 129.687 78.4885 129.524C78.0642 129.883 77.6726 130.209 77.2483 130.503C76.6282 130.927 76.0408 131.416 75.3554 131.743C73.3972 132.657 71.3085 132.983 69.1219 132.689C68.4691 132.591 67.7838 132.428 67.1637 132.2C64.8138 131.351 63.2146 129.719 62.6598 127.272C62.0397 124.595 62.5293 122.148 64.618 120.19C65.5318 119.341 66.6415 118.819 67.8164 118.46C69.7093 117.872 71.6675 117.546 73.593 117.154C74.8659 116.893 76.1061 116.502 77.3789 116.143C78.0316 115.947 78.0969 115.881 77.999 115.196C77.9663 114.772 77.8684 114.38 77.7705 113.956C77.5747 112.846 76.8893 112.194 75.8123 111.998C74.4416 111.737 73.1035 111.508 71.7328 111.965C71.0474 112.194 70.4273 112.455 70.0357 113.107C69.7746 113.532 69.4156 113.923 69.285 114.445C69.1871 114.804 68.9587 114.902 68.567 114.772C68.0448 114.609 67.49 114.609 66.9678 114.511C65.8256 114.315 64.6506 114.119 63.5084 113.891C63.3778 113.858 63.2799 113.76 63.182 113.727C64.0958 110.137 66.2498 107.951 69.4808 107.168C71.9612 106.58 74.5069 106.645 77.0199 106.841C79.076 107.004 80.9363 107.657 82.5028 108.995C83.4166 109.778 83.9062 110.855 84.1346 112.03C84.3305 113.009 84.4284 113.956 84.3957 114.968C84.3631 115.784 84.5263 116.632 84.5263 117.448C84.5263 118.231 84.4284 119.047 84.3957 119.831C84.3631 120.255 84.3957 120.712 84.3957 121.136C84.4284 122.148 84.4284 123.192 84.461 124.204C84.461 124.628 84.4936 125.085 84.461 125.509C84.4284 127.761 84.7874 129.98 85.9623 132.167ZM77.9011 120.19C77.2483 120.385 76.5956 120.581 75.9755 120.744C74.409 121.136 72.8098 121.495 71.2432 121.952C70.2315 122.246 69.4808 122.931 69.2198 123.943C68.8281 125.444 69.644 127.011 71.08 127.696C72.4834 128.381 73.8868 128.153 75.1922 127.5C76.3998 126.913 77.4115 126.064 77.7379 124.693C78.0642 123.29 78.0642 121.854 78.0642 120.418C78.0316 120.353 77.9663 120.287 77.9011 120.19Z" fill="#C42C2C"/>
<path id="Vector_9" d="M110.276 113.075C109.82 113.369 105.414 114.25 104.01 114.315C103.945 114.184 103.814 114.021 103.749 113.858C103.227 112.292 101.987 111.639 100.485 111.476C99.18 111.345 97.8746 111.312 96.6018 111.639C96.1448 111.769 95.6553 111.965 95.2963 112.292C94.4477 113.042 94.5783 114.184 95.6227 114.641C96.667 115.131 97.8093 115.523 98.9189 115.784C101.53 116.436 104.141 116.926 106.621 117.97C107.698 118.427 108.743 118.982 109.526 119.896C110.407 120.842 110.897 121.985 110.929 123.29C110.962 123.91 110.897 124.53 110.929 125.15C110.994 126.064 110.603 126.88 110.211 127.663C109.363 129.262 108.09 130.503 106.491 131.319C105.348 131.873 104.141 132.232 102.868 132.396C101.204 132.624 99.5064 132.755 97.8093 132.559C95.8511 132.33 93.9582 132.004 92.2285 130.992C90.0418 129.719 88.6058 127.826 87.7899 125.444C87.7573 125.313 87.7246 125.15 87.692 124.954C89.8786 124.628 92.0327 124.269 94.2519 123.943C94.3498 124.139 94.4804 124.432 94.5783 124.693C95.1005 126.358 96.2428 127.402 97.9399 127.696C99.3106 127.957 100.681 127.924 102.052 127.598C102.868 127.402 103.553 127.011 104.043 126.325C104.826 125.248 104.271 123.845 103.162 123.518C102.085 123.225 101.008 122.931 99.9307 122.67C97.3198 122.017 94.7088 121.462 92.2611 120.255C89.6176 118.949 88.3121 116.306 88.6385 113.434C88.8669 111.378 89.8134 109.779 91.4126 108.538C92.5548 107.657 93.8929 107.135 95.3289 106.874C97.385 106.482 99.4738 106.515 101.563 106.645C102.672 106.711 103.717 106.939 104.761 107.266C106.752 107.886 108.318 109.093 109.265 110.986C109.656 111.737 109.983 112.422 110.276 113.075Z" fill="#C42C2C"/>
<path id="Vector_10" d="M122.809 98.3555C123.005 99.3998 122.809 100.314 122.842 101.227C122.907 102.174 122.842 103.153 122.842 104.099C122.842 105.046 122.842 105.992 122.842 107.069C122.972 107.102 123.168 107.2 123.364 107.2C124.375 107.2 125.387 107.167 126.432 107.2C126.725 107.2 127.052 107.265 127.443 107.298C127.443 108.179 127.443 108.995 127.443 109.844C127.443 110.692 127.443 111.508 127.443 112.389C127.247 112.422 127.084 112.487 126.921 112.487C125.811 112.487 124.669 112.487 123.56 112.487C123.331 112.487 123.07 112.552 122.874 112.585C122.874 114.217 122.874 115.751 122.874 117.317C122.874 118.623 122.907 119.928 122.907 121.234C122.907 122.05 122.874 122.898 122.907 123.714C122.939 124.399 122.972 125.117 123.07 125.803C123.201 126.717 123.788 127.206 124.702 127.239C125.452 127.271 126.138 127.043 126.823 126.814C127.019 126.749 127.215 126.717 127.411 126.651C127.541 127.859 127.639 128.968 127.77 130.045C127.802 130.47 127.9 130.894 127.965 131.351C127.998 131.71 127.835 131.906 127.509 131.971C125.224 132.656 122.939 133.081 120.59 132.493C119.154 132.134 117.815 131.547 117.097 130.111C116.641 129.23 116.477 128.283 116.412 127.337C116.314 126.194 116.282 125.052 116.282 123.91C116.282 120.32 116.282 116.697 116.282 113.107C116.282 112.944 116.249 112.748 116.249 112.52C115.596 112.52 115.009 112.52 114.389 112.52C114.193 112.52 113.964 112.52 113.769 112.52C113.312 112.487 113.246 112.389 113.246 111.932C113.279 110.888 113.279 109.844 113.312 108.799C113.312 108.342 113.312 107.853 113.312 107.298C114.225 107.2 115.205 107.265 116.249 107.233C116.282 107.004 116.314 106.808 116.314 106.613C116.314 105.34 116.314 104.067 116.314 102.761C116.314 102.37 116.412 102.141 116.771 101.945C118.37 101.064 119.937 100.118 121.503 99.204C121.797 98.9756 122.221 98.7145 122.809 98.3555Z" fill="#C42C2C"/>
<path id="Vector_11" d="M37.2034 71.5612C32.928 71.5612 28.7505 71.5612 24.4752 71.5612C24.4752 69.603 24.4752 67.6122 24.4752 65.6213C24.6057 65.5887 24.7363 65.5561 24.8994 65.5561C28.62 65.5561 32.3732 65.5887 36.0937 65.5887C36.4201 65.5887 36.7465 65.5561 37.2034 65.5234C37.2034 67.5143 37.2034 69.5051 37.2034 71.5612Z" fill="url(#paint5_linear_1255_3001)"/>
<path id="Vector_12" d="M103.227 101.293C102.901 101.685 102.672 102.011 102.444 102.305C101.04 101.554 99.7674 100.771 98.3967 100.151C96.2754 99.1719 94.0887 98.258 91.9021 97.4421C87.9204 95.9735 83.8082 94.8312 79.696 93.8195C76.1713 92.9709 72.6139 92.3508 69.0565 91.6655C67.0657 91.2738 65.0422 91.0454 63.0188 90.8169C60.212 90.4906 57.4053 90.1968 54.6312 89.8705C50.7148 89.3809 46.7658 89.2504 42.8494 89.0546C40.5975 88.9566 38.313 88.8914 36.061 88.8261C33.0259 88.7608 30.0233 88.6956 26.9881 88.6956C23.8876 88.6956 20.7872 88.7608 17.6867 88.8261C15.7938 88.8914 13.9009 89.0219 11.9753 89.1198C11.0289 89.1525 10.1151 89.1198 9.16859 89.1525C8.74432 89.1525 8.35268 89.1851 7.92841 89.1198C8.45059 89.0546 8.97277 88.9566 9.49496 88.924C11.4205 88.8261 13.3461 88.6956 15.2716 88.6303C17.7846 88.5324 20.3303 88.4997 22.8433 88.4345C26.2701 88.3692 29.6643 88.206 33.0911 88.2386C36.8443 88.2713 40.5975 88.4018 44.3507 88.5324C47.5817 88.6629 50.8127 88.8914 54.0437 89.1198C56.3936 89.283 58.7108 89.4788 61.0606 89.7399C63.1167 89.9684 65.1401 90.2621 67.1962 90.5558C69.5461 90.9148 71.8959 91.2086 74.2131 91.6655C77.1177 92.2203 79.9897 92.873 82.8291 93.5258C85.7664 94.1785 88.6384 95.0597 91.4778 95.9735C92.6853 96.3651 93.8929 96.822 95.0678 97.279C97.2544 98.1275 99.4084 99.074 101.465 100.216C102.019 100.543 102.574 100.902 103.227 101.293Z" fill="url(#paint6_linear_1255_3001)"/>
<path id="Vector_13" d="M107.078 96.1369C106.817 96.4959 106.556 96.8223 106.262 97.1813C105.805 96.8875 105.381 96.6264 104.957 96.398C102.183 94.8314 99.2779 93.5586 96.2753 92.449C92.6527 91.1109 88.9648 90.0012 85.2116 89.0548C81.4584 88.1083 77.7052 87.2924 73.8867 86.7049C70.6883 86.2154 67.49 85.6932 64.2916 85.2689C61.8439 84.9426 59.3635 84.7468 56.8831 84.5509C53.3584 84.2572 49.801 84.0288 46.2763 83.8003C43.8612 83.6698 41.4461 83.6371 38.9983 83.5718C36.3548 83.5066 33.6786 83.4739 31.035 83.5066C27.8693 83.5066 24.7036 83.5392 21.5705 83.6045C19.4164 83.6698 17.2624 83.8003 15.0758 83.8982C14.2272 83.9308 13.3787 83.9308 12.4975 83.9635C12.4975 83.8982 12.4975 83.8329 12.4975 83.7677C13.2808 83.7677 14.0641 83.8003 14.8473 83.7677C15.4022 83.735 15.9896 83.6045 16.5444 83.5718C19.188 83.4739 21.7989 83.376 24.4425 83.3108C27.6082 83.2455 30.7413 83.1476 33.907 83.1476C37.1381 83.1149 40.3691 83.1476 43.6001 83.2128C46.3089 83.2781 49.0177 83.4413 51.7266 83.6045C55.1207 83.8003 58.5476 84.0288 61.9418 84.3225C63.9326 84.4857 65.9234 84.7794 67.9142 85.0405C69.9051 85.3016 71.8959 85.53 73.8867 85.8564C76.3018 86.248 78.7169 86.7049 81.0994 87.1619C82.7638 87.4882 84.4283 87.8146 86.0601 88.2389C90.3681 89.3159 94.6109 90.5234 98.7557 92.1552C101.399 93.1996 104.01 94.3419 106.458 95.8105C106.686 95.8432 106.85 95.9737 107.078 96.1369Z" fill="url(#paint7_linear_1255_3001)"/>
<path id="Vector_14" d="M101.138 54.3623C101.106 54.6887 101.106 54.9171 101.106 55.1782C100.877 55.2109 100.714 55.2435 100.551 55.2435C86.256 55.2435 71.9286 55.2435 57.6338 55.2435C44.1223 55.2435 30.5782 55.2435 17.0667 55.2435C16.5771 55.2435 16.0876 55.2435 15.5654 55.2435C14.978 55.2435 14.88 55.1129 15.0106 54.3949C43.6654 54.3623 72.3529 54.3623 101.138 54.3623Z" fill="url(#paint8_linear_1255_3001)"/>
<path id="Vector_15" d="M15.0105 19.7342C15.2064 19.7016 15.3695 19.6689 15.5654 19.6689C43.1432 19.6689 70.721 19.6689 98.2662 19.6689C99.1147 19.6689 99.9959 19.6689 100.844 19.6689C101.334 19.6689 101.334 19.7016 101.367 20.289C101.269 20.3217 101.171 20.3543 101.073 20.3543C90.8251 20.3543 80.6099 20.3217 70.362 20.3217C52.5425 20.3217 34.7556 20.3217 16.9361 20.3217C16.4139 20.3217 15.8917 20.3217 15.3695 20.3543C14.9453 20.3869 14.9453 20.1259 15.0105 19.7342Z" fill="url(#paint9_linear_1255_3001)"/>
<path id="Vector_16" d="M0.0304718 138.728C0.520019 138.728 0.911656 138.728 1.36857 138.728C1.36857 139.152 1.36857 139.543 1.36857 140C0.911656 140 0.520019 140 0.0304718 140C0.0304718 139.576 0.0304718 139.184 0.0304718 138.728Z" fill="#095434"/>
<path id="Vector_17" d="M89.7154 71.5613C85.4074 71.5613 81.23 71.5613 76.9872 71.5613C76.9872 69.5705 76.9872 67.6123 76.9872 65.5889C81.23 65.5889 85.4401 65.5889 89.7154 65.5889C89.7154 67.5471 89.7154 69.5379 89.7154 71.5613Z" fill="url(#paint10_linear_1255_3001)"/>
<path id="Vector_18" d="M62.9862 65.5889C62.9862 67.6123 62.9862 69.5052 62.9862 71.5613C61.6155 71.6919 60.2447 71.594 58.8414 71.594C57.438 71.6266 56.0346 71.594 54.5986 71.594C53.1952 71.594 51.7919 71.594 50.3232 71.594C50.3232 69.6032 50.3232 67.645 50.3232 65.5889C52.412 65.5889 54.5333 65.5889 56.6221 65.5889C58.7434 65.5889 60.8322 65.5889 62.9862 65.5889Z" fill="url(#paint11_linear_1255_3001)"/>
<path id="Vector_19" d="M42.8822 31.3858C42.9474 31.4837 43.0127 31.549 43.0453 31.6469C43.6002 32.5607 43.1432 33.4745 42.0989 33.5724C41.5441 33.6051 41.0219 33.5724 40.4018 33.5724C40.4018 32.2017 40.4018 30.8636 40.4018 29.4929C41.0219 29.4929 41.642 29.4276 42.2294 29.4929C43.1432 29.6234 43.437 30.3414 42.9801 31.1573C42.9474 31.2226 42.9148 31.3205 42.8822 31.3858ZM41.1198 31.7774C41.1524 32.1691 41.0871 32.5281 41.2503 32.7239C41.3809 32.8871 41.7725 32.8544 42.0336 32.8218C42.2947 32.7892 42.4905 32.5933 42.4905 32.267C42.4579 31.9733 42.2947 31.7774 42.001 31.7774C41.7725 31.7774 41.5441 31.7774 41.1198 31.7774ZM41.7072 31.1247C42.1641 31.1247 42.3926 30.9615 42.4252 30.6678C42.4579 30.3414 42.1968 30.1782 41.7072 30.1782C41.283 30.1782 41.1524 30.3088 41.1524 30.6678C41.1524 31.0268 41.3809 31.1573 41.7072 31.1247Z" fill="#095434"/>
<path id="Vector_20" d="M87.8226 29.526C88.8017 29.3628 88.8017 29.3628 89.128 30.0482C89.3565 30.5051 89.5523 30.9946 89.7808 31.4516C89.8787 31.6474 89.9766 31.8106 90.1071 32.0064C90.1724 31.9737 90.2051 31.9737 90.2703 31.9411C90.2703 31.1252 90.2703 30.3419 90.2703 29.4607C90.4988 29.4607 90.6946 29.4607 90.9557 29.4607C90.9557 30.8315 90.9557 32.1696 90.9557 33.5077C90.0745 33.6056 90.0745 33.6056 89.7481 32.9528C89.5197 32.4306 89.2912 31.9085 89.0628 31.3863C88.9649 31.1905 88.867 31.0273 88.7364 30.7988C88.41 31.2884 88.6711 31.7126 88.6385 32.1369C88.6059 32.5612 88.6385 33.0181 88.6385 33.4424C88.0184 33.6382 87.8879 33.5729 87.8879 33.0507C87.8226 31.9085 87.8226 30.7336 87.8226 29.526Z" fill="#095434"/>
<path id="Vector_21" d="M50.0948 31.9732C50.0948 31.1573 50.0948 30.3414 50.0948 29.4928C50.3233 29.4928 50.5191 29.4928 50.7802 29.4928C50.7802 30.8309 50.7802 32.169 50.7802 33.4745C49.9969 33.7356 49.8663 33.703 49.54 33.0176C49.2136 32.2996 48.8872 31.5489 48.5282 30.7657C48.2019 31.2552 48.3977 31.7448 48.3651 32.169C48.3324 32.6259 48.3651 33.0829 48.3651 33.5724C47.9734 33.6703 47.6471 33.6703 47.6471 33.2134C47.6144 32.0059 47.6471 30.7657 47.6471 29.5581C48.5935 29.3297 48.6262 29.3623 48.9525 30.1129C49.181 30.6025 49.3768 31.1247 49.6379 31.6142C49.7032 31.7774 49.8337 31.9079 49.9316 32.0385C49.9969 32.0385 50.0622 32.0059 50.0948 31.9732Z" fill="#095434"/>
<path id="Vector_22" d="M56.9484 31.353C56.9484 31.3204 56.9484 31.1572 56.9811 30.9614C57.1116 30.1128 57.7317 29.4927 58.515 29.4275C59.2982 29.3622 60.0489 29.7865 60.31 30.6024C60.5058 31.2225 60.5384 31.8752 60.2447 32.4953C59.8857 33.3112 59.1024 33.7355 58.2865 33.5723C57.6012 33.4417 57.0137 32.7564 56.9158 31.9405C56.9158 31.8426 56.9484 31.6794 56.9484 31.353ZM59.592 31.5488C59.5593 31.3204 59.5267 31.1246 59.4614 30.9287C59.3635 30.5045 59.0372 30.2107 58.6782 30.1781C58.2539 30.1455 57.9928 30.4065 57.8296 30.7329C57.6012 31.2551 57.6012 31.7773 57.8296 32.2995C57.9928 32.6585 58.2539 32.8869 58.6782 32.8543C59.0698 32.8543 59.3309 32.5932 59.4614 32.1036C59.5593 31.9405 59.5593 31.7446 59.592 31.5488Z" fill="#095434"/>
<path id="Vector_23" d="M52.7384 29.5251C52.7057 30.0799 52.6731 30.5042 52.6404 31.0917C52.8689 30.9611 52.9994 30.8959 53.0974 30.7979C53.2932 30.5368 53.5216 30.2431 53.6848 29.982C53.9785 29.4925 54.4028 29.3293 54.9903 29.5251C54.6965 30.2105 54.0112 30.5695 53.5869 31.2222C54.0764 31.9729 54.566 32.7235 55.0555 33.4741C54.3375 33.7679 54.1417 33.7026 53.8154 33.1478C53.6195 32.8214 53.489 32.495 53.2932 32.2013C53.2279 32.1034 53.0647 32.0055 52.9668 31.9402C52.8689 32.0708 52.7383 32.2013 52.7057 32.3645C52.6731 32.5603 52.7057 32.7888 52.7057 32.9846C52.7383 33.67 52.7057 33.7026 51.8898 33.572C51.8898 32.2666 51.8898 30.9611 51.8898 29.5578C52.1509 29.5251 52.3793 29.5251 52.7384 29.5251Z" fill="#095434"/>
<path id="Vector_24" d="M37.8887 30.9944C37.8887 31.3534 37.8561 31.5819 37.8561 31.8756C37.3665 31.843 37.0075 31.8104 36.6159 31.7777C36.2895 31.7451 36.159 31.9409 36.1264 32.2346C36.1264 32.561 36.1916 32.8221 36.5833 32.8221C36.9096 32.8221 37.2034 32.8221 37.5297 32.7568C37.7908 32.7242 38.0193 32.7242 38.0519 33.0505C38.0845 33.3769 37.9214 33.5727 37.5624 33.6054C36.877 33.6054 36.2243 33.6054 35.4736 33.6054C35.4736 32.202 35.4736 30.8639 35.4736 29.4932C36.2895 29.4932 37.1055 29.4932 37.9214 29.4932C37.954 29.5911 38.0193 29.6563 38.0193 29.7216C38.0193 29.8848 37.9866 30.0153 37.9866 30.1785C37.8887 30.2112 37.8235 30.2764 37.7255 30.2764C37.3665 30.2764 37.0075 30.2438 36.6159 30.2112C36.2895 30.2112 36.159 30.3743 36.159 30.7007C36.159 30.9944 36.3548 31.125 36.6159 31.125C36.9423 31.0924 37.3339 31.0271 37.8887 30.9944Z" fill="#095434"/>
<path id="Vector_25" d="M25.5522 30.6029C25.1605 30.7334 24.8668 30.7008 24.6057 30.4071C24.2141 29.9828 24.0835 30.0481 23.5287 30.5702C23.7572 30.7334 23.953 30.8966 24.1814 31.0272C24.3773 31.1251 24.6383 31.1577 24.8342 31.2556C25.4216 31.4841 25.6501 31.8431 25.6501 32.4305C25.6501 32.9527 25.389 33.3117 24.8342 33.5402C23.8877 33.8992 23.0392 33.5075 22.6802 32.4632C22.9739 32.1694 23.2676 32.2673 23.5613 32.4958C23.6919 32.6263 23.7898 32.7895 23.953 32.8874C24.2467 33.0833 24.7036 32.9201 24.8015 32.6263C24.8994 32.3979 24.7363 32.1042 24.4099 31.9736C24.1162 31.8757 23.8224 31.8104 23.5287 31.6799C22.9739 31.4188 22.7128 30.9292 22.7781 30.4397C22.876 29.9175 23.3655 29.4932 23.9203 29.428C24.8342 29.3627 25.2911 29.6891 25.5522 30.6029Z" fill="#095434"/>
<path id="Vector_26" d="M72.9403 33.5397C72.9403 32.169 72.9403 30.8636 72.9403 29.4928C73.1688 29.4928 73.3972 29.4928 73.6583 29.4928C73.6583 30.0476 73.6583 30.5698 73.6583 31.1899C74.2131 30.8309 74.4742 30.3414 74.768 29.8845C75.0943 29.4276 75.486 29.3623 76.0734 29.5255C75.5839 30.1129 75.127 30.6025 74.6374 31.1573C75.127 31.9406 75.5839 32.6912 76.0734 33.4418C75.2902 33.6377 75.1596 33.605 74.8006 33.0176C74.5721 32.5933 74.409 32.1364 73.9847 31.81C73.4951 32.1037 73.6583 32.5607 73.6583 32.9523C73.691 33.605 73.691 33.605 72.9403 33.5397Z" fill="#095434"/>
<path id="Vector_27" d="M80.7404 30.5372C80.3488 30.7003 80.0877 30.733 79.8266 30.4719C79.7287 30.374 79.6635 30.2761 79.5655 30.2108C79.3044 30.0476 78.9128 30.1455 78.8149 30.374C78.6843 30.7003 78.9128 30.8635 79.1413 30.9614C79.435 31.092 79.7287 31.1246 80.0225 31.2552C80.5773 31.4836 80.871 31.8426 80.8384 32.3648C80.8057 32.9196 80.5446 33.2786 80.0225 33.5071C79.076 33.8987 78.1948 33.5071 77.8358 32.4301C78.1948 32.2343 78.4885 32.2669 78.7823 32.5933C78.8802 32.7238 79.0434 32.8544 79.2065 32.9196C79.5003 33.0502 79.7614 32.9196 79.9572 32.6585C80.0877 32.4301 79.9572 32.1364 79.5982 31.9732C79.3044 31.8426 78.9781 31.81 78.717 31.6794C78.0969 31.4183 77.8684 30.9288 78.0316 30.2761C78.1295 29.8192 78.4559 29.5581 78.8802 29.4602C79.4676 29.3296 80.0224 29.3622 80.4467 29.8844C80.5773 30.0803 80.6425 30.3087 80.7404 30.5372Z" fill="#095434"/>
<path id="Vector_28" d="M43.6328 33.5072C44.057 32.1691 44.4487 30.8963 44.8729 29.4929C45.0688 29.4929 45.3298 29.4277 45.5583 29.4603C45.6888 29.4929 45.8847 29.6235 45.9499 29.7867C46.3416 30.9616 46.7332 32.1691 47.0922 33.3441C47.0922 33.3767 47.0596 33.442 47.0596 33.5399C46.8311 33.5399 46.6027 33.5399 46.3416 33.5399C46.2763 33.4093 46.211 33.3114 46.1784 33.1809C46.0805 32.724 45.8194 32.5608 45.3625 32.5608C44.8729 32.5608 44.6771 32.724 44.5466 33.1809C44.416 33.6704 44.3508 33.6378 43.6328 33.5072ZM44.8403 31.8754C45.2319 31.8754 45.493 31.8754 45.8847 31.8754C45.7215 31.3532 45.5909 30.9616 45.4278 30.5373C45.3625 30.5373 45.2972 30.5373 45.2319 30.5373C45.134 30.929 45.0035 31.3206 44.8403 31.8754Z" fill="#095434"/>
<path id="Vector_29" d="M32.1447 33.5072C31.4593 33.6704 31.3614 33.6704 31.2309 33.2461C31.1004 32.6587 30.7413 32.4955 30.2192 32.5934C30.0886 32.626 29.9581 32.626 29.8602 32.626C29.6643 32.985 29.5012 33.3114 29.2401 33.6051C29.1748 33.7031 28.8811 33.6051 28.62 33.5725C29.0443 32.1691 29.4359 30.8637 29.8602 29.4929C30.056 29.4929 30.2844 29.4277 30.5129 29.4603C30.6761 29.4929 30.9045 29.6235 30.9698 29.7867C31.3941 31.0269 31.7857 32.267 32.1447 33.5072ZM29.8928 31.8428C30.2518 31.908 30.5129 32.0386 30.8393 31.7775C30.7087 31.3532 30.6108 30.929 30.4476 30.4068C29.9907 30.8637 30.056 31.3532 29.8928 31.8428Z" fill="#095434"/>
<path id="Vector_30" d="M72.3529 33.4748C71.6023 33.7032 71.5696 33.7032 71.3738 33.1158C71.2433 32.6589 70.9495 32.5936 70.5579 32.5936C70.101 32.5936 69.9052 32.7242 69.7746 33.1484C69.6114 33.7032 69.5788 33.7032 68.8934 33.5074C69.2851 32.202 69.6767 30.8965 70.101 29.5258C70.2968 29.5258 70.5253 29.4279 70.7537 29.4931C70.9169 29.5258 71.1454 29.6563 71.2106 29.8195C71.5696 30.9944 71.9613 32.202 72.3529 33.4748ZM71.1454 31.8756C70.819 31.3534 71.0148 30.7986 70.4274 30.4396C70.2968 30.9291 70.1989 31.3534 70.0683 31.8756C70.46 31.8756 70.7211 31.8756 71.1454 31.8756Z" fill="#095434"/>
<path id="Vector_31" d="M66.054 29.493C66.6741 29.493 67.2289 29.4604 67.7511 29.493C68.567 29.5583 68.9587 30.1458 68.8934 30.9617C68.8281 31.6797 68.3386 32.0713 67.5553 32.0387C66.8699 32.006 66.8699 32.006 66.9352 32.6914C66.9352 32.9525 66.9352 33.2136 66.9352 33.442C66.1846 33.6705 66.0866 33.6379 66.0866 32.9851C66.054 31.8755 66.054 30.7332 66.054 29.493ZM67.3921 30.1784C66.9678 30.1784 66.8699 30.2763 66.8373 30.7332C66.8046 31.2228 66.9352 31.3533 67.2942 31.3859C67.7185 31.3859 68.0775 31.1575 68.1101 30.7985C68.1427 30.4721 67.849 30.211 67.3921 30.1784Z" fill="#095434"/>
<path id="Vector_32" d="M83.8409 33.5069C84.2325 32.1688 84.6242 30.8633 85.0484 29.5252C85.2116 29.4926 85.4074 29.4926 85.6033 29.46C85.897 29.4273 86.0928 29.5579 86.1907 29.8516C86.5497 31.0592 86.9413 32.2667 87.3003 33.4743C86.615 33.7027 86.5497 33.6701 86.3539 33.1153C86.1581 32.5604 86.1254 32.5931 85.5053 32.5604C85.0484 32.5278 84.8526 32.691 84.7547 33.1479C84.6242 33.6374 84.5589 33.6374 83.8409 33.5069ZM85.0484 31.8751C85.4074 31.8751 85.7012 31.8751 86.0602 31.8751C85.8643 31.3529 85.8317 30.8307 85.4401 30.3412C85.2769 30.896 85.179 31.3203 85.0484 31.8751Z" fill="#095434"/>
<path id="Vector_33" d="M62.105 30.2106C62.105 30.537 62.105 30.8307 62.105 31.2223C62.4967 31.1897 62.823 31.1571 63.1494 31.1571C63.6716 31.1571 63.7042 31.1897 63.639 31.8751C63.1494 31.8751 62.6925 31.8751 62.105 31.8751C62.105 32.332 62.105 32.7236 62.105 33.1152C62.105 33.3437 62.0724 33.5395 61.8113 33.6048C61.4523 33.7027 61.2239 33.5069 61.2239 33.1152C61.2239 31.9403 61.2239 30.7654 61.2239 29.5252C62.0724 29.4273 62.921 29.5252 63.8021 29.46C63.8021 29.7537 63.8021 29.9495 63.8021 30.2432C63.2147 30.2106 62.6925 30.2106 62.105 30.2106Z" fill="#095434"/>
<path id="Vector_34" d="M32.9607 30.3087C31.851 30.1455 31.851 30.1455 31.8184 29.6234C32.2426 29.4602 34.005 29.4275 34.8862 29.5581C34.8536 29.7539 34.8536 29.9824 34.8209 30.2108C34.4619 30.2108 34.2008 30.2108 33.8745 30.2108C33.6134 30.7656 33.7766 31.3205 33.7439 31.8426C33.7113 32.3975 33.7439 32.9196 33.7439 33.5397C33.4828 33.5397 33.2544 33.5397 32.9607 33.5397C32.9607 32.4627 32.9607 31.4184 32.9607 30.3087Z" fill="#095434"/>
<path id="Vector_35" d="M82.9598 33.6048C82.666 33.6048 82.4376 33.5722 82.1439 33.5722C82.1439 32.4299 82.1439 31.3529 82.1439 30.2759C81.0669 30.178 81.0669 30.178 81.0995 29.46C81.4911 29.46 81.9154 29.46 82.307 29.46C82.7313 29.46 83.1556 29.46 83.5472 29.46C84.1347 29.46 84.1347 29.4926 84.0041 30.2106C83.6778 30.2106 83.3514 30.2432 82.9598 30.2759C82.9598 31.3529 82.9598 32.4299 82.9598 33.6048Z" fill="#095434"/>
<path id="Vector_36" d="M27.0534 30.2763C25.9764 30.2436 25.9764 30.2436 25.9438 29.493C26.2375 29.493 26.5313 29.4604 26.825 29.4604C27.3798 29.4604 27.902 29.4604 28.4568 29.4277C28.7179 29.4277 28.9464 29.4277 28.9464 29.7867C28.9464 30.1131 28.8158 30.2763 28.4568 30.2436C28.261 30.211 28.0652 30.2436 27.8041 30.2436C27.8041 31.3533 27.8041 32.3977 27.8041 33.442C27.1187 33.6705 26.9882 33.6378 26.9882 33.0177C26.9882 32.2997 27.0208 31.6144 27.0208 30.8964C27.1187 30.7006 27.0861 30.5047 27.0534 30.2763Z" fill="#095434"/>
<path id="Vector_37" d="M76.563 29.46C76.8241 29.46 77.0199 29.4926 77.3136 29.4926C77.3136 30.7981 77.3463 32.0382 77.3136 33.2784C77.3136 33.768 76.922 33.6374 76.5956 33.5722C76.563 32.2014 76.563 30.896 76.563 29.46Z" fill="#095434"/>
<path id="Vector_38" d="M20.7873 50.5759C21.9408 50.5759 22.876 49.6407 22.876 48.4872C22.876 47.3336 21.9408 46.3984 20.7873 46.3984C19.6337 46.3984 18.6985 47.3336 18.6985 48.4872C18.6985 49.6407 19.6337 50.5759 20.7873 50.5759Z" fill="url(#paint12_linear_1255_3001)"/>
<path id="Vector_39" d="M45.3951 50.5759C46.5487 50.5759 47.4839 49.6407 47.4839 48.4872C47.4839 47.3336 46.5487 46.3984 45.3951 46.3984C44.2416 46.3984 43.3064 47.3336 43.3064 48.4872C43.3064 49.6407 44.2416 50.5759 45.3951 50.5759Z" fill="url(#paint13_linear_1255_3001)"/>
<path id="Vector_40" d="M70.0031 50.5759C71.1566 50.5759 72.0918 49.6407 72.0918 48.4872C72.0918 47.3336 71.1566 46.3984 70.0031 46.3984C68.8495 46.3984 67.9143 47.3336 67.9143 48.4872C67.9143 49.6407 68.8495 50.5759 70.0031 50.5759Z" fill="url(#paint14_linear_1255_3001)"/>
<path id="Vector_41" d="M94.1541 50.5759C95.3076 50.5759 96.2428 49.6407 96.2428 48.4872C96.2428 47.3336 95.3076 46.3984 94.1541 46.3984C93.0005 46.3984 92.0653 47.3336 92.0653 48.4872C92.0653 49.6407 93.0005 50.5759 94.1541 50.5759Z" fill="url(#paint15_linear_1255_3001)"/>
<path id="Vector_42" d="M20.9831 25.6748C21.4337 25.6748 21.799 25.3095 21.799 24.8589C21.799 24.4083 21.4337 24.043 20.9831 24.043C20.5325 24.043 20.1672 24.4083 20.1672 24.8589C20.1672 25.3095 20.5325 25.6748 20.9831 25.6748Z" fill="url(#paint16_linear_1255_3001)"/>
<path id="Vector_43" d="M26.1722 25.6748C26.6229 25.6748 26.9881 25.3095 26.9881 24.8589C26.9881 24.4083 26.6229 24.043 26.1722 24.043C25.7216 24.043 25.3563 24.4083 25.3563 24.8589C25.3563 25.3095 25.7216 25.6748 26.1722 25.6748Z" fill="url(#paint17_linear_1255_3001)"/>
<path id="Vector_44" d="M31.3288 25.6748C31.7794 25.6748 32.1447 25.3095 32.1447 24.8589C32.1447 24.4083 31.7794 24.043 31.3288 24.043C30.8782 24.043 30.5129 24.4083 30.5129 24.8589C30.5129 25.3095 30.8782 25.6748 31.3288 25.6748Z" fill="url(#paint18_linear_1255_3001)"/>
<path id="Vector_45" d="M36.518 25.6748C36.9686 25.6748 37.3339 25.3095 37.3339 24.8589C37.3339 24.4083 36.9686 24.043 36.518 24.043C36.0674 24.043 35.7021 24.4083 35.7021 24.8589C35.7021 25.3095 36.0674 25.6748 36.518 25.6748Z" fill="url(#paint19_linear_1255_3001)"/>
<path id="Vector_46" d="M41.6746 25.6748C42.1252 25.6748 42.4905 25.3095 42.4905 24.8589C42.4905 24.4083 42.1252 24.043 41.6746 24.043C41.224 24.043 40.8587 24.4083 40.8587 24.8589C40.8587 25.3095 41.224 25.6748 41.6746 25.6748Z" fill="url(#paint20_linear_1255_3001)"/>
<path id="Vector_47" d="M46.8638 25.6748C47.3144 25.6748 47.6797 25.3095 47.6797 24.8589C47.6797 24.4083 47.3144 24.043 46.8638 24.043C46.4132 24.043 46.0479 24.4083 46.0479 24.8589C46.0479 25.3095 46.4132 25.6748 46.8638 25.6748Z" fill="url(#paint21_linear_1255_3001)"/>
<path id="Vector_48" d="M52.0203 25.6748C52.4709 25.6748 52.8362 25.3095 52.8362 24.8589C52.8362 24.4083 52.4709 24.043 52.0203 24.043C51.5697 24.043 51.2044 24.4083 51.2044 24.8589C51.2044 25.3095 51.5697 25.6748 52.0203 25.6748Z" fill="url(#paint22_linear_1255_3001)"/>
<path id="Vector_49" d="M57.2096 25.6748C57.6602 25.6748 58.0255 25.3095 58.0255 24.8589C58.0255 24.4083 57.6602 24.043 57.2096 24.043C56.7589 24.043 56.3936 24.4083 56.3936 24.8589C56.3936 25.3095 56.7589 25.6748 57.2096 25.6748Z" fill="url(#paint23_linear_1255_3001)"/>
<path id="Vector_50" d="M62.3661 25.6748C62.8168 25.6748 63.1821 25.3095 63.1821 24.8589C63.1821 24.4083 62.8168 24.043 62.3661 24.043C61.9155 24.043 61.5502 24.4083 61.5502 24.8589C61.5502 25.3095 61.9155 25.6748 62.3661 25.6748Z" fill="url(#paint24_linear_1255_3001)"/>
<path id="Vector_51" d="M67.5553 25.6748C68.0059 25.6748 68.3712 25.3095 68.3712 24.8589C68.3712 24.4083 68.0059 24.043 67.5553 24.043C67.1047 24.043 66.7394 24.4083 66.7394 24.8589C66.7394 25.3095 67.1047 25.6748 67.5553 25.6748Z" fill="url(#paint25_linear_1255_3001)"/>
<path id="Vector_52" d="M72.7119 25.6748C73.1625 25.6748 73.5278 25.3095 73.5278 24.8589C73.5278 24.4083 73.1625 24.043 72.7119 24.043C72.2613 24.043 71.896 24.4083 71.896 24.8589C71.896 25.3095 72.2613 25.6748 72.7119 25.6748Z" fill="url(#paint26_linear_1255_3001)"/>
<path id="Vector_53" d="M77.9011 25.6748C78.3517 25.6748 78.717 25.3095 78.717 24.8589C78.717 24.4083 78.3517 24.043 77.9011 24.043C77.4504 24.043 77.0851 24.4083 77.0851 24.8589C77.0851 25.3095 77.4504 25.6748 77.9011 25.6748Z" fill="url(#paint27_linear_1255_3001)"/>
<path id="Vector_54" d="M83.0576 25.6748C83.5083 25.6748 83.8736 25.3095 83.8736 24.8589C83.8736 24.4083 83.5083 24.043 83.0576 24.043C82.607 24.043 82.2417 24.4083 82.2417 24.8589C82.2417 25.3095 82.607 25.6748 83.0576 25.6748Z" fill="url(#paint28_linear_1255_3001)"/>
<path id="Vector_55" d="M88.2468 25.6748C88.6974 25.6748 89.0627 25.3095 89.0627 24.8589C89.0627 24.4083 88.6974 24.043 88.2468 24.043C87.7962 24.043 87.4309 24.4083 87.4309 24.8589C87.4309 25.3095 87.7962 25.6748 88.2468 25.6748Z" fill="url(#paint29_linear_1255_3001)"/>
<path id="Vector_56" d="M93.436 25.6748C93.8867 25.6748 94.252 25.3095 94.252 24.8589C94.252 24.4083 93.8867 24.043 93.436 24.043C92.9854 24.043 92.6201 24.4083 92.6201 24.8589C92.6201 25.3095 92.9854 25.6748 93.436 25.6748Z" fill="url(#paint30_linear_1255_3001)"/>
<path id="Vector_57" d="M20.7873 50.5759C21.9408 50.5759 22.876 49.6407 22.876 48.4872C22.876 47.3336 21.9408 46.3984 20.7873 46.3984C19.6337 46.3984 18.6985 47.3336 18.6985 48.4872C18.6985 49.6407 19.6337 50.5759 20.7873 50.5759Z" fill="url(#paint31_linear_1255_3001)"/>
<path id="Vector_58" d="M45.3951 50.5759C46.5487 50.5759 47.4839 49.6407 47.4839 48.4872C47.4839 47.3336 46.5487 46.3984 45.3951 46.3984C44.2416 46.3984 43.3064 47.3336 43.3064 48.4872C43.3064 49.6407 44.2416 50.5759 45.3951 50.5759Z" fill="url(#paint32_linear_1255_3001)"/>
<path id="Vector_59" d="M70.0031 50.5759C71.1566 50.5759 72.0918 49.6407 72.0918 48.4872C72.0918 47.3336 71.1566 46.3984 70.0031 46.3984C68.8495 46.3984 67.9143 47.3336 67.9143 48.4872C67.9143 49.6407 68.8495 50.5759 70.0031 50.5759Z" fill="url(#paint33_linear_1255_3001)"/>
<path id="Vector_60" d="M94.1541 50.5759C95.3076 50.5759 96.2428 49.6407 96.2428 48.4872C96.2428 47.3336 95.3076 46.3984 94.1541 46.3984C93.0005 46.3984 92.0653 47.3336 92.0653 48.4872C92.0653 49.6407 93.0005 50.5759 94.1541 50.5759Z" fill="url(#paint34_linear_1255_3001)"/>
<path id="Vector_61" d="M20.7873 50.5759C21.9408 50.5759 22.876 49.6407 22.876 48.4872C22.876 47.3336 21.9408 46.3984 20.7873 46.3984C19.6337 46.3984 18.6985 47.3336 18.6985 48.4872C18.6985 49.6407 19.6337 50.5759 20.7873 50.5759Z" fill="url(#paint35_linear_1255_3001)"/>
<path id="Vector_62" d="M45.3951 50.5759C46.5487 50.5759 47.4839 49.6407 47.4839 48.4872C47.4839 47.3336 46.5487 46.3984 45.3951 46.3984C44.2416 46.3984 43.3064 47.3336 43.3064 48.4872C43.3064 49.6407 44.2416 50.5759 45.3951 50.5759Z" fill="url(#paint36_linear_1255_3001)"/>
<path id="Vector_63" d="M70.0031 50.5759C71.1566 50.5759 72.0918 49.6407 72.0918 48.4872C72.0918 47.3336 71.1566 46.3984 70.0031 46.3984C68.8495 46.3984 67.9143 47.3336 67.9143 48.4872C67.9143 49.6407 68.8495 50.5759 70.0031 50.5759Z" fill="url(#paint37_linear_1255_3001)"/>
<path id="Vector_64" d="M94.1541 50.5759C95.3076 50.5759 96.2428 49.6407 96.2428 48.4872C96.2428 47.3336 95.3076 46.3984 94.1541 46.3984C93.0005 46.3984 92.0653 47.3336 92.0653 48.4872C92.0653 49.6407 93.0005 50.5759 94.1541 50.5759Z" fill="url(#paint38_linear_1255_3001)"/>
</g>
<defs>
<linearGradient id="paint0_linear_1255_3001" x1="9.27181" y1="48.4782" x2="106.261" y2="48.4782" gradientUnits="userSpaceOnUse">
<stop stop-color="#067C43"/>
<stop offset="1" stop-color="#054C34"/>
</linearGradient>
<linearGradient id="paint1_linear_1255_3001" x1="13.8724" y1="74.1935" x2="112.311" y2="74.1935" gradientUnits="userSpaceOnUse">
<stop stop-color="#067C43"/>
<stop offset="1" stop-color="#054C34"/>
</linearGradient>
<linearGradient id="paint2_linear_1255_3001" x1="15.1762" y1="28.7848" x2="101.017" y2="28.7848" gradientUnits="userSpaceOnUse">
<stop stop-color="#067C43"/>
<stop offset="1" stop-color="#054C34"/>
</linearGradient>
<linearGradient id="paint3_linear_1255_3001" x1="17.2916" y1="9.53463" x2="99.1364" y2="9.53463" gradientUnits="userSpaceOnUse">
<stop stop-color="#067C43"/>
<stop offset="1" stop-color="#054C34"/>
</linearGradient>
<linearGradient id="paint4_linear_1255_3001" x1="9.33806" y1="39.8573" x2="106.758" y2="39.8573" gradientUnits="userSpaceOnUse">
<stop stop-color="#067C43"/>
<stop offset="1" stop-color="#054C34"/>
</linearGradient>
<linearGradient id="paint5_linear_1255_3001" x1="24.4912" y1="68.5412" x2="37.2031" y2="68.5412" gradientUnits="userSpaceOnUse">
<stop stop-color="#054C34"/>
<stop offset="1" stop-color="#067C43"/>
</linearGradient>
<linearGradient id="paint6_linear_1255_3001" x1="7.88542" y1="95.2652" x2="103.225" y2="95.2652" gradientUnits="userSpaceOnUse">
<stop stop-color="#067C43"/>
<stop offset="1" stop-color="#054C34"/>
</linearGradient>
<linearGradient id="paint7_linear_1255_3001" x1="12.5582" y1="90.133" x2="107.083" y2="90.133" gradientUnits="userSpaceOnUse">
<stop stop-color="#067C43"/>
<stop offset="1" stop-color="#054C34"/>
</linearGradient>
<linearGradient id="paint8_linear_1255_3001" x1="14.9448" y1="54.8073" x2="101.123" y2="54.8073" gradientUnits="userSpaceOnUse">
<stop stop-color="#067C43"/>
<stop offset="1" stop-color="#054C34"/>
</linearGradient>
<linearGradient id="paint9_linear_1255_3001" x1="14.9809" y1="20.0099" x2="101.403" y2="20.0099" gradientUnits="userSpaceOnUse">
<stop stop-color="#067C43"/>
<stop offset="1" stop-color="#054C34"/>
</linearGradient>
<linearGradient id="paint10_linear_1255_3001" x1="76.9877" y1="68.5817" x2="89.7259" y2="68.5817" gradientUnits="userSpaceOnUse">
<stop stop-color="#054C34"/>
<stop offset="1" stop-color="#067C43"/>
</linearGradient>
<linearGradient id="paint11_linear_1255_3001" x1="50.3266" y1="68.5864" x2="62.9835" y2="68.5864" gradientUnits="userSpaceOnUse">
<stop stop-color="#054C34"/>
<stop offset="1" stop-color="#067C43"/>
</linearGradient>
<linearGradient id="paint12_linear_1255_3001" x1="18.7078" y1="48.4778" x2="22.8939" y2="48.4778" gradientUnits="userSpaceOnUse">
<stop stop-color="#067C43"/>
<stop offset="1" stop-color="#054C34"/>
</linearGradient>
<linearGradient id="paint13_linear_1255_3001" x1="43.3007" y1="48.4778" x2="47.4869" y2="48.4778" gradientUnits="userSpaceOnUse">
<stop stop-color="#067C43"/>
<stop offset="1" stop-color="#054C34"/>
</linearGradient>
<linearGradient id="paint14_linear_1255_3001" x1="67.8937" y1="48.4778" x2="72.08" y2="48.4778" gradientUnits="userSpaceOnUse">
<stop stop-color="#067C43"/>
<stop offset="1" stop-color="#054C34"/>
</linearGradient>
<linearGradient id="paint15_linear_1255_3001" x1="92.0447" y1="48.4778" x2="96.231" y2="48.4778" gradientUnits="userSpaceOnUse">
<stop stop-color="#067C43"/>
<stop offset="1" stop-color="#054C34"/>
</linearGradient>
<linearGradient id="paint16_linear_1255_3001" x1="20.158" y1="24.8681" x2="21.8162" y2="24.8681" gradientUnits="userSpaceOnUse">
<stop stop-color="#067C43"/>
<stop offset="1" stop-color="#054C34"/>
</linearGradient>
<linearGradient id="paint17_linear_1255_3001" x1="25.3318" y1="24.8681" x2="26.9901" y2="24.8681" gradientUnits="userSpaceOnUse">
<stop stop-color="#067C43"/>
<stop offset="1" stop-color="#054C34"/>
</linearGradient>
<linearGradient id="paint18_linear_1255_3001" x1="30.5057" y1="24.8681" x2="32.164" y2="24.8681" gradientUnits="userSpaceOnUse">
<stop stop-color="#067C43"/>
<stop offset="1" stop-color="#054C34"/>
</linearGradient>
<linearGradient id="paint19_linear_1255_3001" x1="35.6796" y1="24.8681" x2="37.3379" y2="24.8681" gradientUnits="userSpaceOnUse">
<stop stop-color="#067C43"/>
<stop offset="1" stop-color="#054C34"/>
</linearGradient>
<linearGradient id="paint20_linear_1255_3001" x1="40.8535" y1="24.8681" x2="42.5118" y2="24.8681" gradientUnits="userSpaceOnUse">
<stop stop-color="#067C43"/>
<stop offset="1" stop-color="#054C34"/>
</linearGradient>
<linearGradient id="paint21_linear_1255_3001" x1="46.0275" y1="24.8681" x2="47.6857" y2="24.8681" gradientUnits="userSpaceOnUse">
<stop stop-color="#067C43"/>
<stop offset="1" stop-color="#054C34"/>
</linearGradient>
<linearGradient id="paint22_linear_1255_3001" x1="51.2013" y1="24.8681" x2="52.8595" y2="24.8681" gradientUnits="userSpaceOnUse">
<stop stop-color="#067C43"/>
<stop offset="1" stop-color="#054C34"/>
</linearGradient>
<linearGradient id="paint23_linear_1255_3001" x1="56.3752" y1="24.8681" x2="58.0335" y2="24.8681" gradientUnits="userSpaceOnUse">
<stop stop-color="#067C43"/>
<stop offset="1" stop-color="#054C34"/>
</linearGradient>
<linearGradient id="paint24_linear_1255_3001" x1="61.5492" y1="24.8681" x2="63.2074" y2="24.8681" gradientUnits="userSpaceOnUse">
<stop stop-color="#067C43"/>
<stop offset="1" stop-color="#054C34"/>
</linearGradient>
<linearGradient id="paint25_linear_1255_3001" x1="66.723" y1="24.8681" x2="68.3813" y2="24.8681" gradientUnits="userSpaceOnUse">
<stop stop-color="#067C43"/>
<stop offset="1" stop-color="#054C34"/>
</linearGradient>
<linearGradient id="paint26_linear_1255_3001" x1="71.8969" y1="24.8681" x2="73.5552" y2="24.8681" gradientUnits="userSpaceOnUse">
<stop stop-color="#067C43"/>
<stop offset="1" stop-color="#054C34"/>
</linearGradient>
<linearGradient id="paint27_linear_1255_3001" x1="77.0708" y1="24.8681" x2="78.729" y2="24.8681" gradientUnits="userSpaceOnUse">
<stop stop-color="#067C43"/>
<stop offset="1" stop-color="#054C34"/>
</linearGradient>
<linearGradient id="paint28_linear_1255_3001" x1="82.2447" y1="24.8681" x2="83.903" y2="24.8681" gradientUnits="userSpaceOnUse">
<stop stop-color="#067C43"/>
<stop offset="1" stop-color="#054C34"/>
</linearGradient>
<linearGradient id="paint29_linear_1255_3001" x1="87.4186" y1="24.8681" x2="89.0768" y2="24.8681" gradientUnits="userSpaceOnUse">
<stop stop-color="#067C43"/>
<stop offset="1" stop-color="#054C34"/>
</linearGradient>
<linearGradient id="paint30_linear_1255_3001" x1="92.5925" y1="24.8681" x2="94.2508" y2="24.8681" gradientUnits="userSpaceOnUse">
<stop stop-color="#067C43"/>
<stop offset="1" stop-color="#054C34"/>
</linearGradient>
<linearGradient id="paint31_linear_1255_3001" x1="18.7078" y1="48.4778" x2="22.8939" y2="48.4778" gradientUnits="userSpaceOnUse">
<stop stop-color="#067C43"/>
<stop offset="1" stop-color="#054C34"/>
</linearGradient>
<linearGradient id="paint32_linear_1255_3001" x1="43.3007" y1="48.4778" x2="47.4869" y2="48.4778" gradientUnits="userSpaceOnUse">
<stop stop-color="#067C43"/>
<stop offset="1" stop-color="#054C34"/>
</linearGradient>
<linearGradient id="paint33_linear_1255_3001" x1="67.8937" y1="48.4778" x2="72.08" y2="48.4778" gradientUnits="userSpaceOnUse">
<stop stop-color="#067C43"/>
<stop offset="1" stop-color="#054C34"/>
</linearGradient>
<linearGradient id="paint34_linear_1255_3001" x1="92.0447" y1="48.4778" x2="96.231" y2="48.4778" gradientUnits="userSpaceOnUse">
<stop stop-color="#067C43"/>
<stop offset="1" stop-color="#054C34"/>
</linearGradient>
<linearGradient id="paint35_linear_1255_3001" x1="18.7078" y1="48.4778" x2="22.8939" y2="48.4778" gradientUnits="userSpaceOnUse">
<stop stop-color="#067C43"/>
<stop offset="1" stop-color="#054C34"/>
</linearGradient>
<linearGradient id="paint36_linear_1255_3001" x1="43.3007" y1="48.4778" x2="47.4869" y2="48.4778" gradientUnits="userSpaceOnUse">
<stop stop-color="#067C43"/>
<stop offset="1" stop-color="#054C34"/>
</linearGradient>
<linearGradient id="paint37_linear_1255_3001" x1="67.8937" y1="48.4778" x2="72.08" y2="48.4778" gradientUnits="userSpaceOnUse">
<stop stop-color="#067C43"/>
<stop offset="1" stop-color="#054C34"/>
</linearGradient>
<linearGradient id="paint38_linear_1255_3001" x1="92.0447" y1="48.4778" x2="96.231" y2="48.4778" gradientUnits="userSpaceOnUse">
<stop stop-color="#067C43"/>
<stop offset="1" stop-color="#054C34"/>
</linearGradient>
</defs>
</svg>
