<svg width="48" height="48" viewBox="0 0 48 48" fill="none" xmlns="http://www.w3.org/2000/svg">
<rect width="48" height="48" rx="24" fill="#F8F8F8"/>
<g clip-path="url(#clip0_1205_86380)">
<path d="M24.5 33H18C17.4696 33 16.9609 32.7893 16.5858 32.4142C16.2107 32.0391 16 31.5304 16 31V19C16 18.4696 16.2107 17.9609 16.5858 17.5858C16.9609 17.2107 17.4696 17 18 17H30C30.5304 17 31.0391 17.2107 31.4142 17.5858C31.7893 17.9609 32 18.4696 32 19V24" stroke="#EA5148" stroke-width="1.5" stroke-linecap="round" stroke-linejoin="round"/>
<path d="M28 15V19" stroke="#EA5148" stroke-width="1.5" stroke-linecap="round" stroke-linejoin="round"/>
<path d="M20 15V19" stroke="#EA5148" stroke-width="1.5" stroke-linecap="round" stroke-linejoin="round"/>
<path d="M16 23H32" stroke="#EA5148" stroke-width="1.5" stroke-linecap="round" stroke-linejoin="round"/>
<path d="M28 31H34" stroke="#EA5148" stroke-width="1.5" stroke-linecap="round" stroke-linejoin="round"/>
<path d="M31 28V34" stroke="#EA5148" stroke-width="1.5" stroke-linecap="round" stroke-linejoin="round"/>
</g>
<defs>
<clipPath id="clip0_1205_86380">
<rect width="24" height="24" fill="white" transform="translate(12 12)"/>
</clipPath>
</defs>
</svg>
