<svg width="49" height="48" viewBox="0 0 49 48" fill="none" xmlns="http://www.w3.org/2000/svg">
<rect x="0.428467" width="48" height="48" rx="24" fill="#F8F8F8"/>
<g clip-path="url(#clip0_1205_86419)">
<path d="M26.4285 15V19C26.4285 19.2652 26.5338 19.5196 26.7214 19.7071C26.9089 19.8946 27.1633 20 27.4285 20H31.4285" stroke="#EA5148" stroke-width="1.5" stroke-linecap="round" stroke-linejoin="round"/>
<path d="M29.4285 33H19.4285C18.898 33 18.3893 32.7893 18.0143 32.4142C17.6392 32.0391 17.4285 31.5304 17.4285 31V17C17.4285 16.4696 17.6392 15.9609 18.0143 15.5858C18.3893 15.2107 18.898 15 19.4285 15H26.4285L31.4285 20V31C31.4285 31.5304 31.2178 32.0391 30.8427 32.4142C30.4676 32.7893 29.9589 33 29.4285 33Z" stroke="#EA5148" stroke-width="1.5" stroke-linecap="round" stroke-linejoin="round"/>
<path d="M21.4285 29H27.4285" stroke="#EA5148" stroke-width="1.5" stroke-linecap="round" stroke-linejoin="round"/>
<path d="M21.4285 25H27.4285" stroke="#EA5148" stroke-width="1.5" stroke-linecap="round" stroke-linejoin="round"/>
</g>
<defs>
<clipPath id="clip0_1205_86419">
<rect width="24" height="24" fill="white" transform="translate(12.4285 12)"/>
</clipPath>
</defs>
</svg>
